<svg width="137" height="137" viewBox="0 0 137 137" fill="none" xmlns="http://www.w3.org/2000/svg">
<path d="M59.8932 133.758L64.1009 114.824L61.8655 109.038" stroke="white" stroke-width="5" stroke-linecap="round" stroke-linejoin="round"/>
<path d="M77.776 99.5709L72.5164 114.824L76.7241 133.759" stroke="white" stroke-width="5" stroke-linecap="round" stroke-linejoin="round"/>
<path d="M17.8162 99.2132V97.993C17.8162 85.2015 28.1671 74.8506 40.9585 74.8506H51.4778" stroke="white" stroke-width="5" stroke-linecap="round" stroke-linejoin="round"/>
<path d="M49.3739 97.993L53.5816 104.305L57.9155 99.9707L68.3085 89.5776L51.4777 81.1622L47.27 85.3699L38.8546 89.8722" stroke="white" stroke-width="5" stroke-linecap="round" stroke-linejoin="round"/>
<path d="M26.2315 94.3954L19.9199 97.993C19.1836 98.3506 18.4893 98.7714 17.8161 99.2132C3.08911 108.744 3.08911 133.758 3.08911 133.758" stroke="white" stroke-width="5" stroke-linecap="round" stroke-linejoin="round"/>
<path d="M26.2316 133.758V94.3954V91.6814" stroke="white" stroke-width="5" stroke-linecap="round" stroke-linejoin="round"/>
<path d="M38.8546 87.4738V89.8721V133.759" stroke="white" stroke-width="5" stroke-linecap="round" stroke-linejoin="round"/>
<path d="M87.2433 97.993L83.0356 104.305L78.4492 99.7182L68.3086 89.5776L85.1394 81.1622L89.3471 85.3699L97.7625 89.8722" stroke="white" stroke-width="5" stroke-linecap="round" stroke-linejoin="round"/>
<path d="M110.386 94.3954L116.697 97.993C117.434 98.3506 118.128 98.7714 118.801 99.2132C133.528 108.744 133.528 133.758 133.528 133.758" stroke="white" stroke-width="5" stroke-linecap="round" stroke-linejoin="round"/>
<path d="M118.801 99.2132V97.993C118.801 85.2015 108.45 74.8506 95.6587 74.8506H85.1394" stroke="white" stroke-width="5" stroke-linecap="round" stroke-linejoin="round"/>
<path d="M110.386 133.758V94.3954V91.6814" stroke="white" stroke-width="5" stroke-linecap="round" stroke-linejoin="round"/>
<path d="M97.7626 87.4738V89.8721V133.759" stroke="white" stroke-width="5" stroke-linecap="round" stroke-linejoin="round"/>
<path d="M51.4778 66.1407C41.4214 60.313 34.647 49.4361 34.647 36.9813C34.647 18.3832 49.7106 3.31964 68.3086 3.31964C86.9067 3.31964 101.97 18.3832 101.97 36.9813C101.97 49.4361 95.1958 60.313 85.1394 66.1407" stroke="white" stroke-width="5" stroke-linecap="round" stroke-linejoin="round"/>
<path d="M57.8104 70.2221C55.4331 69.0229 53.3082 67.403 51.4778 65.4885C47.5647 61.3439 45.1663 55.7687 45.1663 49.6044V39.0851C59.0096 39.0851 71.2751 32.3528 78.9331 22.0229C79.7115 29.0287 84.7818 34.7091 91.451 36.4343V49.6044C91.451 55.7476 89.0526 61.3439 85.1395 65.4885C83.3301 67.403 81.1842 69.0229 78.8279 70.2221" stroke="white" stroke-width="5" stroke-linecap="round" stroke-linejoin="round"/>
<path d="M51.4778 65.4885V66.1407V74.8507V81.1622" stroke="white" stroke-width="5" stroke-linecap="round" stroke-linejoin="round"/>
<path d="M85.1394 65.4885V66.1407V74.8507V81.1622" stroke="white" stroke-width="5" stroke-linecap="round" stroke-linejoin="round"/>
</svg>
