<svg width="111" height="175" viewBox="0 0 111 175" fill="none" xmlns="http://www.w3.org/2000/svg">
<path d="M8.31574 150.494C5.9563 149.668 5.95578 149.669 5.95539 149.671L5.95441 149.672C5.95389 149.674 5.95398 149.676 5.95344 149.677C5.95235 149.68 5.95069 149.684 5.94953 149.687C5.94726 149.694 5.94522 149.701 5.9427 149.709C5.93757 149.724 5.93117 149.741 5.92512 149.76C5.91295 149.799 5.89928 149.845 5.8841 149.899C5.85377 150.006 5.81891 150.143 5.78254 150.31C5.70964 150.645 5.63205 151.1 5.58234 151.674C5.48278 152.826 5.49396 154.445 5.85383 156.536C6.23141 158.729 7.06065 160.817 7.75324 162.302C8.10549 163.058 8.43603 163.687 8.68098 164.13C8.80361 164.353 8.9055 164.53 8.97883 164.655C9.01543 164.717 9.0452 164.767 9.06672 164.802C9.0775 164.82 9.08645 164.835 9.09309 164.846C9.09614 164.851 9.09877 164.856 9.1009 164.859C9.10191 164.861 9.10304 164.863 9.10383 164.864L9.1048 164.866L9.10578 164.867L11.2337 163.555L9.10578 164.868L9.38508 165.32L9.82355 165.62C18.0453 171.234 29.9207 172.611 41.3529 171.505C52.8424 170.394 64.4407 166.724 72.4075 161.632C80.2404 156.624 86.0898 151.536 90.7952 145.327C95.4908 139.13 98.9587 131.933 102.175 122.829C105.448 113.565 106.981 102.718 107.706 94.2828C108.071 90.0462 108.234 86.3782 108.307 83.7662C108.343 82.4596 108.357 81.4153 108.362 80.6949C108.364 80.3347 108.363 80.055 108.363 79.8639C108.362 79.7684 108.362 79.6946 108.362 79.6441C108.362 79.6411 108.362 79.6382 108.362 79.6353C108.363 79.5963 108.365 79.5427 108.368 79.4752C108.372 79.3322 108.377 79.1261 108.38 78.8619C108.387 78.3334 108.388 77.5699 108.364 76.608C108.314 74.6853 108.164 71.961 107.76 68.7174C106.954 62.2458 105.13 53.6219 101.025 45.1588C92.6124 27.815 74.968 23.0938 73.2923 22.6246C73.0398 22.5539 72.7885 22.4933 72.5941 22.4459C72.3841 22.3947 72.2244 22.355 72.0755 22.3121C71.7847 22.2282 71.6409 22.1597 71.5511 22.1012C71.4863 22.059 71.106 21.8344 70.7982 20.5064C70.1746 17.8029 69.1376 9.48342 68.764 6.39999C68.7107 5.95926 68.5697 5.53433 68.3499 5.14999L68.2503 4.98691L68.1419 4.83066C67.9165 4.52427 67.6407 4.25832 67.3255 4.0455L67.1644 3.94394L66.9974 3.85117C66.66 3.67592 66.295 3.56011 65.9183 3.50839L65.7288 3.48788L65.5384 3.47812C65.0968 3.46857 64.6573 3.54765 64.2454 3.71054V3.70956C62.8153 4.27397 60.7697 5.10185 59.3577 5.34726L59.3568 5.34824C57.9623 5.59117 56.8689 5.97119 56.0941 6.60117C55.675 6.94192 55.3223 7.37907 55.1116 7.91171C55.0087 8.17202 54.9499 8.42967 54.9261 8.67441C54.9143 8.79557 54.911 8.91136 54.9144 9.01913C54.9161 9.07279 54.9196 9.1248 54.9241 9.17441C54.9264 9.19903 54.9291 9.22311 54.932 9.24667C54.9334 9.25857 54.9353 9.27119 54.9368 9.28281C54.9376 9.28836 54.938 9.29392 54.9388 9.29941L54.9407 9.3082C55.0933 10.6056 55.5656 12.439 56.0843 14.235C56.6326 16.1332 57.2936 18.198 57.8626 19.9537C58.384 21.5801 58.8059 23.2367 59.1243 24.9146V24.9156C59.2246 25.4506 59.2378 25.9982 59.1654 26.5377V26.5426C58.5622 31.0883 58.1591 37.0475 57.9066 41.8228C57.7798 44.2207 57.6902 46.3392 57.6321 47.858C57.6031 48.6174 57.5816 49.228 57.5677 49.649C57.5608 49.8593 57.5555 50.0224 57.5521 50.1334C57.5504 50.1889 57.549 50.2315 57.5482 50.2603C57.5477 50.2747 57.5474 50.2861 57.5472 50.2935V50.3043L60.0462 50.3766L57.5472 50.3053L57.5452 50.3619L57.5462 50.4185L57.9886 76.69L57.5374 92.9566C54.5948 110.178 43.3454 122.253 40.7386 124.79C40.2638 125.249 39.8006 125.72 39.3646 126.161L39.3636 126.162C30.9737 134.661 17.3589 141.219 13.2425 142.999C10.6925 144.096 8.92449 145.647 7.79035 146.933C7.22331 147.576 6.81053 148.158 6.53156 148.594C6.39188 148.813 6.28474 148.996 6.20832 149.133C6.17008 149.202 6.13899 149.26 6.11555 149.305L6.0677 149.401C6.07105 149.404 6.16104 149.448 8.31574 150.494ZM8.31574 150.494L5.95637 149.669L6.00422 149.532L6.06672 149.403L8.31574 150.494Z" fill="#ECD144" stroke="white" stroke-width="5"/>
<mask id="path-2-outside-1_4333_8475" maskUnits="userSpaceOnUse" x="3.79531" y="16.8033" width="108" height="158" fill="black">
<rect fill="white" x="3.79531" y="16.8033" width="108" height="158"/>
<path d="M9.00067 158.137C21.5339 158.576 40.9374 157.442 54.6209 148.164C76.4133 133.401 89.8654 104.006 89.9382 77.9203C90.011 51.8349 72.2217 25.925 72.2217 25.925L71.4912 24.8033L71.8032 24.8761C72.0748 24.9424 72.3452 25.0061 72.6116 25.0802C74.2363 25.5351 90.8727 30.0191 98.7685 46.2981C106.664 62.5771 105.852 79.6347 105.852 79.636C105.852 79.636 106.144 104.103 99.8083 122.039C93.4721 139.975 86.3561 149.788 71.0519 159.569C55.9219 169.237 26.2584 173.866 11.2232 163.598C10.2101 161.881 9.39561 160.054 8.79531 158.152"/>
</mask>
<path d="M9.00067 158.137C21.5339 158.576 40.9374 157.442 54.6209 148.164C76.4133 133.401 89.8654 104.006 89.9382 77.9203C90.011 51.8349 72.2217 25.925 72.2217 25.925L71.4912 24.8033L71.8032 24.8761C72.0748 24.9424 72.3452 25.0061 72.6116 25.0802C74.2363 25.5351 90.8727 30.0191 98.7685 46.2981C106.664 62.5771 105.852 79.6347 105.852 79.636C105.852 79.636 106.144 104.103 99.8083 122.039C93.4721 139.975 86.3561 149.788 71.0519 159.569C55.9219 169.237 26.2584 173.866 11.2232 163.598C10.2101 161.881 9.39561 160.054 8.79531 158.152" fill="#E1C031"/>
<path d="M54.6209 148.164L51.8167 144.024L51.8147 144.025L54.6209 148.164ZM72.2217 25.925L68.0318 28.6535L68.0651 28.7047L68.0997 28.7551L72.2217 25.925ZM71.4912 24.8033L72.6274 19.9341L60.5128 17.1074L67.3013 27.5319L71.4912 24.8033ZM71.8032 24.8761L72.9885 20.0187L72.9639 20.0127L72.9393 20.0069L71.8032 24.8761ZM72.6116 25.0802L73.9597 20.2654L73.951 20.2629L72.6116 25.0802ZM105.852 79.636H100.852V79.6658L100.852 79.6957L105.852 79.636ZM71.0519 159.569L73.7443 163.782L73.7444 163.782L71.0519 159.569ZM11.2232 163.598L6.91661 166.138L7.48293 167.098L8.4034 167.727L11.2232 163.598ZM9.00067 158.137L8.82552 163.133C21.5076 163.578 42.3315 162.538 57.427 152.302L54.6209 148.164L51.8147 144.025C39.5433 152.347 21.5602 153.574 9.17582 153.14L9.00067 158.137ZM54.6209 148.164L57.4251 152.303C80.7915 136.475 94.8615 105.41 94.9382 77.9343L89.9382 77.9203L84.9382 77.9064C84.8693 102.602 72.035 130.328 51.8167 144.024L54.6209 148.164ZM89.9382 77.9203L94.9382 77.9343C94.9774 63.8537 90.2257 50.0916 85.657 40.0671C83.3522 35.0101 81.0462 30.8014 79.3111 27.8482C78.4425 26.3698 77.7141 25.2012 77.1966 24.393C76.9378 23.9888 76.7315 23.6743 76.5864 23.456C76.5139 23.3468 76.4567 23.2616 76.4159 23.2012C76.3955 23.1709 76.3791 23.1469 76.3671 23.1292C76.361 23.1203 76.356 23.113 76.3521 23.1073C76.3502 23.1044 76.3485 23.102 76.3471 23.0999C76.3464 23.0989 76.3455 23.0976 76.3452 23.0971C76.3444 23.096 76.3437 23.0949 72.2217 25.925C68.0997 28.7551 68.0991 28.7542 68.0986 28.7535C68.0985 28.7534 68.0981 28.7527 68.0979 28.7525C68.0976 28.752 68.0975 28.7519 68.0977 28.7522C68.0981 28.7528 68.0996 28.7549 68.1021 28.7586C68.1071 28.766 68.1163 28.7795 68.1296 28.7991C68.156 28.8383 68.1987 28.9018 68.2565 28.9887C68.372 29.1626 68.5478 29.4303 68.7752 29.7855C69.2303 30.4962 69.8911 31.5556 70.6891 32.9139C72.2873 35.6339 74.424 39.533 76.5575 44.2142C80.8652 53.666 84.9717 65.9015 84.9382 77.9064L89.9382 77.9203ZM72.2217 25.925L76.4116 23.1965L75.6811 22.0748L71.4912 24.8033L67.3013 27.5319L68.0318 28.6535L72.2217 25.925ZM71.4912 24.8033L70.3551 29.6726L70.667 29.7453L71.8032 24.8761L72.9393 20.0069L72.6274 19.9341L71.4912 24.8033ZM71.8032 24.8761L70.6179 29.7336C70.9448 29.8134 71.1049 29.8509 71.2722 29.8974L72.6116 25.0802L73.951 20.2629C73.5854 20.1613 73.2048 20.0714 72.9885 20.0187L71.8032 24.8761ZM72.6116 25.0802L71.2634 29.895C72.786 30.3213 87.4069 34.3308 94.2697 48.4802L98.7685 46.2981L103.267 44.1161C94.3385 25.7075 75.6865 20.7489 73.9597 20.2654L72.6116 25.0802ZM98.7685 46.2981L94.2697 48.4802C101.599 63.5916 100.852 79.5393 100.852 79.636H105.852H110.852C110.852 79.73 111.729 61.5626 103.267 44.1161L98.7685 46.2981ZM105.852 79.636C100.852 79.6957 100.852 79.6952 100.852 79.6947C100.852 79.6947 100.852 79.6943 100.852 79.6942C100.852 79.6941 100.852 79.6943 100.852 79.6949C100.852 79.6961 100.852 79.6988 100.852 79.703C100.852 79.7112 100.853 79.7253 100.853 79.7451C100.853 79.7847 100.853 79.8471 100.854 79.9313C100.854 80.0998 100.854 80.3556 100.852 80.6912C100.848 81.3626 100.835 82.3523 100.801 83.6002C100.731 86.0984 100.574 89.6187 100.225 93.6832C99.5188 101.889 98.0528 111.998 95.0938 120.374L99.8083 122.039L104.523 123.705C107.9 114.145 109.456 103.052 110.188 94.54C110.557 90.2456 110.723 86.5281 110.797 83.8782C110.834 82.5521 110.847 81.4902 110.852 80.7534C110.854 80.385 110.854 80.0976 110.854 79.8989C110.853 79.7996 110.853 79.7224 110.852 79.6683C110.852 79.6412 110.852 79.62 110.852 79.6046C110.852 79.5969 110.852 79.5907 110.852 79.5859C110.852 79.5836 110.852 79.5816 110.852 79.5799C110.852 79.5791 110.852 79.5782 110.852 79.5778C110.852 79.577 110.852 79.5762 105.852 79.636ZM99.8083 122.039L95.0938 120.374C92.0225 129.068 88.8687 135.484 84.8079 140.843C80.7668 146.176 75.6494 150.697 68.3595 155.356L71.0519 159.569L73.7444 163.782C81.7587 158.66 87.8514 153.384 92.7783 146.882C97.6856 140.406 101.258 132.947 104.523 123.705L99.8083 122.039ZM71.0519 159.569L68.3596 155.356C61.5982 159.676 51.2002 163.059 40.6205 164.083C29.9257 165.117 20.1522 163.641 14.043 159.469L11.2232 163.598L8.4034 167.727C17.3293 173.823 29.9052 175.166 41.5834 174.036C53.3768 172.895 65.3756 169.13 73.7443 163.782L71.0519 159.569ZM11.2232 163.598L15.5298 161.058C14.7092 159.667 14.0495 158.187 13.5633 156.647L8.79531 158.152L4.02729 159.657C4.74169 161.92 5.71102 164.094 6.91661 166.138L11.2232 163.598Z" fill="white" mask="url(#path-2-outside-1_4333_8475)"/>
<path d="M77.4927 86.9776C77.926 79.8353 84.6189 74.8848 91.8855 75.3254C99.1518 75.7663 105.197 81.4891 104.764 88.6313C104.331 95.7736 97.6385 100.725 90.372 100.284C83.1054 99.8439 77.0596 94.12 77.4927 86.9776Z" fill="white" stroke="white" stroke-width="5"/>
<path d="M67.1458 72.5871C74.1239 72.5871 79.8616 78.1508 79.8616 85.1125C79.8614 92.074 74.1238 97.6369 67.1458 97.6369C60.1678 97.6368 54.4301 92.0739 54.4299 85.1125C54.4299 78.1509 60.1677 72.5872 67.1458 72.5871Z" fill="white" stroke="white" stroke-width="5"/>
<path d="M66.2627 77.1085C71.3875 77.1085 75.542 81.2629 75.542 86.3878C75.542 91.5126 71.3875 95.6671 66.2627 95.6671C61.1379 95.667 56.9834 91.5126 56.9834 86.3878C56.9834 81.263 61.1379 77.1085 66.2627 77.1085Z" fill="black" stroke="white" stroke-width="5"/>
<path d="M67.5662 80.5453C70.9948 80.5453 73.7742 83.3247 73.7742 86.7533C73.7742 90.1819 70.9949 92.9613 67.5662 92.9613C64.1376 92.9613 61.3582 90.1819 61.3582 86.7533C61.3583 83.3247 64.1377 80.5453 67.5662 80.5453Z" fill="white" stroke="white" stroke-width="5"/>
<path d="M63.9405 78.5365C66.9302 78.3987 68.698 80.0088 68.9679 80.2787L73.2354 84.5463H67.1993C66.3832 84.5464 65.6365 84.9123 65.002 85.4203C64.4939 85.8271 64.175 86.2315 64.1075 86.3197L60.2677 92.0804L59.547 85.1859C59.4151 83.9247 59.4926 82.8625 59.7218 81.972H59.7208C59.9642 81.0247 60.5047 80.1799 61.2628 79.5619L61.5558 79.3422C62.2561 78.8588 63.0799 78.579 63.9347 78.5375L63.9405 78.5365Z" fill="#676767" stroke="white" stroke-width="5"/>
<path d="M91.0222 79.5129C96.147 79.5129 100.301 83.6674 100.301 88.7922C100.301 93.917 96.147 98.0715 91.0222 98.0715C85.8973 98.0714 81.7429 93.917 81.7429 88.7922C81.7429 83.6674 85.8974 79.5129 91.0222 79.5129Z" fill="black" stroke="white" stroke-width="5"/>
<path d="M89.9382 83.1198C93.3668 83.1198 96.1461 85.8992 96.1462 89.3278C96.1462 92.7565 93.3668 95.5358 89.9382 95.5358C86.5096 95.5358 83.7302 92.7564 83.7302 89.3278C83.7302 85.8993 86.5096 83.1199 89.9382 83.1198Z" fill="white" stroke="white" stroke-width="5"/>
<path d="M90.1724 86.8563C90.1812 86.8586 90.1962 86.8625 90.2163 86.868C90.2697 86.8827 90.3587 86.9093 90.4741 86.9491C90.7089 87.03 91.0324 87.1599 91.3765 87.3514C92.0873 87.7471 92.7088 88.3004 93.0181 89.0565L95.2983 94.6327L97.6362 89.08C97.7851 88.7263 98.608 86.4803 97.3481 83.7645L97.3462 83.7616L97.1792 83.4364C96.8199 82.8025 96.3141 82.2635 95.7046 81.8641L95.3911 81.6757L95.064 81.5135C94.2878 81.1666 93.4277 81.0415 92.5806 81.1561L92.5757 81.1571C91.6691 81.2816 90.6531 81.6095 89.5327 82.2118L88.2173 82.9198V84.4139C88.2173 84.4082 88.2182 84.4022 88.2183 84.3964C88.2169 84.564 88.2306 84.7537 88.2759 84.9579C88.431 85.6568 88.8565 86.1856 89.3413 86.5048C89.6847 86.7308 90.0079 86.8185 90.1753 86.8553L90.1743 86.8563H90.1724ZM90.1724 86.8563L90.1684 86.8553C90.1663 86.8548 90.1646 86.8546 90.1636 86.8544H90.1655C90.1672 86.8548 90.1695 86.8556 90.1724 86.8563ZM88.3755 83.5438C88.3533 83.6034 88.3288 83.6707 88.3081 83.745C88.2963 83.7873 88.2872 83.83 88.2778 83.8719C88.2896 83.8195 88.2999 83.7759 88.3091 83.743C88.3285 83.6735 88.3523 83.6056 88.3755 83.5438ZM88.4409 83.3827C88.4229 83.4224 88.4019 83.4734 88.3794 83.5331C88.4011 83.476 88.4224 83.4246 88.4409 83.3827Z" fill="#676767" stroke="white" stroke-width="5"/>
<path d="M64.3393 103.984C64.4581 104.02 66.7044 104.743 69.9682 105.114C73.4213 105.505 77.833 105.481 82.0297 103.986L85.3696 102.795V106.34C85.3692 106.384 85.3669 106.452 85.3657 106.477C85.3648 106.493 85.3626 106.52 85.3618 106.531C85.36 106.554 85.3587 106.572 85.3579 106.581C85.356 106.601 85.354 106.617 85.353 106.626C85.3507 106.646 85.3483 106.666 85.3461 106.683C85.3418 106.718 85.3363 106.759 85.3295 106.807C85.3158 106.903 85.2961 107.032 85.269 107.189C85.2148 107.503 85.1298 107.937 85.0043 108.457C84.7548 109.493 84.3356 110.904 83.6528 112.411C82.3066 115.383 79.7768 119.057 75.185 120.601C72.7965 121.404 70.5539 121.279 68.5874 120.397C66.6812 119.541 65.2313 118.066 64.1635 116.485C62.0607 113.371 61.06 109.296 61.0034 106.389L60.9331 102.776L64.3393 103.984Z" fill="black" stroke="white" stroke-width="5"/>
<mask id="path-13-outside-2_4333_8475" maskUnits="userSpaceOnUse" x="63.4624" y="102.56" width="19" height="13" fill="black">
<rect fill="white" x="63.4624" y="102.56" width="19" height="13"/>
<path d="M77.3361 107.605C77.3867 108.246 77.382 108.891 77.3218 109.532C77.3092 109.695 77.2411 109.848 77.1289 109.966C77.0168 110.085 76.8674 110.161 76.7057 110.182C74.2181 110.495 71.3288 110.107 70.1201 109.909C69.9566 109.882 69.8075 109.8 69.6982 109.675C69.5889 109.551 69.5262 109.392 69.5209 109.227L69.4624 107.56C69.4858 107.56 74.6405 108.054 77.3361 107.606"/>
</mask>
<path d="M77.3361 107.605C77.3867 108.246 77.382 108.891 77.3218 109.532C77.3092 109.695 77.2411 109.848 77.1289 109.966C77.0168 110.085 76.8674 110.161 76.7057 110.182C74.2181 110.495 71.3288 110.107 70.1201 109.909C69.9566 109.882 69.8075 109.8 69.6982 109.675C69.5889 109.551 69.5262 109.392 69.5209 109.227L69.4624 107.56C69.4858 107.56 74.6405 108.054 77.3361 107.606" fill="white"/>
<path d="M77.3218 109.532L72.3437 109.065L72.3399 109.105L72.3368 109.145L77.3218 109.532ZM76.7057 110.182L77.3304 115.143L77.3442 115.141L77.358 115.139L76.7057 110.182ZM70.1201 109.909L70.9266 104.974L70.9265 104.974L70.1201 109.909ZM69.5209 109.227L74.5183 109.065L74.5178 109.051L69.5209 109.227ZM69.4624 107.56V102.56H64.2838L64.4655 107.736L69.4624 107.56ZM77.3361 107.605L72.3516 107.998C72.3796 108.353 72.377 108.71 72.3437 109.065L77.3218 109.532L82.2999 109.999C82.3869 109.072 82.3939 108.139 82.3206 107.211L77.3361 107.605ZM77.3218 109.532L72.3368 109.145C72.4129 108.165 72.8237 107.24 73.5003 106.526L77.1289 109.966L80.7576 113.406C81.6585 112.456 82.2055 111.225 82.3068 109.919L77.3218 109.532ZM77.1289 109.966L73.5003 106.526C74.177 105.813 75.0783 105.353 76.0535 105.225L76.7057 110.182L77.358 115.139C78.6564 114.968 79.8566 114.357 80.7576 113.406L77.1289 109.966ZM76.7057 110.182L76.0811 105.221C74.3513 105.439 72.0636 105.16 70.9266 104.974L70.1201 109.909L69.3136 114.844C70.594 115.053 74.0848 115.551 77.3304 115.143L76.7057 110.182ZM70.1201 109.909L70.9265 104.974C71.9063 105.135 72.8002 105.63 73.4553 106.376L69.6982 109.675L65.9411 112.974C66.8148 113.969 68.0069 114.63 69.3136 114.844L70.1201 109.909ZM69.6982 109.675L73.4553 106.376C74.1104 107.122 74.4861 108.072 74.5183 109.065L69.5209 109.227L64.5235 109.388C64.5664 110.712 65.0675 111.979 65.9411 112.974L69.6982 109.675ZM69.5209 109.227L74.5178 109.051L74.4593 107.385L69.4624 107.56L64.4655 107.736L64.524 109.402L69.5209 109.227ZM69.4624 107.56V112.56C69.3903 112.56 69.2797 112.557 69.2412 112.556C69.2172 112.554 69.1769 112.552 69.1607 112.551C69.1291 112.549 69.1045 112.548 69.0949 112.547C69.0735 112.545 69.0573 112.544 69.054 112.544C69.0446 112.543 69.039 112.542 69.0435 112.543C69.0513 112.543 69.0611 112.544 69.0849 112.546C69.1277 112.55 69.1914 112.556 69.273 112.563C69.4361 112.577 69.6679 112.596 69.9528 112.617C70.5204 112.659 71.3077 112.711 72.1903 112.747C73.8214 112.815 76.2469 112.856 78.1566 112.538L77.3361 107.606L76.5157 102.674C75.7296 102.804 74.23 102.823 72.604 102.756C71.8581 102.725 71.1839 102.681 70.6941 102.644C70.4504 102.626 70.2546 102.61 70.1207 102.599C70.0539 102.593 70.0019 102.589 69.9652 102.585C69.9494 102.584 69.9286 102.582 69.9153 102.581C69.9093 102.58 69.8955 102.579 69.8804 102.578C69.8743 102.577 69.8559 102.576 69.8329 102.574C69.8225 102.573 69.7972 102.572 69.7651 102.57C69.7486 102.569 69.7081 102.566 69.684 102.565C69.6453 102.564 69.5346 102.561 69.4624 102.56V107.56Z" fill="white" mask="url(#path-13-outside-2_4333_8475)"/>
<path d="M68.5793 109.854C70.7532 108.961 74.1322 108.282 76.9972 110.492C77.2315 110.485 77.482 110.487 77.7424 110.509C78.9675 110.612 80.7781 111.158 81.8547 113.076L82.6506 114.495L81.676 115.798C80.2173 117.747 78.1558 119.618 75.2404 120.615C72.6137 121.513 70.1893 121.286 68.1222 120.203C66.1404 119.165 64.6922 117.451 63.6623 115.704L62.5734 113.857L64.2326 112.5C64.2324 112.5 66.0996 110.873 68.5793 109.854Z" fill="#CE6F68" stroke="white" stroke-width="5"/>
<path d="M65.6065 3.42651L65.8086 3.448C66.2108 3.50302 66.6007 3.62703 66.961 3.81421L67.1387 3.91382L67.3106 4.02222C67.6469 4.24941 67.9414 4.53301 68.1817 4.86011L68.2979 5.02808L68.4033 5.20093C68.6047 5.55374 68.7437 5.93866 68.8145 6.33862L68.8438 6.53979L68.8447 6.54761L68.8457 6.55444L69.377 11.2957L69.3916 11.4236L69.6143 13.4031L67.7334 14.0613L67.6035 14.1072L67.5137 14.1384L67.4219 14.1628L59.3965 16.3064L59.3574 16.3162L59.207 16.3542L56.8887 16.9333L56.2051 14.6433L56.1611 14.4949L56.1553 14.4773L56.1504 14.4597L55.7852 13.1667L55.7793 13.1433L55.7735 13.1208L55.4326 11.821L55.4336 11.8201C55.3062 11.3453 55.1607 10.8251 55.0645 10.3777C54.9728 9.95154 54.8575 9.31411 54.9346 8.64233C55.027 7.83781 55.3972 6.9858 56.2061 6.36499C56.8855 5.84368 57.6554 5.66245 58.2022 5.57788C58.8335 5.4802 59.6103 5.28439 60.2754 5.09448C60.5979 5.00239 60.8759 4.91693 61.0713 4.85522L61.2949 4.78296L63.9951 3.67651L64.0059 3.67261L64.0166 3.66772C64.4579 3.49159 64.9296 3.40677 65.4033 3.41675L65.6065 3.42651Z" fill="#5E3E1B" stroke="white" stroke-width="5"/>
<path d="M6.807 148.05C7.99385 147.712 9.09749 147.999 9.92976 148.44C10.7468 148.873 11.4362 149.515 11.9975 150.192C13.125 151.55 14.0519 153.425 14.638 155.483C15.2241 157.541 15.4242 159.622 15.182 161.371C15.0614 162.242 14.8141 163.152 14.3479 163.95C13.8729 164.763 13.0857 165.588 11.8991 165.926C10.7123 166.264 9.60873 165.978 8.77655 165.537C7.95958 165.104 7.27081 164.461 6.70948 163.784C5.58207 162.426 4.65537 160.551 4.06922 158.494C3.48305 156.436 3.28269 154.354 3.52498 152.605C3.64559 151.735 3.89238 150.825 4.35842 150.027C4.83333 149.214 5.62035 148.388 6.807 148.05Z" fill="#5E3E1B" stroke="white" stroke-width="5"/>
<path d="M71.1204 109.536C73.278 109.108 74.972 109.498 76.1966 110.199C76.4899 110.366 76.7443 110.546 76.9632 110.723C76.9987 110.725 77.0345 110.727 77.0706 110.73C77.7369 110.785 78.8625 110.965 79.8743 111.661L80.0755 111.806L80.3109 112.002C80.8452 112.485 81.2713 113.14 81.4075 113.958C81.5542 114.84 81.3063 115.571 81.0784 116.027C80.8505 116.482 80.5663 116.819 80.3802 117.017C80.2803 117.123 80.1897 117.21 80.1185 117.274C80.0907 117.299 80.0639 117.32 80.0413 117.339V117.341C80.0406 117.342 80.0392 117.342 80.0384 117.343C80.0368 117.345 80.0345 117.346 80.0325 117.348C80.0284 117.352 80.0235 117.356 80.0179 117.361C80.0065 117.371 79.9922 117.383 79.9749 117.398C79.9403 117.427 79.8936 117.466 79.8363 117.512C79.7212 117.605 79.5604 117.732 79.3616 117.878C78.9674 118.169 78.4051 118.553 77.7288 118.926C76.4655 119.623 74.4003 120.507 72.1654 120.188C68.9067 119.722 66.4411 118.227 65.6224 116.065C65.0277 114.494 65.5918 112.882 66.6224 111.77C67.6522 110.659 69.2028 109.916 71.1204 109.536Z" fill="#D98E89" stroke="white" stroke-width="5"/>
<path d="M8.31592 150.494C8.31592 150.494 9.94317 147.141 14.231 145.295C18.3901 143.498 32.392 136.783 41.143 127.918C41.5849 127.471 42.0268 127.022 42.4778 126.586C45.2254 123.913 56.9996 111.306 60.0318 93.2101L60.4893 76.6959L60.0461 50.3765C60.0461 50.3765 60.4646 35.7547 61.6435 26.8711C61.7515 26.0675 61.7304 25.2518 61.5811 24.4549C61.2429 22.6719 60.7954 20.9113 60.2411 19.1832C59.1038 15.674 57.6416 11.06 57.4142 8.94793C57.4142 8.94793 57.3089 8.24219 59.7862 7.81068C61.5135 7.51044 63.8491 6.55385 65.1631 6.03526C65.28 5.98878 65.406 5.96977 65.5314 5.97971C65.6569 5.98964 65.7783 6.02824 65.8864 6.09254C65.9946 6.15684 66.0865 6.24512 66.1551 6.35057C66.2237 6.45601 66.2672 6.57581 66.2822 6.70072C66.6461 9.70437 67.7002 18.1993 68.3617 21.0678C69.174 24.5771 70.9937 24.5771 72.6183 25.032C74.243 25.4869 90.8794 29.9709 98.7752 46.2499C106.671 62.5289 105.861 79.5929 105.861 79.5929C105.861 79.5929 106.154 104.061 99.8176 121.996C93.4814 139.931 86.3655 149.74 71.0612 159.526C55.9312 169.196 26.269 173.823 11.2338 163.555C11.2338 163.555 8.96578 159.879 8.31722 156.111C7.66866 152.343 8.31592 150.494 8.31592 150.494Z" fill="#ECD144"/>
<path d="M9.00067 158.137C21.5339 158.576 40.9374 157.442 54.6209 148.164C76.4133 133.401 89.8654 104.006 89.9382 77.9203C90.011 51.8349 72.2217 25.925 72.2217 25.925L71.4912 24.8033L71.8032 24.8761C72.0748 24.9424 72.3452 25.0061 72.6116 25.0802C74.2363 25.5351 90.8727 30.0191 98.7685 46.2981C106.664 62.5771 105.852 79.6347 105.852 79.636C105.852 79.636 106.144 104.103 99.8083 122.039C93.4721 139.975 86.3561 149.788 71.0519 159.569C55.9219 169.237 26.2584 173.866 11.2232 163.598C10.2101 161.881 9.39561 160.054 8.79531 158.152" fill="#E1C031"/>
<path d="M102.269 88.4802C102.603 82.966 97.8864 78.1935 91.7338 77.8204C85.5812 77.4473 80.3225 81.615 79.9881 87.1292C79.6537 92.6434 84.3703 97.416 90.5229 97.789C96.6755 98.1621 101.934 93.9944 102.269 88.4802Z" fill="white"/>
<path d="M67.1459 95.1372C72.7881 95.1372 77.3619 90.6488 77.3619 85.1121C77.3619 79.5755 72.7881 75.0871 67.1459 75.0871C61.5038 75.0871 56.9299 79.5755 56.9299 85.1121C56.9299 90.6488 61.5038 95.1372 67.1459 95.1372Z" fill="white"/>
<path d="M66.2628 93.1671C70.0069 93.1671 73.0421 90.1319 73.0421 86.3878C73.0421 82.6437 70.0069 79.6085 66.2628 79.6085C62.5186 79.6085 59.4834 82.6437 59.4834 86.3878C59.4834 90.1319 62.5186 93.1671 66.2628 93.1671Z" fill="black"/>
<path d="M67.5663 90.4615C69.6143 90.4615 71.2744 88.8013 71.2744 86.7534C71.2744 84.7055 69.6143 83.0453 67.5663 83.0453C65.5184 83.0453 63.8582 84.7055 63.8582 86.7534C63.8582 88.8013 65.5184 90.4615 67.5663 90.4615Z" fill="white"/>
<path d="M62.036 84.9217C62.0632 84.8814 64.031 82.0467 67.1997 82.0467C67.1802 82.0272 66.0573 80.942 64.0557 81.0343C63.6121 81.0558 63.187 81.2189 62.8427 81.4995C62.4984 81.7802 62.2531 82.1637 62.1425 82.5939C61.9996 83.1489 61.9268 83.9066 62.0333 84.9256L62.036 84.9217Z" fill="#676767"/>
<path d="M91.0222 95.5716C94.7663 95.5716 97.8015 92.5364 97.8015 88.7922C97.8015 85.0481 94.7663 82.0129 91.0222 82.0129C87.2781 82.0129 84.2429 85.0481 84.2429 88.7922C84.2429 92.5364 87.2781 95.5716 91.0222 95.5716Z" fill="black"/>
<path d="M89.9383 93.036C91.9862 93.036 93.6464 91.3758 93.6464 89.3279C93.6464 87.28 91.9862 85.6198 89.9383 85.6198C87.8903 85.6198 86.2302 87.28 86.2302 89.3279C86.2302 91.3758 87.8903 93.036 89.9383 93.036Z" fill="white"/>
<path d="M90.7169 84.4163C90.7637 84.4267 94.1325 85.1767 95.3322 88.1101C95.3426 88.0855 95.9236 86.635 95.08 84.8166C94.8927 84.4144 94.5816 84.0827 94.1923 83.8699C93.8029 83.6571 93.3557 83.5744 92.916 83.6339C92.348 83.7119 91.6163 83.9302 90.7169 84.4137C90.7169 84.4163 90.7156 84.4163 90.7169 84.4163Z" fill="#676767"/>
<path d="M63.5034 106.34C63.5437 106.354 73.4969 109.68 82.8692 106.34C82.8692 106.387 81.7138 115.768 74.3885 118.231C67.0633 120.694 63.6009 111.343 63.5034 106.34Z" fill="black"/>
<path d="M77.3361 107.605C77.3867 108.246 77.382 108.891 77.3218 109.532C77.3092 109.695 77.2411 109.848 77.1289 109.966C77.0168 110.085 76.8674 110.161 76.7057 110.182C74.2181 110.495 71.3288 110.107 70.1201 109.909C69.9566 109.882 69.8075 109.8 69.6982 109.675C69.5889 109.551 69.5262 109.392 69.5209 109.227L69.4624 107.56C69.4858 107.56 74.6405 108.054 77.3361 107.606" fill="white"/>
<path d="M76.1692 113.112C72.2388 108.852 65.8442 114.411 65.8156 114.435C67.5936 117.451 70.4101 119.624 74.4315 118.249C76.7541 117.455 78.4333 115.958 79.6745 114.3C78.6205 112.421 76.1822 113.109 76.1744 113.112H76.1692Z" fill="#CE6F68"/>
<path d="M66.893 11.5747L66.3614 6.83336C66.3426 6.67497 66.2877 6.523 66.2008 6.38923C66.114 6.25547 65.9975 6.14348 65.8604 6.06193C65.7233 5.98038 65.5693 5.93147 65.4103 5.91897C65.2513 5.90647 65.0915 5.93072 64.9434 5.98984L62.162 7.1297C62.162 7.1297 60.1552 7.80555 58.5839 8.0486C57.0125 8.29165 57.2919 9.10267 57.8508 11.1874L58.1913 12.4871L58.5566 13.7804L58.6008 13.9285L58.7515 13.8908L66.7773 11.7476L66.9073 11.7021L66.893 11.5747Z" fill="#5E3E1B"/>
<path d="M11.2147 163.522C12.8052 163.069 13.2614 159.776 12.2335 156.168C11.2056 152.559 9.08287 150.001 7.49229 150.455C5.90172 150.908 5.44558 154.2 6.47348 157.809C7.50138 161.417 9.62408 163.975 11.2147 163.522Z" fill="#5E3E1B"/>
<path d="M75.9143 113.229C75.9143 113.221 74.7927 111.356 71.607 111.987C68.4214 112.619 67.6052 114.242 67.96 115.179C68.3148 116.117 69.6821 117.307 72.5194 117.713C75.3567 118.118 78.3968 115.458 78.3968 115.458C78.3968 115.458 79.5366 114.548 78.5488 113.786C77.5611 113.025 75.9221 113.227 75.9143 113.229Z" fill="#D98E89"/>
</svg>
