<svg width="36" height="41" viewBox="0 0 36 41" fill="none" xmlns="http://www.w3.org/2000/svg">
<path d="M16.3863 40.2313C16.3863 39.7201 16.0267 39.0996 15.3921 38.733L3.00458 31.5799C2.39824 31.2274 1.76723 30.2191 1.62622 29.2884C1.6086 29.165 1.59802 29.0416 1.59802 28.9217C1.59802 28.8019 1.6086 28.6926 1.62622 28.5903C1.68968 28.2308 1.86594 27.9769 2.09155 27.843L20.9725 16.9424C20.7434 17.0728 20.5707 17.3267 20.5072 17.6898C20.4896 17.792 20.479 17.9013 20.479 18.0212C20.479 18.141 20.4896 18.2644 20.5072 18.3878C20.6482 19.3185 21.2757 20.3268 21.8856 20.6793L34.2731 27.8324C34.9077 28.199 35.2673 28.8195 35.2673 29.3307C35.2673 29.5845 35.1791 29.7643 35.0311 29.8489L16.1501 40.7495C16.2946 40.6649 16.3863 40.4851 16.3863 40.2313Z" fill="url(#paint0_linear_3888_27824)"/>
<path d="M15.8821 36.6704C15.8821 35.8032 15.9808 35.2638 16.1112 34.9254L34.1215 24.5254C33.9911 24.8638 33.8924 25.4067 33.8924 26.2705C33.8924 27.1342 33.9946 27.797 34.125 28.287L16.1147 38.687C15.9843 38.1969 15.8821 37.5412 15.8821 36.6704Z" fill="#EBEBEB"/>
<path d="M3.44472 31.3297C2.83838 30.9771 2.20737 29.9688 2.06989 29.0381C2.05226 28.9147 2.04169 28.7914 2.04169 28.6715C2.04169 28.5516 2.05226 28.4423 2.06989 28.3401C2.13687 27.9805 2.3096 27.7267 2.53522 27.5927C2.79256 27.4447 3.12392 27.4517 3.44472 27.6386L15.8323 34.7916C15.9345 34.8515 16.0297 34.8939 16.1178 34.9256C15.9874 35.264 15.8887 35.8069 15.8887 36.6707C15.8887 37.5414 15.9909 38.1972 16.1214 38.6872C16.0332 38.6132 15.938 38.5427 15.8323 38.4827L3.44472 31.3297Z" fill="white"/>
<path d="M16.3879 34.6937C16.3879 34.1861 16.0284 33.5621 15.5877 33.3082L3.20015 26.1552C2.31885 25.6475 1.51862 25.5982 0.940491 25.9331L19.8215 15.0325C20.3996 14.6976 21.1998 14.7469 22.0811 15.2546L34.4687 22.4077C34.9094 22.6615 35.2689 23.2855 35.2689 23.7931C35.2689 24.0258 35.1949 24.195 35.0539 24.2761L16.1729 35.1767C16.3139 35.0956 16.3879 34.9264 16.3879 34.6937Z" fill="url(#paint1_linear_3888_27824)"/>
<path d="M15.391 35.0461L3.00348 27.893C2.67916 27.7062 2.35131 27.6991 2.09397 27.8472C1.86483 27.9776 1.6921 28.2315 1.62864 28.5946C1.61102 28.6968 1.60044 28.8061 1.60044 28.926C1.60044 29.0458 1.61102 29.1692 1.62864 29.2926C1.76965 30.2233 2.39714 31.2316 3.00348 31.5841L15.391 38.7372C16.0256 39.1038 16.3852 39.7243 16.3852 40.2355C16.3852 40.4893 16.297 40.6691 16.149 40.7537C16.0009 40.8383 15.8035 40.8242 15.5849 40.6973L3.19736 33.5442C1.43476 32.5254 0 30.04 0 28.0023C0 26.9835 0.359571 26.2678 0.937705 25.9329C1.51584 25.598 2.31606 25.6473 3.19736 26.155L15.5849 33.308C16.0256 33.5619 16.3852 34.1859 16.3852 34.6935C16.3852 34.9262 16.3111 35.0954 16.1701 35.1765C16.0009 35.2752 15.7365 35.2435 15.391 35.0426V35.0461Z" fill="#1CBFFF"/>
<path d="M16.3863 32.8221C16.3863 32.3109 16.0267 31.6904 15.3921 31.3238L3.00458 24.1707C2.39824 23.8217 1.76723 22.8099 1.62622 21.8792C1.6086 21.7558 1.59802 21.6324 1.59802 21.5126C1.59802 21.3927 1.6086 21.2834 1.62622 21.1812C1.68968 20.8216 1.86594 20.5677 2.09155 20.4338L20.9725 9.5332C20.7434 9.66364 20.5707 9.91747 20.5072 10.2806C20.4896 10.3828 20.479 10.4921 20.479 10.612C20.479 10.7318 20.4896 10.8552 20.5072 10.9786C20.6482 11.9093 21.2757 12.9176 21.8856 13.2701L34.2731 20.4232C34.9077 20.7898 35.2673 21.4103 35.2673 21.9215C35.2673 22.1753 35.1791 22.3551 35.0311 22.4397L16.1501 33.3403C16.2946 33.2557 16.3863 33.0759 16.3863 32.8221Z" fill="url(#paint2_linear_3888_27824)"/>
<path d="M15.8821 29.2642C15.8821 28.3969 15.9808 27.8575 16.1112 27.5191L34.1215 17.1191C33.9911 17.4576 33.8924 18.0005 33.8924 18.8642C33.8924 19.7279 33.9946 20.3907 34.125 20.8808L16.1147 31.2807C15.9843 30.7907 15.8821 30.135 15.8821 29.2642Z" fill="#EBEBEB"/>
<path d="M3.44472 23.9215C2.83838 23.5724 2.20737 22.5606 2.06989 21.6299C2.05226 21.5065 2.04169 21.3832 2.04169 21.2633C2.04169 21.1434 2.05226 21.0341 2.06989 20.9319C2.13687 20.5723 2.3096 20.315 2.53522 20.1845C2.79256 20.0364 3.12392 20.0435 3.44472 20.2303L15.8323 27.3834C15.9345 27.4433 16.0297 27.4856 16.1178 27.5174C15.9874 27.8558 15.8887 28.3987 15.8887 29.2625C15.8887 30.1332 15.9909 30.789 16.1214 31.279C16.0332 31.205 15.938 31.138 15.8323 31.0745L3.44472 23.9215Z" fill="white"/>
<path d="M16.3879 27.2855C16.3879 26.7743 16.0284 26.1539 15.5877 25.9L3.20015 18.747C2.31885 18.2393 1.51862 18.1899 0.940491 18.5249L19.8215 7.62429C20.3996 7.28937 21.1998 7.33873 22.0811 7.84639L34.4687 14.9995C34.9094 15.2533 35.2689 15.8773 35.2689 16.3849C35.2689 16.6176 35.1949 16.7868 35.0539 16.8679L16.1729 27.7685C16.3139 27.6874 16.3879 27.5182 16.3879 27.2855Z" fill="url(#paint3_linear_3888_27824)"/>
<path d="M15.391 27.6373L3.00348 20.4842C2.67916 20.2974 2.35131 20.2903 2.09397 20.4384C1.86483 20.5688 1.6921 20.8227 1.62864 21.1858C1.61102 21.288 1.60044 21.3973 1.60044 21.5172C1.60044 21.637 1.61102 21.7604 1.62864 21.8838C1.76965 22.8145 2.39714 23.8228 3.00348 24.1753L15.391 31.3284C16.0256 31.695 16.3852 32.3155 16.3852 32.8267C16.3852 33.0805 16.297 33.2603 16.149 33.3449C16.0009 33.4295 15.8035 33.4154 15.5849 33.2885L3.19736 26.1354C1.43476 25.1166 0 22.6312 0 20.597C0 19.5782 0.359571 18.8625 0.937705 18.5276C1.51584 18.1927 2.31606 18.242 3.19736 18.7497L15.5849 25.9028C16.0256 26.1566 16.3852 26.7806 16.3852 27.2883C16.3852 27.5209 16.3111 27.6902 16.1701 27.7712C16.0009 27.87 15.7365 27.8382 15.391 27.6408V27.6373Z" fill="#008CE3"/>
<path d="M16.3863 25.4119C16.3863 24.9007 16.0267 24.2803 15.3922 23.9136L3.00458 16.7606C2.39824 16.408 1.76723 15.3998 1.62622 14.469C1.6086 14.3457 1.59802 14.2223 1.59802 14.1024C1.59802 13.9825 1.6086 13.8733 1.62622 13.771C1.68968 13.4114 1.86594 13.1576 2.09155 13.0236L20.9761 2.12305C20.7469 2.25349 20.5742 2.50732 20.5107 2.87043C20.4931 2.97267 20.4825 3.08196 20.4825 3.20182C20.4825 3.32169 20.4931 3.44508 20.5107 3.56847C20.6518 4.49918 21.2792 5.50744 21.8891 5.85998L34.2767 13.013C34.9112 13.3797 35.2708 14.0002 35.2708 14.5113C35.2708 14.7652 35.1827 14.945 35.0346 15.0296L16.1536 25.9302C16.2981 25.8456 16.3898 25.6658 16.3898 25.4119H16.3863Z" fill="url(#paint4_linear_3888_27824)"/>
<path d="M15.8821 21.8531C15.8821 20.9858 15.9808 20.4464 16.1112 20.108L34.1215 9.70801C33.9911 10.0464 33.8924 10.5894 33.8924 11.4531C33.8924 12.3168 33.9946 12.9796 34.125 13.4696L16.1147 23.8696C15.9843 23.3796 15.8821 22.7238 15.8821 21.8531Z" fill="#EBEBEB"/>
<path d="M3.44472 16.5103C2.83838 16.1613 2.20737 15.1495 2.06989 14.2188C2.05226 14.0954 2.04169 13.972 2.04169 13.8522C2.04169 13.7323 2.05226 13.623 2.06989 13.5208C2.13687 13.1612 2.3096 12.9074 2.53522 12.7734C2.79256 12.6253 3.12392 12.6324 3.44472 12.8192L15.8323 19.9723C15.9345 20.0322 16.0297 20.0745 16.1178 20.1062C15.9874 20.4447 15.8887 20.9876 15.8887 21.8513C15.8887 22.7221 15.9909 23.3778 16.1214 23.8679C16.0332 23.7938 15.938 23.7233 15.8323 23.6634L3.44472 16.5103Z" fill="white"/>
<path d="M16.3879 19.8744C16.3879 19.3632 16.0284 18.7427 15.5877 18.4889L3.20015 11.3358C2.31885 10.8282 1.51862 10.7788 0.940491 11.1137L19.8215 0.213153C20.3996 -0.121761 21.1998 -0.0724057 22.0811 0.435254L34.4687 7.58832C34.9094 7.84215 35.2689 8.46615 35.2689 8.97381C35.2689 9.20648 35.1949 9.3757 35.0539 9.45679L16.1729 20.3574C16.3139 20.2763 16.3879 20.1071 16.3879 19.8744Z" fill="url(#paint5_linear_3888_27824)"/>
<path d="M15.391 20.2261L3.00348 13.0731C2.67916 12.8862 2.35131 12.8792 2.09397 13.0272C1.86483 13.1577 1.6921 13.4115 1.62864 13.7746C1.61102 13.8769 1.60044 13.9862 1.60044 14.106C1.60044 14.2259 1.61102 14.3493 1.62864 14.4727C1.76965 15.4034 2.39714 16.4116 3.00348 16.7642L15.391 23.9172C16.0256 24.2839 16.3852 24.9044 16.3852 25.4156C16.3852 25.6694 16.297 25.8492 16.149 25.9338C16.0009 26.0184 15.8035 26.0043 15.5849 25.8774L3.19736 18.7243C1.43476 17.7055 0 15.2201 0 13.1859C0 12.167 0.359571 11.4514 0.937705 11.1165C1.51584 10.7816 2.31606 10.8309 3.19736 11.3386L15.5849 18.4916C16.0256 18.7455 16.3852 19.3695 16.3852 19.8771C16.3852 20.1098 16.3111 20.279 16.1701 20.3601C16.0009 20.4588 15.7365 20.4271 15.391 20.2297V20.2261Z" fill="#FFC14E"/>
<path d="M13.8454 29.3791L11.6422 26.4882L9.43894 26.9959V19.5009C9.43894 19.5009 9.36138 18.4855 9.83023 18.5102L14.2367 21.0203C13.7432 20.9992 13.8454 22.1167 13.8454 22.1167V29.3755V29.3791Z" fill="#FD541C"/>
<defs>
<linearGradient id="paint0_linear_3888_27824" x1="13.7483" y1="21.1215" x2="22.8495" y2="36.8842" gradientUnits="userSpaceOnUse">
<stop stop-color="#00AAFF"/>
<stop offset="0.1" stop-color="#00A8FF"/>
<stop offset="0.86" stop-color="#00A6FF"/>
<stop offset="0.88" stop-color="#009DF8"/>
<stop offset="0.92" stop-color="#0087E6"/>
<stop offset="0.96" stop-color="#0062C8"/>
<stop offset="1" stop-color="#0041AD"/>
</linearGradient>
<linearGradient id="paint1_linear_3888_27824" x1="14.4093" y1="18.1609" x2="22.2201" y2="31.6887" gradientUnits="userSpaceOnUse">
<stop stop-color="#00AAFF"/>
<stop offset="0.1" stop-color="#00A8FF"/>
<stop offset="0.86" stop-color="#00A6FF"/>
<stop offset="0.88" stop-color="#009DF8"/>
<stop offset="0.92" stop-color="#0087E6"/>
<stop offset="0.96" stop-color="#0062C8"/>
<stop offset="1" stop-color="#0041AD"/>
</linearGradient>
<linearGradient id="paint2_linear_3888_27824" x1="13.7473" y1="13.7105" x2="22.8501" y2="29.4762" gradientUnits="userSpaceOnUse">
<stop stop-color="#0070C5"/>
<stop offset="0.44" stop-color="#006DC2"/>
<stop offset="0.68" stop-color="#0065BA"/>
<stop offset="0.86" stop-color="#005AAF"/>
<stop offset="0.9" stop-color="#0055AA"/>
<stop offset="0.95" stop-color="#00499E"/>
<stop offset="0.99" stop-color="#003589"/>
<stop offset="1" stop-color="#003387"/>
</linearGradient>
<linearGradient id="paint3_linear_3888_27824" x1="14.4083" y1="10.7508" x2="22.219" y2="24.2787" gradientUnits="userSpaceOnUse">
<stop stop-color="#0070C5"/>
<stop offset="0.44" stop-color="#006DC2"/>
<stop offset="0.68" stop-color="#0065BA"/>
<stop offset="0.86" stop-color="#005AAF"/>
<stop offset="0.9" stop-color="#0055AA"/>
<stop offset="0.95" stop-color="#00499E"/>
<stop offset="0.99" stop-color="#003589"/>
<stop offset="1" stop-color="#003387"/>
</linearGradient>
<linearGradient id="paint4_linear_3888_27824" x1="13.7001" y1="6.32534" x2="22.8029" y2="22.0905" gradientUnits="userSpaceOnUse">
<stop stop-color="#FFB233"/>
<stop offset="0.07" stop-color="#FFB336"/>
<stop offset="0.3" stop-color="#FFB539"/>
<stop offset="0.39" stop-color="#FFB02F"/>
<stop offset="0.59" stop-color="#FFA71E"/>
<stop offset="0.74" stop-color="#FFA519"/>
<stop offset="0.81" stop-color="#FDA117"/>
<stop offset="0.87" stop-color="#F79714"/>
<stop offset="0.92" stop-color="#ED860E"/>
<stop offset="0.97" stop-color="#DF6E06"/>
<stop offset="1" stop-color="#D55C00"/>
</linearGradient>
<linearGradient id="paint5_linear_3888_27824" x1="14.3609" y1="3.36487" x2="22.17" y2="16.895" gradientUnits="userSpaceOnUse">
<stop stop-color="#FFB233"/>
<stop offset="0.07" stop-color="#FFB336"/>
<stop offset="0.3" stop-color="#FFB539"/>
<stop offset="0.39" stop-color="#FFB02F"/>
<stop offset="0.59" stop-color="#FFA71E"/>
<stop offset="0.74" stop-color="#FFA519"/>
<stop offset="0.81" stop-color="#FDA117"/>
<stop offset="0.87" stop-color="#F79714"/>
<stop offset="0.92" stop-color="#ED860E"/>
<stop offset="0.97" stop-color="#DF6E06"/>
<stop offset="1" stop-color="#D55C00"/>
</linearGradient>
</defs>
</svg>
