<svg width="131" height="111" viewBox="0 0 131 111" fill="none" xmlns="http://www.w3.org/2000/svg">
<path d="M21.5078 33.99L21.7079 33.9958C22.7037 34.0529 23.6317 34.5334 24.2538 35.321C24.9175 36.1613 25.16 37.2589 24.912 38.3005L23.5136 44.1746C23.2786 45.1618 22.6264 45.9984 21.7265 46.4675C20.8266 46.9366 19.7671 46.9925 18.8232 46.6199L15.5068 45.3103C13.9062 44.6784 13.0023 42.9765 13.3749 41.2966L14.3876 36.7312L14.4667 36.4373C14.9216 34.992 16.2664 33.9901 17.8046 33.99H21.5078Z" fill="#DF3122" stroke="white" stroke-width="7" stroke-linejoin="round"/>
<path d="M13.7295 30.1926C14.963 30.0024 16.3851 29.8787 17.6387 30.0364C18.2439 30.1125 19.1274 30.2896 19.9639 30.802C20.9285 31.393 21.8927 32.4997 22.0049 34.1145L22.04 34.679C22.114 36.0329 22.1263 37.6384 21.9375 39.2249C21.731 40.9594 21.237 43.1133 19.9238 44.8489C19.9198 44.8543 19.9152 44.8601 19.9111 44.8655C19.22 45.7678 18.3171 46.1921 17.7881 46.3938C17.1991 46.6183 16.5979 46.7431 16.085 46.8196C15.0523 46.9736 13.9067 46.9971 12.8877 46.9709C11.8447 46.9442 10.805 46.8615 9.93555 46.7571C9.17506 46.6657 8.24102 46.524 7.58105 46.304C7.56812 46.2996 7.55487 46.2957 7.54199 46.2913C6.25797 45.8464 5.5459 44.904 5.20117 44.3254C4.83428 43.7097 4.6189 43.0664 4.4834 42.5481C4.20864 41.4969 4.10021 40.3214 4.0791 39.2893C4.05769 38.2419 4.12259 37.138 4.28516 36.1858C4.3645 35.7212 4.48672 35.1725 4.69043 34.6448C4.79266 34.38 4.94883 34.0321 5.1875 33.675C5.40844 33.3446 5.83147 32.8092 6.54004 32.4104L6.53906 32.4094C6.54184 32.4079 6.54507 32.4071 6.54785 32.4055C6.5513 32.4036 6.55416 32.4006 6.55762 32.3987L6.55859 32.3997C8.31487 31.4156 11.2961 30.568 13.7295 30.1926Z" fill="#DF3122" stroke="white" stroke-width="7" stroke-linejoin="round"/>
<path d="M13.7475 30.2021C14.9812 30.0119 16.404 29.8882 17.6577 30.0459C18.2628 30.122 19.1457 30.2993 19.9819 30.8115C20.9471 31.4029 21.9126 32.5105 22.0239 34.127C22.0294 34.2069 22.0317 34.2871 22.0317 34.3672V34.6807C22.0316 35.7279 21.5625 36.72 20.7534 37.3848C19.944 38.0496 18.8794 38.3176 17.852 38.1143C17.8516 38.1142 17.8249 38.1088 17.767 38.1035C17.709 38.0982 17.63 38.0934 17.5287 38.0918C17.3231 38.0886 17.061 38.0988 16.7455 38.127C16.1109 38.1837 15.36 38.3048 14.5766 38.4775C13.6557 38.6806 12.8248 38.9248 12.1772 39.1514C12.1713 39.2318 12.165 39.3166 12.1606 39.4053C12.1349 39.9214 12.1424 40.4746 12.186 40.9756C12.2318 41.5026 12.306 41.84 12.3539 41.9863C12.7543 43.2055 12.4561 44.5469 11.5756 45.4805C10.6952 46.414 9.37378 46.7902 8.13324 46.4619L7.81097 46.377C7.74612 46.3598 7.68138 46.3412 7.61761 46.3203C6.30338 45.8903 5.57447 44.9349 5.22504 44.3525C4.85346 43.7332 4.63748 43.0852 4.50238 42.5674C4.2281 41.5159 4.12141 40.3387 4.10101 39.3066C4.08032 38.2583 4.1448 37.1543 4.30609 36.2031C4.3848 35.7391 4.5058 35.1923 4.70648 34.667C4.80713 34.4036 4.96119 34.0565 5.19672 33.7002C5.41495 33.3701 5.8398 32.8246 6.55804 32.4199L6.55707 32.4189C8.31071 31.4303 11.3052 30.5789 13.7475 30.2021Z" fill="#CD2A20" stroke="white" stroke-width="7" stroke-linejoin="round"/>
<path d="M113.63 33.9902C115.27 33.9902 116.691 35.1299 117.047 36.7314L118.06 41.2969C118.433 42.9755 117.53 44.6756 115.931 45.3086L112.623 46.6182C111.68 46.9915 110.621 46.9376 109.721 46.4697C108.82 46.0018 108.168 45.1662 107.931 44.1797L106.524 38.3057C106.275 37.2635 106.516 36.1647 107.18 35.3232C107.843 34.4817 108.856 33.9902 109.928 33.9902H113.63Z" fill="#DF3122" stroke="white" stroke-width="7" stroke-linejoin="round"/>
<path d="M113.8 30.0327C115.057 29.8742 116.481 29.9989 117.715 30.1899C120.161 30.5682 123.154 31.4229 124.906 32.4106L124.905 32.4116C125.623 32.8161 126.047 33.3608 126.265 33.6909C126.501 34.0473 126.655 34.3943 126.755 34.6577C126.956 35.1832 127.078 35.7297 127.157 36.1938C127.318 37.1452 127.383 38.2498 127.362 39.2983C127.342 40.3304 127.235 41.5077 126.961 42.5591C126.825 43.0768 126.609 43.7242 126.238 44.3433C125.889 44.9256 125.159 45.8809 123.845 46.311L123.844 46.3101C123.187 46.5256 122.263 46.6662 121.504 46.7573C120.633 46.8617 119.593 46.9454 118.549 46.9722C117.531 46.9983 116.386 46.9739 115.354 46.8198C114.842 46.7433 114.24 46.6176 113.65 46.3921C113.121 46.1897 112.214 45.7633 111.523 44.853L111.524 44.8521C110.205 43.1163 109.707 40.9622 109.5 39.2271C109.282 37.4128 109.329 35.5745 109.43 34.1157L109.431 34.103C109.549 32.4946 110.509 31.3914 111.473 30.8003C112.31 30.2874 113.193 30.1093 113.8 30.0327Z" fill="#DF3122" stroke="white" stroke-width="7" stroke-linejoin="round"/>
<path d="M113.836 30.0327C115.092 29.8742 116.516 29.999 117.751 30.1899C120.193 30.5677 123.182 31.4215 124.934 32.4077L124.935 32.4067C125.657 32.8118 126.084 33.3606 126.304 33.6938C126.539 34.0516 126.693 34.3996 126.793 34.6636C126.993 35.19 127.112 35.737 127.189 36.1997C127.347 37.1485 127.409 38.2485 127.387 39.2905C127.365 40.318 127.259 41.4835 126.994 42.5229C126.864 43.0345 126.656 43.6713 126.303 44.2817C125.977 44.8435 125.276 45.8166 123.974 46.2759C123.886 46.3071 123.797 46.3349 123.706 46.3589L123.383 46.4438C122.146 46.771 120.83 46.3977 119.949 45.4702C119.069 44.5427 118.764 43.2085 119.155 41.9907C119.202 41.8434 119.274 41.5036 119.318 40.9751C119.36 40.4732 119.367 39.9198 119.34 39.4038C119.335 39.315 119.327 39.2304 119.321 39.1499C118.673 38.9242 117.841 38.6797 116.917 38.4761C116.132 38.3031 115.379 38.1804 114.741 38.1226C114.424 38.0938 114.16 38.0838 113.953 38.0864C113.851 38.0877 113.771 38.092 113.712 38.0972C113.683 38.0997 113.661 38.1019 113.645 38.104C113.631 38.106 113.623 38.1079 113.623 38.1079C112.597 38.3064 111.536 38.0364 110.73 37.3716C109.924 36.7067 109.458 35.7162 109.458 34.6714V34.3579C109.458 34.273 109.461 34.1877 109.468 34.103C109.585 32.4947 110.545 31.3914 111.509 30.8003C112.345 30.2874 113.229 30.1093 113.836 30.0327Z" fill="#CD2A20" stroke="white" stroke-width="7" stroke-linejoin="round"/>
<path d="M31.5921 62.6963L31.7581 62.7002C31.8132 62.7028 31.8683 62.7067 31.9232 62.7119C33.4854 62.8602 34.8921 63.61 35.8987 64.749L36.095 64.9814L36.2776 65.2217C37.1264 66.3937 37.5385 67.8181 37.4769 69.2441V93.1982C37.5438 94.7245 37.0678 96.2493 36.095 97.4648C35.0793 98.734 33.5895 99.5762 31.9232 99.7344C31.8133 99.7448 31.7025 99.75 31.5921 99.75H25.1194C25.005 99.75 24.8905 99.7446 24.7767 99.7334C23.1163 99.5699 21.6331 98.7281 20.6204 97.4629C19.6531 96.2542 19.1758 94.7396 19.2347 93.2217V69.2578C19.1678 67.7355 19.6403 66.2144 20.6068 64.999L20.8021 64.7656C21.8069 63.6215 23.214 62.8661 24.7786 62.7129L24.9485 62.7002C25.0055 62.6974 25.0625 62.6963 25.1194 62.6963H31.5921Z" fill="#4D1F0F" stroke="white" stroke-width="7" stroke-linejoin="round"/>
<path d="M24.0359 64.2053L24.199 64.2092C24.2535 64.2118 24.3078 64.2159 24.3621 64.2209C26.1641 64.39 27.7806 65.2983 28.8875 66.675C29.9524 67.9996 30.4767 69.6665 30.4041 71.3381V100.075C30.477 101.747 29.9543 103.414 28.8914 104.74C27.7867 106.117 26.1725 107.028 24.3719 107.202C24.2602 107.213 24.1481 107.219 24.0359 107.219H16.2899C16.1775 107.219 16.0648 107.213 15.9529 107.202C14.1525 107.028 12.539 106.117 11.4344 104.74C10.376 103.419 9.85319 101.761 9.92072 100.097V71.3167C9.85351 69.6523 10.3771 67.9939 11.4373 66.675L11.6512 66.4221C12.7474 65.1874 14.2735 64.3795 15.9627 64.2209C16.0714 64.2107 16.1807 64.2053 16.2899 64.2053H24.0359Z" fill="#663F30" stroke="white" stroke-width="7" stroke-linejoin="round"/>
<path d="M106.315 62.6963L106.486 62.7002C106.543 62.703 106.599 62.7074 106.656 62.7129C108.221 62.8661 109.628 63.6215 110.633 64.7656L110.828 64.999L111.01 65.2412C111.852 66.4112 112.261 67.8296 112.2 69.25V93.2217C112.259 94.7396 111.782 96.2542 110.814 97.4629C109.801 98.7281 108.318 99.5699 106.658 99.7334C106.544 99.7446 106.43 99.75 106.315 99.75H99.8513C99.7411 99.75 99.631 99.7448 99.5212 99.7344C97.8566 99.5765 96.3676 98.7369 95.3503 97.4707C94.377 96.259 93.8972 94.7386 93.9578 93.2148V69.2305C93.8975 67.7071 94.3772 66.187 95.3503 64.9756L95.5466 64.7432C96.5545 63.6071 97.9608 62.8599 99.5212 62.7119L99.6863 62.7002C99.7412 62.6976 99.7963 62.6963 99.8513 62.6963H106.315Z" fill="#4D1F0F" stroke="white" stroke-width="7" stroke-linejoin="round"/>
<path d="M115.154 64.2053L115.317 64.2092C115.371 64.2118 115.426 64.2158 115.481 64.2209C117.283 64.3902 118.898 65.2984 120.005 66.675C121.07 67.9996 121.595 69.6664 121.522 71.3381V100.075C121.595 101.747 121.072 103.414 120.009 104.74C118.905 106.117 117.29 107.028 115.49 107.202C115.378 107.213 115.266 107.219 115.154 107.219H107.399C107.287 107.219 107.174 107.213 107.062 107.202C105.261 107.028 103.648 106.117 102.543 104.74C101.485 103.419 100.962 101.761 101.03 100.097V71.3167C100.963 69.6523 101.486 67.9939 102.546 66.675L102.76 66.4221C103.856 65.1874 105.382 64.3795 107.072 64.2209C107.18 64.2107 107.29 64.2053 107.399 64.2053H115.154Z" fill="#663F30" stroke="white" stroke-width="7" stroke-linejoin="round"/>
<path d="M115.154 64.2053L115.317 64.2092C115.371 64.2118 115.426 64.2158 115.481 64.2209C117.283 64.3902 118.899 65.2984 120.005 66.675C121.07 67.9996 121.595 69.6664 121.522 71.3381V93.5168C121.522 94.5277 121.085 95.4899 120.324 96.1545C118.389 97.8428 115.932 98.8001 113.362 98.8206C113.344 98.8207 113.325 98.8207 113.307 98.8206C112.745 98.8163 112.184 98.7706 111.628 98.6838H111.627C111.621 98.683 111.613 98.6821 111.603 98.6809C111.572 98.6773 111.529 98.6725 111.473 98.6672C111.36 98.6567 111.212 98.6448 111.024 98.6321C110.647 98.6066 110.149 98.5806 109.525 98.554C108.279 98.5008 106.583 98.4488 104.453 98.4016C102.55 98.3594 101.03 96.8054 101.03 94.9026V71.3167C100.963 69.6523 101.486 67.9939 102.546 66.675L102.76 66.4221C103.856 65.1874 105.382 64.3795 107.072 64.2209C107.18 64.2107 107.29 64.2053 107.399 64.2053H115.154Z" fill="#582A1A" stroke="white" stroke-width="7" stroke-linejoin="round"/>
<path d="M24.0359 64.2053L24.199 64.2092C24.2535 64.2118 24.3078 64.2159 24.3621 64.2209C26.1641 64.39 27.7806 65.2983 28.8875 66.675C29.9524 67.9996 30.4767 69.6665 30.4041 71.3381V94.9026C30.4041 96.8054 28.8836 98.3595 26.9813 98.4016C24.8507 98.4488 23.1536 98.5008 21.9051 98.554C21.2802 98.5806 20.781 98.6066 20.4031 98.6321C20.2144 98.6448 20.065 98.6567 19.952 98.6672C19.896 98.6725 19.8533 98.6773 19.8221 98.6809C19.7918 98.6844 19.7789 98.686 19.7801 98.6858C19.2355 98.7711 18.6849 98.8167 18.1336 98.8206C18.1174 98.8207 18.1009 98.8207 18.0848 98.8206C15.5121 98.8024 13.0529 97.8439 11.118 96.1526C10.3577 95.488 9.92072 94.5267 9.92072 93.5168V71.3167C9.85351 69.6523 10.3771 67.9939 11.4373 66.675L11.6512 66.4221C12.7474 65.1874 14.2735 64.3795 15.9627 64.2209C16.0714 64.2107 16.1807 64.2053 16.2899 64.2053H24.0359Z" fill="#582A1A" stroke="white" stroke-width="7" stroke-linejoin="round"/>
<path d="M65.7219 3.86035C68.0364 3.86035 75.7016 4.14289 83.1955 4.89355C86.9402 5.26867 90.7437 5.77039 93.8547 6.43652C95.4041 6.76829 96.8778 7.15992 98.1242 7.63574C99.2337 8.05931 100.708 8.74386 101.705 9.93945C103.616 12.2309 106.355 17.3434 108.929 23.4688C111.541 29.6851 114.154 37.3567 115.715 45.0664C115.728 45.1 115.757 45.1715 115.811 45.2871C115.929 45.5412 116.105 45.8816 116.341 46.3086C116.815 47.1662 117.424 48.1854 118.074 49.2783C118.703 50.3348 119.374 51.4676 119.893 52.4395C120.152 52.9242 120.406 53.4305 120.608 53.9072C120.759 54.2654 121.063 55.0156 121.112 55.8516H121.113C121.158 56.5902 121.738 65.4321 121.431 73.9766C121.279 78.2071 120.904 82.612 120.048 85.9688C119.63 87.6079 119.015 89.3453 118.009 90.6963C116.913 92.168 115.018 93.5334 112.461 93.1084C112.052 93.0412 110.461 92.943 107.59 92.8545C104.849 92.77 101.199 92.6994 96.9045 92.6426C88.319 92.529 77.2103 92.4717 65.758 92.4717C54.3056 92.4717 43.1943 92.529 34.6076 92.6426C30.3126 92.6994 26.6625 92.77 23.9221 92.8545C21.0496 92.943 19.4612 93.0415 19.0558 93.1084L19.0549 93.1074C16.5031 93.5307 14.6046 92.1791 13.4992 90.7031C12.4867 89.3512 11.8691 87.612 11.4494 85.9717C10.5902 82.6131 10.2147 78.2066 10.0627 73.9766C9.90855 69.6875 9.97819 65.3391 10.0871 61.9883C10.1417 60.3086 10.2065 58.8711 10.259 57.8076C10.2852 57.2762 10.3083 56.8374 10.3254 56.5127C10.334 56.349 10.3408 56.2182 10.3459 56.1172C10.3484 56.0672 10.3504 56.028 10.3517 55.998C10.353 55.9701 10.3527 55.9576 10.3527 55.9561L10.3752 55.6328C10.4544 54.8926 10.7092 54.2534 10.84 53.9355C11.0392 53.4518 11.2929 52.9399 11.55 52.4531C12.0658 51.4765 12.7356 50.3407 13.3625 49.2832C14.0117 48.188 14.6198 47.1687 15.0939 46.3096C15.3297 45.8824 15.506 45.5424 15.6242 45.2881C15.6774 45.1737 15.7044 45.1016 15.718 45.0674C17.2837 37.3573 19.899 29.6925 22.5129 23.4785C25.0889 17.3545 27.8284 12.2456 29.7453 9.94238L29.9377 9.72363C30.9249 8.65961 32.2848 8.03027 33.3293 7.62988C34.5777 7.15134 36.0526 6.75744 37.6027 6.4248C40.7151 5.75695 44.518 5.25617 48.2609 4.88281C55.7521 4.13557 63.4097 3.86036 65.7219 3.86035Z" fill="#DF3122" stroke="white" stroke-width="7" stroke-linejoin="round"/>
<path d="M65.9696 31.854L106.222 34.7007L106.405 34.7183C107.319 34.8315 108.153 35.3014 108.725 36.0288C111.827 39.9736 112.88 43.8429 112.495 47.1216C112.306 48.728 111.769 50.1721 110.975 51.3306C110.25 52.3887 109.091 53.5042 107.506 53.9097L107.507 53.9126C105.595 54.4186 101.999 56.4158 96.0809 55.2642L96.0673 55.2612C91.1152 54.277 78.6199 53.7349 65.7118 53.7349C52.804 53.7349 40.3064 54.2778 35.3495 55.2622L35.3485 55.2612C29.4304 56.4374 25.802 54.413 23.911 53.9126V53.9116C21.5588 53.3004 19.3043 51.1481 18.7831 47.8237C18.2726 44.5672 19.4667 40.6849 22.5985 36.1909C23.2033 35.3231 24.1684 34.7753 25.2235 34.7007L65.4755 31.854L65.7225 31.8452C65.8048 31.8452 65.8875 31.8482 65.9696 31.854Z" fill="#E74D3F" stroke="white" stroke-width="7" stroke-linejoin="round"/>
<path d="M21.4059 46.7375C22.1526 46.6767 22.9918 46.6853 23.8278 46.7278C25.5158 46.8136 27.5352 47.0564 29.4929 47.3704C31.4559 47.6851 33.4461 48.0853 35.0827 48.5081C35.8964 48.7183 36.6771 48.948 37.3454 49.1926C37.8015 49.3596 38.5745 49.6582 39.2487 50.1526L39.53 50.3772L39.6599 50.4954C40.0115 50.8318 40.2339 51.1819 40.3073 51.2981C40.4184 51.4738 40.516 51.6502 40.5964 51.804C40.7593 52.1155 40.9271 52.4785 41.0905 52.8586C41.4204 53.6262 41.7917 54.6062 42.1403 55.6809C42.8071 57.7363 43.5259 60.5529 43.4909 63.0081L43.4919 63.009C43.4706 64.5042 42.653 65.5771 41.8405 66.175C41.1374 66.6925 40.3895 66.9122 39.9108 67.0208C38.9202 67.2453 37.7843 67.2663 36.7751 67.2317C34.6683 67.1594 31.9886 66.7916 29.405 66.3293C26.7934 65.8621 24.1356 65.2725 22.0251 64.7122C20.9755 64.4335 20.0117 64.1491 19.238 63.8772C18.8554 63.7428 18.4646 63.592 18.11 63.427C17.8798 63.3198 17.2518 63.0255 16.7097 62.4973L16.7087 62.4983C16.7032 62.493 16.6985 62.487 16.6931 62.4817C16.6882 62.4769 16.6823 62.4728 16.6774 62.468L16.6784 62.467C16.0189 61.8101 15.7766 61.0709 15.696 60.8069C15.5849 60.4432 15.5304 60.1013 15.4997 59.8489C15.4372 59.3349 15.4272 58.7808 15.4362 58.2756C15.4547 57.2409 15.5646 56.0027 15.7263 54.8098C15.8875 53.6199 16.1156 52.3602 16.402 51.2952C16.543 50.7709 16.7227 50.1999 16.9548 49.676C17.1031 49.3411 17.5675 48.2965 18.5954 47.6008L18.5964 47.6018C19.2042 47.1904 19.8203 47.009 20.194 46.9202C20.6135 46.8205 21.0329 46.768 21.4059 46.7375Z" fill="#E6E6E6" stroke="white" stroke-width="7" stroke-linejoin="round"/>
<path d="M21.4069 46.7375C22.1537 46.6768 22.9926 46.685 23.8288 46.7278C25.5173 46.8141 27.5372 47.0584 29.4958 47.3743C31.4596 47.691 33.4523 48.0949 35.0915 48.5227C35.9062 48.7353 36.6889 48.9678 37.36 49.217C37.8186 49.3873 38.5968 49.6931 39.2741 50.1995L39.5573 50.429L39.7067 50.5696C39.8522 50.7141 39.9851 50.8714 40.1032 51.0393C40.5368 51.6558 40.8876 52.3257 41.1491 53.0305C41.6284 54.3224 41.3049 55.7757 40.3229 56.7424C39.341 57.7089 37.8834 58.0093 36.5993 57.51C35.234 56.9791 32.0056 56.2563 28.7546 55.7942C27.172 55.5692 25.7215 55.4265 24.6296 55.3928C24.625 55.3927 24.6205 55.392 24.6159 55.3918C24.5522 55.6793 24.4875 56.0007 24.4265 56.3499C24.1443 57.9635 24.0041 59.6499 24.0358 60.4827C24.0781 61.5941 23.5902 62.6596 22.7204 63.3528C21.8506 64.046 20.7026 64.2845 19.6286 63.9954C18.7734 63.7651 17.9636 63.3983 17.2263 62.9133C17.0412 62.7916 16.8675 62.6527 16.7087 62.4983C16.0257 61.8339 15.7779 61.075 15.696 60.8069C15.5849 60.4431 15.5304 60.1014 15.4997 59.8489C15.4372 59.3348 15.4272 58.7809 15.4362 58.2756C15.4547 57.2409 15.5646 56.0028 15.7263 54.8098C15.8875 53.62 16.1156 52.3602 16.402 51.2952C16.543 50.7709 16.7228 50.1998 16.9548 49.676C17.1031 49.3411 17.5675 48.2965 18.5954 47.6008L18.5964 47.6018C19.2044 47.1902 19.8212 47.0089 20.195 46.9202C20.6146 46.8206 21.0338 46.7679 21.4069 46.7375Z" fill="#B2B2B2" stroke="white" stroke-width="7" stroke-linejoin="round"/>
<path d="M26.2313 70.8481C27.7766 70.8481 29.2251 71.4588 30.3075 72.4956L30.5194 72.7085L30.7186 72.9302C31.6849 74.0591 32.1971 75.4967 32.1971 76.9575C32.1971 78.123 31.8713 79.2775 31.2411 80.2759C30.6098 81.276 29.6925 82.0873 28.5809 82.5747C27.4666 83.0633 26.2277 83.194 25.0302 82.9419C23.8343 82.6901 22.7642 82.0746 21.9442 81.2065C21.1263 80.3407 20.5896 79.2612 20.3739 78.1138C20.1584 76.9668 20.2681 75.7757 20.6952 74.6841L20.7782 74.48C21.2151 73.4709 21.9201 72.5813 22.8407 71.9302L23.0282 71.8032C23.9736 71.1871 25.0825 70.8482 26.2313 70.8481Z" fill="#4D4D4D" stroke="white" stroke-width="7" stroke-linejoin="round"/>
<path d="M28.0986 77.2688C28.1492 76.9944 28.1322 76.7098 28.0459 76.4377L28.0049 76.3225L27.9551 76.2083C27.8457 75.9806 27.6817 75.7652 27.4629 75.5862L27.3496 75.4993L27.2266 75.4202C26.9734 75.2704 26.68 75.1754 26.3682 75.1526L26.2109 75.1467C25.7132 75.1497 25.2671 75.3364 24.9375 75.6233L24.8037 75.7522C24.5142 76.0604 24.3602 76.4336 24.3262 76.801L24.3184 76.9583L24.3223 77.0764C24.3415 77.3539 24.4294 77.6336 24.5908 77.8889C24.7764 78.1823 25.0604 78.442 25.4307 78.6038C25.8039 78.7667 26.2267 78.8121 26.6367 78.7249C27.045 78.6379 27.3912 78.431 27.6426 78.1633C27.8919 77.8978 28.0407 77.5829 28.0986 77.2688ZM25.9082 75.302C26.2179 75.2361 26.539 75.2692 26.8311 75.3967L26.9385 75.4485C27.1845 75.5792 27.395 75.7755 27.5488 76.0188L27.6113 76.1252C27.7469 76.3785 27.8184 76.6657 27.8184 76.9583L27.8105 77.1243C27.7746 77.5094 27.6145 77.8718 27.3545 78.1487L27.2383 78.261C26.956 78.5075 26.6005 78.6445 26.2314 78.6467C25.9549 78.6483 25.6835 78.5742 25.4434 78.4319L25.3428 78.3674C25.0792 78.183 24.8731 77.9191 24.751 77.6106C24.6289 77.3022 24.5957 76.9622 24.6562 76.634C24.7168 76.3059 24.8681 76.004 25.0908 75.7668C25.2857 75.5594 25.5281 75.4097 25.793 75.3313L25.9082 75.302ZM31.3184 76.9583C31.3183 78.2673 30.8307 79.56 29.9053 80.5452C28.9736 81.537 27.6652 82.1382 26.2529 82.1467C25.1979 82.153 24.182 81.8267 23.3359 81.2346C22.4927 80.6445 21.8632 79.8241 21.4971 78.8997C21.1315 77.9764 21.0359 76.9694 21.2148 75.9993C21.3939 75.0286 21.845 74.1102 22.54 73.3704L22.8115 73.1028C23.4676 72.5009 24.2803 72.0706 25.1797 71.8792L25.373 71.8411C26.2772 71.6855 27.2019 71.7824 28.0508 72.1145L28.2324 72.1887L28.582 72.3577C29.3789 72.7812 30.037 73.4054 30.5068 74.1487C31.0427 74.9963 31.3183 75.9737 31.3184 76.9583Z" fill="#E6E6E6" stroke="white" stroke-width="7" stroke-linejoin="round"/>
<path d="M65.7219 8.40527C69.4112 8.40527 77.0552 8.75355 84.0911 9.26953C87.6185 9.52822 91.0462 9.83315 93.7883 10.1641C95.1554 10.329 96.3944 10.5052 97.4084 10.6934C98.1719 10.835 99.1263 11.0354 99.9163 11.3613L100.243 11.5088L100.513 11.6572C101.125 12.0292 101.61 12.5819 101.9 13.2422L101.901 13.2432C101.901 13.244 101.901 13.2456 101.902 13.2471C101.903 13.25 101.905 13.2543 101.907 13.2598C101.912 13.2708 101.92 13.2867 101.929 13.3076C101.947 13.3496 101.974 13.4113 102.009 13.4912C102.079 13.6511 102.179 13.8847 102.307 14.1816C102.563 14.7756 102.926 15.6249 103.358 16.6504C104.219 18.6988 105.358 21.463 106.456 24.3066C107.549 27.1339 108.629 30.1095 109.354 32.5586C109.713 33.7713 110.015 34.9576 110.176 35.9785C110.256 36.4845 110.318 37.0542 110.306 37.6211C110.296 38.0865 110.235 39.0476 109.675 39.9814C108.275 42.3178 105.707 42.4694 104.368 42.4863C102.807 42.5061 100.564 42.29 97.7073 42.041C91.8125 41.5273 82.0192 40.7334 65.7219 40.7334C49.4111 40.7334 39.6152 41.5273 33.7229 42.041C30.8682 42.2899 28.6264 42.5061 27.0676 42.4863C25.7315 42.4694 23.1591 42.3175 21.7629 39.9727C21.207 39.0388 21.1482 38.0787 21.1389 37.6152C21.1277 37.0496 21.1908 36.4811 21.2708 35.9756C21.4321 34.9555 21.7348 33.7695 22.094 32.5566C22.8193 30.1073 23.8989 27.131 24.9905 24.3027C26.0884 21.4581 27.2254 18.6928 28.0862 16.6436C28.5171 15.6176 28.8803 14.7681 29.136 14.1738C29.2638 13.8767 29.3654 13.6433 29.4348 13.4834C29.4695 13.4035 29.4966 13.3418 29.5149 13.2998C29.524 13.279 29.5306 13.2629 29.5354 13.252C29.5378 13.2465 29.54 13.2422 29.5413 13.2393C29.5419 13.2378 29.5419 13.2362 29.5422 13.2354L29.5432 13.2344L29.679 12.958C30.023 12.3294 30.5534 11.8193 31.2004 11.5C32.0413 11.085 33.1625 10.8463 34.0344 10.6846C35.0475 10.4967 36.2852 10.3208 37.6506 10.1562C40.3893 9.82625 43.8119 9.52213 47.3362 9.26465C54.3672 8.75099 62.0111 8.40527 65.7219 8.40527Z" fill="#29B6F6" stroke="white" stroke-width="7" stroke-linejoin="round"/>
<path d="M107.616 46.7278C108.452 46.6853 109.291 46.6767 110.037 46.7375C110.41 46.768 110.829 46.8206 111.249 46.9202C111.623 47.0089 112.24 47.1902 112.848 47.6018L112.849 47.6008C113.877 48.2965 114.341 49.3409 114.489 49.676C114.721 50.1999 114.901 50.7708 115.042 51.2952C115.328 52.3606 115.556 53.6212 115.717 54.8118C115.878 56.0052 115.987 57.2449 116.004 58.2815C116.012 58.7875 116.001 59.3432 115.937 59.8596C115.905 60.1135 115.849 60.4574 115.735 60.8235C115.653 61.0895 115.409 61.8175 114.756 62.467L114.757 62.468C114.752 62.4732 114.745 62.4775 114.74 62.4827C114.73 62.4931 114.72 62.5045 114.709 62.5149L114.707 62.5129C114.169 63.0306 113.553 63.3209 113.325 63.427C112.971 63.5921 112.579 63.7427 112.196 63.8772C111.423 64.149 110.46 64.4335 109.41 64.7122C107.3 65.2725 104.642 65.862 102.03 66.3293C99.4466 66.7916 96.7669 67.1594 94.6602 67.2317C93.6507 67.2663 92.5143 67.2454 91.5234 67.0208C91.0448 66.9122 90.2978 66.6923 89.5947 66.175C88.7822 65.5771 87.9636 64.5042 87.9424 63.009L87.9434 63.0081C87.9084 60.551 88.6304 57.7328 89.2979 55.679C89.6471 54.6044 90.0191 53.6254 90.3477 52.8596C90.5104 52.4804 90.6773 52.1206 90.8379 51.8118C90.9172 51.6593 91.0127 51.4849 91.1211 51.3118C91.1922 51.1982 91.409 50.8524 91.751 50.5188L91.9121 50.3704C92.6395 49.7447 93.5717 49.3828 94.0947 49.1917C94.7632 48.9473 95.5435 48.7182 96.3574 48.5081C97.995 48.0854 99.9866 47.6851 101.95 47.3704C103.908 47.0565 105.928 46.8136 107.616 46.7278Z" fill="#E6E6E6" stroke="white" stroke-width="7" stroke-linejoin="round"/>
<path d="M107.615 46.7278C108.451 46.6851 109.29 46.6768 110.037 46.7375C110.41 46.7679 110.829 46.8206 111.249 46.9202C111.623 47.0089 112.24 47.1902 112.848 47.6018L112.849 47.6008C113.876 48.2964 114.341 49.3406 114.489 49.676C114.721 50.2001 114.901 50.7715 115.042 51.2961C115.328 52.3621 115.557 53.6232 115.718 54.8157C115.879 56.0112 115.987 57.2531 116.004 58.2932C116.012 58.8015 116.001 59.3576 115.938 59.8743C115.906 60.1287 115.851 60.4694 115.74 60.8313C115.657 61.1048 115.415 61.8379 114.764 62.4905C114.602 62.6521 114.425 62.7969 114.235 62.9241C113.492 63.423 112.67 63.7975 111.801 64.0276C110.728 64.3113 109.585 64.0701 108.719 63.3772C107.853 62.6842 107.366 61.6213 107.407 60.5129C107.439 59.6607 107.3 57.9642 107.02 56.3508C106.959 56.001 106.894 55.6792 106.83 55.3918C106.823 55.3921 106.816 55.3926 106.809 55.3928C105.716 55.4266 104.265 55.5693 102.683 55.7942C99.4311 56.2564 96.2068 56.9792 94.8477 57.509C93.5648 58.0091 92.1078 57.7106 91.125 56.7463C90.1422 55.7819 89.8162 54.3305 90.292 53.0383C90.5485 52.3418 90.8903 51.6782 91.3125 51.0657L91.4414 50.8918C91.5746 50.7222 91.7234 50.5646 91.8857 50.4221C92.6156 49.7813 93.5532 49.4111 94.0791 49.2161C94.7507 48.9671 95.5342 48.7344 96.3496 48.5217C97.9898 48.094 99.9829 47.691 101.947 47.3743C103.906 47.0584 105.927 46.8141 107.615 46.7278Z" fill="#B2B2B2" stroke="white" stroke-width="7" stroke-linejoin="round"/>
<path d="M65.7223 48.8125C67.9447 48.8125 74.2977 48.9033 80.0533 48.9932C82.9403 49.0383 85.6902 49.0834 87.7184 49.1172C88.7325 49.1341 89.5668 49.1483 90.1471 49.1582C90.4371 49.1631 90.6638 49.1673 90.818 49.1699C90.8951 49.1712 90.954 49.1722 90.9938 49.1729C91.0135 49.1732 91.0286 49.1737 91.0387 49.1738H91.0543C92.32 49.1957 93.4756 49.8991 94.0758 51.0137C94.6759 52.1282 94.6272 53.4801 93.9489 54.5488C94.0647 54.3663 94.0553 54.3284 93.8981 54.7324C93.7774 55.0425 93.6279 55.4567 93.444 55.9785C93.0885 56.9868 92.6239 58.3402 92.1188 59.666C91.6192 60.9775 91.0232 62.4152 90.3668 63.6113C90.0404 64.2062 89.6406 64.8512 89.1598 65.4189C88.7336 65.9222 87.939 66.7358 86.7389 67.1143C85.2704 67.5772 81.9792 68.0339 78.3658 68.3779C74.5942 68.737 70.0163 69.0127 65.7223 69.0127C61.4282 69.0127 56.8477 68.737 53.0739 68.3779C49.4586 68.0339 46.1647 67.5773 44.6959 67.1143C43.4924 66.7348 42.6974 65.9169 42.2721 65.4131C41.7919 64.8441 41.3918 64.1983 41.066 63.6025C40.4111 62.4048 39.8175 60.9652 39.319 59.6533C38.8155 58.3285 38.3499 56.9709 37.9957 55.9688C37.812 55.449 37.6631 55.0396 37.5436 54.7354C37.4691 54.5457 37.4294 54.4578 37.4215 54.4395C36.8125 53.3988 36.7794 52.113 37.3463 51.0391C37.9421 49.9106 39.1046 49.1959 40.3805 49.1738H40.3961C40.4062 49.1737 40.4213 49.1732 40.441 49.1729C40.4808 49.1722 40.5398 49.1712 40.6168 49.1699C40.771 49.1673 40.9977 49.1631 41.2877 49.1582C41.868 49.1483 42.7022 49.1341 43.7164 49.1172C45.7447 49.0834 48.4949 49.0383 51.3824 48.9932C57.1396 48.9032 63.4958 48.8125 65.7223 48.8125Z" fill="#B2B2B2" stroke="white" stroke-width="7" stroke-linejoin="round"/>
<path d="M90.9938 49.1733C92.2705 49.1734 93.4462 49.8689 94.0612 50.9878C94.6759 52.1066 94.633 53.4715 93.9489 54.5493C94.0657 54.3653 94.0566 54.3262 93.899 54.7319C93.7784 55.0427 93.6289 55.4578 93.4449 55.981C93.0895 56.9917 92.6246 58.3482 92.1198 59.6772C91.6202 60.9922 91.0248 62.4336 90.3688 63.6323C90.0426 64.2283 89.6431 64.8741 89.1627 65.4429C88.7373 65.9465 87.9419 66.7637 86.7389 67.1431C85.2704 67.606 81.9792 68.0627 78.3658 68.4067C74.5942 68.7658 70.0163 69.0415 65.7223 69.0415C61.4282 69.0415 56.8477 68.7658 53.0739 68.4067C49.4586 68.0627 46.1647 67.6061 44.6959 67.1431C43.4924 66.7636 42.6974 65.9457 42.2721 65.4419C41.7918 64.8729 41.3918 64.2271 41.066 63.6313C40.411 62.4335 39.8175 60.9932 39.319 59.6812C38.8156 58.3564 38.3499 56.9996 37.9957 55.9976C37.8121 55.4778 37.6631 55.0684 37.5436 54.7642C37.4498 54.5255 37.4106 54.4483 37.4215 54.4673C36.8076 53.4176 36.7789 52.1198 37.36 51.0415C37.9706 49.9085 39.154 49.2017 40.441 49.2017H40.9166L41.1764 49.2114C42.468 49.3074 43.6105 50.1128 44.1295 51.3149C44.8017 52.8718 45.3646 54.4843 46.2233 56.3188C46.6119 57.1492 46.9581 57.7825 47.2418 58.1948C48.3507 58.3952 50.6345 58.6876 53.7008 58.9448C57.3187 59.2483 61.6861 59.479 65.7223 59.479C69.7595 59.479 74.1241 59.25 77.7389 58.9478C80.7919 58.6925 83.0605 58.4022 84.1676 58.2017C84.4592 57.7783 84.8135 57.1293 85.2096 56.2847C86.0588 54.474 86.6544 52.8015 87.3033 51.2915L87.4147 51.0562C88.0137 49.9057 89.2068 49.1735 90.5182 49.1733H90.9938Z" fill="#808080" stroke="white" stroke-width="7" stroke-linejoin="round"/>
<path d="M94.8954 72.3706C96.1013 72.0786 97.3783 72.4455 98.2441 73.3481C99.1567 74.2998 99.4574 75.6839 99.0214 76.9282L95.7177 75.771C98.9977 76.9202 99.0214 76.9287 99.0214 76.9292L99.0204 76.9302C99.0202 76.931 99.0198 76.932 99.0195 76.9331C99.0187 76.9352 99.0176 76.9378 99.0165 76.9409C99.0143 76.9474 99.0115 76.9566 99.0078 76.9673C99.0002 76.9886 98.9889 77.0179 98.9755 77.0552C98.9486 77.1301 98.9104 77.2368 98.8613 77.3696C98.7631 77.6349 98.6212 78.0084 98.4443 78.4546C98.093 79.3404 97.5889 80.5441 96.9921 81.7632C96.4118 82.9486 95.6701 84.3031 94.8193 85.4048C94.3962 85.9525 93.847 86.5695 93.1669 87.0708C92.5066 87.5575 91.4168 88.1576 90.0146 88.103C87.6647 88.0117 67.7781 88.106 65.7216 88.106C63.6753 88.106 43.7745 88.0214 41.4062 88.104C40.0098 88.1527 38.9241 87.5545 38.2636 87.0669C37.5839 86.565 37.0343 85.9474 36.6113 85.3989C35.7606 84.2961 35.0201 82.9417 34.4413 81.7563C33.8463 80.5376 33.3448 79.335 32.9951 78.4497C32.8188 78.0037 32.6778 77.63 32.58 77.3647C32.5312 77.2322 32.4926 77.1261 32.4658 77.0513C32.4524 77.0139 32.4421 76.9838 32.4345 76.9624C32.4307 76.9517 32.428 76.9425 32.4257 76.936C32.4246 76.9329 32.4235 76.9303 32.4228 76.9282C32.4224 76.9271 32.4221 76.9261 32.4218 76.9253L32.4208 76.9243C32.421 76.9237 32.4544 76.9117 35.7255 75.771L32.4208 76.9233C31.9867 75.6784 32.2892 74.2955 33.2031 73.3452C34.0691 72.4447 35.3445 72.0788 36.5488 72.3706C36.5729 72.374 36.6108 72.3792 36.665 72.3853C36.8428 72.4051 37.1071 72.4272 37.4667 72.4497C38.1816 72.4945 39.1533 72.533 40.331 72.5659C42.6803 72.6316 45.7385 72.6714 48.9667 72.6938C55.4206 72.7388 62.461 72.7173 65.7216 72.7173C68.9821 72.7173 76.0207 72.7388 82.4736 72.6938C85.7011 72.6714 88.7586 72.6316 91.1083 72.5659C92.2864 72.533 93.2589 72.4945 93.9745 72.4497C94.3345 72.4272 94.5998 72.4051 94.7783 72.3853C94.833 72.3792 94.8713 72.374 94.8954 72.3706Z" fill="#4D4D4D" stroke="white" stroke-width="7" stroke-linejoin="round"/>
<path d="M33.5719 73.0432C34.4108 72.4224 35.4799 72.2104 36.4869 72.4573C36.5111 72.4606 36.546 72.4657 36.5934 72.4709C36.7712 72.4907 37.0355 72.5129 37.3951 72.5354C38.11 72.5802 39.0817 72.6187 40.2594 72.6516C42.6087 72.7173 45.6669 72.7571 48.8951 72.7795C55.349 72.8245 62.3894 72.803 65.65 72.803C68.9106 72.803 75.9491 72.8245 82.402 72.7795C85.6295 72.7571 88.687 72.7173 91.0367 72.6516C92.2148 72.6187 93.1873 72.5802 93.903 72.5354C94.2629 72.5129 94.5282 72.4908 94.7067 72.4709C94.962 72.4425 94.8603 72.4376 94.6285 72.5081L95.5914 75.6799C95.653 75.7369 95.7135 75.7951 95.7711 75.8567H99.1461C99.1461 75.8704 99.1453 75.884 99.1451 75.8977C99.1452 75.9013 99.1451 75.9049 99.1451 75.9084L99.1461 75.929C99.1502 76.3779 99.0678 76.8245 98.903 77.2434C98.9042 77.2403 98.9059 77.2371 98.9069 77.2346C98.8987 77.2575 98.8904 77.2808 98.8727 77.3313C98.8413 77.4208 98.793 77.5583 98.7321 77.7161C98.7269 77.7294 98.7217 77.7429 98.7164 77.7561C98.6926 77.8156 98.3763 78.6318 98.2457 78.9543C98.1994 79.0687 98.1446 79.1782 98.0875 79.2854C97.5326 80.6222 96.7313 82.4044 95.8033 83.9309C95.3085 84.7449 94.6842 85.6461 93.9371 86.3811C93.309 86.9991 91.9995 88.0897 90.151 88.0745V88.0774H88.8248C87.0216 88.0774 85.513 86.7073 85.3405 84.9124C85.2269 83.7306 85.7188 82.6219 86.5719 81.9026C79.2071 81.9957 69.61 81.9661 65.7223 81.9661C61.8064 81.9661 52.0918 81.9962 44.7037 81.9006C45.5791 82.6387 46.0679 83.7865 45.9244 84.9915C45.7147 86.7518 44.2217 88.0774 42.4489 88.0774H41.1139V88.0745C39.265 88.0898 37.9563 86.9971 37.3317 86.3821C36.5866 85.6485 35.9635 84.7484 35.4694 83.9358C34.4653 82.2847 33.6051 80.3351 33.0494 78.9709C33.047 78.9649 33.0441 78.9584 33.0416 78.9524C32.9646 78.7602 32.8283 78.4252 32.7174 78.1321C32.6599 77.9968 32.6138 77.8818 32.5944 77.8293C32.5746 77.7761 32.5584 77.729 32.5465 77.6956C32.5443 77.6893 32.5416 77.6835 32.5397 77.678L32.3971 77.3C32.2364 76.8918 32.1539 76.4566 32.1539 76.0178V75.8567L32.1598 75.6497C32.2208 74.6183 32.7358 73.662 33.5719 73.0432Z" fill="#333333" stroke="white" stroke-width="7" stroke-linejoin="round"/>
<path d="M69.3484 72.9243C69.3484 73.8539 68.9781 74.7462 68.3201 75.4028C67.6621 76.0592 66.77 76.4264 65.8406 76.4243C49.3298 76.388 32.8334 75.3947 16.4255 73.4487C16.4136 73.4473 16.4014 73.4464 16.3894 73.4448C15.0297 73.2693 14.0672 72.5229 13.4783 71.8569C12.9008 71.2038 12.5306 70.4698 12.2888 69.8511C11.8033 68.609 11.5845 67.1907 11.5564 65.9302C11.5298 64.7343 11.6633 63.1928 12.2869 61.8687C12.6049 61.1935 13.2067 60.2446 14.3142 59.6284C15.5566 58.9373 16.9067 58.9551 18.0378 59.3706L18.0388 59.3696C19.5197 59.9105 22.7315 60.5144 27.2019 61.0894C31.5454 61.648 36.7373 62.1406 41.9363 62.5493C52.3658 63.3693 62.6077 63.8354 65.8484 63.8354C67.7813 63.8355 69.3484 65.4025 69.3484 67.3354V72.9243Z" fill="#E74D3F" stroke="white" stroke-width="7" stroke-linejoin="round"/>
<path d="M113.649 59.3696C114.781 58.9534 116.131 58.9383 117.371 59.6294C118.477 60.2456 119.078 61.1941 119.396 61.8677C120.019 63.1899 120.155 64.7297 120.13 65.9263C120.104 67.1867 119.885 68.6062 119.4 69.8501C119.158 70.4698 118.788 71.2049 118.208 71.8589C117.617 72.5268 116.653 73.2702 115.295 73.4448C115.284 73.4463 115.272 73.4474 115.261 73.4487C98.8561 75.3945 82.3626 76.3878 65.8547 76.4243C64.9253 76.4264 64.0333 76.0592 63.3752 75.4028C62.7172 74.7462 62.3469 73.8539 62.3469 72.9243V67.3354C62.3469 65.4025 63.9139 63.8354 65.8469 63.8354C69.0831 63.8354 79.3199 63.3693 89.7473 62.5493C94.9453 62.1406 100.137 61.648 104.481 61.0894C108.951 60.5144 112.165 59.91 113.649 59.3687V59.3696Z" fill="#E74D3F" stroke="white" stroke-width="7" stroke-linejoin="round"/>
<path d="M105.52 70.856C106.949 70.9313 108.278 71.528 109.288 72.4956L109.5 72.7085L109.699 72.9302C110.665 74.0591 111.177 75.4967 111.177 76.9575C111.177 78.123 110.852 79.2776 110.221 80.2759C109.59 81.276 108.673 82.0873 107.561 82.5747C106.447 83.0633 105.208 83.194 104.01 82.9419C102.815 82.6901 101.745 82.0746 100.925 81.2065C100.107 80.3407 99.5699 79.2612 99.3542 78.1138C99.1387 76.9668 99.2484 75.7757 99.6755 74.6841L99.7585 74.48C100.195 73.4709 100.9 72.5813 101.821 71.9302L102.009 71.8032C102.954 71.187 104.064 70.8481 105.213 70.8481L105.52 70.856Z" fill="#4D4D4D" stroke="white" stroke-width="7" stroke-linejoin="round"/>
<path d="M107.08 77.2688C107.13 76.9944 107.113 76.7098 107.027 76.4377L106.986 76.3225L106.936 76.2083C106.827 75.9807 106.663 75.7652 106.444 75.5862L106.331 75.4993L106.208 75.4202C105.955 75.2704 105.661 75.1754 105.349 75.1526L105.192 75.1467C104.694 75.1497 104.248 75.3364 103.919 75.6233L103.785 75.7522C103.495 76.0604 103.341 76.4336 103.307 76.801L103.299 76.9583L103.303 77.0764C103.323 77.3539 103.411 77.6336 103.572 77.8889C103.757 78.1823 104.042 78.442 104.412 78.6038C104.785 78.7667 105.208 78.8121 105.618 78.7249C106.026 78.6379 106.372 78.431 106.624 78.1633C106.873 77.8978 107.022 77.5829 107.08 77.2688ZM104.889 75.302C105.199 75.2361 105.52 75.2692 105.812 75.3967L105.92 75.4485C106.166 75.5792 106.376 75.7755 106.53 76.0188L106.592 76.1252C106.728 76.3785 106.799 76.6657 106.799 76.9583L106.792 77.1243C106.756 77.5094 106.596 77.8718 106.336 78.1487L106.219 78.261C105.937 78.5075 105.582 78.6445 105.213 78.6467C104.936 78.6483 104.665 78.5742 104.424 78.4319L104.324 78.3674C104.06 78.183 103.854 77.9191 103.732 77.6106C103.61 77.3022 103.577 76.9622 103.637 76.634C103.698 76.3059 103.849 76.004 104.072 75.7668C104.267 75.5594 104.509 75.4097 104.774 75.3313L104.889 75.302ZM110.299 76.9583C110.299 78.2673 109.812 79.56 108.886 80.5452C107.955 81.537 106.646 82.1382 105.234 82.1467C104.179 82.153 103.163 81.8267 102.317 81.2346C101.474 80.6445 100.844 79.824 100.478 78.8997C100.113 77.9764 100.017 76.9694 100.196 75.9993C100.375 75.0286 100.826 74.1102 101.521 73.3704L101.793 73.1028C102.449 72.501 103.261 72.0706 104.161 71.8792L104.354 71.8411C105.258 71.6855 106.183 71.7824 107.032 72.1145L107.214 72.1887L107.563 72.3577C108.36 72.7812 109.018 73.4054 109.488 74.1487C110.024 74.9963 110.299 75.9737 110.299 76.9583Z" fill="#E6E6E6" stroke="white" stroke-width="7" stroke-linejoin="round"/>
<path opacity="0.2" d="M46.7874 9.33423C48.093 9.24702 49.3386 9.89526 50.0159 11.0149C50.693 12.1346 50.6886 13.5387 50.0051 14.6545L34.1194 40.5901C33.5602 41.5028 32.6138 42.1092 31.551 42.2366C29.7808 42.4487 27.9977 42.5196 26.217 42.4485C24.9765 42.3989 23.855 41.6958 23.2698 40.6008C22.6848 39.506 22.7233 38.1831 23.3713 37.1243L39.1223 11.3879L39.2336 11.218C39.813 10.3843 40.7289 9.84048 41.7454 9.73462C43.3702 9.5656 45.0919 9.44758 46.7874 9.33423Z" fill="white" stroke="white" stroke-width="7" stroke-linejoin="round"/>
<path opacity="0.2" d="M65.7134 8.41602C67.1413 8.41602 69.1195 8.46566 71.3609 8.55176C72.6015 8.59942 73.7243 9.30044 74.3111 10.3945C74.8978 11.4887 74.8611 12.8123 74.2144 13.8721L58.7769 39.1621C58.1557 40.1797 57.0587 40.8114 55.8668 40.8379C49.5231 40.979 44.4661 41.2418 40.4537 41.5137C39.148 41.602 37.9024 40.9551 37.2242 39.8359C36.5461 38.7164 36.5488 37.3117 37.232 36.1953L53.0015 10.4307L53.1187 10.251C53.7329 9.37301 54.7197 8.82114 55.7974 8.7627C59.8434 8.54331 63.4762 8.41602 65.7134 8.41602Z" fill="white" stroke="white" stroke-width="7" stroke-linejoin="round"/>
<path opacity="0.2" d="M83.3375 9.22217C86.5296 9.45125 89.6625 9.71091 92.3248 10.0024C93.5159 10.1329 94.5574 10.8643 95.0855 11.9399C95.6134 13.0154 95.5552 14.286 94.9302 15.3081L80.3082 39.2124C79.6547 40.2808 78.4801 40.919 77.2281 40.8853C74.4349 40.8099 71.3978 40.754 68.0699 40.7446C66.8054 40.7411 65.6408 40.0555 65.024 38.9517C64.4072 37.8477 64.4344 36.4962 65.0943 35.4175L80.1011 10.8872C80.7839 9.7711 82.0324 9.12851 83.3375 9.22217Z" fill="white" stroke="white" stroke-width="7" stroke-linejoin="round"/>
<path opacity="0.2" d="M99.8057 13.1326C101.117 13.2333 102.261 14.06 102.768 15.2732C103.095 16.0574 103.675 17.3918 104.208 18.6873C104.633 19.7204 104.541 20.8946 103.957 21.8474L92.9834 39.7634C92.3121 40.8595 91.094 41.4995 89.8105 41.4304C88.6714 41.3691 87.6502 41.2992 86.4521 41.2419C85.2173 41.183 84.1051 40.4769 83.5264 39.3845C82.9477 38.2919 82.9878 36.9745 83.6328 35.9197L96.5518 14.7957L96.6865 14.5916C97.3946 13.5968 98.5764 13.0382 99.8057 13.1326Z" fill="white" stroke="white" stroke-width="7" stroke-linejoin="round"/>
<path d="M65.7222 8.40527C69.4118 8.40527 77.0565 8.75353 84.0942 9.27441C87.6221 9.53553 91.0511 9.84399 93.7954 10.1807C95.1635 10.3485 96.4044 10.529 97.4214 10.7217C98.2945 10.8871 99.4275 11.1332 100.278 11.5645C101.001 11.9314 101.575 12.5381 101.901 13.2812L100.977 13.6855H100.978C101.843 13.3067 101.897 13.2835 101.901 13.2822L101.902 13.2832C101.902 13.2839 101.902 13.285 101.903 13.2861C101.904 13.2891 101.906 13.2934 101.909 13.2988C101.913 13.3097 101.92 13.3261 101.929 13.3467C101.947 13.3879 101.973 13.4482 102.007 13.5264C102.076 13.6836 102.175 13.9136 102.301 14.2061C102.553 14.7907 102.911 15.6268 103.335 16.6377C104.184 18.657 105.306 21.3854 106.395 24.2021C107.478 27.0037 108.552 29.9581 109.287 32.4102C109.651 33.6266 109.959 34.81 110.133 35.832C110.22 36.3405 110.288 36.8945 110.293 37.4404C110.298 37.9067 110.268 38.7526 109.877 39.6123C109.24 41.0145 107.76 41.8347 106.233 41.6328C104.706 41.4308 103.49 40.2542 103.239 38.7344C102.842 36.3335 101.008 31.2523 99.0864 26.4053C98.1578 24.0635 97.2569 21.8932 96.5874 20.3076C96.4255 19.9242 96.2756 19.576 96.144 19.2676C96.1402 19.2669 96.1362 19.2663 96.1323 19.2656C95.3253 19.1157 94.2514 18.9593 92.9556 18.8027C90.3712 18.4905 87.0697 18.1954 83.5962 17.9404C76.6307 17.4292 69.1824 17.0947 65.7222 17.0947C62.2792 17.0947 54.8305 17.4265 47.8608 17.9365C44.3853 18.1909 41.0812 18.4862 38.4946 18.7988C37.1974 18.9556 36.1222 19.1113 35.3149 19.2617C35.3097 19.2627 35.3045 19.2637 35.2993 19.2646C35.1672 19.5735 35.0168 19.9224 34.854 20.3066C34.1838 21.889 33.2817 24.0543 32.3521 26.3906C30.4273 31.2277 28.5933 36.2938 28.1968 38.6797C27.9436 40.2034 26.721 41.3816 25.189 41.5781C23.6572 41.7744 22.178 40.9433 21.5483 39.5332C21.1673 38.6795 21.1384 37.8409 21.144 37.373C21.1507 36.8277 21.2192 36.2738 21.3062 35.7646C21.4809 34.7415 21.7898 33.5577 22.1548 32.3408C22.8904 29.8882 23.9658 26.9354 25.0493 24.1367C26.1386 21.3231 27.2613 18.5991 28.1099 16.583C28.5347 15.5738 28.8924 14.739 29.144 14.1553C29.2699 13.8633 29.3697 13.6336 29.438 13.4766C29.472 13.3984 29.4981 13.338 29.5161 13.2969C29.5251 13.2763 29.5319 13.2599 29.5366 13.249C29.539 13.2436 29.5412 13.2392 29.5425 13.2363C29.543 13.235 29.5441 13.2342 29.5444 13.2334V13.2324C29.5445 13.2322 29.5444 13.2323 30.5063 13.6543V13.6533L29.5444 13.2314C29.8754 12.4773 30.4622 11.8645 31.2007 11.5C32.0415 11.085 33.1627 10.8463 34.0347 10.6846C35.0478 10.4967 36.2854 10.3208 37.6509 10.1562C40.3897 9.82623 43.8129 9.52213 47.3374 9.26465C54.3682 8.75101 62.0114 8.40528 65.7222 8.40527ZM103.293 37.5088C103.292 37.543 103.295 37.5467 103.294 37.5137C103.294 37.5122 103.293 37.5106 103.293 37.5088Z" fill="#CD2A20" stroke="white" stroke-width="7" stroke-linejoin="round"/>
<path d="M21.5074 37.49H17.805L16.7919 42.0545L20.1089 43.3641L21.5074 37.49Z" fill="#DF3122"/>
<path d="M17.1327 42.7371C16.1735 43.9898 9.82639 43.3634 8.68785 42.9839C7.20866 42.4714 7.35209 35.9615 8.25754 35.4585C10.7318 34.0636 18.3788 32.4029 18.5133 34.3577C18.7016 37.0623 18.6478 40.7348 17.1327 42.7371Z" fill="#DF3122"/>
<path d="M9.31582 36.5784C11.2522 35.4965 16.3263 34.2439 18.5317 34.6804C18.5317 34.576 18.5317 34.4716 18.5317 34.3673C18.3972 32.4124 10.7502 34.0731 8.2759 35.4681C7.37942 35.971 7.22702 42.5094 8.70621 42.9934L9.02895 43.0788C8.37451 41.086 8.61657 36.9769 9.31582 36.5784Z" fill="#CD2A20"/>
<path d="M109.928 37.4902H113.63L114.643 42.0548L111.335 43.3643L109.928 37.4902Z" fill="#DF3122"/>
<path d="M114.312 42.7377C115.262 43.9903 121.609 43.364 122.756 42.9844C124.236 42.5004 124.083 35.962 123.187 35.4591C120.713 34.0641 113.066 32.3939 112.922 34.3583C112.734 37.0629 112.788 40.7354 114.312 42.7377Z" fill="#DF3122"/>
<path d="M123.223 35.4591C120.748 34.0641 113.101 32.3939 112.958 34.3583C112.958 34.4627 112.958 34.5671 112.958 34.6715C115.163 34.2444 120.246 35.4971 122.174 36.5694C122.882 36.968 123.124 41.077 122.487 43.0603L122.81 42.9749C124.236 42.472 124.119 35.962 123.223 35.4591Z" fill="#CD2A20"/>
<path d="M33.977 93.2704C34.0293 93.9991 33.8084 94.7203 33.3621 95.278C32.9158 95.8356 32.2801 96.1849 31.5924 96.2501H25.1198C24.433 96.1825 23.7987 95.8326 23.3528 95.2755C22.907 94.7184 22.6852 93.9986 22.7351 93.2704V69.195C22.6803 68.4637 22.8998 67.7389 23.3462 67.1777C23.7925 66.6164 24.4297 66.2639 25.1198 66.1963H31.5924C32.2801 66.2615 32.9158 66.6108 33.3621 67.1684C33.8084 67.7261 34.0293 68.4473 33.977 69.176V93.2704Z" fill="#4D1F0F"/>
<path d="M26.9043 100.141C26.9641 101.016 26.697 101.881 26.1606 102.55C25.6241 103.219 24.8611 103.639 24.0355 103.719H16.2899C15.4643 103.639 14.7013 103.219 14.1649 102.55C13.6284 101.881 13.3614 101.016 13.4212 100.141V71.2734C13.3615 70.3992 13.6288 69.5352 14.1654 68.8677C14.7021 68.2002 15.4651 67.7827 16.2899 67.7053H24.0355C24.8603 67.7827 25.6233 68.2002 26.16 68.8677C26.6966 69.5352 26.964 70.3992 26.9043 71.2734V100.141Z" fill="#663F30"/>
<path d="M97.4578 93.2704C97.408 94.0001 97.631 94.7213 98.0787 95.2786C98.5264 95.8359 99.163 96.1848 99.8514 96.2501H106.315C107.002 96.1825 107.636 95.8326 108.082 95.2755C108.528 94.7184 108.75 93.9986 108.7 93.2704V69.195C108.754 68.4637 108.535 67.7389 108.089 67.1777C107.642 66.6164 107.005 66.2639 106.315 66.1963H99.8514C99.163 66.2616 98.5264 66.6105 98.0787 67.1678C97.631 67.7252 97.408 68.4464 97.4578 69.176V93.2704Z" fill="#4D1F0F"/>
<path d="M104.53 100.141C104.47 101.016 104.737 101.881 105.274 102.55C105.81 103.219 106.573 103.639 107.399 103.719H115.153C115.979 103.639 116.742 103.219 117.279 102.55C117.815 101.881 118.082 101.016 118.022 100.141V71.2734C118.082 70.3992 117.815 69.5352 117.278 68.8677C116.741 68.2002 115.978 67.7827 115.153 67.7053H107.399C106.574 67.7827 105.811 68.2002 105.274 68.8677C104.738 69.5352 104.47 70.3992 104.53 71.2734V100.141Z" fill="#663F30"/>
<path d="M115.153 67.7053H107.399C106.574 67.7827 105.811 68.2002 105.274 68.8677C104.738 69.5352 104.47 70.3992 104.53 71.2734V94.9028C108.815 94.9977 111.415 95.1115 112.168 95.2254C112.554 95.2857 112.944 95.3174 113.334 95.3203C115.046 95.3067 116.701 94.6701 118.022 93.5173V71.2734C118.082 70.3992 117.815 69.5352 117.278 68.8677C116.741 68.2002 115.978 67.7827 115.153 67.7053Z" fill="#582A1A"/>
<path d="M26.9042 71.2734C26.9639 70.3992 26.6966 69.5352 26.1599 68.8677C25.6233 68.2002 24.8603 67.7827 24.0355 67.7053H16.2899C15.4651 67.7827 14.7021 68.2002 14.1654 68.8677C13.6287 69.5352 13.3614 70.3992 13.4211 71.2734V93.5173C14.7414 94.6714 16.3974 95.3083 18.1097 95.3203C18.4939 95.3176 18.8773 95.2859 19.2572 95.2254C20.0103 95.1115 22.619 94.9977 26.9042 94.9028V71.2734Z" fill="#582A1A"/>
<path d="M117.619 56.0614C117.539 54.5715 112.662 47.6251 112.312 45.8885C109.309 30.9422 102.119 15.9011 99.0174 12.1811C95.9156 8.46115 70.0968 7.36035 65.722 7.36035C61.3472 7.36035 35.5553 8.43269 32.4356 12.1811C29.3158 15.9295 22.135 30.9422 19.1228 45.8885C18.7732 47.6251 13.8963 54.5715 13.8515 56.0614C13.8067 57.5513 11.5744 90.8126 18.4863 89.6549C21.2475 89.1994 42.8348 88.9716 65.7579 88.9716C88.6809 88.9716 110.259 89.1994 113.029 89.6549C119.896 90.8126 117.709 57.5513 117.619 56.0614Z" fill="#DF3122"/>
<path d="M105.974 38.1921L65.7222 35.3452L25.4701 38.1921C19.6968 46.4766 22.8524 50.0352 24.8067 50.5287C27.4962 51.2404 29.8001 52.7967 34.668 51.8288C45.372 49.7031 86.0545 49.7031 96.7495 51.8288C101.626 52.7778 103.921 51.2404 106.611 50.5287C108.583 50.0637 111.273 44.9298 105.974 38.1921Z" fill="#E74D3F"/>
<path d="M28.6971 76.9578C28.6971 77.474 28.5526 77.9785 28.2817 78.4077C28.0108 78.8368 27.6257 79.1713 27.1753 79.3688C26.7248 79.5663 26.2291 79.618 25.7508 79.5173C25.2726 79.4166 24.8333 79.1681 24.4886 78.8031C24.1438 78.4382 23.909 77.9732 23.8139 77.4669C23.7187 76.9607 23.7675 76.436 23.9541 75.9591C24.1407 75.4823 24.4567 75.0747 24.8621 74.788C25.2676 74.5012 25.7442 74.3481 26.2318 74.3481C26.8857 74.3481 27.5127 74.6231 27.9751 75.1125C28.4374 75.6019 28.6971 76.2657 28.6971 76.9578Z" fill="#4D4D4D"/>
<path d="M26.2317 78.6471C25.9157 78.649 25.6063 78.5515 25.3427 78.3671C25.0791 78.1826 24.8732 77.9194 24.751 77.611C24.6289 77.3025 24.596 76.9625 24.6565 76.6343C24.7171 76.306 24.8684 76.0041 25.0912 75.7669C25.314 75.5297 25.5983 75.3679 25.9081 75.302C26.2179 75.236 26.5392 75.2689 26.8313 75.3965C27.1234 75.524 27.3731 75.7405 27.5489 76.0185C27.7246 76.2965 27.8184 76.6234 27.8184 76.9579C27.8184 77.4043 27.6515 77.8325 27.3542 78.149C27.0569 78.4655 26.6533 78.6446 26.2317 78.6471Z" fill="#E6E6E6"/>
<path d="M98.7275 14.4535C95.9394 13.0775 72.8819 11.7109 65.7548 11.7109C58.583 11.7109 35.5702 13.068 32.7822 14.444C32.7822 14.444 23.4587 35.7293 24.8035 37.9879C26.1482 40.2464 32.8718 37.0389 65.7548 37.0389C98.6109 37.0389 105.352 40.2464 106.706 37.9879C108.06 35.7293 98.7275 14.4535 98.7275 14.4535Z" fill="#29B6F6"/>
<path d="M65.7219 52.3125C61.3381 52.3125 40.441 52.6731 40.441 52.6731C41.2031 53.8309 43.6415 63.1118 45.7482 63.776C47.855 64.4403 57.4025 65.5127 65.7219 65.5127C74.0412 65.5127 83.5798 64.4403 85.6866 63.776C87.7933 63.1118 90.2407 53.8593 90.9937 52.6731C90.9937 52.6731 70.0967 52.3125 65.7219 52.3125Z" fill="#B2B2B2"/>
<path d="M85.6866 61.4513C83.5798 62.0397 74.0323 62.9791 65.7219 62.9791C57.4115 62.9791 47.855 62.0302 45.7482 61.4513C43.9553 60.9578 41.9651 55.1312 40.9162 52.7018H40.441C41.2031 53.8595 43.6415 63.1405 45.7482 63.8047C47.855 64.469 57.4025 65.5414 65.7219 65.5414C74.0412 65.5414 83.5798 64.469 85.6866 63.8047C87.7933 63.1405 90.2407 53.8596 90.9937 52.6733H90.5186C89.4787 55.0932 87.4616 60.9199 85.6866 61.4513Z" fill="#808080"/>
<path d="M65.7219 76.217C59.2313 76.217 37.4647 76.3024 35.7255 75.771C35.7255 75.771 38.8363 84.6913 41.2837 84.6059C43.7311 84.5205 63.7765 84.6059 65.7219 84.6059C67.6672 84.6059 87.7126 84.511 90.151 84.6059C92.5895 84.7008 95.7182 75.771 95.7182 75.771C93.97 76.3024 72.2124 76.217 65.7219 76.217Z" fill="#4D4D4D"/>
<path d="M95.0011 77.6407C95.1894 77.1758 95.3418 76.7677 95.4673 76.4545C95.548 76.2458 95.6018 76.075 95.6466 75.9611C95.6444 75.9263 95.6444 75.8914 95.6466 75.8567C95.6466 75.8567 95.6466 75.8567 95.6466 75.8567C93.8984 76.3881 72.1408 76.3027 65.6503 76.3027C59.1597 76.3027 37.3931 76.3881 35.6539 75.8567V75.9136V76.018C35.6988 76.1319 35.7615 76.2932 35.8332 76.4925C35.8332 76.4925 35.9049 76.7013 35.9587 76.8151C36.0484 77.0619 36.1649 77.3371 36.2904 77.6502C37.3572 80.2694 39.4012 84.6347 41.1135 84.5777H42.4493C40.997 84.2266 39.1323 80.4307 38.2179 78.2481C44.4933 78.5233 60.3431 78.4664 65.722 78.4664C71.1009 78.4664 86.9417 78.5233 93.2171 78.2481C92.3206 80.3833 90.438 84.2646 88.8244 84.5777H90.1511C91.8724 84.6347 93.9164 80.2599 94.9832 77.6407H95.0011Z" fill="#333333"/>
<path d="M65.8483 67.3354C59.0888 67.3354 24.4487 65.4374 16.8375 62.6569C14.2915 61.708 14.6322 69.6888 16.8375 69.9735C33.1113 71.9035 49.4727 72.8888 65.8483 72.9248V67.3354Z" fill="#E74D3F"/>
<path d="M65.8469 67.3354C72.5974 67.3354 107.229 65.4374 114.849 62.6569C117.386 61.708 117.063 69.6888 114.849 69.9735C98.5779 71.9033 82.2195 72.8885 65.8469 72.9248V67.3354Z" fill="#E74D3F"/>
<path d="M107.677 76.9578C107.677 77.474 107.533 77.9785 107.262 78.4077C106.991 78.8368 106.606 79.1713 106.156 79.3688C105.705 79.5663 105.209 79.618 104.731 79.5173C104.253 79.4166 103.814 79.1681 103.469 78.8031C103.124 78.4382 102.889 77.9732 102.794 77.4669C102.699 76.9607 102.748 76.436 102.934 75.9591C103.121 75.4823 103.437 75.0747 103.842 74.788C104.248 74.5012 104.725 74.3481 105.212 74.3481C105.866 74.3481 106.493 74.6231 106.955 75.1125C107.418 75.6019 107.677 76.2657 107.677 76.9578Z" fill="#4D4D4D"/>
<path d="M105.213 78.6471C104.897 78.649 104.587 78.5515 104.324 78.3671C104.06 78.1826 103.854 77.9194 103.732 77.611C103.61 77.3025 103.577 76.9625 103.638 76.6343C103.698 76.306 103.849 76.0041 104.072 75.7669C104.295 75.5297 104.579 75.3679 104.889 75.302C105.199 75.236 105.52 75.2689 105.812 75.3965C106.105 75.524 106.354 75.7405 106.53 76.0185C106.706 76.2965 106.8 76.6234 106.8 76.9579C106.8 77.4043 106.633 77.8325 106.335 78.149C106.038 78.4655 105.634 78.6446 105.213 78.6471Z" fill="#E6E6E6"/>
<path opacity="0.2" d="M47.0206 12.8264L31.1349 38.7617C29.5489 38.9518 27.9517 39.0152 26.3567 38.9515L42.1079 13.2155C43.6588 13.0542 45.3173 12.9403 47.0206 12.8264Z" fill="white"/>
<path opacity="0.2" d="M71.2267 12.0489L55.7893 37.3389C49.3884 37.4812 44.2784 37.7469 40.2173 38.0221L55.9865 12.2576C60.0117 12.0394 63.5707 11.916 65.7133 11.916C67.076 11.916 69.0034 11.9635 71.2267 12.0489Z" fill="white"/>
<path opacity="0.2" d="M91.944 13.482L77.3224 37.3866C74.5074 37.3106 71.4415 37.2537 68.0797 37.2442L83.0868 12.7134C86.2603 12.9411 89.3442 13.1974 91.944 13.482Z" fill="white"/>
<path opacity="0.2" d="M100.972 20.0191L89.9989 37.9357C88.941 37.8787 87.8115 37.8028 86.6191 37.7459L99.5375 16.6218C99.914 17.5233 100.425 18.6906 100.972 20.0191Z" fill="white"/>
<path d="M32.7496 16.337C35.5377 14.9515 58.5862 13.5944 65.7223 13.5944C72.8941 13.5944 95.9068 14.961 98.6949 16.337C98.6949 16.337 105.75 32.4694 106.692 38.1632C107.857 35.601 98.6949 14.6858 98.6949 14.6858C95.9068 13.2718 72.8493 11.9053 65.7223 11.9053C58.5504 11.9053 35.5377 13.2623 32.7496 14.6383C32.7496 14.6383 23.5875 35.5156 24.744 38.1063C25.6853 32.441 32.7496 16.337 32.7496 16.337Z" fill="#CD2A20"/>
<path d="M39.746 59.9133C39.2641 61.4729 38.2548 62.8902 36.8334 64.0032C35.2761 65.2215 33.2962 66.0169 31.1644 66.2808C29.0326 66.5446 26.8531 66.264 24.924 65.4772C22.9949 64.6905 21.4104 63.436 20.3872 61.8855C19.3641 60.3349 18.9523 58.564 19.2082 56.8149L19.2093 56.8113C19.2608 56.4537 19.3404 56.0991 19.4475 55.7498C19.9358 54.1616 20.9723 52.7214 22.4336 51.6006C23.8949 50.4798 25.7196 49.7256 27.6905 49.4277C29.6614 49.1297 31.6957 49.3007 33.5511 49.9201C35.4066 50.5395 37.0052 51.5813 38.1567 52.9216L38.2218 52.9965C39.0635 53.9945 39.6349 55.1277 39.8977 56.3205C40.1606 57.5133 40.1088 58.7382 39.746 59.9133Z" fill="white"/>
<path d="M38.1589 52.9171L38.016 53.0648C28.4689 49.6633 20.3212 53.8691 20.3212 53.8691C21.1528 52.569 22.38 51.4657 23.8846 50.6652C25.3892 49.8647 27.1207 49.394 28.9124 49.2984C30.7041 49.2029 32.4957 49.4856 34.115 50.1194C35.7343 50.7532 37.1266 51.7168 38.1581 52.9175L38.1589 52.9171Z" fill="#E7E7E7"/>
<path d="M20.9525 62.5695L21.0982 62.4237C30.5787 65.9473 38.8064 61.8467 38.8064 61.8467C37.9499 63.136 36.7016 64.2234 35.1818 65.0045C33.6619 65.7855 31.9216 66.2339 30.1283 66.3065C28.335 66.379 26.549 66.0733 24.9421 65.4188C23.3352 64.7642 21.9616 63.7829 20.9534 62.5691L20.9525 62.5695Z" fill="#E7E7E7"/>
<path d="M28.4523 63.2257C31.5477 63.958 34.6872 62.1881 35.4647 59.2725C36.2421 56.357 34.3631 53.3998 31.2677 52.6675C28.1724 51.9352 25.0328 53.7051 24.2554 56.6207C23.4779 59.5362 25.3569 62.4934 28.4523 63.2257Z" fill="black"/>
<path opacity="0.7" d="M27.6162 60.5347C27.9258 60.6076 28.2398 60.4313 28.3175 60.1409C28.3953 59.8504 28.2074 59.5559 27.8978 59.4829C27.5882 59.41 27.2742 59.5863 27.1965 59.8767C27.1187 60.1671 27.3067 60.4617 27.6162 60.5347Z" fill="#E6E6E6"/>
<path d="M30.2786 60.1067C31.5169 60.416 32.7728 59.6684 33.0839 58.4368C33.3949 57.2052 32.6432 55.9561 31.4049 55.6468C30.1666 55.3374 28.9107 56.0851 28.5996 57.3166C28.2886 58.5482 29.0403 59.7973 30.2786 60.1067Z" fill="white"/>
<path d="M92.4956 59.9138C92.9774 61.4734 93.9867 62.8907 95.4081 64.0037C96.9654 65.2219 98.9453 66.0174 101.077 66.2813C103.209 66.5451 105.388 66.2645 107.318 65.4777C109.247 64.691 110.831 63.4365 111.854 61.886C112.877 60.3354 113.289 58.5645 113.033 56.8154L113.032 56.8118C112.981 56.4542 112.901 56.0996 112.794 55.7502C112.306 54.1621 111.269 52.7219 109.808 51.6011C108.347 50.4803 106.522 49.7261 104.551 49.4282C102.58 49.1302 100.546 49.3011 98.6904 49.9206C96.8349 50.54 95.2363 51.5818 94.0848 52.9221L94.0197 52.997C93.178 53.995 92.6066 55.1282 92.3438 56.321C92.0809 57.5138 92.1327 58.7387 92.4956 59.9138Z" fill="white"/>
<path d="M94.0826 52.9179L94.2255 53.0655C103.773 49.6641 111.92 53.8698 111.92 53.8698C111.089 52.5697 109.862 51.4664 108.357 50.6659C106.852 49.8654 105.121 49.3948 103.329 49.2992C101.537 49.2036 99.7458 49.4863 98.1265 50.1201C96.5072 50.754 95.1149 51.7176 94.0834 52.9183L94.0826 52.9179Z" fill="#E7E7E7"/>
<path d="M111.289 62.5702L111.143 62.4244C101.663 65.9481 93.4351 61.8475 93.4351 61.8475C94.2917 63.1367 95.5399 64.2242 97.0598 65.0052C98.5796 65.7863 100.32 66.2347 102.113 66.3072C103.907 66.3798 105.693 66.0741 107.299 65.4195C108.906 64.765 110.28 63.7836 111.288 62.5698L111.289 62.5702Z" fill="#E7E7E7"/>
<path d="M103.789 63.2264C100.694 63.9587 97.5543 62.1888 96.7769 59.2733C95.9994 56.3577 97.8784 53.4005 100.974 52.6682C104.069 51.9359 107.209 53.7058 107.986 56.6214C108.764 59.537 106.885 62.4941 103.789 63.2264Z" fill="black"/>
<path opacity="0.7" d="M99.9326 60.5351C100.242 60.6081 100.556 60.4318 100.634 60.1414C100.712 59.8509 100.524 59.5563 100.214 59.4834C99.9046 59.4105 99.5906 59.5868 99.5128 59.8772C99.4351 60.1676 99.623 60.4622 99.9326 60.5351Z" fill="#E6E6E6"/>
<path d="M102.595 60.1074C103.833 60.4167 105.089 59.6691 105.4 58.4375C105.711 57.206 104.96 55.9568 103.721 55.6475C102.483 55.3382 101.227 56.0858 100.916 57.3174C100.605 58.5489 101.357 59.7981 102.595 60.1074Z" fill="white"/>
</svg>
