<svg width="73" height="73" viewBox="0 0 73 73" fill="none" xmlns="http://www.w3.org/2000/svg">
<path d="M2.50805 36.3982C2.5441 24.3207 2.56212 18.2819 4.96313 13.7198C6.95023 9.94405 10.0403 6.8632 13.8219 4.88737C18.3912 2.5 24.3962 2.5 36.4062 2.5C48.4163 2.5 54.4213 2.5 58.9906 4.88737C62.7722 6.86319 65.8623 9.94405 67.8494 13.7198C70.2504 18.2819 70.2684 24.3207 70.3045 36.3982C70.3407 48.5416 70.3588 54.6134 67.9671 59.2037C65.988 63.0019 62.895 66.1042 59.1027 68.0945C54.5195 70.5 48.4818 70.5 36.4062 70.5C24.3307 70.5 18.293 70.5 13.7098 68.0945C9.91751 66.1042 6.82446 63.0019 4.84544 59.2037C2.45367 54.6134 2.4718 48.5416 2.50805 36.3982Z" fill="#BF0000" stroke="white" stroke-width="5" stroke-linejoin="round"/>
<rect x="4.40625" y="4.5" width="63.5" height="57" rx="20" fill="url(#paint0_linear_2780_13915)"/>
<g filter="url(#filter0_i_2780_13915)">
<path fill-rule="evenodd" clip-rule="evenodd" d="M36.2653 26.0015L44.124 18.3677C46.2879 16.2657 49.7962 16.2657 51.9601 18.3677C54.124 20.4696 54.124 23.8775 51.9601 25.9795L44.0647 33.649L51.96 41.3184C54.1239 43.4204 54.1239 46.8283 51.9601 48.9302C49.7962 51.0322 46.2878 51.0322 44.124 48.9302L36.2653 41.2965L28.4067 48.9302C26.2428 51.0322 22.7345 51.0322 20.5706 48.9302C18.4067 46.8283 18.4067 43.4204 20.5706 41.3184L28.466 33.649L20.5706 25.9795C18.4067 23.8776 18.4067 20.4696 20.5706 18.3677C22.7344 16.2657 26.2428 16.2657 28.4066 18.3677L36.2653 26.0015Z" fill="#BF0000"/>
</g>
<defs>
<filter id="filter0_i_2780_13915" x="18.9473" y="16.791" width="41.6357" height="40.7158" filterUnits="userSpaceOnUse" color-interpolation-filters="sRGB">
<feFlood flood-opacity="0" result="BackgroundImageFix"/>
<feBlend mode="normal" in="SourceGraphic" in2="BackgroundImageFix" result="shape"/>
<feColorMatrix in="SourceAlpha" type="matrix" values="0 0 0 0 0 0 0 0 0 0 0 0 0 0 0 0 0 0 127 0" result="hardAlpha"/>
<feOffset dx="7" dy="7"/>
<feGaussianBlur stdDeviation="11"/>
<feComposite in2="hardAlpha" operator="arithmetic" k2="-1" k3="1"/>
<feColorMatrix type="matrix" values="0 0 0 0 0 0 0 0 0 0 0 0 0 0 0 0 0 0 0.5 0"/>
<feBlend mode="normal" in2="shape" result="effect1_innerShadow_2780_13915"/>
</filter>
<linearGradient id="paint0_linear_2780_13915" x1="4.40625" y1="4.5" x2="65.1332" y2="64.3153" gradientUnits="userSpaceOnUse">
<stop stop-color="#FFBABA"/>
<stop offset="0.510417" stop-color="#FF4F4F"/>
<stop offset="1" stop-color="#E81C1C"/>
</linearGradient>
</defs>
</svg>
