<svg width="126" height="93" viewBox="0 0 126 93" fill="none" xmlns="http://www.w3.org/2000/svg">
<path d="M97.8118 91.4856C88.0801 91.4856 78.9803 86.1774 74.304 77.8359H50.9226C46.2463 86.1774 37.1465 91.4856 27.5411 91.4856C12.8803 91.4856 1 79.6053 1 64.9445C1 50.2837 13.1331 38.4034 28.0467 38.4034V38.909C31.2063 38.4034 39.8006 38.4034 62.6765 38.4034C87.0269 38.4034 99.2021 39.0353 99.2021 40.2992C99.2021 41.3103 98.3174 42.195 97.3063 42.195C96.0424 42.195 29.3105 42.195 28.0467 42.195C15.408 42.195 4.79159 52.5587 4.79159 64.9445C4.79159 77.3304 15.0289 87.694 27.5411 87.694C36.2618 87.694 44.3505 82.765 48.1421 75.1818C48.5212 74.5499 49.1531 74.1707 49.7851 74.1707H75.4415C76.1998 74.1707 76.8317 74.5499 77.0845 75.1818C80.8761 82.765 88.9648 87.694 97.6855 87.694C110.198 87.694 120.435 77.4568 120.435 64.9445C120.435 57.4877 116.643 50.4101 110.198 46.113C109.313 45.481 109.06 44.3436 109.692 43.4589C110.324 42.5742 111.462 42.3214 112.346 42.9533C119.803 48.0088 124.227 56.0975 124.227 64.8181C124.227 79.4789 112.346 91.3592 97.6855 91.3592L97.8118 91.4856Z" fill="white" stroke="white" stroke-width="2"/>
<path d="M38.0307 66.8403H15.4075C14.3964 66.8403 13.5117 65.9556 13.5117 64.9445C13.5117 63.9334 14.3964 63.0487 15.4075 63.0487H38.0307C39.0417 63.0487 39.9264 63.9334 39.9264 64.9445C39.9264 65.9556 39.0417 66.8403 38.0307 66.8403Z" fill="white" stroke="white" stroke-width="2"/>
<path d="M26.782 78.2151C25.7709 78.2151 24.8862 77.3304 24.8862 76.3193V53.6962C24.8862 52.6851 25.7709 51.8004 26.782 51.8004C27.7931 51.8004 28.6778 52.6851 28.6778 53.6962V76.3193C28.6778 77.3304 27.7931 78.2151 26.782 78.2151Z" fill="white" stroke="white" stroke-width="2"/>
<path d="M97.6859 77.204C90.6083 77.204 84.9209 71.5167 84.9209 64.439C84.9209 57.3614 90.6083 51.674 97.6859 51.674C104.764 51.674 110.451 57.3614 110.451 64.439C110.451 71.5167 104.764 77.204 97.6859 77.204ZM97.6859 55.592C92.7568 55.592 88.7125 59.6363 88.7125 64.5654C88.7125 69.4945 92.7568 73.5388 97.6859 73.5388C102.615 73.5388 106.659 69.4945 106.659 64.5654C106.659 59.6363 102.615 55.592 97.6859 55.592Z" fill="white" stroke="white" stroke-width="2"/>
<path d="M54.9665 66.2084H50.9222C49.9111 66.2084 49.0264 65.3237 49.0264 64.3126C49.0264 63.3015 49.9111 62.4168 50.9222 62.4168H54.9665C55.9776 62.4168 56.8623 63.3015 56.8623 64.3126C56.8623 65.3237 55.9776 66.2084 54.9665 66.2084Z" fill="white" stroke="white" stroke-width="2"/>
<path d="M73.0398 66.2084H68.9954C67.9843 66.2084 67.0996 65.3237 67.0996 64.3126C67.0996 63.3015 67.9843 62.4168 68.9954 62.4168H73.0398C74.0508 62.4168 74.9356 63.3015 74.9356 64.3126C74.9356 65.3237 74.0508 66.2084 73.0398 66.2084Z" fill="white" stroke="white" stroke-width="2"/>
<path d="M61.1602 41.5631C61.1602 41.5631 60.4019 41.5631 60.0228 41.1839C59.1381 40.552 59.0117 39.4145 59.5172 38.5298C61.0339 36.2549 64.8254 29.6828 63.056 26.0176C62.2977 24.3746 60.2755 23.3635 57.2423 22.9843C49.9119 22.226 46.4994 16.665 47.005 11.736C47.6369 5.66942 53.8298 0.108434 66.2157 1.11952C67.2268 1.11952 67.9851 2.13061 67.9851 3.1417C67.9851 4.15279 66.974 4.91111 65.9629 4.91111C56.1048 4.0264 51.3021 7.94438 50.7966 12.1151C50.5438 15.2748 52.8187 18.6872 57.7478 19.1927C62.2977 19.6983 65.331 21.4677 66.7212 24.3746C69.6281 30.6939 63.4352 39.6673 62.8033 40.6784C62.4241 41.1839 61.7922 41.4367 61.2866 41.4367L61.1602 41.5631Z" fill="white" stroke="white" stroke-width="2"/>
<path d="M98.3176 46.2394C95.0316 46.2394 92.3774 43.5853 92.3774 40.2992C92.3774 37.0132 95.0316 34.3591 98.3176 34.3591C101.604 34.3591 104.258 37.0132 104.258 40.2992C104.258 43.5853 101.604 46.2394 98.3176 46.2394Z" fill="white" stroke="white" stroke-width="2"/>
</svg>
