<svg width="122" height="117" viewBox="0 0 122 117" fill="none" xmlns="http://www.w3.org/2000/svg">
<path d="M51.3595 116.224C51.1611 116.224 50.9629 116.211 50.7662 116.184C49.9366 116.077 49.1534 115.739 48.5048 115.208C36.3695 106.372 26.2996 96.8316 18.573 86.8491C12.1896 78.6011 7.3593 70.002 4.21537 61.2894C-1.08735 46.5906 -0.0736969 35.8647 0.407053 32.7332C0.416256 32.6418 0.425901 32.5503 0.437733 32.4583C1.53755 23.8659 5.48783 15.8955 11.6519 9.83167C17.9565 3.65403 26.4159 0.192583 35.2266 0.185242C36.8023 0.186603 38.3761 0.291663 39.9381 0.49975C47.6025 1.5185 54.2186 5.05684 59.0708 10.7339C60.9323 12.9275 62.4986 15.3572 63.7293 17.9605C68.9584 11.8463 76.7324 7.02176 86.8684 7.02176C88.3223 7.02371 89.7746 7.12128 91.2158 7.31384C95.9832 7.90961 100.569 9.52109 104.665 12.0403C108.762 14.5596 112.275 17.9284 114.968 21.9212C120.193 29.7198 122.366 39.1796 121.07 48.4869C121.058 48.5793 121.043 48.6694 121.028 48.7596C120.681 51.9104 118.881 62.5303 109.949 75.3372C104.654 82.9281 97.7609 89.9696 89.4593 96.2664C79.3951 103.9 67.1765 110.491 53.1388 115.858C52.6071 116.086 52.0366 116.209 51.4586 116.221L51.3595 116.224Z" fill="white"/>
<path d="M118.277 47.7463C118.29 47.6563 118.308 47.5664 118.32 47.4764C120.588 30.3468 110.275 13.0219 91.649 10.5559C76.8469 8.59627 66.855 18.098 62.6088 27.6675C60.9991 17.323 53.8236 5.54868 39.0214 3.58907C20.3936 1.12302 5.9284 15.1678 3.6607 32.2974C3.64856 32.3873 3.64316 32.4773 3.63146 32.5708C3.03868 36.2841 -1.88937 74.2188 51.3319 112.718V112.727L51.3409 112.724L51.349 112.729L51.358 112.726L51.3661 112.732V112.723C112.77 89.3974 117.883 51.486 118.277 47.7463Z" fill="#EE3443"/>
<path d="M32.4272 96.8661C38.321 102.617 44.6403 107.915 51.3312 112.715V112.724L51.3406 112.721L51.3483 112.726L51.3573 112.723L51.3658 112.728V112.72C112.77 89.3974 117.886 51.486 118.277 47.7463C118.29 47.6563 118.308 47.5663 118.32 47.4764C118.604 45.328 118.693 43.1583 118.584 40.994C94.7521 82.1611 56.7216 93.8131 32.4272 96.8661Z" fill="#C61A2F"/>
<path opacity="0.4" d="M6.31708 36.6201C6.31708 36.6201 10.2368 3.92596 44.1871 8.02734C44.1884 8.02734 20.3775 10.5743 6.31708 36.6201Z" fill="white"/>
<path d="M57.9679 48.55C57.6541 50.6102 56.9 52.5785 55.7569 54.3209C54.2273 56.6528 52.0594 58.4956 49.5117 59.6298C46.9639 60.7639 44.1438 61.1414 41.3874 60.7174C39.501 60.4308 37.6898 59.7738 36.0583 58.7844C34.4267 57.795 33.007 56.4927 31.8808 54.9524C31.88 54.9507 31.8788 54.9493 31.8773 54.9483C31.8758 54.9473 31.8741 54.9467 31.8723 54.9465C29.7468 52.0584 28.7671 48.4851 29.1224 44.9168H29.1251C29.1482 44.6575 29.1798 44.3981 29.22 44.1387C29.5098 42.2511 30.1685 40.439 31.1586 38.8059C32.1487 37.1728 33.4507 35.7507 34.9904 34.6209C36.5301 33.491 38.2773 32.6755 40.1322 32.2209C41.9871 31.7663 43.9133 31.6815 45.801 31.9713C48.6716 32.4064 51.3446 33.6961 53.4716 35.6724H53.4748C55.2205 37.2872 56.5431 39.3059 57.3265 41.5511C58.11 43.7964 58.3302 46.1997 57.9679 48.55Z" fill="white"/>
<path d="M43.5951 52.9766C47.2587 52.9766 50.2286 50.0066 50.2286 46.343C50.2286 42.6794 47.2587 39.7095 43.5951 39.7095C39.9315 39.7095 36.9615 42.6794 36.9615 46.343C36.9615 50.0066 39.9315 52.9766 43.5951 52.9766Z" fill="black"/>
<path d="M44.4288 49.0159C46.1196 49.0159 47.4903 47.6452 47.4903 45.9544C47.4903 44.2636 46.1196 42.8929 44.4288 42.8929C42.7379 42.8929 41.3672 44.2636 41.3672 45.9544C41.3672 47.6452 42.7379 49.0159 44.4288 49.0159Z" fill="white"/>
<path opacity="0.4" d="M40.2203 48.9133C40.643 48.9133 40.9858 48.5706 40.9858 48.1478C40.9858 47.725 40.643 47.3823 40.2203 47.3823C39.7975 47.3823 39.4548 47.725 39.4548 48.1478C39.4548 48.5706 39.7975 48.9133 40.2203 48.9133Z" fill="white"/>
<path d="M55.7564 54.3213C54.2271 56.653 52.0595 58.4956 49.512 59.6295C46.9645 60.7634 44.1447 61.1408 41.3887 60.7165C39.5021 60.4303 37.6908 59.7736 36.0591 58.7842C34.4275 57.7949 33.0077 56.4924 31.8817 54.9519C32.2199 55.1021 43.6245 60.2443 55.7564 54.3213Z" fill="#D2EAF4"/>
<path d="M89.5757 52.4184C89.2626 54.4796 88.5086 56.4491 87.3651 58.1924C85.8355 60.5236 83.668 62.3659 81.1209 63.5C78.5737 64.634 75.7543 65.012 72.9984 64.5889C71.1114 64.3027 69.2996 63.646 67.6675 62.6565C66.0354 61.6671 64.6152 60.3646 63.4886 58.8239C63.4878 58.8222 63.4866 58.8208 63.4851 58.8198C63.4836 58.8188 63.4819 58.8182 63.4801 58.818C62.3474 57.2799 61.5299 55.5331 61.0745 53.6781C60.6191 51.823 60.5348 49.8962 60.8265 48.0085C61.1936 45.5937 62.1654 43.3111 63.6514 41.3727C65.2367 39.3008 67.3503 37.6939 69.7707 36.7205C72.191 35.7472 74.8287 35.4432 77.407 35.8406C80.6989 36.3442 83.7182 37.9628 85.96 40.4256C88.2017 42.8884 89.53 46.0461 89.7228 49.3708V49.3735C89.7811 50.3908 89.7318 51.4114 89.5757 52.4184Z" fill="white"/>
<path d="M75.203 56.8472C78.8666 56.8472 81.8365 53.8772 81.8365 50.2136C81.8365 46.55 78.8666 43.5801 75.203 43.5801C71.5394 43.5801 68.5695 46.55 68.5695 50.2136C68.5695 53.8772 71.5394 56.8472 75.203 56.8472Z" fill="black"/>
<path d="M76.0371 52.8866C77.728 52.8866 79.0986 51.5159 79.0986 49.825C79.0986 48.1342 77.728 46.7635 76.0371 46.7635C74.3463 46.7635 72.9756 48.1342 72.9756 49.825C72.9756 51.5159 74.3463 52.8866 76.0371 52.8866Z" fill="white"/>
<path opacity="0.4" d="M71.8286 52.784C72.2514 52.784 72.5941 52.4413 72.5941 52.0185C72.5941 51.5957 72.2514 51.253 71.8286 51.253C71.4058 51.253 71.0631 51.5957 71.0631 52.0185C71.0631 52.4413 71.4058 52.784 71.8286 52.784Z" fill="white"/>
<path d="M87.3643 58.1924C85.8348 60.5239 83.6672 62.3664 81.1198 63.5003C78.5723 64.6342 75.7526 65.0116 72.9966 64.5876C71.1101 64.3013 69.2988 63.6446 67.6671 62.6552C66.0354 61.6659 64.6157 60.3634 63.4896 58.823C63.8282 58.9732 75.2324 64.1149 87.3643 58.1924Z" fill="#D2EAF4"/>
<path d="M83.5116 33.6498L84.8465 29.8588C84.8859 29.7083 84.9589 29.5687 85.0601 29.4505C85.1613 29.3324 85.288 29.2387 85.4306 29.1766C85.5733 29.1146 85.7282 29.0856 85.8836 29.0921C86.039 29.0985 86.191 29.1401 86.328 29.2138L87.8743 30.1525C88.0226 30.2591 88.1458 30.3968 88.2353 30.5561C88.3248 30.7154 88.3784 30.8923 88.3923 31.0744C88.4062 31.2566 88.3802 31.4395 88.3159 31.6106C88.2517 31.7816 88.1508 31.9365 88.0204 32.0644L85.1393 34.9168C84.3103 35.7381 83.1068 34.8025 83.5116 33.6498Z" fill="black"/>
<path d="M88.18 37.4629L90.6537 34.2934C90.739 34.1633 90.8527 34.0542 90.9862 33.9745C91.1197 33.8947 91.2696 33.8462 91.4246 33.8327C91.5796 33.8193 91.7356 33.8411 91.8809 33.8967C92.0262 33.9523 92.157 34.0401 92.2634 34.1535L93.4328 35.5347C93.5395 35.683 93.6124 35.8528 93.6466 36.0322C93.6807 36.2116 93.6753 36.3964 93.6305 36.5734C93.5858 36.7505 93.5029 36.9157 93.3876 37.0574C93.2724 37.199 93.1275 37.3138 92.9632 37.3936L89.3242 39.1819C88.2722 39.6986 87.4294 38.4254 88.18 37.4629Z" fill="black"/>
<path d="M91.8038 42.1314L95.3119 40.1686C95.4409 40.0817 95.588 40.0252 95.742 40.0034C95.896 39.9815 96.053 39.9949 96.2011 40.0426C96.3492 40.0902 96.4845 40.1708 96.5969 40.2783C96.7094 40.3859 96.7959 40.5175 96.8501 40.6633L97.3898 42.3895C97.4303 42.5674 97.4314 42.752 97.3931 42.9304C97.3548 43.1088 97.2781 43.2767 97.1681 43.4223C97.0582 43.568 96.9178 43.6878 96.7568 43.7736C96.5957 43.8593 96.4179 43.9088 96.2357 43.9187L92.1878 44.1553C91.0216 44.2259 90.7383 42.7273 91.8038 42.1314Z" fill="black"/>
<path d="M38.8325 28.5742L38.188 24.6073C38.1757 24.4522 38.1284 24.3019 38.0496 24.1678C37.9708 24.0336 37.8626 23.9191 37.7331 23.8328C37.6036 23.7465 37.4563 23.6907 37.3022 23.6696C37.148 23.6485 36.9911 23.6626 36.8432 23.7109L35.1557 24.3617C34.9909 24.4404 34.8453 24.5543 34.7291 24.6952C34.6129 24.8361 34.5289 25.0008 34.4831 25.1776C34.4372 25.3544 34.4306 25.539 34.4637 25.7187C34.4967 25.8983 34.5687 26.0685 34.6745 26.2174L37.0069 29.534C37.6784 30.4888 39.0281 29.7791 38.8325 28.5742Z" fill="black"/>
<path d="M33.5653 31.5035L31.692 27.9477C31.631 27.8045 31.5384 27.6771 31.421 27.575C31.3037 27.4729 31.1647 27.3987 31.0145 27.3581C30.8644 27.3175 30.7069 27.3115 30.5541 27.3405C30.4013 27.3696 30.257 27.4329 30.1322 27.5258L28.738 28.6794C28.6069 28.8066 28.5052 28.9609 28.44 29.1316C28.3748 29.3022 28.3476 29.485 28.3605 29.6672C28.3733 29.8494 28.4258 30.0266 28.5144 30.1864C28.6029 30.3462 28.7252 30.4847 28.8729 30.5923L32.1391 32.9944C33.08 33.6857 34.1342 32.5834 33.5653 31.5035Z" fill="black"/>
<path d="M29.1742 35.4592L26.0686 32.9081C25.9569 32.7999 25.8221 32.7184 25.6744 32.6697C25.5266 32.6211 25.3698 32.6067 25.2156 32.6274C25.0615 32.6482 24.9141 32.7037 24.7845 32.7897C24.6549 32.8757 24.5465 32.99 24.4675 33.124L23.6309 34.7274C23.5596 34.8954 23.5259 35.0769 23.532 35.2592C23.5382 35.4416 23.5841 35.6204 23.6666 35.7832C23.749 35.9459 23.866 36.0887 24.0094 36.2016C24.1528 36.3144 24.3191 36.3946 24.4967 36.4365L28.4389 37.3841C29.5732 37.659 30.1174 36.2341 29.1742 35.4592Z" fill="black"/>
<path d="M69.9336 69.0421C69.9336 69.0421 69.4388 75.8739 65.6528 81.5814V81.5859C63.853 84.4228 61.2315 86.644 58.1377 87.9537C53.9234 89.6834 48.1179 89.1788 43.909 82.9208C41.9953 80.0729 40.4094 76.0287 39.4564 70.4624C42.571 71.2272 45.7514 71.6941 48.9544 71.8567C53.0992 72.1168 57.2601 71.9177 61.3611 71.263C64.2816 70.7917 67.1516 70.0481 69.9336 69.0421Z" fill="black"/>
<path d="M65.653 81.5819V81.5864C63.8532 84.4233 61.2318 86.6446 58.1379 87.9542C53.9236 89.6835 48.1181 89.1793 43.9092 82.9213C48.1667 78.269 57.9013 75.9226 60.1065 80.2061C62.5919 79.2612 65.1803 80.5641 65.653 81.5819Z" fill="#EA7169"/>
<path d="M62.8266 80.8843C62.319 80.6551 61.7698 80.5322 61.2128 80.5233C60.6559 80.5144 60.103 80.6197 59.5883 80.8326C59.1705 79.938 58.419 78.8923 56.1701 78.6607C50.5967 78.0374 43.3285 83.376 50.2823 86.6503C57.3157 89.9637 66.9347 82.9568 62.8266 80.8843Z" fill="#F1908B"/>
<path d="M61.3634 73.7902C61.3643 73.9996 61.3232 74.2071 61.2426 74.4004C61.162 74.5937 61.0435 74.7688 60.8941 74.9156C60.7447 75.0623 60.5674 75.1776 60.3726 75.2547C60.1779 75.3318 59.9698 75.3691 59.7604 75.3644L50.6716 75.1845C50.2854 75.177 49.9155 75.0277 49.6322 74.7652C49.3489 74.5026 49.172 74.145 49.1352 73.7605L48.9553 71.8554C53.0992 72.1154 57.2592 71.9165 61.3593 71.2621L61.3634 73.7902Z" fill="white"/>
</svg>
