<svg width="106" height="105" viewBox="0 0 106 105" fill="none" xmlns="http://www.w3.org/2000/svg">
<path d="M42.6239 6.43038C17.092 12.0621 0.959772 37.3253 6.59153 62.8571C12.2233 88.389 37.4864 104.521 63.0183 98.8895C88.5502 93.2577 104.682 67.9946 99.0506 42.4627C93.4188 16.9308 68.1557 0.798617 42.6239 6.43038Z" fill="#FFDC00" stroke="white" stroke-width="7"/>
<path d="M73.1973 57.5012L36.2828 65.6708L32.8759 66.4243L33.6199 69.8333C34.343 73.1497 35.8106 76.2584 37.9121 78.9239C40.0137 81.5894 42.6939 83.7424 45.75 85.2193L45.761 85.2239C50.2884 87.3931 55.4116 87.9844 60.3139 86.903C65.2163 85.8217 69.6153 83.13 72.81 79.2575L72.8166 79.251C74.9737 76.6223 76.5038 73.537 77.2929 70.2294C78.0819 66.9218 78.1087 63.4781 77.3706 60.1588L76.6118 56.7461L73.1973 57.5012Z" fill="#401800" stroke="white" stroke-width="7"/>
<path d="M64.5553 69.8187C61.9912 69.6084 59.2587 70.33 57.1576 72.2335C54.4687 71.4028 51.6878 71.9464 49.4928 73.1832C46.5188 74.859 44.0638 78.079 43.8357 81.8703L43.6948 84.2145L45.8107 85.2338C50.3377 87.4149 55.4662 88.0121 60.3733 86.9298C65.2805 85.8474 69.6826 83.1479 72.8721 79.2647L74.3516 77.4623L73.2582 75.4024C71.4861 72.0644 67.9923 70.1008 64.5553 69.8187Z" fill="#CC0A17" stroke="white" stroke-width="7"/>
<path d="M34.6951 66.0199L35.7256 70.6918L35.7589 70.8065C36.224 72.3916 37.2481 73.7549 38.6405 74.644C39.9692 75.4925 41.5479 75.8529 43.1093 75.6714C52.7955 75.2222 62.3329 73.1176 71.3089 69.4492C72.7963 68.9538 74.0719 67.9641 74.9182 66.639C75.8047 65.2507 76.1616 63.589 75.923 61.9592L75.9046 61.8352L74.8729 57.1576L34.6951 66.0199Z" fill="white" stroke="white" stroke-width="7"/>
<path d="M30.3485 23.8816L30.2784 23.8991L30.2089 23.9194C24.0588 25.7488 18.6011 29.3856 14.5445 34.3569L14.5454 34.3567C13.819 35.2152 13.1867 36.2969 12.9938 37.555C12.7822 38.9365 13.1307 40.5794 14.4622 41.7503C15.7 42.8386 17.2195 43.0171 18.3742 42.8875C19.5568 42.7547 20.6921 42.2833 21.7143 41.6407L21.7141 41.6398C25.3256 39.3802 29.3451 37.8497 33.5445 37.1332L33.5755 37.1283L33.6053 37.1228C36.5128 36.5732 38.9121 35.2591 40.0302 32.8825C41.1007 30.607 40.5 28.3923 39.8295 27.1125L39.656 26.8018C37.864 23.7758 34.2063 23.0166 30.6992 23.7983L30.3485 23.8816Z" fill="#FFAA00" stroke="white" stroke-width="7"/>
<path d="M61.101 17.0982C57.4512 17.7871 54.239 20.0422 53.8733 23.6656L53.8465 24.0206L53.8392 24.3002C53.8312 25.7436 54.2848 27.8261 56.0928 29.3393C58.1069 31.0249 60.8357 31.208 63.7044 30.4834L63.7347 30.4758L63.7648 30.4671C67.8761 29.3505 72.1663 29.0479 76.3933 29.5786L76.3926 29.5798C77.5914 29.7328 78.8197 29.6822 79.9482 29.3055C81.049 28.9381 82.3525 28.1396 83.0201 26.6339C83.7398 25.0102 83.3672 23.3684 82.589 22.1998C81.8836 21.1404 80.8534 20.428 79.8331 19.9565L79.8339 19.9554C74.0668 17.1537 67.5902 16.1496 61.2455 17.0733L61.1729 17.0843L61.101 17.0982Z" fill="#FFAA00" stroke="white" stroke-width="7"/>
<path d="M70.6888 28.323C66.2778 28.0981 62.2358 30.1011 59.129 34.415L58.8307 34.8398L58.8285 34.8433C56.3654 38.4614 55.3341 41.7156 55.3835 44.1745C55.3962 44.8027 55.482 45.4819 55.7045 46.1418C55.9057 46.7386 56.3418 47.6812 57.3044 48.367C58.4822 49.2062 59.9873 49.3191 61.2689 48.6996C62.3159 48.1933 62.9094 47.3556 63.2186 46.8074L63.233 46.7822C64.1266 45.1672 65.2754 43.536 66.549 42.3927C67.8201 41.2516 68.8737 40.8856 69.7468 40.9543C72.4873 41.2418 73.6779 43.4325 75.4023 47.2301L75.4049 47.2285C75.7877 48.0872 76.6412 49.3482 78.2791 49.7767C80.2854 50.3014 81.8739 49.2131 82.6461 48.1304C83.352 47.1406 83.5888 45.9924 83.6501 45.0428C83.7154 44.0325 83.6043 42.9125 83.3382 41.7065L83.3267 41.654C81.348 33.3049 75.8703 28.5874 70.6888 28.323Z" fill="#401800" stroke="white" stroke-width="7"/>
<path d="M39.8593 39.0246C35.0687 36.1675 30.3931 35.9748 26.3601 38.101C21.7834 40.514 18.7169 47.1092 20.5785 55.5499C20.8445 56.7558 21.2154 57.8189 21.7003 58.7086C22.1562 59.5451 22.856 60.4883 23.9164 61.0889C25.0799 61.7479 26.9674 62.0536 28.5588 60.7499C29.899 59.652 30.1352 58.103 30.1135 57.1669L30.1132 57.1469C29.9957 53.0578 30.1832 50.5605 32.5373 49.1589C33.2631 48.7463 34.3494 48.6272 35.9965 49.1319C37.6408 49.6358 39.3885 50.6354 40.9169 51.7308L40.9177 51.7296C41.4293 52.0967 42.3178 52.6051 43.478 52.6239C44.9013 52.6469 46.2191 51.9111 46.9347 50.6544C47.5195 49.6272 47.5194 48.5884 47.451 47.9624C47.3752 47.2701 47.1673 46.6179 46.9145 46.0427C45.9249 43.791 43.6196 41.273 39.8628 39.0268L39.8593 39.0246Z" fill="#401800" stroke="white" stroke-width="7"/>
<path d="M62.2644 95.4716C38.6201 100.687 15.2248 85.7475 10.0094 62.1032C4.79396 38.459 19.7335 15.0636 43.3778 9.84822C67.022 4.63282 90.4174 19.5724 95.6328 43.2166C100.848 66.8609 85.9086 90.2562 62.2644 95.4716Z" fill="#FFDC00"/>
<path d="M37.0394 69.0878C37.6494 71.8857 38.8877 74.5082 40.6607 76.757C42.4337 79.0057 44.6949 80.8218 47.2732 82.0679C51.0956 83.8993 55.4211 84.3983 59.56 83.4853C63.699 82.5724 67.4132 80.3 70.1104 77.0305C71.9308 74.8121 73.2228 72.2087 73.8887 69.4174C74.5546 66.626 74.5769 63.7197 73.954 60.9185L37.0394 69.0878Z" fill="#401800"/>
<path d="M47.3298 82.0804C51.1503 83.9211 55.4784 84.4252 59.6196 83.5117C63.7609 82.5982 67.4753 80.3202 70.1669 77.043C67.8742 72.7242 60.7475 71.5221 58.1177 76.6721C53.7939 73.1096 47.6198 77.2589 47.3298 82.0804Z" fill="#CC0A17"/>
<path d="M39.786 68.4651L40.0111 69.4855C40.2171 70.179 40.6795 70.7727 41.313 71.1568C41.9465 71.5408 42.7082 71.6892 43.4572 71.5746C52.2526 71.1131 60.9285 69.1994 69.1018 65.9179C69.8282 65.7047 70.4552 65.2492 70.8679 64.6349C71.2807 64.0205 71.4516 63.2885 71.3493 62.5729L71.1242 61.5526L39.786 68.4651Z" fill="white"/>
<path d="M19.8517 38.6776C17.0271 40.4532 15.3334 38.7898 17.256 36.5699C20.8688 32.1424 25.7296 28.9036 31.2069 27.2744C34.1137 26.5394 36.0116 27.3671 36.7292 28.7366C37.4467 30.1061 37.6256 32.8005 32.9556 33.6832C28.3035 34.4769 23.8519 36.1736 19.8517 38.6776Z" fill="#FFAA00"/>
<path d="M76.836 26.108C80.1455 26.5305 80.995 24.3061 78.3042 23.1039C73.1681 20.6087 67.4007 19.7144 61.7501 20.5371C58.8039 21.0932 57.4175 22.6453 57.3426 24.1896C57.2678 25.7338 58.2391 28.2535 62.847 27.0897C67.4013 25.8527 72.1536 25.5192 76.836 26.108Z" fill="#FFAA00"/>
<path d="M70.5105 31.8185C67.3524 31.6574 64.2842 33.0579 61.7218 36.8126C57.2985 43.3096 59.0912 47.0017 60.1702 45.0885C62.1631 41.4862 65.6576 37.097 70.0545 37.4672C75.1368 37.9678 77.0518 42.3967 78.5895 45.7831C79.1736 47.1552 80.7802 46.3586 79.9205 42.4608C78.179 35.1123 73.6685 31.9796 70.5105 31.8185Z" fill="#401800"/>
<path d="M27.9926 41.1971C30.7898 39.7224 34.1625 39.7021 38.0666 42.0305C44.8127 46.0638 44.7396 50.1674 42.9559 48.8856C39.5813 46.4673 34.5646 43.9554 30.7826 46.1298C26.3825 48.722 26.5083 53.5455 26.6147 57.2476C26.6492 58.741 24.8565 58.6942 23.9968 54.7964C22.3703 47.4225 25.1953 42.6718 27.9926 41.1971Z" fill="#401800"/>
</svg>
