<svg width="134" height="133" viewBox="0 0 134 133" fill="none" xmlns="http://www.w3.org/2000/svg">
<path d="M9.15527 89.2266H5.03027H2.96777V76.8516L11.2178 47.9766H46.2803" stroke="white" stroke-width="5" stroke-linecap="round" stroke-linejoin="round"/>
<path d="M124.655 89.2266H128.78H130.843V78.9141L122.593 47.9766H87.5303V39.7266" stroke="white" stroke-width="5" stroke-linecap="round" stroke-linejoin="round"/>
<path d="M5.03027 89.2266V126.352" stroke="white" stroke-width="5" stroke-linecap="round" stroke-linejoin="round"/>
<path d="M128.78 89.2266V126.352" stroke="white" stroke-width="5" stroke-linecap="round" stroke-linejoin="round"/>
<path d="M66.9053 17.0391L42.1553 39.7266H87.5303H91.6553L66.9053 17.0391Z" stroke="white" stroke-width="5" stroke-linecap="round" stroke-linejoin="round"/>
<path d="M15.3428 101.602V105.727" stroke="white" stroke-width="5" stroke-linecap="round" stroke-linejoin="round"/>
<path d="M25.6553 101.602V105.727" stroke="white" stroke-width="5" stroke-linecap="round" stroke-linejoin="round"/>
<path d="M15.3428 116.039V120.164" stroke="white" stroke-width="5" stroke-linecap="round" stroke-linejoin="round"/>
<path d="M25.6553 116.039V120.164" stroke="white" stroke-width="5" stroke-linecap="round" stroke-linejoin="round"/>
<path d="M108.155 101.602V105.727" stroke="white" stroke-width="5" stroke-linecap="round" stroke-linejoin="round"/>
<path d="M118.468 101.602V105.727" stroke="white" stroke-width="5" stroke-linecap="round" stroke-linejoin="round"/>
<path d="M108.155 116.039V120.164" stroke="white" stroke-width="5" stroke-linecap="round" stroke-linejoin="round"/>
<path d="M118.468 116.039V120.164" stroke="white" stroke-width="5" stroke-linecap="round" stroke-linejoin="round"/>
<path d="M97.8428 130.477V89.2266H110.218L67.9778 49.0078L66.9053 47.9766L65.8328 49.0078L23.5928 89.2266H35.9678V130.477" stroke="white" stroke-width="5" stroke-linecap="round" stroke-linejoin="round"/>
<path d="M40.0928 89.2266H35.9678" stroke="white" stroke-width="5" stroke-linecap="round" stroke-linejoin="round"/>
<path d="M93.7178 89.2266H97.8428" stroke="white" stroke-width="5" stroke-linecap="round" stroke-linejoin="round"/>
<path d="M56.5928 128.414V105.727H77.2178V128.414" stroke="white" stroke-width="5" stroke-linecap="round" stroke-linejoin="round"/>
<path d="M66.9053 89.2266C71.4616 89.2266 75.1553 85.5329 75.1553 80.9766C75.1553 76.4202 71.4616 72.7266 66.9053 72.7266C62.3489 72.7266 58.6553 76.4202 58.6553 80.9766C58.6553 85.5329 62.3489 89.2266 66.9053 89.2266Z" stroke="white" stroke-width="5" stroke-linecap="round" stroke-linejoin="round"/>
<path d="M66.9053 12.9141V17.0391" stroke="white" stroke-width="5" stroke-linecap="round" stroke-linejoin="round"/>
<path d="M66.9053 2.60156H50.4053V12.9141H66.9053V2.60156Z" stroke="white" stroke-width="5" stroke-linecap="round" stroke-linejoin="round"/>
</svg>
