<svg width="127" height="131" viewBox="0 0 127 131" fill="none" xmlns="http://www.w3.org/2000/svg">
<path d="M75.7219 12.507C79.2926 13.1442 82.7448 14.1072 86.0461 15.3566C89.3474 16.6059 92.4943 18.1488 95.4651 19.9458C98.4323 21.7429 101.224 23.8013 103.806 26.078C106.386 28.3584 108.76 30.8606 110.894 33.5562C113.028 36.2518 114.925 39.1371 116.552 42.18C118.179 45.2228 119.544 48.4267 120.608 51.7523C121.671 55.078 122.443 58.5325 122.885 62.0765M51.9446 118.695C48.3739 118.057 44.9217 117.094 41.6204 115.841C38.3226 114.592 35.1722 113.049 32.2014 111.252C29.2306 109.455 26.443 107.4 23.8601 105.12C21.2809 102.84 18.9064 100.337 16.7725 97.6417C14.6387 94.9462 12.742 92.0608 11.1147 89.018C9.48739 85.9752 8.12232 82.7713 7.059 79.4456C5.99209 76.12 5.22335 72.6655 4.78149 69.1251M45.5216 105.585L54.1574 118.082L41.6168 126.688M82.188 25.6234L73.5522 13.1263L86.0928 4.52051M102.1 80.2547L82.3281 108.424M101.698 108.736L81.9258 80.5661M91.7686 65.0835C107.639 65.0835 120.507 77.9063 120.507 93.7219C120.507 109.537 107.639 122.36 91.7686 122.36C75.8979 122.36 63.0304 109.537 63.0304 93.7219C63.0304 77.9063 75.8979 65.0835 91.7686 65.0835ZM35.9014 8.85206C51.7722 8.85206 64.6397 21.6749 64.6397 37.4904C64.6397 53.306 51.7722 66.1288 35.9014 66.1288C20.0307 66.1288 7.16318 53.3095 7.16318 37.4904C7.16318 21.6713 20.0307 8.85206 35.9014 8.85206Z" stroke="white" stroke-width="8" stroke-linecap="round" stroke-linejoin="round"/>
<path d="M23.5728 39.8638L32.5606 51.5519L50.9136 27.8823" stroke="white" stroke-width="8" stroke-linecap="round" stroke-linejoin="round"/>
</svg>
