<svg width="139" height="141" viewBox="0 0 139 141" fill="none" xmlns="http://www.w3.org/2000/svg">
<path d="M125.826 129.496H13.9111C12.896 129.496 12.0078 128.608 12.0078 127.593V11.7464C12.0078 10.7313 12.896 9.84314 13.9111 9.84314C14.9262 9.84314 15.8144 10.7313 15.8144 11.7464V125.689H125.953C126.968 125.689 127.856 126.578 127.856 127.593C127.856 128.608 126.968 129.496 125.953 129.496H125.826Z" fill="white" stroke="white" stroke-width="3"/>
<path d="M113.85 113H104.587C103.572 113 102.684 112.112 102.684 111.097V61.8648C102.684 60.8497 103.572 59.9615 104.587 59.9615C105.602 59.9615 106.491 60.8497 106.491 61.8648V109.193H113.85C114.865 109.193 115.753 110.082 115.753 111.097C115.753 112.112 114.865 113 113.85 113Z" fill="white" stroke="white" stroke-width="3"/>
<path d="M91.2675 113.001H78.0712C77.0561 113.001 76.1679 112.113 76.1679 111.098V72.0169H66.6514V111.098C66.6514 112.113 65.7631 113.001 64.748 113.001H51.5517C50.5366 113.001 49.6484 112.113 49.6484 111.098V37.5041H40.1319V111.098C40.1319 112.113 39.2437 113.001 38.2286 113.001H24.144C23.1289 113.001 22.2407 112.113 22.2407 111.098C22.2407 110.082 23.1289 109.194 24.144 109.194H36.3252V35.6009C36.3252 34.5858 37.2135 33.6976 38.2286 33.6976H51.5517C52.5668 33.6976 53.4551 34.5858 53.4551 35.6009V109.194H62.8447V70.1136C62.8447 69.0985 63.7329 68.2103 64.748 68.2103H78.0712C79.0863 68.2103 79.9745 69.0985 79.9745 70.1136V109.194H89.3642V47.1474C89.3642 46.1323 90.2524 45.2441 91.2675 45.2441H104.591C105.606 45.2441 106.494 46.1323 106.494 47.1474V66.8146C106.494 67.8297 105.606 68.7179 104.591 68.7179C103.576 68.7179 102.687 67.8297 102.687 66.8146V49.0507H93.1709V111.098C93.1709 112.113 92.2826 113.001 91.2675 113.001Z" fill="white" stroke="white" stroke-width="3"/>
<path d="M121.47 139.265C121.47 139.265 120.328 139.011 119.947 138.503C119.313 137.615 119.44 136.473 120.328 135.839L131.494 127.337L120.328 118.963C119.44 118.329 119.313 117.187 119.947 116.298C120.582 115.41 121.724 115.283 122.612 115.918L135.808 125.815C135.808 125.815 136.57 126.703 136.57 127.337C136.57 127.972 136.316 128.479 135.808 128.86L122.612 138.884C122.612 138.884 121.851 139.265 121.47 139.265Z" fill="white" stroke="white" stroke-width="3"/>
<path d="M4.39427 18.8198C4.39427 18.8198 3.63295 18.8198 3.25228 18.4392C2.36407 17.8047 2.23718 16.6628 2.87162 15.7746L12.7689 2.7054C13.5302 1.69032 15.0528 1.69032 15.8142 2.7054L25.8383 15.9015C26.4727 16.7897 26.3458 17.9316 25.4576 18.5661C24.5694 19.2005 23.4274 19.0736 22.793 18.1854L14.2915 7.0195L5.91692 18.1854C5.91692 18.1854 5.02871 18.9467 4.39427 18.9467V18.8198Z" fill="white" stroke="white" stroke-width="3"/>
</svg>
