<svg width="140" height="116" viewBox="0 0 140 116" fill="none" xmlns="http://www.w3.org/2000/svg">
<path d="M20.3373 98.715C20.3373 98.715 19.2832 98.5832 18.8879 98.1879C18.0973 97.3973 18.0973 96.2114 18.8879 95.4208L52.2243 62.0844C53.0149 61.2938 54.2008 61.2938 54.9914 62.0844L71.5938 78.555L110.333 39.8161C111.123 39.0256 112.309 39.0256 113.1 39.8161C113.89 40.6067 113.89 41.7926 113.1 42.5832L72.9114 82.7714C72.1208 83.562 70.9349 83.562 70.1443 82.7714L53.6738 66.1691L21.6549 98.1879C21.6549 98.1879 20.7326 98.715 20.2055 98.715H20.3373Z" fill="white" stroke="white" stroke-width="3"/>
<path d="M111.255 67.0914C111.255 67.0914 111.123 67.0914 110.991 67.0914C109.937 66.9597 109.147 65.9056 109.279 64.8514L112.441 42.3197L89.9091 45.482C88.855 45.482 87.8009 44.8232 87.6692 43.7691C87.5374 42.715 88.328 41.6609 89.3821 41.5291L114.549 38.1032C114.549 38.1032 115.735 38.1032 116.262 38.6303C116.657 39.0256 116.921 39.6844 116.789 40.3432L113.363 65.5103C113.363 66.5644 112.309 67.2232 111.387 67.2232L111.255 67.0914Z" fill="white" stroke="white" stroke-width="3"/>
<path d="M132.337 113.604H3.86661C2.81249 113.604 1.89014 112.682 1.89014 111.628V3.58084C1.89014 2.52672 2.81249 1.60437 3.86661 1.60437H132.337C133.391 1.60437 134.314 2.52672 134.314 3.58084V40.3432C134.314 41.3973 133.391 42.3197 132.337 42.3197C131.283 42.3197 130.361 41.3973 130.361 40.3432V5.55731H5.84308V109.651H130.361V55.1008C130.361 54.0467 131.283 53.1244 132.337 53.1244C133.391 53.1244 134.314 54.0467 134.314 55.1008V111.628C134.314 112.682 133.391 113.604 132.337 113.604Z" fill="white" stroke="white" stroke-width="3"/>
<path d="M121.269 25.322H4.5253C3.47118 25.322 2.54883 24.3997 2.54883 23.3456C2.54883 22.2914 3.47118 21.3691 4.5253 21.3691H121.269C122.323 21.3691 123.245 22.2914 123.245 23.3456C123.245 24.3997 122.323 25.322 121.269 25.322Z" fill="white" stroke="white" stroke-width="3"/>
<path d="M19.4149 14.7808H13.0902C12.0361 14.7808 11.1138 13.8585 11.1138 12.8044C11.1138 11.7502 12.0361 10.8279 13.0902 10.8279H19.4149C20.4691 10.8279 21.3914 11.7502 21.3914 12.8044C21.3914 13.8585 20.4691 14.7808 19.4149 14.7808Z" fill="white" stroke="white" stroke-width="3"/>
<path d="M121.928 14.7808H101.241C100.187 14.7808 99.2642 13.8585 99.2642 12.8044C99.2642 11.7502 100.187 10.8279 101.241 10.8279H121.928C122.982 10.8279 123.904 11.7502 123.904 12.8044C123.904 13.8585 122.982 14.7808 121.928 14.7808Z" fill="white" stroke="white" stroke-width="3"/>
<path d="M132.205 46.7996C128.779 46.7996 126.012 44.0326 126.012 40.6067C126.012 37.1808 128.779 34.4138 132.205 34.4138C135.631 34.4138 138.398 37.1808 138.398 40.6067C138.398 44.0326 135.631 46.7996 132.205 46.7996Z" fill="white" stroke="white" stroke-width="3"/>
</svg>
