<svg width="54" height="61" viewBox="0 0 54 61" fill="none" xmlns="http://www.w3.org/2000/svg">
<path d="M35.6421 35.2522L26.9996 30.3118L18.3572 35.2522L26.9996 40.2079L35.6421 35.2522Z" fill="#DBF3FF"/>
<path d="M35.6421 35.2522V25.3561L26.9996 20.4156V30.3118L35.6421 35.2522Z" fill="#DCFFFF"/>
<path d="M26.9996 30.3118V20.4156L18.3572 25.3561V35.2522L26.9996 30.3118Z" fill="#A3DAFF"/>
<path d="M26.9996 40.2079L18.3572 35.2522L9.71472 40.2079L18.3572 45.1484L26.9996 40.2079Z" fill="#DBF3FF"/>
<path d="M35.6421 25.3561V15.46L26.9996 10.5195V20.4157L35.6421 25.3561Z" fill="#DCFFFF"/>
<path d="M44.2845 40.2079V30.3118L35.6421 25.3561V35.2522L44.2845 40.2079Z" fill="#DCFFFF"/>
<path d="M18.3572 35.2522V25.3561L9.71472 30.3118V40.2079L18.3572 35.2522Z" fill="#A3DAFF"/>
<path d="M44.2845 40.2079L35.6421 35.2522L26.9996 40.2079L35.6421 45.1484L44.2845 40.2079Z" fill="#DBF3FF"/>
<path d="M26.9996 20.4157V10.5195L18.3572 15.46V25.3561L26.9996 20.4157Z" fill="#A3DAFF"/>
<path d="M45.7862 47.5046L44.7136 46.8813L50.322 43.6738L51.4099 44.2819L45.7862 47.5046Z" fill="#B0DDFF"/>
<path d="M2.58929 44.2819L3.67726 43.6738L9.28566 46.8813L8.19769 47.5046L2.58929 44.2819Z" fill="#DBF3FF"/>
<path d="M35.6421 45.1484L26.9996 40.2079L18.3572 45.1484L26.9996 50.104L35.6421 45.1484Z" fill="#DBF3FF"/>
<path d="M44.2845 30.3118V20.4157L35.6421 15.46V25.3561L44.2845 30.3118Z" fill="#DCFFFF"/>
<path d="M52.9116 45.1484V35.2522L44.2845 30.3118V40.2079L52.9116 45.1484Z" fill="#DCFFFF"/>
<path d="M18.3572 25.3561V15.46L9.71472 20.4157V30.3118L18.3572 25.3561Z" fill="#A3DAFF"/>
<path d="M51.4099 44.2819L50.322 43.6738V37.2284L51.4099 37.8517V44.2819Z" fill="#ABD3FF"/>
<path d="M2.58929 37.8517L3.67726 37.2284V43.6738L2.58929 44.2819V37.8517Z" fill="#509CCF"/>
<path d="M26.9996 10.5195L35.6421 15.46L26.9996 20.4157L18.3572 15.46L26.9996 10.5195Z" fill="#DBF3FF"/>
<path d="M18.3572 45.1484L9.71472 50.104L11.2317 50.9705L18.3572 45.1484Z" fill="#DBF3FF"/>
<path d="M9.71471 50.104L8.8566 50.5905L10.3583 51.4569L11.2317 50.9705L9.71471 50.104Z" fill="#DBF3FF"/>
<path d="M44.7136 46.8813V40.4511L50.322 37.2284V43.6738L44.7136 46.8813Z" fill="#4EA3ED"/>
<path d="M3.67726 43.6738V37.2284L9.28566 40.4511V46.8813L3.67726 43.6738Z" fill="#76C9ED"/>
<path d="M45.7862 41.0744L44.7136 40.4511V46.8813L45.7862 47.5046V41.0744Z" fill="#DCFFFF"/>
<path d="M51.4099 37.8517L50.322 37.2284L44.7136 40.4511L45.7862 41.0744L51.4099 37.8517Z" fill="#DBF3FF"/>
<path d="M8.19769 41.0744L9.28566 40.4511L3.67726 37.2284L2.58929 37.8517L8.19769 41.0744Z" fill="#DBF3FF"/>
<path d="M8.19769 47.5046L9.28566 46.8813V40.4511L8.19769 41.0744V47.5046Z" fill="#A3DAFF"/>
<path d="M16.8401 54.178L26.9996 50.104L18.3572 45.1484L11.2318 50.9705L16.8401 54.178Z" fill="#DBF3FF"/>
<path d="M51.4099 34.3858L50.322 33.7777V27.3323L51.4099 27.9556V34.3858Z" fill="#ABD3FF"/>
<path d="M45.7862 37.6085L44.7136 36.9852L50.322 33.7777L51.4099 34.3858L45.7862 37.6085Z" fill="#B0DDFF"/>
<path d="M37.1438 52.445L36.0711 51.837L41.6795 48.6143L42.7675 49.2375L37.1438 52.445Z" fill="#B0DDFF"/>
<path d="M2.58929 27.9556L3.67726 27.3323V33.7777L2.58929 34.3858V27.9556Z" fill="#509CCF"/>
<path d="M2.58929 34.3858L3.67726 33.7777L9.28566 36.9852L8.19769 37.6085L2.58929 34.3858Z" fill="#DBF3FF"/>
<path d="M26.9996 50.104L16.8401 54.178L18.3572 55.0445L26.9996 50.104Z" fill="#DBF3FF"/>
<path d="M35.6421 15.46L44.2845 20.4157L35.6421 25.3561L26.9996 20.4157L35.6421 15.46Z" fill="#DBF3FF"/>
<path d="M18.3572 15.46L26.9996 20.4157L18.3572 25.3561L9.71472 20.4157L18.3572 15.46Z" fill="#DBF3FF"/>
<path d="M42.7675 49.2375L41.6795 48.6143V42.1841L42.7675 42.8073V49.2375Z" fill="#ABD3FF"/>
<path d="M10.3583 43.2938V49.724V51.4569L11.2317 50.9705V49.2375V42.8073L10.3583 43.2938Z" fill="#004EB2"/>
<path d="M9.71471 40.2079L8.8566 40.6943V50.5905L9.71471 50.104V40.2079Z" fill="#A3DAFF"/>
<path d="M16.8401 54.178L15.982 54.6797L17.4991 55.5461L18.3572 55.0445L16.8401 54.178Z" fill="#DBF3FF"/>
<path d="M16.8401 52.445L15.982 52.9467V54.6796L16.8401 54.178V52.445Z" fill="#A3DAFF"/>
<path d="M44.7136 36.9852V30.555L50.322 27.3323V33.7777L44.7136 36.9852Z" fill="#4EA3ED"/>
<path d="M3.67726 33.7777V27.3323L9.28566 30.555V36.9852L3.67726 33.7777Z" fill="#76C9ED"/>
<path d="M36.0711 51.837V45.4068L41.6795 42.1841V48.6143L36.0711 51.837Z" fill="#4EA3ED"/>
<path d="M45.7862 31.1783L44.7136 30.555V36.9852L45.7862 37.6084V31.1783Z" fill="#DCFFFF"/>
<path d="M51.4099 27.9556L50.322 27.3323L44.7136 30.555L45.7862 31.1783L51.4099 27.9556Z" fill="#DBF3FF"/>
<path d="M8.19769 31.1783L9.28566 30.555L3.67726 27.3323L2.58929 27.9556L8.19769 31.1783Z" fill="#DBF3FF"/>
<path d="M8.19769 37.6084L9.28566 36.9852V30.555L8.19769 31.1783V37.6084Z" fill="#A3DAFF"/>
<path d="M37.1438 46.0148L36.0711 45.4068V51.837L37.1438 52.445V46.0148Z" fill="#DCFFFF"/>
<path d="M42.7675 42.8073L41.6795 42.1841L36.0711 45.4068L37.1438 46.0148L42.7675 42.8073Z" fill="#DBF3FF"/>
<path d="M11.2318 42.8073V49.2375V50.9705L16.8401 54.178V52.445V46.0148L11.2318 42.8073Z" fill="#00D7DE"/>
<path d="M11.2317 42.8073L10.3583 43.2938L15.982 46.5165L16.8401 46.0148L11.2317 42.8073Z" fill="#DBF3FF"/>
<path d="M16.8401 46.0148L15.982 46.5165V52.9467L16.8401 52.445V46.0148Z" fill="#A3DAFF"/>
<path d="M42.7675 39.3414L41.6795 38.7182V32.288L42.7675 32.9112V39.3414Z" fill="#ABD3FF"/>
<path d="M37.1438 42.5489L36.0711 41.9409L41.6795 38.7182L42.7675 39.3414L37.1438 42.5489Z" fill="#B0DDFF"/>
<path d="M34.125 54.178L33.0524 53.5699V47.1245L34.125 47.7478V54.178Z" fill="#ABD3FF"/>
<path d="M28.5167 57.4007L27.4287 56.7774L33.0524 53.5699L34.125 54.178L28.5167 57.4007Z" fill="#B0DDFF"/>
<path d="M19.8742 47.7478L20.9468 47.1245V53.5699L19.8742 54.178V47.7478Z" fill="#509CCF"/>
<path d="M19.8742 54.178L20.9468 53.5699L26.5706 56.7774L25.4826 57.4007L19.8742 54.178Z" fill="#DBF3FF"/>
<path d="M11.2318 32.9112L12.3197 32.288V38.7182L11.2318 39.3414V32.9112Z" fill="#509CCF"/>
<path d="M11.2318 39.3414L12.3197 38.7182L17.9281 41.9409L16.8401 42.5489L11.2318 39.3414Z" fill="#DBF3FF"/>
<path d="M44.2845 20.4156L52.9117 25.3561L44.2845 30.3118L35.6421 25.3561L44.2845 20.4156Z" fill="#DBF3FF"/>
<path d="M26.9996 20.4156L35.6421 25.3561L26.9996 30.3118L18.3572 25.3561L26.9996 20.4156Z" fill="#DBF3FF"/>
<path d="M9.71472 20.4156L18.3572 25.3561L9.71472 30.3118L1.07227 25.3561L9.71472 20.4156Z" fill="#DBF3FF"/>
<path d="M18.3572 55.0445L17.4991 55.5461V45.65L18.3572 45.1484V55.0445Z" fill="#004EB2"/>
<path d="M36.0711 41.9409V35.4955L41.6795 32.288V38.7182L36.0711 41.9409Z" fill="#4EA3ED"/>
<path d="M27.4287 56.7774V50.3472L33.0524 47.1245V53.5699L27.4287 56.7774Z" fill="#4EA3ED"/>
<path d="M12.3197 38.7182V32.288L17.9281 35.4955V41.9409L12.3197 38.7182Z" fill="#76C9ED"/>
<path d="M20.9468 53.5699V47.1245L26.5706 50.3472V56.7774L20.9468 53.5699Z" fill="#76C9ED"/>
<path d="M37.1438 36.1187L36.0711 35.4955V41.9409L37.1438 42.5489V36.1187Z" fill="#DCFFFF"/>
<path d="M42.7675 32.9112L41.6795 32.288L36.0711 35.4955L37.1438 36.1187L42.7675 32.9112Z" fill="#DBF3FF"/>
<path d="M28.5167 50.9705L27.4287 50.3472V56.7774L28.5167 57.4007V50.9705Z" fill="#DCFFFF"/>
<path d="M34.125 47.7478L33.0524 47.1245L27.4287 50.3472L28.5167 50.9705L34.125 47.7478Z" fill="#DBF3FF"/>
<path d="M25.4826 50.9705L26.5706 50.3472L20.9468 47.1245L19.8742 47.7478L25.4826 50.9705Z" fill="#DBF3FF"/>
<path d="M25.4826 57.4007L26.5706 56.7774V50.3472L25.4826 50.9705V57.4007Z" fill="#A3DAFF"/>
<path d="M16.8401 36.1187L17.9281 35.4955L12.3197 32.288L11.2318 32.9112L16.8401 36.1187Z" fill="#DBF3FF"/>
<path d="M16.8401 42.5489L17.9281 41.9409V35.4955L16.8401 36.1187V42.5489Z" fill="#A3DAFF"/>
<path d="M35.6421 25.3561L44.2845 30.3118L35.6421 35.2522L26.9996 30.3118L35.6421 25.3561Z" fill="#DBF3FF"/>
<path d="M34.125 44.2819L33.0524 43.6738V37.2284L34.125 37.8517V44.2819Z" fill="#ABD3FF"/>
<path d="M28.5167 47.5046L27.4287 46.8813L33.0524 43.6738L34.125 44.2819L28.5167 47.5046Z" fill="#B0DDFF"/>
<path d="M19.8742 37.8517L20.9468 37.2284V43.6738L19.8742 44.2819V37.8517Z" fill="#509CCF"/>
<path d="M19.8742 44.2819L20.9468 43.6738L26.5706 46.8813L25.4826 47.5046L19.8742 44.2819Z" fill="#DBF3FF"/>
<path d="M18.3572 25.3561L26.9996 30.3118L18.3572 35.2522L9.71472 30.3118L18.3572 25.3561Z" fill="#DBF3FF"/>
<path d="M27.4287 46.8813V40.4511L33.0524 37.2284V43.6738L27.4287 46.8813Z" fill="#4EA3ED"/>
<path d="M20.9468 43.6738V37.2284L26.5706 40.4511V46.8813L20.9468 43.6738Z" fill="#76C9ED"/>
<path d="M28.5167 41.0744L27.4287 40.4511V46.8813L28.5167 47.5046V41.0744Z" fill="#DCFFFF"/>
<path d="M34.125 37.8517L33.0524 37.2284L27.4287 40.4511L28.5167 41.0744L34.125 37.8517Z" fill="#DBF3FF"/>
<path d="M25.4826 41.0744L26.5706 40.4511L20.9468 37.2284L19.8742 37.8517L25.4826 41.0744Z" fill="#DBF3FF"/>
<path d="M25.4826 47.5046L26.5706 46.8813V40.4511L25.4826 41.0744V47.5046Z" fill="#A3DAFF"/>
<path d="M44.2845 30.3118L35.6421 35.2674L26.9996 40.2231V60.0154L35.6421 55.0749L44.2845 50.1344L52.927 45.1788V25.3865L44.2845 30.327V30.3118ZM42.7675 32.9112V39.3414L37.1591 42.5641V36.1339L42.7675 32.9112ZM28.5166 41.0744L34.125 37.8517V44.2819L28.5166 47.5046V41.0744ZM28.5166 57.4007V50.9705L34.125 47.7478V54.178L28.5166 57.4007ZM37.1438 52.445V46.0148L42.7522 42.7921V49.2223L37.1438 52.445ZM51.4099 44.2819L45.8015 47.5046V41.0744L51.4099 37.8517V44.2819ZM45.7862 37.6085V31.1783L51.3946 27.9556V34.3858L45.7862 37.6085Z" fill="#96C5F5"/>
<path d="M18.3572 35.2522L9.71472 30.2966L1.07227 25.3561V45.1484L9.71472 50.104V40.2079L18.3572 45.1484V55.0445L26.9996 59.9849V40.1927L18.3572 35.237V35.2522ZM8.19769 47.5046L2.58929 44.2819V37.8517L8.19769 41.0744V47.5046ZM8.19769 37.6085L2.58929 34.3858V27.9556L8.19769 31.1783V37.6085ZM16.8401 42.5489L11.2317 39.3262V32.896L16.8401 36.1187V42.5489ZM25.4826 57.4007L19.8742 54.178V47.7478L25.4826 50.9705V57.4007ZM25.4826 47.5046L19.8742 44.2819V37.8517L25.4826 41.0744V47.5046Z" fill="#BFEFFF"/>
<path d="M26.9996 30.3118L35.6421 35.2522L26.9996 40.2079L18.3572 35.2522L26.9996 30.3118Z" fill="#DBF3FF"/>
<path d="M18.3572 45.1484L17.499 45.65L8.8566 40.6943L9.71471 40.2079L18.3572 45.1484Z" fill="#008CFF"/>
<path d="M8.8566 40.6944V50.5905L10.3583 51.457V49.724V43.2938L15.982 46.5165V52.9467V54.6797L17.499 55.5461V45.65L8.8566 40.6944Z" fill="#00A9FF"/>
<path d="M54 25.3555V22.8777L27 7.41783V9.89566L54 25.3555Z" fill="#DCFFFF"/>
<path d="M27 9.89566V7.41783L0 22.8777V25.3555L27 9.89566Z" fill="#A3DAFF"/>
<path d="M27 9.15079V7.91948L50.9659 21.6464V22.8777L27 9.15079Z" fill="#00A9FF"/>
<path d="M54 22.8777V21.6464L27 6.18652V7.41784L54 22.8777Z" fill="#DCFFFF"/>
<path d="M3.01872 22.8777V21.6464L27 7.91948V9.15079L3.01872 22.8777Z" fill="#004EB2"/>
<path d="M27 7.41784V6.18652L0 21.6464V22.8777L27 7.41784Z" fill="#A3DAFF"/>
<path d="M54 21.6464H50.9659L27 7.91948V6.18652L54 21.6464Z" fill="#008CFF"/>
<path d="M27 6.18652V7.91948L3.01873 21.6464H0L27 6.18652Z" fill="#008CFF"/>
<path d="M27 9.1508L50.9659 22.8777L27 36.6198L3.01872 22.8777L27 9.1508Z" fill="#294E85"/>
<path d="M50.9659 22.8777V21.6464L27 35.3732V36.6198L50.9659 22.8777Z" fill="#A3DAFF"/>
<path d="M27 36.6198V35.3732L3.01872 21.6464V22.8777L27 36.6198Z" fill="#DCFFFF"/>
<path d="M27 40.8154V38.3527L54 22.8777V25.3555L27 40.8154Z" fill="#004EB2"/>
<path d="M0 25.3555V22.8777L27 38.3527V40.8154L0 25.3555Z" fill="#00A9FF"/>
<path d="M27 38.3527V37.1062L54 21.6464V22.8777L27 38.3527Z" fill="#004EB2"/>
<path d="M0 22.8777V21.6464L27 37.1062V38.3527L0 22.8777Z" fill="#00A9FF"/>
<path d="M27 37.1062V35.3732L50.9659 21.6464H54L27 37.1062Z" fill="#008CFF"/>
<path d="M0 21.6464H3.01873L27 35.3732V37.1062L0 21.6464Z" fill="#008CFF"/>
<path d="M35.6426 17.9377L27.0001 12.982L18.3577 17.9377L27.0001 22.8781L35.6426 17.9377Z" fill="#DBF3FF"/>
<path d="M35.6426 17.9377V8.04155L27.0001 3.08589V12.982L35.6426 17.9377Z" fill="#DCFFFF"/>
<path d="M27.0001 12.982V3.08589L18.3577 8.04155V17.9377L27.0001 12.982Z" fill="#A3DAFF"/>
<path d="M27.0001 22.8781L18.3577 17.9377L9.71523 22.8781L18.3577 27.8338L27.0001 22.8781Z" fill="#DBF3FF"/>
<path d="M18.3577 17.9377V8.04155L9.71523 12.982V22.8781L18.3577 17.9377Z" fill="#A3DAFF"/>
<path d="M27.0001 3.08589L35.6426 8.04155L27.0001 12.982L18.3577 8.04155L27.0001 3.08589Z" fill="#DBF3FF"/>
<path d="M44.285 22.8781V12.982L35.6426 8.04155V17.9377L44.285 22.8781Z" fill="#DCFFFF"/>
<path d="M18.3577 8.04155L27.0001 12.982L18.3577 17.9377L9.71523 12.982L18.3577 8.04155Z" fill="#DBF3FF"/>
<path d="M18.3577 27.8338L27.0001 32.7743L28.5172 31.9078L18.3577 27.8338Z" fill="#DBF3FF"/>
<path d="M35.6426 17.9377L27.0001 22.8781V32.7743L44.285 22.8781V12.982L35.6426 17.9377Z" fill="#96C5F5"/>
<path d="M35.6426 8.04155L44.285 12.982L35.6426 17.9377L27.0001 12.982L35.6426 8.04155Z" fill="#DBF3FF"/>
<path d="M27.0001 12.982L35.6426 17.9377L27.0001 22.8781L18.3577 17.9377L27.0001 12.982Z" fill="#DBF3FF"/>
<path d="M18.3577 17.9377L9.71523 12.982V22.8781L18.3577 27.8338L27.0001 32.7743V22.8781L18.3577 17.9377Z" fill="#BFEFFF"/>
<path d="M45.3577 12.982V10.5194L27.0001 0V2.47783L45.3577 12.982Z" fill="#DCFFFF"/>
<path d="M27.0001 2.47783V0L8.64258 10.5194V12.982L27.0001 2.47783Z" fill="#B4D9FF"/>
<path d="M45.3577 12.982L27.0001 2.47783L8.64258 12.982L27.0001 23.5014L45.3577 12.982Z" fill="#DBF3FF"/>
<path d="M27.0001 0L45.3577 10.5194L27.0001 21.0236L8.64258 10.5194L27.0001 0Z" fill="#008CFF"/>
<path d="M27.0001 23.5014V21.0236L45.3577 10.5194V12.982L27.0001 23.5014Z" fill="#004EB2"/>
<path d="M8.64258 12.982V10.5194L27.0001 21.0236V23.5014L8.64258 12.982Z" fill="#00A9FF"/>
</svg>
