<svg width="69" height="231" viewBox="0 0 69 231" fill="none" xmlns="http://www.w3.org/2000/svg">
<g filter="url(#filter0_d_4333_8514)">
<path d="M46.2503 90.6272L48.5086 114.534L48.8283 117.905L53.9559 172.188L54.0186 172.815V172.819C53.8554 173.265 53.682 173.81 53.5002 174.443C51.5581 181.055 48.2923 196.945 46.3868 206.54C45.7727 209.611 44.9242 214.492 44.9242 214.473C44.2134 211.767 43.3596 209.101 42.3665 206.486C38.3227 196.108 31.0001 182.451 31.0001 182.451L24.7256 114.602L24.3693 110.747L22.997 95.9051C21.3461 95.4594 19.8157 94.6502 18.5179 93.5367C17.22 92.4232 16.1876 91.0337 15.496 89.4697C15.3669 89.1789 15.2484 88.8771 15.1427 88.5712C14.221 85.9118 14.31 83.0061 15.3928 80.4081C16.4756 77.81 18.4764 75.7012 21.014 74.4834L18.88 51.4089C18.4179 46.7568 16.8032 35.7427 16.4927 33.6384C16.4512 33.5266 16.4192 33.4114 16.3968 33.2943L13.9551 20.1473C13.2334 16.2628 15.668 12.5169 19.2467 12.0213L26.5935 10.9937C28.9069 10.6699 31.263 11.0991 33.3135 12.2179L33.3428 12.2323C36.9723 14.1855 39.6181 18.1208 39.9973 22.8942L40.4804 28.9471L40.4859 28.9504C40.5295 29.3804 40.5659 29.8175 40.6095 30.2477C41.0414 34.9387 41.4453 39.5055 41.755 43.0477L44.6774 73.9748C46.4937 73.6563 48.3643 73.945 50 74.7964C51.6357 75.6477 52.9454 77.0142 53.7265 78.6845C53.8517 78.9498 53.962 79.2219 54.057 79.4994C54.4906 80.7533 54.6205 82.0922 54.4361 83.4061C54.2517 84.72 53.7582 85.9714 52.9963 87.0575C52.2343 88.1437 51.2255 89.0336 50.0528 89.6541C48.8801 90.2747 47.577 90.6082 46.2503 90.6272Z" stroke="white" stroke-width="15"/>
</g>
<path d="M54.0704 172.99C53.9064 173.436 53.7334 173.982 53.551 174.615C51.6078 181.234 48.3385 197.141 46.4315 206.746C45.5844 210.98 45.0061 213.99 44.9198 214.44C44.9146 214.458 44.9146 214.482 44.9104 214.5C44.5011 212.452 43.5855 209.71 42.4066 206.692C38.3598 196.303 31.2535 182.632 31.2535 182.632L31.7088 181.949L37.4077 173.371L39.2017 170.676L42.7524 165.331L49.2591 169.393L54.0069 172.357L54.0704 172.99Z" fill="#EBE04F"/>
<path d="M40.6283 30.3119C40.6407 30.4251 40.6112 30.5388 40.5453 30.6316C40.4794 30.7244 40.3817 30.7898 40.2708 30.8153L27.5184 33.1934L18.4867 34.8788C17.531 35.0612 16.6119 34.3681 16.4149 33.3175L13.9702 20.1567C13.2479 16.2683 15.6836 12.5185 19.2667 12.0224L26.6214 10.9938C28.9366 10.6702 31.2944 11.1 33.3464 12.2199L33.3757 12.2345C37.0088 14.1896 39.6569 18.1292 40.0363 22.9077L40.6283 30.3119Z" fill="#0189C1"/>
<path d="M54.0702 172.99C53.9062 173.436 53.7331 173.982 53.5507 174.615C51.6076 181.234 48.3383 197.141 46.4313 206.746C45.5842 210.98 45.0056 213.99 44.9196 214.44C45.2727 211.806 45.3733 209.145 45.22 206.491C44.8005 197.641 40.6925 185.268 38.4572 178.244C37.4512 175.085 36.4932 171.023 36.4932 171.023L39.2019 170.677L49.2587 169.393L54.0064 172.357L54.0702 172.99Z" fill="#FDB12B"/>
<path d="M46.4317 206.746C45.5848 210.98 45.0061 213.989 44.92 214.44C44.915 214.458 44.915 214.482 44.9104 214.499C44.501 212.452 43.5857 209.71 42.4066 206.692L42.6619 206.154L43.3987 207.065L44.3821 205.017L45.2204 206.492L45.2248 206.497L45.6757 205.017L46.4317 206.746Z" fill="black"/>
<path d="M54.0704 172.985V172.99C53.9062 173.436 53.7334 173.982 53.551 174.615C46.8181 172.143 44.6871 178.535 44.6871 178.535C42.0513 174.252 40.6081 178.312 40.0122 180.884C39.7847 181.867 39.6796 182.632 39.6796 182.632C36.5381 178.444 33.129 180.679 31.7087 181.949C31.4675 182.161 31.2409 182.39 31.0304 182.632L18.7384 49.6994L25.4851 36.2103L26.0227 35.1313H41.0456L54.0067 172.358L54.0704 172.985Z" fill="#0AAC5A"/>
<path opacity="0.4" d="M39.6806 182.632C36.5392 178.444 33.1301 180.679 31.7097 181.949C31.4685 182.161 31.2419 182.389 31.0313 182.632L18.7393 49.6991L25.486 36.2101L39.6806 182.632Z" fill="white"/>
<path d="M40.628 30.3116C40.6405 30.4247 40.611 30.5385 40.5451 30.6313C40.4792 30.7241 40.3815 30.7894 40.2705 30.8149L27.5182 33.1931C24.2353 32.967 21.6745 32.5073 20.9597 31.6392C18.4942 28.6263 17.6417 17.3267 19.2577 15.3727C22.9658 10.8867 33.3473 12.2189 33.3473 12.2189L33.3765 12.2335C37.0096 14.1886 39.6579 18.1282 40.0371 22.9067L40.628 30.3116Z" fill="#02A7E0"/>
<path d="M42.3788 49.8623C31.5452 45.8864 18.9314 51.7737 18.9314 51.7737C18.4717 46.8567 16.4584 33.3092 16.4584 33.3092C25.8913 19.0978 40.5257 28.9684 40.5257 28.9684C40.5696 29.3988 40.606 29.8365 40.6498 30.267C41.3139 37.4821 41.9121 44.4054 42.2037 47.7612C42.3132 49.0972 42.3788 49.8623 42.3788 49.8623Z" fill="#EBE04F"/>
<path d="M42.2037 47.7622C33.8366 48.0321 19.2818 42.9398 22.9221 42.7576C36.5207 42.0719 40.0152 38.3439 32.3696 36.2136C28.2259 35.0535 21.1273 39.9118 23.2943 32.0556C25.4537 24.2057 40.5915 30.2391 40.5915 30.2391L40.6498 30.2683C41.3138 37.4831 41.912 44.4064 42.2037 47.7622Z" fill="#FDB12B"/>
<path opacity="0.4" d="M34.549 24.4696C35.5741 24.4696 36.405 23.6387 36.405 22.6136C36.405 21.5885 35.5741 20.7576 34.549 20.7576C33.524 20.7576 32.693 21.5885 32.693 22.6136C32.693 23.6387 33.524 24.4696 34.549 24.4696Z" fill="white"/>
<path opacity="0.4" d="M31.4328 22.6138C31.9453 22.6138 32.3609 22.1983 32.3609 21.6857C32.3609 21.1731 31.9453 20.7576 31.4328 20.7576C30.9202 20.7576 30.5046 21.1731 30.5046 21.6857C30.5046 22.1983 30.9202 22.6138 31.4328 22.6138Z" fill="white"/>
<path opacity="0.4" d="M35.6975 20.4247C36.3318 20.4247 36.8461 19.9104 36.8461 19.2761C36.8461 18.6418 36.3318 18.1276 35.6975 18.1276C35.0632 18.1276 34.549 18.6418 34.549 19.2761C34.549 19.9104 35.0632 20.4247 35.6975 20.4247Z" fill="white"/>
<path opacity="0.4" d="M33.2567 20.4249C33.7982 20.4249 34.2371 19.986 34.2371 19.4446C34.2371 18.9032 33.7982 18.4642 33.2567 18.4642C32.7153 18.4642 32.2764 18.9032 32.2764 19.4446C32.2764 19.986 32.7153 20.4249 33.2567 20.4249Z" fill="white"/>
<path d="M15.1585 88.6521C15.2642 88.9586 15.3831 89.2606 15.5125 89.5516C16.7104 92.2644 18.9107 94.409 21.6532 95.5371C24.3957 96.6652 27.4682 96.6895 30.2282 95.6048C32.9882 94.5201 35.222 92.4105 36.4627 89.717C37.7033 87.0235 37.8547 83.9547 36.8851 81.1522C36.7542 80.7724 36.6029 80.4001 36.4319 80.0366C35.1852 77.3705 32.963 75.2844 30.2236 74.2083C27.4842 73.1323 24.4363 73.1483 21.7083 74.2531C18.9804 75.3579 16.7803 77.4672 15.5616 80.1463C14.343 82.8253 14.1987 85.8698 15.1585 88.6521Z" fill="white"/>
<path d="M29.6821 91.1046C32.8068 91.1046 35.3399 88.5716 35.3399 85.4469C35.3399 82.3222 32.8068 79.7892 29.6821 79.7892C26.5575 79.7892 24.0244 82.3222 24.0244 85.4469C24.0244 88.5716 26.5575 91.1046 29.6821 91.1046Z" fill="black"/>
<path d="M30.1991 87.6927C31.4865 87.6927 32.5302 86.649 32.5302 85.3616C32.5302 84.0741 31.4865 83.0304 30.1991 83.0304C28.9116 83.0304 27.8679 84.0741 27.8679 85.3616C27.8679 86.649 28.9116 87.6927 30.1991 87.6927Z" fill="white"/>
<path d="M27.0684 85.5892C27.9591 85.5892 28.6812 84.8671 28.6812 83.9763C28.6812 83.0856 27.9591 82.3635 27.0684 82.3635C26.1777 82.3635 25.4556 83.0856 25.4556 83.9763C25.4556 84.8671 26.1777 85.5892 27.0684 85.5892Z" fill="white"/>
<path d="M15.5122 89.5518C16.3346 91.4102 17.6351 93.0175 19.281 94.2096C20.9269 95.4018 22.8595 96.1362 24.8818 96.3381C26.9041 96.5401 28.9437 96.2022 30.7929 95.3591C32.642 94.5159 34.2346 93.1975 35.4082 91.5384L35.4062 91.5319C35.4062 91.5319 23.7414 97.1025 15.5122 89.5518Z" fill="#D2EAF4"/>
<path d="M19.3351 75.5558L19.3365 75.5587C24.9504 74.0961 35.4177 79.5019 36.4317 80.0374C35.7166 78.5099 34.6742 77.1584 33.3784 76.0787C32.0826 74.9991 30.5651 74.2178 28.9336 73.7901C27.3021 73.3624 25.5965 73.2989 23.9377 73.6041C22.2789 73.9092 20.7076 74.5755 19.3351 75.5558Z" fill="#D2EAF4"/>
<path d="M38.2316 85.0535C38.3089 85.2775 38.3958 85.4986 38.4898 85.7108C39.3697 87.6868 40.978 89.2471 42.9796 90.0669C44.9812 90.8867 47.222 90.9026 49.2351 90.1115C51.2482 89.3204 52.8786 87.7831 53.7865 85.8199C54.6945 83.8567 54.8101 81.6189 54.1093 79.5726C54.0142 79.2949 53.9037 79.0229 53.7781 78.7577C52.8674 76.8086 51.2435 75.2833 49.2412 74.4964C47.2389 73.7096 45.011 73.7211 43.017 74.5288C41.023 75.3364 39.4149 76.8785 38.5246 78.8369C37.6342 80.7954 37.5294 83.0209 38.2318 85.0543L38.2316 85.0535Z" fill="white"/>
<path d="M38.49 85.7107C39.0907 87.0692 40.041 88.2441 41.2439 89.1156C42.4468 89.9871 43.8593 90.524 45.3374 90.6716C46.8155 90.8191 48.3062 90.5721 49.6577 89.9556C51.0091 89.3392 52.173 88.3753 53.0304 87.1624L53.029 87.158C53.029 87.158 44.5035 91.2297 38.49 85.7107Z" fill="#D2EAF4"/>
<path d="M41.2842 75.482V75.4841C45.3872 74.4145 53.0372 78.3658 53.7774 78.7568C53.2548 77.6405 52.4929 76.6528 51.5459 75.8638C50.5989 75.0748 49.4899 74.5038 48.2975 74.1913C47.1051 73.8788 45.8586 73.8324 44.6464 74.0555C43.4341 74.2786 42.2857 74.7656 41.2827 75.482H41.2842Z" fill="#D2EAF4"/>
<path d="M43.5146 86.9634C45.5761 86.9634 47.2472 85.2922 47.2472 83.2308C47.2472 81.1694 45.5761 79.4983 43.5146 79.4983C41.4532 79.4983 39.7821 81.1694 39.7821 83.2308C39.7821 85.2922 41.4532 86.9634 43.5146 86.9634Z" fill="black"/>
<path d="M43.8465 84.8664C44.6959 84.8664 45.3845 84.1778 45.3845 83.3284C45.3845 82.479 44.6959 81.7904 43.8465 81.7904C42.9971 81.7904 42.3085 82.479 42.3085 83.3284C42.3085 84.1778 42.9971 84.8664 43.8465 84.8664Z" fill="white"/>
<path d="M42.3818 82.6732C42.9695 82.6732 43.4459 82.1968 43.4459 81.6091C43.4459 81.0214 42.9695 80.5449 42.3818 80.5449C41.7941 80.5449 41.3176 81.0214 41.3176 81.6091C41.3176 82.1968 41.7941 82.6732 42.3818 82.6732Z" fill="white"/>
<path d="M32.9556 118.104C35.1494 117.582 37.7658 117.136 38.1791 116.015C38.9104 113.403 36.6785 109.646 36.6785 109.646C34.4014 110.059 32.0727 110.101 29.7822 109.772C29.4036 119.358 32.9556 118.104 32.9556 118.104Z" fill="white"/>
<path d="M31.2842 114.761C31.2842 114.761 31.6448 116.367 32.1271 116.961C32.6094 117.555 35.3585 116.658 35.3585 116.658C35.3585 116.658 32.0674 116.241 31.2842 114.761Z" fill="#D7E8F2"/>
<path d="M45.7833 103.777C45.7833 103.777 38.453 113.806 26.2559 108.301" stroke="#00783B" stroke-width="2" stroke-miterlimit="10"/>
<path d="M28.2606 107.114C28.2606 107.114 25.5803 107.618 26.0851 110.298" stroke="#00783B" stroke-width="2" stroke-miterlimit="10"/>
<path d="M46.405 105.643C46.405 105.643 46.7393 102.936 44.0333 102.601" stroke="#00783B" stroke-width="2" stroke-miterlimit="10"/>
<defs>
<filter id="filter0_d_4333_8514" x="0.338135" y="0.388672" width="67.6793" height="230.58" filterUnits="userSpaceOnUse" color-interpolation-filters="sRGB">
<feFlood flood-opacity="0" result="BackgroundImageFix"/>
<feColorMatrix in="SourceAlpha" type="matrix" values="0 0 0 0 0 0 0 0 0 0 0 0 0 0 0 0 0 0 127 0" result="hardAlpha"/>
<feOffset dy="3"/>
<feGaussianBlur stdDeviation="3"/>
<feColorMatrix type="matrix" values="0 0 0 0 0 0 0 0 0 0 0 0 0 0 0 0 0 0 0.161 0"/>
<feBlend mode="normal" in2="BackgroundImageFix" result="effect1_dropShadow_4333_8514"/>
<feBlend mode="normal" in="SourceGraphic" in2="effect1_dropShadow_4333_8514" result="shape"/>
</filter>
</defs>
</svg>
