<svg width="131" height="148" viewBox="0 0 131 148" fill="none" xmlns="http://www.w3.org/2000/svg">
<g filter="url(#filter0_d_4333_7816)">
<path d="M16.9621 136.343C14.6662 136.343 12.4806 135.345 10.9656 133.604C10.2289 132.758 9.68859 131.789 9.35967 130.723C9.01519 129.606 8.92304 128.447 9.08573 127.278L24.457 16.8891C24.7077 15.0876 25.5772 13.4112 26.9054 12.1688C28.234 10.926 29.965 10.1704 31.7796 10.0411L87.3716 6.07031C87.561 6.05679 87.7533 6.04993 87.9428 6.04993C89.7163 6.04993 91.4626 6.65424 92.8599 7.75154C93.5518 8.29494 94.1451 8.94393 94.6232 9.6805C95.1152 10.4385 95.4724 11.2701 95.685 12.1521L122.088 121.937C122.662 124.325 122.12 126.8 120.601 128.728C119.876 129.648 118.941 130.41 117.899 130.932C116.793 131.485 115.601 131.766 114.358 131.766C114.358 131.766 114.358 131.766 114.358 131.766C114.124 131.766 113.887 131.755 113.653 131.735L90.2707 129.702C89.3694 129.624 88.4952 129.395 87.673 129.023C86.8724 128.66 86.1414 128.17 85.5002 127.567C84.859 126.963 84.3258 126.263 83.9152 125.486C83.4935 124.688 83.2124 123.829 83.0796 122.933L78.4426 91.6299C78.212 90.075 76.8565 88.9021 75.2896 88.9021C75.0437 88.9021 74.7953 88.9313 74.5512 88.9886L58.7054 92.7163C57.2192 93.066 56.1848 94.4274 56.246 95.9535L57.3958 124.7C57.4767 126.732 56.788 128.697 55.4569 130.234C54.1255 131.771 52.2782 132.733 50.2556 132.942L17.7954 136.3C17.519 136.329 17.2385 136.343 16.9621 136.343Z" fill="white"/>
<path d="M16.9629 133.957C17.1569 133.957 17.3526 133.947 17.5507 133.927L50.0108 130.57C52.9406 130.266 55.1298 127.738 55.0127 124.796L53.8629 96.0493C53.7558 93.3783 55.5587 91.0061 58.1599 90.3941L74.0059 86.6664C77.1855 85.9184 80.3242 88.0491 80.8035 91.2806L85.4405 122.584C85.8194 125.14 87.9042 127.102 90.4782 127.325L113.861 129.358C117.657 129.689 120.66 126.2 119.769 122.495L93.3663 12.7113C92.7272 10.0589 90.265 8.25586 87.5424 8.45033L31.95 12.4211C29.322 12.6084 27.184 14.6088 26.8209 17.2184L11.4496 127.607C10.978 130.997 13.6293 133.957 16.9629 133.957ZM16.9629 138.729C13.9767 138.729 11.1351 137.432 9.16682 135.171C7.20125 132.913 6.31069 129.917 6.7235 126.949L22.0949 16.5603C22.7642 11.7495 26.7663 8.00681 31.6108 7.66148L87.3722 3.67865L87.9436 3.66431C92.7427 3.66431 96.8801 6.92488 98.0052 11.5934L124.409 121.379C125.155 124.483 124.45 127.699 122.476 130.205C120.312 132.951 116.985 134.42 113.447 134.112L90.0648 132.079C85.2693 131.663 81.4262 128.046 80.7204 123.283L76.0833 91.9798C76.0168 91.5309 75.6251 91.2882 75.2904 91.2882L59.2525 95.039C58.8768 95.1273 58.6152 95.4719 58.6307 95.8582L59.7805 124.605C59.9973 130.051 55.9216 134.755 50.502 135.316L18.0417 138.673C17.6785 138.711 17.3191 138.729 16.9629 138.729Z" fill="white"/>
</g>
<g filter="url(#filter1_d_4333_7816)">
<path d="M119.772 121.631L93.3687 11.8468C93.0592 10.5622 92.3042 9.42907 91.2378 8.64884C90.1715 7.86861 88.8629 7.49189 87.5449 7.58568L31.9549 11.5567C30.6797 11.6477 29.4745 12.1739 28.5409 13.0472C27.6072 13.9205 27.0018 15.0879 26.8258 16.3541L11.4543 126.743C11.3376 127.581 11.4131 128.435 11.675 129.239C11.937 130.044 12.3786 130.779 12.9664 131.388C13.5542 131.997 14.2728 132.464 15.0679 132.754C15.8629 133.044 16.7136 133.15 17.5554 133.063L50.0157 129.705C51.427 129.559 52.7295 128.88 53.6586 127.808C54.5876 126.735 55.0735 125.349 55.0174 123.932L53.8674 95.1851C53.8159 93.8902 54.2166 92.6178 55.0005 91.586C55.7845 90.5541 56.903 89.8271 58.1643 89.5297L74.0101 85.802C74.7618 85.6256 75.5419 85.6071 76.3011 85.7475C77.0604 85.888 77.7822 86.1844 78.4211 86.618C79.0599 87.0517 79.6019 87.6131 80.0127 88.2669C80.4235 88.9206 80.6942 89.6525 80.8078 90.4162L85.4449 121.718C85.6288 122.96 86.2261 124.104 87.1402 124.964C88.0542 125.825 89.2317 126.352 90.4824 126.46L113.864 128.493C114.745 128.57 115.631 128.436 116.451 128.102C117.27 127.769 117.998 127.245 118.575 126.575C119.152 125.905 119.562 125.107 119.77 124.247C119.978 123.387 119.978 122.491 119.772 121.631Z" fill="#FDB12B"/>
</g>
<path d="M61.9944 30.9741C61.9912 33.7723 61.2005 36.5132 59.7126 38.8831C58.0819 41.4777 55.6894 43.5051 52.8625 44.688C50.0356 45.871 46.9122 46.1517 43.9196 45.4918C40.9271 44.8318 38.2114 43.2635 36.1442 41.0013C34.077 38.739 32.7591 35.8934 32.3709 32.8536V32.8474C32.2905 32.226 32.25 31.6002 32.2498 30.9736C32.2495 28.1247 33.0677 25.3357 34.6071 22.9386C36.1465 20.5414 38.3422 18.6369 40.9328 17.4518C43.5235 16.2667 46.4002 15.8509 49.2204 16.2537C52.0407 16.6566 54.6858 17.8613 56.8411 19.7244L56.9628 19.8279C58.5463 21.2207 59.8143 22.9356 60.6821 24.8577C61.5498 26.7799 61.9972 28.8651 61.9944 30.9741Z" fill="white"/>
<path d="M61.7207 33.803C61.379 35.6082 60.6976 37.332 59.7128 38.883C58.4789 40.8513 56.8007 42.503 54.8128 43.7052C52.825 44.9074 50.5829 45.6267 48.2666 45.8054C45.9504 45.9841 43.6245 45.6172 41.4757 44.7341C39.327 43.851 37.4152 42.4764 35.894 40.7205C35.894 40.7205 51.8343 45.466 61.7207 33.803Z" fill="#D2EAF4"/>
<path d="M56.8411 19.7249L56.707 20.0232C42.1056 17.5896 32.6577 27.5066 32.6577 27.5066C33.2531 25.0251 34.477 22.7386 36.2118 20.867C37.9465 18.9954 40.1337 17.6017 42.563 16.8201C44.9922 16.0384 47.5817 15.895 50.0824 16.4038C52.5831 16.9125 54.9108 18.0563 56.8415 19.7249H56.8411Z" fill="#D2EAF4"/>
<path d="M47.2767 38.2751C51.8128 38.2751 55.4901 34.5978 55.4901 30.0616C55.4901 25.5254 51.8128 21.8481 47.2767 21.8481C42.7405 21.8481 39.0632 25.5254 39.0632 30.0616C39.0632 34.5978 42.7405 38.2751 47.2767 38.2751Z" fill="black"/>
<path opacity="0.4" d="M44.8129 33.3465C45.2664 33.3465 45.6341 32.9788 45.6341 32.5253C45.6341 32.0718 45.2664 31.7041 44.8129 31.7041C44.3594 31.7041 43.9917 32.0718 43.9917 32.5253C43.9917 32.9788 44.3594 33.3465 44.8129 33.3465Z" fill="white"/>
<path d="M91.6901 29.4535C91.6957 32.6594 90.7906 35.801 89.08 38.5125H89.0737C87.2074 41.486 84.4676 43.81 81.2295 45.1662C77.9913 46.5224 74.4131 46.8446 70.9848 46.0886C67.5564 45.3327 64.4455 43.5355 62.0781 40.9431C59.7106 38.3508 58.2023 35.0901 57.7596 31.6074V31.6012C57.6669 30.8892 57.6202 30.172 57.6198 29.454C57.6198 24.936 59.4146 20.6031 62.6092 17.4085C65.8039 14.2138 70.1367 12.4191 74.6547 12.4191C79.1726 12.4191 83.5055 14.2138 86.7002 17.4085C89.8948 20.6031 91.6896 24.936 91.6896 29.454L91.6901 29.4535Z" fill="white"/>
<path d="M89.0743 38.5125C87.208 41.486 84.4681 43.81 81.2299 45.1662C77.9917 46.5224 74.4135 46.8445 70.9851 46.0885C67.5568 45.3325 64.4459 43.5352 62.0785 40.9428C59.711 38.3504 58.2028 35.0897 57.7602 31.6069C57.7602 31.6069 70.0439 48.7759 89.0743 38.5125Z" fill="#D2EAF4"/>
<path d="M85.9291 16.6831C77.4298 14.5659 62.0555 17.991 62.0555 17.991V17.9848C65.0673 14.6773 69.259 12.6869 73.7256 12.4434C78.1923 12.1998 82.5756 13.7227 85.9291 16.6831Z" fill="#D2EAF4"/>
<path d="M74.9593 38.8833C79.9994 38.8833 84.0852 34.7975 84.0852 29.7574C84.0852 24.7174 79.9994 20.6316 74.9593 20.6316C69.9193 20.6316 65.8335 24.7174 65.8335 29.7574C65.8335 34.7975 69.9193 38.8833 74.9593 38.8833Z" fill="black"/>
<path d="M76.4809 33.1034C78.4969 33.1034 80.1312 31.4691 80.1312 29.4531C80.1312 27.437 78.4969 25.8027 76.4809 25.8027C74.4649 25.8027 72.8306 27.437 72.8306 29.4531C72.8306 31.4691 74.4649 33.1034 76.4809 33.1034Z" fill="white"/>
<path opacity="0.4" d="M72.2215 33.4083C72.7257 33.4083 73.1344 32.9996 73.1344 32.4955C73.1344 31.9913 72.7257 31.5826 72.2215 31.5826C71.7174 31.5826 71.3087 31.9913 71.3087 32.4955C71.3087 32.9996 71.7174 33.4083 72.2215 33.4083Z" fill="white"/>
<path d="M48.6456 33.073C50.46 33.073 51.9309 31.6022 51.9309 29.7877C51.9309 27.9733 50.46 26.5024 48.6456 26.5024C46.8312 26.5024 45.3603 27.9733 45.3603 29.7877C45.3603 31.6022 46.8312 33.073 48.6456 33.073Z" fill="white"/>
<path d="M44.3918 56.4171V85.7314L78.8772 75.3845V51.2422C78.8772 51.2422 56.4627 49.5192 44.3918 56.4171Z" fill="#EBE04F"/>
<path d="M74.5901 55.5017V73.6427L73.9527 73.8335L71.762 74.4882L70.5032 74.87L68.1927 75.559L66.1753 76.1621L63.1567 77.0759L61.0019 77.7148L59.346 78.2139L57.2083 78.8705L54.5529 79.6626L52.1194 80.3874L49.3609 81.2153L48.6704 81.4215V59.3997L48.7749 59.3467C49.7122 58.8165 50.6928 58.3669 51.7061 58.0026C52.3253 57.7536 52.9585 57.5407 53.6024 57.3651C54.5539 57.0657 55.521 56.818 56.4993 56.6231C57.1898 56.467 57.8964 56.3301 58.6041 56.227C59.3446 56.0882 60.0867 55.9856 60.8101 55.8811L62.2587 55.7265C63.6215 55.5876 64.9499 55.5022 66.2082 55.4335C66.6038 55.4335 66.9841 55.4163 67.3629 55.3991C68.5358 55.3648 69.6057 55.3476 70.5533 55.3648C70.8296 55.3648 71.0882 55.3648 71.3296 55.382C72.4849 55.3991 73.3987 55.4335 73.9507 55.4507C74.2619 55.4764 74.4665 55.4922 74.5481 55.4984C74.5777 55.5003 74.5901 55.5017 74.5901 55.5017Z" fill="#9C5118"/>
<path d="M58.8543 56.1824L59.0075 60.9979C59.0188 61.3517 58.9012 61.6975 58.6764 61.9709C58.4517 62.2443 58.1352 62.4266 57.7859 62.4838L48.6721 63.9783V59.3975C48.7078 59.3789 48.7422 59.3617 48.7766 59.3446C49.7138 58.8143 50.6944 58.3646 51.7078 58.0004C52.327 57.7512 52.9601 57.5382 53.604 57.3624C54.5556 57.063 55.5226 56.8153 56.5009 56.6204C57.1914 56.4644 57.8981 56.3274 58.6057 56.2244C58.6883 56.2101 58.7713 56.1967 58.8543 56.1824Z" fill="white"/>
<path d="M74.5903 55.5019V59.7272L67.9787 60.8094C67.8382 60.8325 67.6945 60.8257 67.5569 60.7896C67.4193 60.7535 67.2908 60.6888 67.1797 60.5998C67.0687 60.5108 66.9777 60.3994 66.9125 60.2729C66.8473 60.1464 66.8095 60.0076 66.8015 59.8656L66.5519 55.4279C66.8277 55.4222 67.0968 55.4107 67.3655 55.3979C68.5379 55.3635 69.6082 55.3463 70.5559 55.3635C70.8317 55.3635 71.0907 55.3635 71.3322 55.3807C72.4879 55.3978 73.4017 55.4322 73.9533 55.4494C74.2649 55.4751 74.4695 55.4909 74.5511 55.4971C74.5774 55.5004 74.5903 55.5019 74.5903 55.5019Z" fill="white"/>
<path d="M105.683 108.241C107.867 108.241 109.638 107.56 109.638 106.72C109.638 105.88 107.867 105.199 105.683 105.199C103.499 105.199 101.728 105.88 101.728 106.72C101.728 107.56 103.499 108.241 105.683 108.241Z" fill="#9C5118"/>
<path d="M111.518 113.549C112.705 113.022 113.261 111.679 112.759 110.551C112.258 109.422 110.889 108.934 109.703 109.462C108.516 109.989 107.96 111.331 108.462 112.46C108.963 113.588 110.331 114.076 111.518 113.549Z" fill="#9C5118"/>
<path d="M105.843 115.471C106.606 115.132 106.963 114.27 106.641 113.545C106.319 112.819 105.439 112.506 104.677 112.845C103.914 113.183 103.557 114.046 103.879 114.771C104.202 115.496 105.081 115.81 105.843 115.471Z" fill="#9C5118"/>
<path d="M110.777 118.213C111.195 118.027 111.391 117.554 111.214 117.156C111.037 116.758 110.555 116.586 110.137 116.772C109.718 116.958 109.522 117.431 109.699 117.829C109.876 118.227 110.358 118.399 110.777 118.213Z" fill="#9C5118"/>
<path d="M98.5756 118.242C99.3959 116.218 99.4297 114.321 98.6511 114.005C97.8725 113.69 96.5762 115.075 95.7559 117.099C94.9355 119.124 94.9017 121.02 95.6803 121.336C96.459 121.651 97.7552 120.266 98.5756 118.242Z" fill="#9C5118"/>
<path d="M99.3086 110.355C99.6525 109.506 98.7843 108.354 97.3694 107.78C95.9545 107.207 94.5288 107.43 94.1849 108.278C93.8411 109.127 94.7093 110.279 96.1242 110.853C97.539 111.426 98.9648 111.203 99.3086 110.355Z" fill="#9C5118"/>
<path d="M105.302 122.472C105.72 122.286 105.916 121.813 105.739 121.415C105.563 121.017 105.08 120.845 104.662 121.031C104.244 121.217 104.048 121.69 104.224 122.088C104.401 122.485 104.884 122.657 105.302 122.472Z" fill="#9C5118"/>
<path d="M27.7549 111.892C29.9391 111.892 31.7097 111.211 31.7097 110.37C31.7097 109.53 29.9391 108.849 27.7549 108.849C25.5708 108.849 23.8002 109.53 23.8002 110.37C23.8002 111.211 25.5708 111.892 27.7549 111.892Z" fill="#9C5118"/>
<path d="M24.9757 116.109C25.477 114.98 24.9214 113.638 23.7347 113.11C22.5479 112.583 21.1794 113.071 20.678 114.2C20.1766 115.328 20.7323 116.671 21.919 117.198C23.1058 117.725 24.4743 117.237 24.9757 116.109Z" fill="#9C5118"/>
<path d="M29.5584 118.421C29.8806 117.695 29.5236 116.833 28.7611 116.494C27.9986 116.156 27.1193 116.469 26.7972 117.194C26.4751 117.919 26.8321 118.782 27.5946 119.12C28.3571 119.459 29.2363 119.146 29.5584 118.421Z" fill="#9C5118"/>
<path d="M23.7381 121.479C23.9148 121.081 23.719 120.608 23.3006 120.422C22.8823 120.236 22.3999 120.408 22.2231 120.806C22.0464 121.204 22.2423 121.677 22.6606 121.863C23.0789 122.048 23.5614 121.876 23.7381 121.479Z" fill="#9C5118"/>
<path d="M37.7581 124.986C38.5367 124.671 38.5029 122.774 37.6826 120.75C36.8622 118.726 35.566 117.341 34.7873 117.656C34.0087 117.972 34.0425 119.868 34.8629 121.893C35.6832 123.917 36.9795 125.302 37.7581 124.986Z" fill="#9C5118"/>
<path d="M37.3134 114.504C38.7282 113.93 39.5965 112.777 39.2526 111.929C38.9087 111.08 37.483 110.857 36.0681 111.431C34.6533 112.004 33.785 113.157 34.1289 114.005C34.4728 114.854 35.8985 115.077 37.3134 114.504Z" fill="#9C5118"/>
<path d="M29.2144 125.737C29.3911 125.339 29.1953 124.866 28.7769 124.68C28.3586 124.495 27.8762 124.667 27.6995 125.064C27.5227 125.462 27.7186 125.935 28.1369 126.121C28.5553 126.307 29.0377 126.135 29.2144 125.737Z" fill="#9C5118"/>
<path opacity="0.4" d="M93.2115 117.367C93.2115 117.367 105.379 111.891 105.379 99.7229C105.379 92.0023 109.054 96.8995 111.739 101.956C112.993 104.261 113.78 106.791 114.053 109.401C114.327 112.011 114.083 114.649 113.335 117.164C111.4 123.412 105.38 125.276 93.2115 117.367Z" fill="white"/>
<path d="M74.59 67.7216V73.6427L73.9521 73.8336L71.7614 74.4883L70.5031 74.87L68.1927 75.559L66.1747 76.1627L63.1562 77.0764L61.0013 77.7158L59.3455 78.2149L57.2078 78.8715L54.5524 79.6636L52.1188 80.3885L49.3603 81.2163L48.6699 81.4225V74.9067L74.59 67.7216Z" fill="white"/>
<path d="M67.3939 57.3294C67.3939 57.3294 69.4663 59.6346 70.9407 59.2414C72.4151 58.8482 66.5359 62.3339 67.3939 57.3294Z" fill="#D2EAF4"/>
<defs>
<filter id="filter0_d_4333_7816" x="0.624512" y="0.664307" width="130.075" height="147.065" filterUnits="userSpaceOnUse" color-interpolation-filters="sRGB">
<feFlood flood-opacity="0" result="BackgroundImageFix"/>
<feColorMatrix in="SourceAlpha" type="matrix" values="0 0 0 0 0 0 0 0 0 0 0 0 0 0 0 0 0 0 127 0" result="hardAlpha"/>
<feOffset dy="3"/>
<feGaussianBlur stdDeviation="3"/>
<feColorMatrix type="matrix" values="0 0 0 0 0 0 0 0 0 0 0 0 0 0 0 0 0 0 0.161 0"/>
<feBlend mode="normal" in2="BackgroundImageFix" result="effect1_dropShadow_4333_7816"/>
<feBlend mode="normal" in="SourceGraphic" in2="effect1_dropShadow_4333_7816" result="shape"/>
</filter>
<filter id="filter1_d_4333_7816" x="7.401" y="3.57159" width="118.525" height="135.521" filterUnits="userSpaceOnUse" color-interpolation-filters="sRGB">
<feFlood flood-opacity="0" result="BackgroundImageFix"/>
<feColorMatrix in="SourceAlpha" type="matrix" values="0 0 0 0 0 0 0 0 0 0 0 0 0 0 0 0 0 0 127 0" result="hardAlpha"/>
<feOffset dx="1" dy="1"/>
<feGaussianBlur stdDeviation="2.5"/>
<feComposite in2="hardAlpha" operator="out"/>
<feColorMatrix type="matrix" values="0 0 0 0 0 0 0 0 0 0 0 0 0 0 0 0 0 0 0.16 0"/>
<feBlend mode="normal" in2="BackgroundImageFix" result="effect1_dropShadow_4333_7816"/>
<feBlend mode="normal" in="SourceGraphic" in2="effect1_dropShadow_4333_7816" result="shape"/>
</filter>
</defs>
</svg>
