<svg width="831" height="922" viewBox="0 0 831 922" fill="none" xmlns="http://www.w3.org/2000/svg">
<path d="M301.04 22.1105C319.284 3.56158 345.929 -4.04339 371.216 2.08113L567.276 49.5676L762.557 100.165C787.743 106.691 807.652 125.964 814.991 150.925L871.897 344.461L925.718 538.878C932.66 563.952 925.923 590.83 907.976 609.667L768.821 755.717L627.362 899.536C609.118 918.085 582.473 925.69 557.186 919.565L361.126 872.079L165.845 821.482C140.659 814.956 120.75 795.683 113.411 770.722L56.5055 577.185L2.68388 382.769C-4.25772 357.694 2.47885 330.816 20.4262 311.98L159.581 165.93L301.04 22.1105Z" fill="#EE4565" fill-opacity="0.6"/>
</svg>
