<svg width="75" height="92" viewBox="0 0 75 92" fill="none" xmlns="http://www.w3.org/2000/svg">
<path d="M25.4447 91.3605L17.5727 75.2344L0 78.8667L19.7676 38.606L45.2142 51.0998L25.4447 91.3605Z" fill="#717171"/>
<path d="M4.84632 77.866L2.79166 78.2906L21.788 39.5977L23.2759 40.328L4.84632 77.866Z" fill="white"/>
<path d="M23.274 86.9154L24.1932 88.8007L43.1915 50.1097L41.7055 49.3794L23.274 86.9154Z" fill="white"/>
<path d="M49.0407 91.3605L56.9127 75.2344L74.4874 78.8667L54.7178 38.606L29.2731 51.0998L49.0407 91.3605Z" fill="#717171"/>
<path d="M69.6426 77.866L71.6972 78.2906L52.6989 39.5977L51.211 40.328L69.6426 77.866Z" fill="white"/>
<path d="M51.2101 86.9154L50.2909 88.8007L31.2926 50.1097L32.7805 49.3794L51.2101 86.9154Z" fill="white"/>
<path d="M37.1828 5.55273C19.9723 5.55273 5.96947 19.5559 5.96947 36.7669C5.96947 53.9778 19.9723 67.981 37.1828 67.981C54.3932 67.981 68.3961 53.9778 68.3961 36.7669C68.3961 19.5559 54.3932 5.55273 37.1828 5.55273ZM37.1828 67.0267C20.4709 67.0267 6.92376 53.4792 6.92376 36.7669C6.92376 20.0545 20.4709 6.50705 37.1828 6.50705C53.8947 6.50705 67.4418 20.0545 67.4418 36.7669C67.4418 53.4792 53.8947 67.0267 37.1828 67.0267Z" fill="#D7441C"/>
<path d="M37.1828 5.55273C19.9723 5.55273 5.96947 19.5559 5.96947 36.7669C5.96947 53.9778 19.9723 67.981 37.1828 67.981C54.3932 67.981 68.3961 53.9778 68.3961 36.7669C68.3961 19.5559 54.3932 5.55273 37.1828 5.55273Z" fill="#64A4D5"/>
<path d="M69.9312 22.932C68.1414 18.6999 65.5784 14.8982 62.3143 11.634C59.0502 8.36986 55.2486 5.80682 51.0166 4.01698C46.6366 2.16482 41.9819 1.22412 37.1832 1.22412C32.3844 1.22412 27.7317 2.16287 23.3498 4.01698C19.1178 5.80682 15.3161 8.36986 12.0521 11.634C8.78797 14.8982 6.225 18.6999 4.43521 22.932C2.58309 27.3122 1.64243 31.9669 1.64243 36.7658C1.64243 41.5647 2.58114 46.2175 4.43521 50.5996C6.225 54.8317 8.78797 58.6334 12.0521 61.8976C15.3161 65.1618 19.1178 67.7248 23.3498 69.5146C27.7298 71.3668 32.3844 72.3075 37.1832 72.3075C41.9819 72.3075 46.6346 71.3688 51.0166 69.5146C55.2486 67.7248 59.0502 65.1618 62.3143 61.8976C65.5784 58.6334 68.1414 54.8317 69.9312 50.5996C71.7833 46.2194 72.724 41.5647 72.724 36.7658C72.724 31.9669 71.7852 27.3141 69.9312 22.932ZM37.1832 67.9819C19.9727 67.9819 5.96987 53.9787 5.96987 36.7678C5.96987 19.5568 19.9727 5.55362 37.1832 5.55362C54.3936 5.55362 68.3965 19.5568 68.3965 36.7678C68.3965 53.9787 54.3936 67.9819 37.1832 67.9819Z" fill="#C2DBEE"/>
<path d="M37.1819 0.360352C17.0774 0.360352 0.778397 16.6598 0.778397 36.7648C0.778397 56.8699 17.0774 73.1693 37.1819 73.1693C57.2864 73.1693 73.5855 56.8699 73.5855 36.7648C73.5855 16.6598 57.2864 0.360352 37.1819 0.360352ZM62.3131 61.8966C59.049 65.1608 55.2474 67.7238 51.0153 69.5137C46.6353 71.3658 41.9807 72.3065 37.1819 72.3065C32.3832 72.3065 27.7305 71.3678 23.3485 69.5137C19.1165 67.7238 15.3149 65.1608 12.0508 61.8966C8.78671 58.6324 6.22373 54.8307 4.43394 50.5986C2.58182 46.2185 1.64116 41.5637 1.64116 36.7648C1.64116 31.9659 2.57988 27.3131 4.43394 22.9311C6.22373 18.6989 8.78671 14.8972 12.0508 11.633C15.3149 8.36887 19.1165 5.80584 23.3485 4.01599C27.7285 2.16383 32.3832 1.22314 37.1819 1.22314C41.9807 1.22314 46.6334 2.16188 51.0153 4.01599C55.2474 5.80584 59.049 8.36887 62.3131 11.633C65.5771 14.8972 68.1401 18.6989 69.9299 22.9311C71.782 27.3112 72.7227 31.9659 72.7227 36.7648C72.7227 41.5637 71.784 46.2165 69.9299 50.5986C68.1401 54.8307 65.5771 58.6324 62.3131 61.8966Z" fill="#64A4D5"/>
<path d="M37.1814 66.942C53.893 66.942 67.4404 53.3942 67.4404 36.6822C67.4404 19.9701 53.893 6.42236 37.1814 6.42236C20.4698 6.42236 6.92236 19.9701 6.92236 36.6822C6.92236 53.3942 20.4698 66.942 37.1814 66.942Z" fill="#C2DBEE"/>
<g style="mix-blend-mode:multiply" opacity="0.25">
<path d="M37.1811 0.360352C37.1265 0.360352 37.072 0.360353 37.0175 0.362301L0.993722 33.5844C0.923611 34.4043 0.882712 35.2301 0.86908 36.0656L39.5025 0.43826C38.7352 0.38957 37.9601 0.362301 37.1811 0.362301V0.360352Z" fill="#4E95CB"/>
<path d="M2.61568 25.5027L28.8335 1.3252C16.4374 4.24075 6.49129 13.5074 2.61568 25.5027Z" fill="#4E95CB"/>
<path d="M44.9549 1.19873L1.18773 41.5607C1.71357 45.4812 2.86457 49.2031 4.53946 52.6231L55.7054 5.43865C52.4199 3.48716 48.8013 2.03814 44.9549 1.19873Z" fill="#4E95CB"/>
<path d="M60.4334 8.78174L7.49126 57.6041C12.2997 64.4148 19.3927 69.4961 27.6542 71.7378L72.8899 30.0222C71.3182 21.5404 66.7979 14.0928 60.4334 8.78174Z" fill="#4E95CB"/>
<path d="M73.4983 36.7153L34.2767 72.8861C35.2349 72.9621 36.2028 73.001 37.1805 73.001C37.4239 73.001 37.6654 72.9971 37.9089 72.9913L73.3172 40.3379C73.436 39.1459 73.4983 37.9384 73.4983 36.7153Z" fill="#4E95CB"/>
<path d="M71.9896 47.0732L44.7259 72.2167C57.7667 69.4609 68.223 59.7112 71.9896 47.0732Z" fill="#4E95CB"/>
</g>
</svg>
