<svg width="21" height="23" viewBox="0 0 21 23" fill="none" xmlns="http://www.w3.org/2000/svg">
<path d="M0.385254 10.3691C0.385254 16.0135 4.92988 20.5845 10.5305 20.5845C16.1311 20.5845 20.6757 16.014 20.6757 10.3691V12.6668C20.6757 18.3112 16.1311 22.8822 10.5305 22.8822C4.92988 22.8822 0.385254 18.3117 0.385254 12.6668V10.3691Z" fill="#FFB961"/>
<path d="M0.385254 10.3691C0.385254 16.0135 4.92988 20.5845 10.5305 20.5845C16.1311 20.5845 20.6757 16.014 20.6757 10.3691V12.6668C20.6757 18.3112 16.1311 22.8822 10.5305 22.8822C4.92988 22.8822 0.385254 18.3117 0.385254 12.6668V10.3691Z" fill="#F3A250"/>
<g opacity="0.6">
<path d="M10.5306 20.5845C8.45661 20.5845 6.52961 19.9551 4.92224 18.8791V21.1768C6.52961 22.2527 8.45661 22.8822 10.5306 22.8822C16.1312 22.8822 20.6758 18.3117 20.6758 12.6668V10.3691C20.6758 16.014 16.1312 20.5845 10.5306 20.5845Z" fill="#EF7B56"/>
</g>
<path d="M12.311 20.4181V22.7157C17.0622 21.8671 20.6757 17.6987 20.6757 12.6678V10.3701C20.6757 15.4016 17.0617 19.57 12.311 20.4186V20.4181Z" fill="#F3A250"/>
<g opacity="0.6">
<path d="M17.9883 17.2745V19.5721C19.6527 17.7556 20.6763 15.336 20.6763 12.6668V10.3691C20.6763 13.0384 19.6527 15.458 17.9883 17.2745Z" fill="#EF7B56"/>
</g>
<path d="M20.6768 10.3699C20.6768 16.0132 16.1311 20.5847 10.5336 20.5847C5.48694 20.5847 1.301 16.8793 0.517355 12.0236C-0.515514 5.95079 4.17864 0.168945 10.5336 0.168945C14.8604 0.168945 18.5592 2.89501 20.0134 6.74251C20.444 7.86394 20.6768 9.09235 20.6768 10.3699Z" fill="#F9CF6B"/>
<g opacity="0.4">
<path d="M2.85803 15.5488C4.87958 18.0759 7.68425 19.3669 10.5321 19.3529C13.3645 19.3648 16.1728 18.0873 18.2062 15.5488C16.8182 18.0852 13.94 19.9782 10.5321 19.9917C7.12774 19.9762 4.24958 18.0883 2.85803 15.5488Z" fill="white"/>
</g>
<g opacity="0.2">
<path d="M19.124 6.61861C17.3594 3.22434 14.0285 1.24968 10.5306 1.26519C7.01373 1.25123 3.6957 3.24036 1.93726 6.61861C3.06827 3.30857 6.43563 0.636772 10.5306 0.626953C14.6092 0.638839 17.9611 3.27653 19.124 6.61913V6.61861Z" fill="white"/>
</g>
<g opacity="0.4">
<path d="M2.85803 15.5488C4.87958 18.0759 7.68425 19.3669 10.5321 19.3529C13.3645 19.3648 16.1728 18.0873 18.2062 15.5488C16.8182 18.0852 13.94 19.9782 10.5321 19.9917C7.12774 19.9762 4.24958 18.0883 2.85803 15.5488Z" fill="white"/>
</g>
<path d="M18.2262 10.3703C18.2262 14.6519 14.7792 18.1185 10.5306 18.1185C6.28197 18.1185 2.83496 14.6519 2.83496 10.3703C2.83496 6.0887 6.28248 2.63086 10.5306 2.63086C14.7787 2.63086 18.2262 6.098 18.2262 10.3703Z" fill="#F3A250"/>
<path d="M13.0372 11.54L13.4951 14.2598C13.565 14.6748 13.1318 14.9906 12.7613 14.7947L10.3425 13.5156C10.1951 13.4376 10.0193 13.4376 9.87184 13.5156L7.45307 14.7947C7.08258 14.9906 6.64939 14.6748 6.71927 14.2598L7.17713 11.54C7.20488 11.3751 7.14989 11.2066 7.03068 11.0903L5.07131 9.17822C4.7707 8.88469 4.93513 8.37152 5.34982 8.31053L8.05995 7.90951C8.22387 7.88522 8.3657 7.78134 8.43918 7.63199L9.65396 5.1638C9.83946 4.78655 10.3744 4.78655 10.5604 5.1638L11.7752 7.63199C11.8487 7.78134 11.9905 7.88522 12.1544 7.90951L14.8646 8.31053C15.2792 8.37203 15.4437 8.88469 15.1431 9.17822L13.1837 11.0903C13.0645 11.2071 13.0095 11.3751 13.0372 11.54Z" fill="#EF7B56"/>
<path d="M17.4647 13.7313C19.5217 8.80478 15.9134 3.26324 10.5322 3.26324C5.15097 3.26324 1.5904 8.65956 3.54566 13.6151C1.20962 8.5655 4.8704 2.63379 10.5322 2.63379C16.1939 2.63379 19.9056 8.68488 17.4647 13.7313Z" fill="#EF7B56"/>
<path d="M13.4606 11.9638L13.9184 14.6836C13.9883 15.0986 13.5551 15.4144 13.1846 15.2185L10.7659 13.9395C10.6184 13.8614 10.4427 13.8614 10.2952 13.9395L7.87641 15.2185C7.50592 15.4144 7.07273 15.0986 7.14261 14.6836L7.60047 11.9638C7.62822 11.7989 7.57323 11.6305 7.45402 11.5142L5.49465 9.60205C5.19404 9.30851 5.35847 8.79534 5.77316 8.73436L8.48329 8.33333C8.64721 8.30904 8.78904 8.20517 8.86252 8.05582L10.0773 5.58763C10.2628 5.21037 10.7977 5.21037 10.9838 5.58763L12.1985 8.05582C12.272 8.20517 12.4138 8.30904 12.5778 8.33333L15.2879 8.73436C15.7026 8.79586 15.867 9.30851 15.5664 9.60205L13.607 11.5142C13.4878 11.631 13.4328 11.7989 13.4606 11.9638Z" fill="#F9CF6B"/>
<g opacity="0.5">
<path d="M6.0296 9.67624C5.76085 9.41371 5.90782 8.9548 6.27883 8.90002L8.70221 8.54137C8.84918 8.51967 8.97559 8.42716 9.04137 8.29331L10.1277 6.08611C10.2937 5.74864 10.7721 5.74864 10.938 6.08611L12.0244 8.29331C12.0901 8.42716 12.2171 8.51967 12.3635 8.54137L14.7869 8.90002C15.1579 8.9548 15.3049 9.41371 15.0361 9.67624C15.0361 9.67624 13.5063 11.3512 10.4519 11.3506C8.0383 11.3506 6.0296 9.67624 6.0296 9.67624Z" fill="white"/>
</g>
<g opacity="0.7">
<path d="M10.5993 7.6107C10.3923 8.12801 10.0629 8.48149 9.86195 8.40035C9.66102 8.31922 9.66668 7.83447 9.87325 7.31716C10.0788 6.80347 10.4082 6.44999 10.6091 6.53112C10.81 6.61226 10.8044 7.09701 10.5993 7.6107Z" fill="white"/>
</g>
<path d="M6.67598 5.37526C6.4987 5.38198 6.33734 5.44348 6.20528 5.54374C6.24125 5.61609 6.81267 6.20368 6.7433 6.27965C6.6729 6.34476 6.08555 5.77061 6.01515 5.73495C5.91546 5.86776 5.8538 6.03004 5.84763 6.20833C5.81526 6.95716 5.74434 7.4755 5.66058 7.4755C5.57682 7.4755 5.50899 6.95716 5.47713 6.20833C5.46737 6.03004 5.40622 5.86776 5.30961 5.73495C5.23767 5.77113 4.65289 6.3458 4.57787 6.27603C4.51312 6.20523 5.08403 5.61454 5.11948 5.54374C4.98742 5.44348 4.82298 5.38147 4.64878 5.37526C2.98951 5.30291 2.94789 5.07656 4.64878 5.00266C4.82298 4.99284 4.98742 4.93134 5.11948 4.83419C5.08403 4.76287 4.51312 4.17269 4.57787 4.10189C4.65238 4.03264 5.23819 4.60732 5.30961 4.64297C5.40622 4.51016 5.46737 4.34479 5.47713 4.16959C5.5501 2.46729 5.77569 2.49261 5.84763 4.16959C5.85431 4.34479 5.91546 4.51016 6.01515 4.64297C6.08606 4.60732 6.67238 4.03316 6.7433 4.09828C6.78184 4.14065 6.57269 4.4192 6.23406 4.79491C6.22121 4.80783 6.21145 4.82075 6.20528 4.83367C6.33734 4.93083 6.4987 4.99232 6.67598 5.00214C7.42365 5.0347 7.93598 5.10602 7.93598 5.18664C7.93598 5.26726 7.42365 5.34219 6.67598 5.37475V5.37526Z" fill="white"/>
<g opacity="0.2">
<path d="M19.1239 6.61861C17.3593 3.22434 14.0284 1.24968 10.5305 1.26519C7.01361 1.25123 3.69558 3.24036 1.93713 6.61861C3.06815 3.30857 6.43551 0.636772 10.5305 0.626953C14.609 0.638839 17.961 3.27653 19.1239 6.61913V6.61861Z" fill="white"/>
</g>
</svg>
