<svg width="221" height="94" viewBox="0 0 221 94" fill="none" xmlns="http://www.w3.org/2000/svg">
<path d="M183.155 92.4454L217.311 6.85319C218.622 3.56942 216.203 0 212.667 0H92.6714C89.91 0 87.6714 2.23858 87.6714 5V46.9288V88.8576C87.6714 91.619 89.91 93.8576 92.6714 93.8576H180.809C181.792 93.8576 182.695 93.3142 183.155 92.4454Z" fill="url(#paint0_linear_107_264)"/>
<path d="M36.8915 92.4454L2.73502 6.85319C1.42459 3.56942 3.84329 0 7.37889 0H127.375C130.136 0 132.375 2.23858 132.375 5V46.9288V88.8576C132.375 91.619 130.136 93.8576 127.375 93.8576H39.2379C38.2546 93.8576 37.3518 93.3142 36.8915 92.4454Z" fill="url(#paint1_linear_107_264)"/>
<defs>
<linearGradient id="paint0_linear_107_264" x1="153.859" y1="0" x2="153.859" y2="93.8576" gradientUnits="userSpaceOnUse">
<stop stop-color="#FDC340"/>
<stop offset="1" stop-color="#C49A3B"/>
</linearGradient>
<linearGradient id="paint1_linear_107_264" x1="66.1876" y1="0" x2="66.1876" y2="93.8576" gradientUnits="userSpaceOnUse">
<stop stop-color="#FDC340"/>
<stop offset="1" stop-color="#C49A3B"/>
</linearGradient>
</defs>
</svg>
