<svg width="142" height="186" viewBox="0 0 142 186" fill="none" xmlns="http://www.w3.org/2000/svg">
<g filter="url(#filter0_d_4333_7790)">
<path d="M60.6328 168.891C56.0148 168.242 52.7863 163.953 53.436 159.33L64.3105 81.9542C64.611 79.816 63.0029 78.2404 61.3407 78.0068C60.8114 77.9324 60.275 77.9847 59.7463 78.1623L52.8539 80.4775C51.5942 80.9005 50.2926 81.0219 48.9856 80.8382C48.9854 80.8382 48.9855 80.8382 48.9853 80.8382C47.3328 80.6059 45.7972 79.8976 44.5443 78.7898C43.2515 77.6467 42.3497 76.1533 41.9363 74.471L36.4178 52.0073C35.3475 47.6483 37.8707 43.205 42.162 41.8915L110.738 20.9038C111.94 20.5358 113.171 20.4364 114.395 20.6085C115.486 20.7618 116.525 21.1241 117.483 21.6853C118.42 22.2343 119.233 22.9466 119.901 23.8023C121.319 25.6183 121.922 27.8825 121.6 30.1778L102.88 163.375C102.585 165.476 101.52 167.377 99.8836 168.727C98.2466 170.078 96.178 170.761 94.0588 170.651L61.3833 168.963C61.1328 168.95 60.8803 168.926 60.6328 168.891Z" fill="white"/>
<path d="M114.049 23.0736C113.22 22.9571 112.345 23.0151 111.466 23.2841L42.8904 44.2719C39.8584 45.1999 38.079 48.3343 38.835 51.4135L44.3535 73.8771C45.188 77.273 48.7465 79.2311 52.0611 78.1179L58.9537 75.8026C63.1654 74.3881 67.3938 77.9004 66.7754 82.3007L55.9009 159.677C55.4127 163.151 58.0077 166.296 61.5116 166.477L94.1874 168.165C97.2808 168.326 99.9837 166.096 100.415 163.028L119.134 29.8314C119.615 26.4114 117.161 23.5112 114.049 23.0736ZM114.741 18.1435L114.741 18.1435C120.723 18.9845 124.906 24.5385 124.064 30.5243L105.345 163.721C104.549 169.385 99.6415 173.433 93.9299 173.137L61.2548 171.449C54.7789 171.115 50.0854 165.285 50.9709 158.984L61.8453 81.6079C61.9112 81.1394 61.4629 80.5377 60.9945 80.4719L53.6464 82.8372C52.0398 83.3768 50.3083 83.5379 48.6389 83.3033C44.1743 82.6759 40.5945 79.4422 39.5188 75.0651L34.0003 52.6012C32.6153 46.9605 35.8804 41.2111 41.4333 39.5114L110.009 18.5236C111.562 18.0483 113.154 17.9204 114.741 18.1435Z" fill="white"/>
</g>
<g filter="url(#filter1_d_4333_7790)">
<path d="M38.2917 51.6978L43.8284 74.1531C44.0262 74.9557 44.3885 75.7086 44.8922 76.3641C45.3958 77.0196 46.0301 77.5635 46.7547 77.9614C47.4793 78.3593 48.2786 78.6025 49.102 78.6758C49.9255 78.749 50.7551 78.6506 51.5386 78.3868L58.43 76.0648C59.3954 75.7396 60.4279 75.6667 61.4294 75.8528C62.431 76.0389 63.3683 76.478 64.1525 77.1283C64.9366 77.7786 65.5415 78.6186 65.9097 79.5684C66.2779 80.5182 66.3972 81.5464 66.2562 82.5553L55.4497 159.929C55.335 160.75 55.3924 161.585 55.6182 162.383C55.844 163.181 56.2332 163.923 56.7612 164.562C57.2892 165.201 57.9444 165.723 58.6851 166.095C59.4258 166.467 60.2358 166.681 61.0637 166.723L93.736 168.383C95.2283 168.46 96.6951 167.974 97.847 167.022C98.9988 166.07 99.7521 164.721 99.9582 163.241L118.561 30.0484C118.7 29.0531 118.586 28.0387 118.229 27.0992C117.872 26.1597 117.284 25.3254 116.519 24.6734C115.754 24.0214 114.837 23.5729 113.853 23.3693C112.869 23.1657 111.849 23.2135 110.888 23.5085L42.3405 44.5523C40.8804 45.0005 39.6473 45.9907 38.8944 47.3195C38.1414 48.6483 37.9258 50.215 38.2917 51.6978Z" fill="#04B9C8"/>
</g>
<path d="M81.1378 48.7484C82.4671 48.328 83.8246 48.0025 85.2001 47.7744C83.818 47.9684 82.4576 48.2945 81.1378 48.7484V48.7484Z" fill="white"/>
<path d="M109.991 72.5592C109.423 76.6075 107.735 80.4168 105.118 83.5573C102.501 86.6978 99.059 89.0446 95.1795 90.3331C91.2999 91.6217 87.1375 91.8006 83.1616 90.8498C79.1858 89.899 75.5547 87.8562 72.6778 84.9519L72.6714 84.951C70.5247 82.7891 68.8528 80.2029 67.7626 77.358C66.6725 74.513 66.188 71.4719 66.3402 68.429C66.3402 68.429 78.8003 43.6921 104.324 54.5564C106.384 56.7662 107.965 59.3785 108.966 62.2289C109.967 65.0793 110.367 68.1062 110.141 71.1188C110.113 71.5975 110.058 72.0795 109.991 72.5592Z" fill="white"/>
<path d="M104.325 54.5592C101.919 51.9714 98.9238 50.003 95.594 48.8218C92.2641 47.6405 88.6981 47.2812 85.1995 47.7745C83.8241 48.0027 82.4666 48.3281 81.1372 48.7485C77.3047 50.0625 73.9108 52.4121 71.3318 55.5367C68.7527 58.6614 67.0892 62.4391 66.5256 66.4513C66.4326 67.1134 66.3751 67.7724 66.3423 68.4279C66.3423 68.4279 78.8027 43.6921 104.325 54.5592Z" fill="#D2EAF4"/>
<path d="M109.991 72.5598C109.181 78.3235 106.114 83.5292 101.466 87.032C96.8175 90.5349 90.9681 92.0478 85.2044 91.2382C80.4513 90.5777 76.0486 88.3685 72.6781 84.9526C73.1501 85.0787 96.1803 90.9483 110.141 71.1189C110.113 71.5981 110.058 72.0796 109.991 72.5598Z" fill="#D2EAF4"/>
<path d="M88.2944 85.7186C94.7436 86.625 100.707 82.1316 101.613 75.6824C102.519 69.2332 98.0259 63.2704 91.5767 62.364C85.1275 61.4576 79.1647 65.9509 78.2583 72.4001C77.3519 78.8493 81.8452 84.8122 88.2944 85.7186Z" fill="black"/>
<path d="M91.6996 75.6119C94.2076 75.9644 96.5264 74.217 96.8789 71.7091C97.2313 69.2011 95.484 66.8823 92.976 66.5298C90.468 66.1773 88.1492 67.9247 87.7967 70.4327C87.4443 72.9406 89.1916 75.2595 91.6996 75.6119Z" fill="white"/>
<path opacity="0.4" d="M90.5044 79.413C90.5044 79.413 93.6563 80.5201 97.4477 77.0813C97.4477 77.0813 97.0019 84.957 90.5044 79.413Z" fill="white"/>
<path d="M76.4884 109.754L74.6639 121.513C74.6639 121.513 84.5877 126.215 89.5846 123.61C89.5846 123.61 90.7816 119.815 89.3763 113.33C89.3766 113.328 82.9878 116.515 76.4884 109.754Z" fill="#F2FDF2"/>
<path d="M69.9897 102.992C69.9897 102.992 80.7478 120.092 96.699 110.643" stroke="#0C8484" stroke-width="2" stroke-miterlimit="10" stroke-linecap="round"/>
<path d="M83.2799 121.401C83.2799 121.401 88.7436 120.182 88.3683 118.144C88.3683 118.144 88.5613 121.479 87.821 122.039C87.0806 122.599 85.1354 122.321 83.2799 121.401Z" fill="#D2EAF4"/>
<path d="M68.8735 146.132C72.3151 146.327 75.3159 142.765 75.5761 138.176C75.8363 133.588 73.2572 129.71 69.8156 129.514C66.3741 129.319 63.3732 132.881 63.113 137.47C62.8529 142.059 65.4319 145.937 68.8735 146.132Z" fill="#0C8484"/>
<path d="M84.6141 149.518C88.1641 149.719 91.1644 147.724 91.3153 145.062C91.4663 142.399 88.7108 140.078 85.1608 139.876C81.6108 139.675 78.6105 141.67 78.4596 144.333C78.3086 146.995 81.0641 149.317 84.6141 149.518Z" fill="#0C8484"/>
<path d="M77.0891 159.254C78.9291 159.359 80.4842 158.325 80.5625 156.945C80.6407 155.565 79.2125 154.361 77.3724 154.257C75.5323 154.153 73.9772 155.187 73.899 156.567C73.8207 157.947 75.249 159.15 77.0891 159.254Z" fill="#0C8484"/>
<path d="M70.6824 153.062C72.5225 153.166 74.0776 152.132 74.1558 150.752C74.2341 149.372 72.8058 148.169 70.9658 148.064C69.1257 147.96 67.5706 148.994 67.4924 150.374C67.4141 151.754 68.8424 152.957 70.6824 153.062Z" fill="#0C8484"/>
<path d="M87.0416 157.193C88.3867 157.269 89.5377 156.263 89.6124 154.945C89.6871 153.627 88.6573 152.497 87.3121 152.421C85.967 152.345 84.816 153.351 84.7413 154.669C84.6666 155.986 85.6965 157.116 87.0416 157.193Z" fill="#0C8484"/>
<path d="M85.7647 166.275C87.1099 166.352 88.2609 165.345 88.3356 164.028C88.4103 162.71 87.3804 161.58 86.0353 161.504C84.6902 161.427 83.5392 162.434 83.4645 163.751C83.3898 165.069 84.4196 166.199 85.7647 166.275Z" fill="#0C8484"/>
<path opacity="0.4" d="M93.1339 136.014C93.1339 136.014 75.0009 147.358 78.3566 156.43C81.7124 165.502 93.3789 162.513 95.5794 151.573C97.78 140.633 93.1339 136.014 93.1339 136.014Z" fill="white"/>
<defs>
<filter id="filter0_d_4333_7790" x="27.6826" y="15.037" width="102.49" height="167.115" filterUnits="userSpaceOnUse" color-interpolation-filters="sRGB">
<feFlood flood-opacity="0" result="BackgroundImageFix"/>
<feColorMatrix in="SourceAlpha" type="matrix" values="0 0 0 0 0 0 0 0 0 0 0 0 0 0 0 0 0 0 127 0" result="hardAlpha"/>
<feOffset dy="3"/>
<feGaussianBlur stdDeviation="3"/>
<feColorMatrix type="matrix" values="0 0 0 0 0 0 0 0 0 0 0 0 0 0 0 0 0 0 0.161 0"/>
<feBlend mode="normal" in2="BackgroundImageFix" result="effect1_dropShadow_4333_7790"/>
<feBlend mode="normal" in="SourceGraphic" in2="effect1_dropShadow_4333_7790" result="shape"/>
</filter>
<filter id="filter1_d_4333_7790" x="37.1177" y="23.2454" width="84.5003" height="149.145" filterUnits="userSpaceOnUse" color-interpolation-filters="sRGB">
<feFlood flood-opacity="0" result="BackgroundImageFix"/>
<feColorMatrix in="SourceAlpha" type="matrix" values="0 0 0 0 0 0 0 0 0 0 0 0 0 0 0 0 0 0 127 0" result="hardAlpha"/>
<feOffset dx="0.99985" dy="1.9997"/>
<feGaussianBlur stdDeviation="0.99985"/>
<feColorMatrix type="matrix" values="0 0 0 0 0 0 0 0 0 0 0 0 0 0 0 0 0 0 0.161 0"/>
<feBlend mode="normal" in2="BackgroundImageFix" result="effect1_dropShadow_4333_7790"/>
<feBlend mode="normal" in="SourceGraphic" in2="effect1_dropShadow_4333_7790" result="shape"/>
</filter>
</defs>
</svg>
