<svg width="250" height="76" viewBox="0 0 250 76" fill="none" xmlns="http://www.w3.org/2000/svg">
<g opacity="0.5">
<path opacity="0.5" d="M248.223 62.9836C248.354 64.5646 234.43 65.1236 223.923 65.1086C213.416 65.0936 200.399 69.0775 200.399 69.0775C190.946 71.5539 181.172 72.5809 171.411 72.1235C155.701 71.2805 142.933 69.3766 142.933 69.3766C142.933 69.3766 132.949 74.6005 116.933 74.0585C100.917 73.5165 81.7243 71.1795 81.7243 71.1795C81.7243 71.1795 67.3423 74.3955 43.7613 74.1275C20.1803 73.8595 18.0194 72.9095 18.0194 72.9095C18.0194 72.9095 -0.240648 71.1535 0.019352 69.0455C0.279352 66.9375 7.56928 67.9326 7.56928 67.9326L28.6083 67.7386L32.2643 67.7005L47.2293 67.5526C47.2293 67.5526 53.2823 62.5296 57.9433 61.9326C62.6043 61.3356 89.7584 63.8196 89.7584 63.8196C89.7584 63.8196 83.3333 60.1555 83.3333 51.0595C83.3333 44.7535 90.9193 39.9086 97.1733 41.9236C99.4141 42.5438 101.611 43.3139 103.748 44.2285C103.338 43.8955 94.0323 36.2286 95.1893 23.9496C96.3713 11.3866 108.13 2.44154 117.782 1.64054C127.434 0.839536 140.571 9.26255 142.641 18.3615V18.9616C142.641 18.9616 154.364 13.9696 161.494 18.3126C168.624 22.6556 171.839 30.3746 171.283 36.3626L173.09 37.8756L177.025 40.3106C177.025 40.3106 178.996 47.1005 179.19 50.5255C179.19 50.5255 185.359 42.4875 190.78 40.0465C196.201 37.6055 206.943 38.3116 211.625 44.6166C214.439 48.5225 215.86 53.2599 215.66 58.0696L219.706 58.4446L231.591 59.5446C231.591 59.5446 248.091 61.3996 248.221 62.9806" fill="#F5F5FF"/>
<path opacity="0.5" d="M132.829 42.4165C119.449 42.4165 114.915 55.6675 114.915 55.6675C114.915 55.6675 112.265 63.2675 113.841 67.1355C113.841 67.1355 116.03 50.4435 131.006 47.9835C132.288 47.7683 133.585 47.6577 134.884 47.6525C146.619 47.6525 149.572 57.5605 149.572 57.5605C149.572 57.5605 148.259 43.2405 133.984 42.4485C133.592 42.4275 133.207 42.4165 132.83 42.4165" fill="#D3D3F0"/>
<path opacity="0.5" d="M177.122 40.6518C178.08 43.8833 178.772 47.1876 179.191 50.5318L179.245 50.4628C179.144 48.5495 178.93 46.6439 178.604 44.7558C178.541 43.2698 178.024 41.8389 177.122 40.6558V40.6518ZM173.064 37.8628L173.091 37.8858L176.591 40.0528C175.591 39.0714 174.385 38.3238 173.061 37.8638" fill="#E4E4F0"/>
<path opacity="0.5" d="M166.408 37.0181C159.703 38.2651 155.22 46.557 155.22 46.557C159.52 41.957 163.493 40.4831 166.62 40.4831C168.312 40.4632 169.974 40.9304 171.407 41.829C178.828 46.619 177.679 56.277 177.679 56.277C178.769 54.5381 179.313 52.5129 179.242 50.4621L179.188 50.5311C178.769 47.1869 178.077 43.8825 177.119 40.6511C176.955 40.4413 176.779 40.2409 176.591 40.0511L173.091 37.8841L173.064 37.8611C172.432 37.6263 171.784 37.4333 171.126 37.2831C171.075 37.6591 171.034 37.8701 171.034 37.8701H166.034C166.18 37.5968 166.304 37.313 166.406 37.0211" fill="#D3D3F0"/>
<path opacity="0.5" d="M88.2153 62.6479C88.3403 62.8059 88.4673 62.9659 88.5963 63.1219L89.6803 63.774C89.1599 63.4423 88.6697 63.0655 88.2153 62.6479Z" fill="#E4E4F0"/>
<path opacity="0.5" d="M95.3334 42.9078C94.8194 42.9078 94.3144 42.9278 93.8154 42.9728C92.3836 43.0702 90.9876 43.4635 89.7155 44.1278C89.4153 44.2922 89.1269 44.4773 88.8524 44.6818C88.7224 44.7898 88.5894 44.8958 88.4524 44.9998L88.0275 45.3748C87.4768 45.8775 86.9606 46.4167 86.4824 46.9888C85.5469 48.0916 84.8561 49.3803 84.4555 50.7698C84.0895 52.1825 84.062 53.6616 84.3754 55.0868C85.0727 57.8621 86.3862 60.4447 88.2184 62.6428C88.6727 63.0604 89.1631 63.4372 89.6835 63.7688L89.7604 63.8158L97.5394 64.1948C97.5394 64.1948 86.7814 60.8948 87.8324 53.1628C88.7784 46.2058 94.7564 43.3038 99.5824 43.3038C99.6654 43.3038 99.7485 43.3038 99.8295 43.3038C99.3625 43.2298 98.8955 43.1638 98.4295 43.1038C97.4009 42.9765 96.3658 42.9097 95.3295 42.9038" fill="#D3D3F0"/>
<path opacity="0.5" d="M96.7354 34.4294L96.8124 34.6594C97.8389 37.579 99.5448 40.2128 101.789 42.3434C99.6461 40.0279 97.9348 37.3473 96.7365 34.4284L96.7354 34.4294ZM101.752 9.92145L101.501 10.1094C97.0845 13.4014 95.2504 18.7644 95.1564 24.3564C95.1664 24.2224 95.1774 24.0884 95.1914 23.9564C95.753 18.6786 98.0627 13.7399 101.753 9.92545L101.752 9.92145ZM119.943 1.36945C118.186 1.37153 116.438 1.63404 114.757 2.14844C115.752 1.90249 116.764 1.73531 117.784 1.64844C118.21 1.61244 118.644 1.59543 119.084 1.59543C128.584 1.59543 140.669 9.67144 142.647 18.3684V18.9684C142.708 18.9121 142.773 18.8606 142.841 18.8144C142.321 16.7914 141.482 14.8642 140.355 13.1054C140.03 12.5844 139.692 12.0934 139.346 11.6404C139.278 11.2864 139.246 11.0874 139.246 11.0874C139.246 11.0874 135.831 5.19844 125.563 2.20944C123.742 1.66274 121.853 1.37919 119.951 1.36743" fill="#E4E4F0"/>
<path opacity="0.5" d="M119.08 1.59244C118.643 1.59244 118.209 1.60942 117.779 1.64542C116.759 1.73226 115.747 1.89945 114.752 2.14542C110.019 3.57442 105.973 6.76543 101.752 9.92343C98.0618 13.7379 95.7521 18.6766 95.1905 23.9544C95.1775 24.0904 95.1664 24.2244 95.1554 24.3544C95.1202 27.7762 95.6545 31.18 96.7365 34.4264C97.9348 37.3453 99.6461 40.0259 101.789 42.3414C103.548 44.064 105.576 45.4871 107.794 46.5544C102.981 42.7544 99.7755 37.9454 99.6855 27.1444C99.6035 17.2094 108.822 7.51041 120.312 7.51141C121.342 7.51192 122.37 7.58881 123.388 7.74142C128.999 8.58442 133.221 11.0874 135.513 14.1084C135.701 14.3614 135.885 14.6144 136.059 14.8674L136.101 14.9304L136.116 14.9514C136.477 15.4188 136.79 15.9214 137.05 16.4514L137.071 16.4874C138.227 18.7764 139.71 23.4664 137.424 30.2094L137.418 30.2244C135.706 34.3834 132.947 38.3634 129.079 39.9824C129.079 39.9824 140.331 39.1754 142.195 31.6264C142.872 29.0816 143.266 26.4698 143.371 23.8384C143.289 22.192 143.045 20.5578 142.642 18.9594V18.3594C140.663 9.65944 128.578 1.58643 119.079 1.58643" fill="#D3D3F0"/>
<path opacity="0.5" d="M136.1 14.9336L136.074 14.8966L136.058 14.8696L136.1 14.9336Z" fill="#4B4B9B"/>
<path opacity="0.5" d="M146.604 17.6483C145.293 17.8232 144.019 18.2167 142.837 18.8123L142.853 18.8782C144.08 18.3986 145.332 17.9879 146.604 17.6483ZM157.952 16.9272C159.202 17.1931 160.399 17.6627 161.495 18.3172C164.354 20.0271 166.748 22.4147 168.465 25.2693C170.183 28.1238 171.17 31.3574 171.341 34.6842C171.547 31.3845 170.866 28.0898 169.368 25.1422C168.191 23.0138 166.557 21.1731 164.583 19.7527C162.608 18.3323 160.344 17.3676 157.951 16.9283" fill="#E4E4F0"/>
<path opacity="0.5" d="M155.385 16.7074C155.055 16.7074 154.722 16.7184 154.385 16.7394C151.775 16.8849 149.175 17.1871 146.6 17.6444C145.328 17.9841 144.076 18.3948 142.849 18.8744C143.24 20.4998 143.414 22.1695 143.367 23.8404C143.575 26.4922 143.173 29.1562 142.191 31.6284C143.721 29.7219 144.948 27.5912 145.829 25.3114C146.322 24.0237 146.723 22.7028 147.029 21.3584C149.076 20.9217 151.163 20.7002 153.256 20.6974C157.239 20.6974 162.101 21.5814 164.544 25.3974C168.021 30.8304 167.056 35.2314 166.405 37.0104C167.382 36.8262 168.383 36.8042 169.366 36.9454C169.994 37.0354 170.578 37.1454 171.123 37.2724C171.24 36.4101 171.312 35.5422 171.338 34.6724C171.167 31.3456 170.18 28.112 168.463 25.2575C166.745 22.4029 164.351 20.0153 161.492 18.3054C160.396 17.6509 159.199 17.1814 157.949 16.9154C157.102 16.7721 156.243 16.7001 155.383 16.7004" fill="#D3D3F0"/>
<path opacity="0.5" d="M168.085 36.8618C167.522 36.8627 166.961 36.9152 166.407 37.0188C166.305 37.3108 166.181 37.5946 166.035 37.8678H171.035C171.035 37.8678 171.076 37.6568 171.127 37.2808C170.582 37.1548 169.998 37.0448 169.37 36.9538C168.945 36.8929 168.517 36.8622 168.087 36.8618" fill="#BFBFE3"/>
<path opacity="0.5" d="M142.836 18.813C142.768 18.8591 142.703 18.9106 142.642 18.967C142.642 18.967 142.715 18.935 142.853 18.88L142.837 18.814" fill="#CECEE4"/>
<path opacity="0.5" d="M142.853 18.8784C142.716 18.9344 142.642 18.9654 142.642 18.9654C143.045 20.5638 143.289 22.1981 143.371 23.8444C143.418 22.1735 143.244 20.5038 142.853 18.8784Z" fill="#BFBFE3"/>
<path opacity="0.5" d="M215.662 58.0751L219.708 58.4501L221.282 58.5951H221.256L220.349 58.5121L219.708 58.4551L215.662 58.0801V58.0751ZM210.44 43.2671C210.871 43.6886 211.268 44.1434 211.627 44.6271C214.064 48.0038 215.467 52.0158 215.665 56.1751V55.0171H215.655C215.77 52.7865 215.357 50.5602 214.451 48.5188C213.544 46.4774 212.17 44.6782 210.438 43.2671H210.44ZM200.211 38.8901C201.832 39.0609 203.428 39.4197 204.966 39.9591C203.444 39.3669 201.841 39.0065 200.211 38.8901Z" fill="#E4E4F0"/>
<path opacity="0.5" d="M199.045 38.8416C196.414 38.8253 193.818 39.4427 191.475 40.6416C192.148 40.5886 192.856 40.5616 193.589 40.5616C200.289 40.5616 208.981 42.8846 210.26 50.2616C211.647 58.2526 204.191 61.4906 203.843 61.6316L203.832 61.6376C195.71 63.6273 187.483 65.1631 179.189 66.2376C174.416 66.901 169.608 67.282 164.789 67.3786C156.999 67.3786 156.289 65.5116 158.243 62.9906C160.229 60.4246 158.253 59.5156 155.185 59.5156C153.802 59.5331 152.422 59.6693 151.061 59.9226C146.483 60.7446 118.707 69.3746 107.2 69.3746C106.465 69.3813 105.73 69.3356 105 69.2376C98.1314 68.2376 88.2424 66.6986 78.5004 66.6986C74.6466 66.6672 70.7972 66.9629 66.9934 67.5826C57.6004 69.0512 48.123 69.918 38.6194 70.1776C37.4514 70.1776 36.4404 70.1426 35.6454 70.0666C33.1693 69.7679 30.7787 68.9734 28.6163 67.7306L7.5774 67.9246C6.41011 67.7765 5.23498 67.698 4.05835 67.6896C2.15335 67.6896 0.158349 67.9526 0.0273488 69.0376V69.0796C0.0163488 71.1696 18.0273 72.9016 18.0273 72.9016C18.0273 72.9016 20.1924 73.8506 43.7694 74.1196C44.7164 74.1296 45.6444 74.1346 46.5614 74.1346C57.8465 74.2445 69.1191 73.352 80.2463 71.4676C79.6653 71.3136 79.0834 71.1556 78.5104 70.9756L77.2344 70.5916L75.9744 70.1566C74.2862 69.5975 72.6666 68.8494 71.1464 67.9266C71.9486 68.2879 72.7795 68.5819 73.6304 68.8056C74.0494 68.9336 74.4724 69.0476 74.8984 69.1516C75.3244 69.2556 75.7444 69.3726 76.1754 69.4586L77.4584 69.7406L78.7484 69.9886C79.6034 70.1636 80.4724 70.2886 81.3374 70.4256C82.2024 70.5626 83.0674 70.6876 83.9374 70.8066L85.2374 70.9856L86.5424 71.1256C87.4164 71.2096 88.2803 71.3366 89.1524 71.4136L91.7673 71.6556C92.6363 71.7476 93.5143 71.7876 94.3873 71.8556L97.0044 72.0556C98.7554 72.1486 100.504 72.2556 102.253 72.3376L107.507 72.5586L112.767 72.6886C114.515 72.7216 116.256 72.7126 118.001 72.7266H118.087C118.213 72.7266 118.341 72.7266 118.469 72.7266H118.847C119.001 72.7266 119.154 72.7266 119.308 72.7196L120.608 72.6626C121.478 72.6276 122.347 72.5816 123.218 72.5626C123.653 72.5456 124.09 72.5416 124.524 72.5156L125.824 72.4056L128.424 72.1886C129.296 72.1406 130.144 71.9676 131.005 71.8646C131.864 71.7446 132.732 71.6646 133.585 71.5096L136.137 71.0156C136.997 70.8786 137.816 70.6076 138.661 70.4156L139.921 70.0996C140.337 69.9776 140.743 69.8326 141.154 69.6996C141.982 69.4491 142.796 69.1561 143.593 68.8216L144.793 68.3366C145.193 68.1706 145.569 67.9586 145.959 67.7716C146.34 67.5716 146.748 67.4046 147.111 67.1716L148.225 66.5026C148.956 66.0332 149.652 65.5108 150.306 64.9396C150.986 64.3834 151.578 63.728 152.062 62.9956C151.239 64.5936 150.076 65.9928 148.656 67.0956L147.587 67.9206C147.233 68.2036 146.837 68.4126 146.464 68.6646C146.081 68.8996 145.711 69.1646 145.315 69.3756L144.815 69.6406C146.432 69.8586 149.029 70.1906 152.323 70.5516C155.112 70.7696 157.902 70.9266 160.694 71.0366C163.703 71.1633 166.713 71.2239 169.723 71.2186C172.468 71.2186 175.211 71.1743 177.952 71.0856C179.389 71.0476 180.808 70.9316 182.236 70.8596C183.659 70.7366 185.082 70.6276 186.499 70.4646C189.332 70.1346 192.142 69.673 194.93 69.0796C197.715 68.467 200.484 67.7623 203.238 66.9656C206.001 66.1796 208.764 65.3016 211.653 64.6256L212.74 64.3836L213.847 64.1906C214.579 64.0426 215.338 63.9766 216.089 63.8906C216.84 63.8046 217.61 63.8136 218.37 63.7736H220.54H229.191C232.073 63.7736 234.951 63.7476 237.823 63.6656C239.256 63.6246 240.69 63.5656 242.113 63.4806C243.536 63.3956 244.962 63.2966 246.325 63.0926C246.519 63.0626 246.713 63.0296 246.902 62.9926C245.764 62.6326 244.517 62.3676 243.296 62.0996C240.496 61.5126 237.648 61.0456 234.802 60.5996C230.312 59.8786 225.802 59.2396 221.293 58.5996L219.719 58.4546L215.673 58.0796V56.1796C215.475 52.0203 214.072 48.0084 211.635 44.6316C211.276 44.1479 210.879 43.6931 210.448 43.2716L210.442 43.2656C208.817 41.8686 206.97 40.7532 204.976 39.9656C203.438 39.4262 201.843 39.0674 200.221 38.8966C199.821 38.8676 199.434 38.8556 199.054 38.8556" fill="#D3D3F0"/>
<path opacity="0.5" d="M152.053 62.9979C151.569 63.7303 150.977 64.3857 150.297 64.9419C149.643 65.5132 148.947 66.0356 148.216 66.5049L147.102 67.1739C146.739 67.4089 146.331 67.5739 145.95 67.7739C145.56 67.9609 145.185 68.1739 144.784 68.3389L143.584 68.8239C142.787 69.1583 141.973 69.4514 141.145 69.7019C140.734 69.8339 140.327 69.9789 139.912 70.1019L138.652 70.4179C137.807 70.6119 136.988 70.8829 136.128 71.0179L133.576 71.5119C132.724 71.6639 131.855 71.7469 130.997 71.8669C130.136 71.9669 129.288 72.1429 128.416 72.1909L125.816 72.4079L124.516 72.5179C124.082 72.5439 123.646 72.5479 123.21 72.5649C122.34 72.5879 121.471 72.6339 120.6 72.6649L119.3 72.7219C119.146 72.7279 118.993 72.7289 118.839 72.7289H118.461C118.333 72.7289 118.205 72.7289 118.078 72.7289H117.992C116.247 72.7149 114.506 72.7289 112.758 72.6909L107.498 72.5609L102.244 72.3399C100.494 72.2629 98.7444 72.1519 96.9954 72.0579L94.3784 71.8579C93.5054 71.7949 92.6274 71.7579 91.7584 71.6579L89.1434 71.4159C88.2714 71.3389 87.4074 71.2159 86.5334 71.1279L85.2284 70.9879L83.9285 70.8089C83.0615 70.6899 82.1924 70.5789 81.3284 70.4279C80.4644 70.2769 79.5954 70.1659 78.7394 69.9909L77.4495 69.7429L76.1664 69.4609C75.7354 69.3749 75.3144 69.2609 74.8894 69.1539C74.4644 69.0469 74.0405 68.9359 73.6215 68.8079C72.7705 68.5842 71.9397 68.2902 71.1375 67.9289C72.6577 68.8517 74.2773 69.5998 75.9655 70.1589L77.2255 70.5939L78.5024 70.9779C79.0764 71.1589 79.6574 71.3169 80.2384 71.4699C81.2174 71.2879 81.7244 71.1699 81.7244 71.1699C81.7244 71.1699 100.913 73.5009 116.933 74.0489C117.725 74.0762 118.502 74.0892 119.262 74.0879C133.909 74.0879 142.932 69.3669 142.932 69.3669C142.932 69.3669 143.594 69.4669 144.807 69.6289L145.307 69.3639C145.707 69.1499 146.073 68.8879 146.456 68.6529C146.829 68.4019 147.225 68.1919 147.579 67.9089L148.648 67.0839C150.068 65.9811 151.231 64.5819 152.054 62.9839" fill="#989FB3"/>
<path opacity="0.5" d="M221.256 58.5905H221.282C225.793 59.2335 230.3 59.8715 234.791 60.5905C237.637 61.0405 240.484 61.5075 243.285 62.0905C244.506 62.3585 245.753 62.6235 246.891 62.9835C246.703 63.0215 246.508 63.0545 246.314 63.0835C244.951 63.2835 243.525 63.3905 242.102 63.4715C240.679 63.5525 239.245 63.6165 237.812 63.6565C234.94 63.7395 232.063 63.7635 229.181 63.7645H220.53H218.36C217.6 63.8055 216.829 63.7885 216.079 63.8815C215.329 63.9745 214.569 64.0335 213.837 64.1815L212.73 64.3745L211.643 64.6165C208.755 65.2925 205.992 66.1705 203.228 66.9565C200.47 67.7565 197.701 68.4612 194.921 69.0705C192.135 69.6625 189.325 70.1241 186.49 70.4555C185.073 70.6185 183.65 70.7265 182.227 70.8505C180.8 70.9225 179.38 71.0385 177.943 71.0765C175.201 71.1625 172.458 71.2068 169.714 71.2095C166.706 71.2095 163.696 71.1488 160.685 71.0275C157.893 70.9175 155.103 70.7605 152.314 70.5425C157.369 71.0965 164.067 71.7215 171.414 72.1165C172.951 72.1995 174.465 72.2365 175.945 72.2365C184.2 72.2309 192.419 71.1666 200.402 69.0695C200.402 69.0695 213.366 65.1005 223.863 65.1005H224.363C234.816 65.1005 248.363 64.5355 248.232 62.9755C248.101 61.3945 231.602 59.5395 231.602 59.5395L221.265 58.5835" fill="#989FB3"/>
<path opacity="0.5" d="M52.0364 67.9341C52.7715 66.9102 53.7108 66.0498 54.7952 65.4071C55.8795 64.7644 57.0853 64.3534 58.3364 64.2001C62.4094 63.8431 74.2985 64.9351 74.2985 64.9351C74.2985 64.9351 53.2844 68.8631 52.0364 67.9341Z" fill="white"/>
<path opacity="0.5" d="M96.5644 61.9359C96.5644 61.9359 87.1694 59.3249 90.1274 50.5989C93.0854 41.8729 104.315 46.5589 104.315 46.5589C104.315 46.5589 95.2354 44.9589 92.2824 51.5219C90.0484 56.4939 96.5644 61.9359 96.5644 61.9359Z" fill="white"/>
<path opacity="0.5" d="M115.09 66.5444C115.09 66.5444 117.39 54.0254 128.69 50.1374C139.99 46.2494 148.263 58.0744 148.263 58.0744C148.263 58.0744 140.155 50.8154 129.622 54.1564C126.504 55.1629 123.615 56.7753 121.121 58.9012C118.627 61.0271 116.578 63.6245 115.09 66.5444Z" fill="white"/>
<path opacity="0.5" d="M161.001 43.6128C161.001 43.6128 167.701 39.2598 173.218 44.7558C176.962 48.4888 176.698 54.7768 176.698 54.7768C176.698 54.7768 174.662 48.8848 169.798 46.0518C164.874 43.1788 161.001 43.6128 161.001 43.6128Z" fill="white"/>
<path opacity="0.5" d="M187.798 46.2133C187.798 46.2133 200.671 39.1963 206.976 47.8273C210.537 52.7013 206.517 59.2273 199.226 61.4673C191.935 63.7073 205.794 59.0523 204.481 51.5843C203.651 46.8713 198.122 45.2813 187.798 46.2133Z" fill="white"/>
<path opacity="0.5" d="M148.959 23.1461C148.959 23.1461 160.092 20.9961 163.496 26.1951C166.9 31.3941 164.46 35.6832 164.46 35.6832C164.46 35.6832 163.847 29.5921 158.593 27.1471C153.339 24.7021 143.708 24.0501 148.959 23.1461Z" fill="white"/>
<path opacity="0.5" d="M107.011 43.6116C107.011 43.6116 100.211 36.6656 101.668 26.6336C103.125 16.6016 110.168 9.58956 120.322 8.97456C122.415 8.81561 124.518 9.10699 126.489 9.82911C128.46 10.5512 130.254 11.6873 131.749 13.1608C133.244 14.6344 134.406 16.4112 135.157 18.3715C135.907 20.3319 136.229 22.4303 136.1 24.5256C135.472 32.0816 129.617 37.8676 129.617 37.8676C129.617 37.8676 138.773 19.6065 125.139 15.6525C114.761 12.6435 107.449 17.9705 105.434 27.1525C104.196 32.667 104.748 38.4326 107.011 43.6116Z" fill="white"/>
<g opacity="0.5">
<path opacity="0.5" d="M71.1354 67.9333C71.9376 68.2946 72.7685 68.5886 73.6194 68.8123C74.0384 68.9403 74.4615 69.0543 74.8875 69.1583C75.3135 69.2623 75.7334 69.3793 76.1644 69.4653L77.4474 69.7473L78.7374 69.9953C79.5924 70.1703 80.4614 70.2953 81.3264 70.4323C82.1914 70.5693 83.0564 70.6943 83.9264 70.8133L85.2264 70.9923L86.5314 71.1323C87.4054 71.2163 88.2694 71.3433 89.1414 71.4203L91.7565 71.6623C92.6255 71.7543 93.5035 71.7943 94.3765 71.8623L96.9934 72.0623C98.7444 72.1553 100.493 72.2623 102.242 72.3443L107.496 72.5653L112.756 72.6953C114.504 72.7283 116.245 72.7193 117.99 72.7333C118.145 72.7333 118.302 72.7333 118.458 72.7333C118.738 72.7333 119.018 72.7393 119.297 72.7333L120.597 72.6763C121.467 72.6413 122.336 72.5953 123.207 72.5763C123.642 72.5593 124.079 72.5553 124.513 72.5293L125.813 72.4193L128.413 72.2023C129.285 72.1543 130.133 71.9813 130.994 71.8783C131.852 71.7573 132.721 71.6783 133.573 71.5233L136.125 71.0293C136.985 70.8923 137.804 70.6213 138.649 70.4293L139.909 70.1133C140.325 69.9913 140.731 69.8463 141.142 69.7133C141.97 69.4628 142.784 69.1697 143.581 68.8353L144.781 68.3503C145.181 68.1843 145.557 67.9723 145.947 67.7853C146.328 67.5853 146.736 67.4183 147.099 67.1853L148.213 66.5163C148.944 66.047 149.64 65.5246 150.294 64.9533C150.974 64.397 151.566 63.7417 152.05 63.0093C151.227 64.6073 150.064 66.0065 148.644 67.1093L147.575 67.9343C147.221 68.2173 146.825 68.4263 146.452 68.6783C146.069 68.9133 145.699 69.1783 145.303 69.3893L144.112 70.0203C140.883 71.5957 137.477 72.78 133.966 73.5483C133.094 73.7573 132.211 73.8933 131.334 74.0693L130.014 74.3073C129.573 74.3933 129.131 74.4553 128.687 74.5013L126.029 74.8203L124.698 74.9783C124.254 75.0193 123.81 75.0413 123.365 75.0733C122.477 75.1383 121.587 75.1783 120.697 75.2303L119.361 75.3023C118.917 75.3233 118.472 75.3143 118.028 75.3223C116.25 75.3283 114.467 75.3633 112.693 75.3453C105.61 75.2162 98.5402 74.6723 91.5204 73.7163C88.0033 73.2314 84.5141 72.5618 81.0674 71.7103C80.2074 71.4833 79.3464 71.2673 78.4984 70.9993L77.2214 70.6153L75.9614 70.1803C74.2732 69.6212 72.6536 68.8731 71.1334 67.9503" fill="#C4D8E8"/>
<path opacity="0.5" d="M145.833 50.8898C144.444 49.415 142.854 48.1444 141.108 47.1158C139.438 46.1063 137.601 45.4014 135.683 45.0338C133.812 44.6806 131.891 44.6806 130.019 45.0338C128.135 45.4073 126.311 46.0364 124.597 46.9038C123.736 47.3331 122.898 47.8085 122.087 48.3278C121.307 48.8593 120.57 49.4508 119.881 50.0968C118.508 51.4324 117.36 52.9814 116.481 54.6838C115.571 56.4391 114.878 58.2989 114.417 60.2218C113.924 62.1988 113.613 64.2169 113.488 66.2508C113.048 64.2001 112.919 62.0949 113.104 60.0058C113.199 58.9481 113.361 57.8973 113.587 56.8598C113.83 55.8118 114.156 54.7851 114.564 53.7898C115.785 50.7028 117.896 48.0482 120.628 46.1628C121.53 45.56 122.473 45.0197 123.448 44.5458C125.398 43.571 127.491 42.9147 129.648 42.6018C130.737 42.4525 131.839 42.4166 132.935 42.4948C134.031 42.5644 135.115 42.7569 136.167 43.0688C138.239 43.6863 140.165 44.7163 141.829 46.0968C143.459 47.4227 144.819 49.05 145.833 50.8898Z" fill="#C4D8E8"/>
<path opacity="0.5" d="M143.441 69.6206C149.172 70.3856 154.927 70.8076 160.684 71.0346C166.441 71.2616 172.196 71.2636 177.942 71.0846C179.379 71.0466 180.798 70.9306 182.226 70.8586C183.649 70.7346 185.072 70.6266 186.489 70.4636C189.322 70.1336 192.132 69.6719 194.92 69.0786C197.704 68.4659 200.473 67.7613 203.227 66.9646C205.99 66.1786 208.753 65.3006 211.642 64.6246L212.729 64.3826L213.836 64.1896C214.568 64.0416 215.327 63.9756 216.078 63.8896C216.829 63.8036 217.599 63.8126 218.359 63.7726H220.529H229.18C232.062 63.7726 234.94 63.7466 237.812 63.6646C239.245 63.6236 240.679 63.5646 242.102 63.4796C243.525 63.3946 244.951 63.2956 246.314 63.0916C246.651 63.0386 246.984 62.9786 247.297 62.9046C247.561 62.8499 247.818 62.766 248.063 62.6546H248.087C248.01 62.7437 247.961 62.8536 247.945 62.9706C247.932 63.0633 247.938 63.1579 247.965 63.2476L248.015 63.3816L248.054 63.4406L248.064 63.4606C248.124 63.5286 248.105 63.5046 248.096 63.4936C247.86 63.3516 247.61 63.2359 247.348 63.1486C246.016 62.7199 244.659 62.3703 243.284 62.1016C240.484 61.5146 237.636 61.0476 234.79 60.6016C229.09 59.6856 223.37 58.9016 217.646 58.0776C223.425 58.3226 229.191 58.7596 234.955 59.3186C237.836 59.6186 240.713 59.9526 243.596 60.4076C245.071 60.6198 246.53 60.9352 247.96 61.3516C248.389 61.4788 248.801 61.6599 249.184 61.8906C249.347 61.9994 249.493 62.1323 249.616 62.2846L249.67 62.3566L249.738 62.4766C249.782 62.5584 249.818 62.6441 249.845 62.7326C249.894 62.9107 249.905 63.0971 249.877 63.2796C249.855 63.4489 249.796 63.6113 249.705 63.7556C249.641 63.8653 249.563 63.9662 249.472 64.0556C249.349 64.177 249.211 64.2828 249.061 64.3706C248.665 64.592 248.24 64.7601 247.799 64.8706C247.412 64.9756 247.037 65.0576 246.664 65.1296C243.765 65.597 240.84 65.8823 237.905 65.9836C235.005 66.1316 232.105 66.2166 229.211 66.2836C226.317 66.3506 223.421 66.3486 220.531 66.3616L218.369 66.3726C217.688 66.4196 217.009 66.4026 216.327 66.4946C215.645 66.5866 214.963 66.6386 214.278 66.7836L213.252 66.9686L212.225 67.2036C209.481 67.8226 206.725 68.6736 203.925 69.4506C201.125 70.2276 198.29 70.9636 195.417 71.5286C189.671 72.6361 183.83 73.1766 177.977 73.1426C172.171 73.1486 166.377 72.8776 160.597 72.3296C154.826 71.8059 149.095 70.904 143.441 69.6296" fill="#C4D8E8"/>
<path opacity="0.5" d="M88.7953 63.3615C87.4084 62.445 86.1681 61.324 85.1164 60.0365C84.0042 58.7236 83.1431 57.2172 82.5764 55.5925C81.9814 53.8784 81.8457 52.0384 82.1824 50.2555C82.5544 48.4746 83.3387 46.8056 84.4723 45.3825C85.0131 44.6898 85.6098 44.0427 86.2564 43.4475L86.7404 43.0105C86.9224 42.8599 87.1064 42.7132 87.2924 42.5705C87.6741 42.2948 88.0751 42.0468 88.4924 41.8285C90.1228 41.0123 91.9335 40.6222 93.7554 40.6945C95.4698 40.7532 97.1642 41.083 98.7754 41.6715C100.353 42.2219 101.843 42.9965 103.199 43.9715C101.626 43.605 100.036 43.319 98.4334 43.1145C96.904 42.9093 95.3574 42.8627 93.8184 42.9755C92.3866 43.0729 90.9906 43.4662 89.7184 44.1305C89.4183 44.295 89.1299 44.4801 88.8554 44.6845C88.7264 44.7925 88.5924 44.8985 88.4554 45.0025L88.0305 45.3775C87.4798 45.8802 86.9636 46.4194 86.4854 46.9915C85.5499 48.0943 84.859 49.383 84.4584 50.7725C84.0924 52.1852 84.0649 53.6643 84.3784 55.0895C85.1709 58.1585 86.6861 60.9934 88.7974 63.3575" fill="#C4D8E8"/>
<path opacity="0.5" d="M104.366 44.7545C100.703 42.0265 97.7996 38.4058 95.9323 34.2375C95.0092 32.1001 94.4285 29.8306 94.2114 27.5125C94.0251 25.1688 94.2252 22.8104 94.8034 20.5315C95.9537 15.9772 98.2292 11.7846 101.421 8.33853C104.67 4.89818 108.794 2.40682 113.35 1.13153C117.925 -0.132765 122.77 -0.0375699 127.291 1.40551C131.766 2.88739 135.737 5.58878 138.759 9.20553C140.262 10.9967 141.484 13.0052 142.384 15.1625C143.265 17.3157 143.796 19.5958 143.957 21.9165C144.199 26.4955 143.112 31.0468 140.825 35.0215C142.577 30.9362 143.219 26.4605 142.685 22.0475C142.077 17.7475 140.171 13.7355 137.222 10.5475C134.332 7.37901 130.646 5.04155 126.547 3.77752C122.477 2.54695 118.138 2.5105 114.047 3.67251C109.931 4.79773 106.194 7.01053 103.228 10.0785C101.734 11.6085 100.436 13.3187 99.3643 15.1695C98.3056 17.0439 97.4505 19.0262 96.8134 21.0825C95.5658 25.2345 95.6871 29.6778 97.1594 33.7555C97.8899 35.8308 98.8805 37.8052 100.107 39.6315C100.718 40.5587 101.38 41.4511 102.09 42.3045C102.792 43.172 103.553 43.9906 104.366 44.7545Z" fill="#C4D8E8"/>
<path opacity="0.5" d="M142.929 18.7606C146.098 17.02 149.606 15.986 153.212 15.7296C154.13 15.6654 155.052 15.6613 155.97 15.7176C156.902 15.7683 157.827 15.8917 158.739 16.0866C159.664 16.281 160.572 16.5509 161.452 16.8936C162.339 17.2476 163.192 17.6828 163.998 18.1936C164.809 18.7016 165.57 19.2856 166.27 19.9376C166.953 20.5722 167.593 21.2507 168.187 21.9686C168.785 22.692 169.326 23.4611 169.804 24.2686C170.289 25.0746 170.7 25.9227 171.031 26.8026C171.725 28.517 172.061 30.3551 172.019 32.2041C171.976 34.0531 171.556 35.8738 170.784 37.5546C171.367 33.3216 170.308 29.0262 167.825 25.5486C167.595 25.2096 167.334 24.8876 167.089 24.5596C166.818 24.2476 166.567 23.9226 166.279 23.6226C165.723 23.0084 165.135 22.4239 164.517 21.8716C164.209 21.6016 163.904 21.3486 163.588 21.1026C163.257 20.8766 162.947 20.6226 162.6 20.4186C159.769 18.7223 156.538 17.8088 153.238 17.7716C151.528 17.6971 149.814 17.7539 148.112 17.9416C146.371 18.1179 144.641 18.3913 142.929 18.7606Z" fill="#C4D8E8"/>
<path opacity="0.5" d="M159.542 41.2554C160.329 40.0684 161.318 39.0278 162.462 38.1804C163.634 37.2894 164.958 36.6197 166.37 36.2044C167.84 35.7767 169.384 35.6743 170.897 35.9044C172.41 36.1521 173.86 36.6907 175.167 37.4904C175.846 37.9152 176.469 38.4224 177.022 39.0004C177.552 39.5819 178.014 40.2225 178.397 40.9094C179.109 42.238 179.575 43.6842 179.773 45.1784C179.973 46.6061 179.996 48.053 179.842 49.4864C179.704 50.8935 179.394 52.2782 178.917 53.6094C178.821 50.9095 178.424 48.2287 177.735 45.6164C177.204 43.2349 175.801 41.138 173.803 39.7374C172.766 39.0958 171.633 38.6251 170.446 38.3434C169.25 38.0775 168.015 38.0304 166.802 38.2044C164.183 38.6585 161.7 39.7017 159.542 41.2554Z" fill="#C4D8E8"/>
<path opacity="0.5" d="M8.9884 71.6566C7.6584 71.5316 6.32939 71.4096 5.00439 71.2336C4.34239 71.1466 3.67938 71.0576 3.01538 70.9546C2.33424 70.8565 1.65965 70.7172 0.995361 70.5375L1.29541 69.5916C4.52041 70.2086 7.80943 70.6806 11.0864 71.0656C14.3644 71.4846 17.6564 71.7655 20.9454 72.0475C24.2384 72.2985 27.5344 72.4665 30.8314 72.6245C34.1321 72.7405 37.432 72.8072 40.7313 72.8246C44.0313 72.8486 47.3404 72.7595 50.6484 72.7245C52.3034 72.6765 53.9584 72.6475 55.6134 72.5815C57.2694 72.5425 58.9244 72.4955 60.5814 72.4305L80.4924 71.6576C73.9464 72.8966 67.3364 73.7386 60.7064 74.3716C59.0484 74.5296 57.3894 74.6716 55.7284 74.8026C54.0674 74.9336 52.4034 75.0106 50.7394 75.1176C47.4104 75.2986 44.0764 75.4065 40.7394 75.4175C37.3994 75.4735 34.0534 75.3515 30.7184 75.1935C27.3834 75.0355 24.0494 74.7345 20.7284 74.3605C14.0724 73.6498 7.48857 72.377 1.04736 70.5555L1.34241 69.6096C1.90241 69.8336 2.55935 70.0095 3.18835 70.1895C3.81735 70.3695 4.46938 70.5345 5.11438 70.6985L8.9884 71.6566Z" fill="#C4D8E8"/>
<path opacity="0.5" d="M99.1584 64.2737C90.8514 64.4467 82.5524 64.3056 74.2584 63.9556L71.1454 63.8186L68.0314 63.6336C66.9944 63.5596 65.9564 63.4996 64.9164 63.4136L63.3544 63.2897C62.8604 63.2597 62.3664 63.2206 61.8744 63.2156C59.9523 63.1116 58.0272 63.3548 56.1914 63.9336C54.3744 64.6138 52.6817 65.5885 51.1814 66.8186C50.2767 67.5363 49.2785 68.1274 48.2144 68.5757C47.9141 68.6884 47.6064 68.78 47.2933 68.8496C46.9918 68.9161 46.6856 68.9589 46.3774 68.9776C45.8244 69.0156 45.2583 69.0576 44.7463 69.0636C42.6363 69.1166 40.5694 69.0997 38.4884 69.0927C34.3324 69.0807 30.1884 68.9817 26.0374 68.8717C17.7444 68.6227 9.45333 68.2876 1.16833 67.6986C9.46834 67.3146 17.7564 67.1307 26.0464 66.9637L38.4703 66.7337C40.5333 66.6867 42.6134 66.6476 44.6454 66.5436C45.1694 66.5336 45.6374 66.4897 46.1184 66.4547C46.3274 66.4445 46.535 66.4147 46.7384 66.3656C46.9316 66.3201 47.1213 66.2613 47.3064 66.1896C48.1469 65.8089 48.9334 65.3186 49.6454 64.7316C50.4959 64.0663 51.3793 63.4442 52.2924 62.8677C53.266 62.2855 54.3028 61.8159 55.3824 61.4677C57.5178 60.8144 59.7543 60.5559 61.9824 60.7047C62.5274 60.7317 63.0654 60.7936 63.6044 60.8476L65.1384 61.0166C66.1604 61.1316 67.1924 61.2226 68.2174 61.3266L74.3973 61.8956C82.6393 62.6256 90.9025 63.3427 99.1584 64.2737Z" fill="#C4D8E8"/>
<path opacity="0.5" d="M180.58 49.1385C181.434 47.221 182.581 45.4482 183.98 43.8835C185.383 42.2652 187.031 40.8769 188.864 39.7695C190.745 38.6341 192.825 37.8699 194.993 37.5185C196.085 37.3558 197.19 37.2942 198.293 37.3345C199.375 37.4046 200.451 37.5439 201.515 37.7515C203.654 38.1551 205.717 38.8928 207.626 39.9375C209.547 41.0101 211.224 42.472 212.547 44.2295C213.837 45.9631 214.764 47.9387 215.273 50.0385C215.796 52.0749 215.927 54.1921 215.659 56.2775C215.442 54.2589 214.937 52.2818 214.159 50.4065C213.779 49.4955 213.331 48.6146 212.817 47.7715C212.301 46.9509 211.712 46.1779 211.058 45.4615C210.418 44.7516 209.707 44.1092 208.935 43.5445C208.173 42.9735 207.359 42.4754 206.504 42.0565C204.771 41.2235 202.929 40.6375 201.033 40.3155C200.087 40.1427 199.131 40.0252 198.17 39.9635C197.229 39.9261 196.286 39.9612 195.35 40.0685C193.457 40.3177 191.617 40.8726 189.902 41.7115C186.327 43.5354 183.157 46.0614 180.58 49.1385Z" fill="#C4D8E8"/>
</g>
</g>
</svg>
