<svg width="481" height="145" viewBox="0 0 481 145" fill="none" xmlns="http://www.w3.org/2000/svg">
<g opacity="0.5">
<path d="M477.471 120.924C477.724 123.966 450.94 125.041 430.725 125.011C410.51 124.981 385.474 132.647 385.474 132.647C367.29 137.411 348.489 139.388 329.712 138.508C299.489 136.886 274.929 133.224 274.929 133.224C274.929 133.224 255.724 143.274 224.916 142.224C194.108 141.174 157.184 136.687 157.184 136.687C157.184 136.687 129.521 142.873 84.1579 142.356C38.7949 141.839 34.6409 140.013 34.6409 140.013C34.6409 140.013 -0.482026 136.637 0.0219743 132.58C0.525974 128.523 14.5469 130.44 14.5469 130.44L55.017 130.065L62.0519 129.994L90.8389 129.709C90.8389 129.709 102.482 120.046 111.448 118.9C120.414 117.754 172.648 122.529 172.648 122.529C172.648 122.529 160.287 115.482 160.287 97.9806C160.287 85.8526 174.881 76.5336 186.91 80.4076C197.81 83.9076 199.363 84.7266 199.554 84.8486C198.767 84.2106 180.865 69.4656 183.09 45.8386C185.364 21.6746 207.984 4.46663 226.552 2.92463C245.12 1.38263 270.388 17.5886 274.371 35.0906V36.2456C274.371 36.2456 296.921 26.6456 310.637 34.9986C324.353 43.3516 330.537 58.1986 329.467 69.7196L332.944 72.6286L340.514 77.3136C340.514 77.3136 344.306 90.3746 344.679 96.9656C344.679 96.9656 356.546 81.5026 366.979 76.8076C377.412 72.1126 398.07 73.4706 407.079 85.5986C412.49 93.1145 415.221 102.229 414.835 111.482L422.619 112.202L445.482 114.31C445.482 114.31 477.22 117.88 477.472 120.922" fill="#F5F5FF"/>
<path opacity="0.5" d="M255.498 81.3609C229.758 81.3609 221.037 106.853 221.037 106.853C221.037 106.853 215.937 121.478 218.973 128.913C218.973 128.913 223.185 96.8029 251.991 92.0699C254.456 91.6555 256.95 91.4425 259.449 91.4329C282.023 91.4329 287.704 110.492 287.704 110.492C287.704 110.492 285.177 82.9449 257.717 81.4219C256.966 81.3809 256.223 81.3599 255.497 81.3599" fill="#D3D3F0"/>
<path d="M340.699 77.9654C341.463 80.6764 344.357 91.2554 344.681 96.9714C344.681 96.9714 344.717 96.9264 344.781 96.8374C344.781 92.1574 343.688 87.9624 343.548 85.8604C343.427 82.9974 342.432 80.2401 340.696 77.9604L340.699 77.9654ZM332.896 72.5874L332.947 72.6294L339.686 76.8004C337.761 74.9121 335.442 73.4734 332.896 72.5874Z" fill="#E4E4F0"/>
<path opacity="0.5" d="M320.09 70.9731C307.19 73.3731 298.567 89.3232 298.567 89.3232C306.846 80.4792 314.481 77.6361 320.504 77.6361C323.758 77.599 326.955 78.4984 329.712 80.2271C343.987 89.4401 341.777 108.021 341.777 108.021C343.873 104.675 344.919 100.779 344.782 96.8331C344.714 96.9221 344.682 96.9671 344.682 96.9671C344.358 91.2511 341.464 80.6672 340.7 77.9612C340.384 77.556 340.045 77.169 339.685 76.8021L332.946 72.6311L332.895 72.5891C331.678 72.1385 330.433 71.7668 329.168 71.4761C329.068 72.2021 328.99 72.6071 328.99 72.6071H319.374C319.654 72.0815 319.894 71.5353 320.092 70.9731" fill="#D3D3F0"/>
<path d="M169.681 120.276C169.922 120.583 170.166 120.888 170.415 121.19L172.5 122.446C171.5 121.805 170.556 121.079 169.681 120.276Z" fill="#E4E4F0"/>
<path opacity="0.5" d="M183.367 82.3138C182.382 82.3138 181.408 82.3528 180.447 82.4388C177.692 82.6268 175.006 83.3837 172.558 84.6618C171.981 84.9781 171.427 85.3333 170.899 85.7249C170.648 85.9359 170.392 86.1378 170.13 86.3358L169.314 87.0569C168.255 88.0249 167.262 89.0632 166.343 90.1649C164.543 92.2856 163.214 94.7642 162.443 97.4369C161.739 100.153 161.686 102.996 162.288 105.737C163.393 110.876 166.179 115.818 169.68 120.273C170.555 121.076 171.498 121.802 172.499 122.443L172.648 122.532L187.61 123.261C187.61 123.261 166.917 116.912 168.939 102.04C170.758 88.6589 182.258 83.0758 191.539 83.0758C191.699 83.0758 191.858 83.0758 192.016 83.0758C191.117 82.9325 190.22 82.8072 189.324 82.6999C187.347 82.4525 185.357 82.3216 183.365 82.3079" fill="#D3D3F0"/>
<path d="M186.066 65.9968C186.114 66.1448 186.166 66.2968 186.214 66.4398C188.188 72.0566 191.469 77.1236 195.786 81.2228C191.663 76.7686 188.371 71.6122 186.066 65.9978V65.9968ZM195.714 18.8548L195.229 19.2158C186.735 25.5488 183.205 35.8688 183.029 46.6228C183.049 46.3638 183.071 46.1048 183.095 45.8448C184.177 35.6929 188.62 26.1934 195.718 18.8548H195.714ZM230.71 2.3958C227.329 2.40008 223.967 2.90558 220.734 3.8958C222.647 3.42426 224.594 3.10263 226.557 2.93381C227.376 2.86714 228.208 2.8338 229.051 2.8338C247.321 2.8338 270.569 18.3678 274.376 35.0988V36.2538C274.493 36.1438 274.619 36.0435 274.752 35.9538C273.75 32.0632 272.135 28.3569 269.968 24.9738C269.343 23.9738 268.694 23.0268 268.028 22.1548C267.897 21.4758 267.828 21.0898 267.828 21.0898C267.828 21.0898 261.258 9.76279 241.508 4.01379C238.004 2.96142 234.367 2.4159 230.708 2.3938" fill="#E4E4F0"/>
<path opacity="0.5" d="M229.047 2.83057C228.205 2.83057 227.374 2.86391 226.553 2.93057C224.59 3.09936 222.643 3.421 220.73 3.89256C211.63 6.64256 203.844 12.7796 195.714 18.8546C188.616 26.1932 184.173 35.6926 183.091 45.8446C183.067 46.1046 183.044 46.3646 183.025 46.6226C182.957 53.2046 183.985 59.752 186.067 65.9966C188.372 71.611 191.664 76.7673 195.787 81.2216C199.171 84.5334 203.073 87.2695 207.34 89.3216C198.081 82.0216 191.914 72.7606 191.74 51.9836C191.582 32.8736 209.314 14.2146 231.417 14.2176C233.397 14.2185 235.375 14.3669 237.333 14.6616C248.124 16.2816 256.248 21.0976 260.655 26.9066C261.018 27.3926 261.372 27.8806 261.706 28.3676L261.786 28.4896L261.816 28.5306C262.513 29.4301 263.116 30.3985 263.616 31.4206L263.657 31.4916C265.881 35.8916 268.732 44.9176 264.335 57.8916L264.324 57.9216C261.029 65.9216 255.724 73.5776 248.283 76.6916C248.283 76.6916 269.924 75.1406 273.511 60.6186C274.813 55.7231 275.572 50.6992 275.774 45.6376C275.617 42.4704 275.148 39.3265 274.374 36.2516V35.0966C270.567 18.3656 247.319 2.83157 229.049 2.83157" fill="#D3D3F0"/>
<path d="M261.788 28.4946L261.738 28.4236L261.707 28.3726L261.788 28.4946Z" fill="#4B4B9B"/>
<path d="M281.989 33.7166C278.429 34.3956 275.911 35.1726 274.744 35.9556L274.776 36.0856C277.134 35.1614 279.542 34.3705 281.989 33.7166ZM303.819 32.3286C306.222 32.8408 308.524 33.7449 310.634 35.0046C323.086 42.5866 329.339 55.5406 329.576 66.4866C329.739 61.4256 329.215 54.1236 325.781 48.1296C323.516 44.0358 320.372 40.4953 316.574 37.7631C312.777 35.031 308.42 33.1752 303.819 32.3296" fill="#E4E4F0"/>
<path opacity="0.5" d="M298.887 31.9146C298.25 31.9146 297.613 31.9356 296.968 31.9766C291.945 32.2569 286.944 32.8383 281.991 33.7176C279.544 34.3715 277.136 35.1624 274.778 36.0866C275.529 39.2126 275.865 42.4238 275.778 45.6376C276.019 50.1926 275.662 55.7266 273.515 60.6186C276.458 56.9519 278.819 52.8539 280.515 48.4686C281.464 45.991 282.236 43.4493 282.825 40.8625C286.763 40.0227 290.778 39.5968 294.804 39.5916C302.466 39.5916 311.817 41.2916 316.517 48.6366C323.206 59.0886 321.349 67.5556 320.098 70.9766C321.976 70.6226 323.899 70.5803 325.791 70.8516C326.999 71.0246 328.124 71.2356 329.173 71.4796C329.397 69.8235 329.535 68.1569 329.586 66.4865C329.35 55.5405 323.096 42.5866 310.644 35.0046C308.534 33.7448 306.232 32.8408 303.829 32.3286C302.199 32.0526 300.548 31.9141 298.895 31.9146" fill="#D3D3F0"/>
<path d="M323.317 70.6714C322.235 70.6716 321.155 70.7721 320.091 70.9714C319.894 71.5335 319.653 72.0798 319.373 72.6054H328.989C328.989 72.6054 329.067 72.2004 329.166 71.4744C328.116 71.2304 326.992 71.0194 325.784 70.8464C324.966 70.7296 324.142 70.6708 323.316 70.6704" fill="#BFBFE3"/>
<path d="M274.747 35.9556C274.614 36.0451 274.488 36.1455 274.371 36.2556C274.371 36.2556 274.512 36.1956 274.779 36.0896L274.747 35.9596" fill="#CECEE4"/>
<path d="M274.779 36.0854C274.512 36.1904 274.371 36.2514 274.371 36.2514C275.145 39.3264 275.614 42.4703 275.771 45.6375C275.858 42.4237 275.522 39.2125 274.771 36.0865" fill="#BFBFE3"/>
<path d="M414.836 111.479L422.62 112.199L425.646 112.478L425.597 112.472L423.853 112.311L422.62 112.2L414.836 111.48V111.479ZM404.792 82.9849C405.619 83.7965 406.382 84.6711 407.073 85.6009C411.761 92.0959 414.46 99.8137 414.842 107.815V105.588H414.821C415.041 101.297 414.247 97.0156 412.504 93.0892C410.761 89.1627 408.117 85.7022 404.787 82.9879L404.792 82.9849ZM385.112 74.5679C388.23 74.8959 391.3 75.5863 394.258 76.6249C391.329 75.4865 388.246 74.7932 385.112 74.5679Z" fill="#E4E4F0"/>
<path opacity="0.5" d="M382.872 74.4879C377.81 74.4589 372.816 75.6495 368.311 77.9588C369.611 77.8588 370.969 77.8049 372.377 77.8049C385.277 77.8049 401.986 82.2768 404.446 96.4648C407.114 111.836 392.771 118.065 392.104 118.337L392.083 118.346C376.46 122.176 360.635 125.132 344.683 127.199C335.499 128.477 326.247 129.212 316.977 129.399C301.993 129.399 300.621 125.809 304.384 120.957C308.206 116.022 304.404 114.273 298.501 114.273C295.839 114.307 293.184 114.569 290.567 115.056C281.767 116.637 228.331 133.239 206.195 133.239C204.78 133.252 203.367 133.163 201.965 132.974C188.753 131.044 169.73 128.089 150.983 128.089C143.57 128.029 136.164 128.597 128.847 129.789C116.516 131.923 88.8769 134.781 74.2659 134.781C72.0159 134.781 70.0739 134.713 68.5449 134.566C63.7808 133.992 59.1812 132.464 55.0209 130.073L14.5509 130.448C12.3046 130.163 10.0432 130.012 7.77894 129.996C4.11794 129.996 0.285948 130.502 0.025948 132.588C0.024391 132.616 0.024391 132.643 0.025948 132.671C0.00494803 136.69 34.6489 140.021 34.6489 140.021C34.6489 140.021 38.814 141.846 84.166 142.364C85.988 142.385 87.7739 142.396 89.5369 142.396C123.454 142.396 146.586 138.707 154.337 137.264C153.218 136.964 152.103 136.664 150.997 136.318L148.542 135.58L146.116 134.741C142.869 133.666 139.754 132.227 136.831 130.451C138.374 131.145 139.972 131.711 141.609 132.142C142.409 132.389 143.228 132.609 144.047 132.809C144.866 133.009 145.676 133.234 146.506 133.399L148.973 133.941L151.455 134.417C153.102 134.754 154.774 134.995 156.436 135.259C158.091 135.548 159.764 135.765 161.431 135.994L163.931 136.336L166.443 136.607C168.12 136.77 169.784 137.007 171.463 137.16L176.493 137.627C178.166 137.802 179.852 137.883 181.533 138.005L186.569 138.39C189.938 138.569 193.3 138.785 196.669 138.934L206.774 139.359L216.893 139.609C220.255 139.674 223.604 139.653 226.961 139.68H227.125C227.37 139.68 227.616 139.68 227.86 139.68C228.104 139.68 228.347 139.68 228.589 139.68C228.889 139.68 229.181 139.68 229.476 139.666L231.985 139.558C233.658 139.489 235.329 139.398 237.004 139.358C237.841 139.326 238.68 139.317 239.516 139.268L242.016 139.059L247.016 138.639C248.69 138.549 250.324 138.214 251.981 138.016C253.633 137.786 255.303 137.628 256.943 137.334L261.85 136.385C263.505 136.121 265.08 135.597 266.706 135.226L269.132 134.618C269.932 134.382 270.712 134.105 271.504 133.85C273.096 133.369 274.662 132.806 276.196 132.164L278.514 131.229C279.285 130.911 280.005 130.503 280.758 130.143C281.49 129.751 282.274 129.435 282.971 128.985L285.115 127.698C286.521 126.796 287.858 125.791 289.115 124.691C290.423 123.621 291.562 122.36 292.494 120.951C291.077 124.092 288.546 126.593 285.939 128.832L283.884 130.418C283.205 130.963 282.443 131.367 281.723 131.85C280.987 132.302 280.274 132.806 279.514 133.217L278.552 133.727C281.665 134.146 286.658 134.783 292.996 135.478C298.358 135.898 303.728 136.199 309.096 136.412C314.884 136.652 320.673 136.77 326.464 136.763C331.745 136.763 337.022 136.677 342.295 136.507C345.06 136.433 347.795 136.207 350.538 136.072C353.274 135.834 356.012 135.626 358.738 135.315C364.187 134.681 369.594 133.793 374.959 132.65C380.314 131.471 385.64 130.115 390.939 128.583C396.255 127.07 401.569 125.383 407.127 124.083L409.216 123.616L411.347 123.244C412.755 122.961 414.216 122.834 415.661 122.667C417.106 122.5 418.587 122.519 420.049 122.441L424.223 122.451H440.864C446.407 122.451 451.944 122.403 457.464 122.242C460.223 122.162 462.974 122.044 465.717 121.887C468.453 121.73 471.197 121.535 473.817 121.14C474.192 121.081 474.565 121.017 474.928 120.946C472.739 120.253 470.338 119.746 467.989 119.228C462.603 118.099 457.126 117.2 451.649 116.335C443.013 114.947 434.341 113.719 425.663 112.48L422.636 112.201L414.852 111.481L414.858 107.816C414.476 99.8147 411.777 92.0969 407.089 85.6018C406.398 84.6721 405.635 83.7974 404.808 82.9858L404.796 82.9759C401.669 80.2863 398.114 78.139 394.279 76.6228C391.32 75.5842 388.251 74.8939 385.133 74.5659C384.366 74.5119 383.618 74.4852 382.888 74.4859" fill="#D3D3F0"/>
<path d="M292.477 120.95C291.545 122.359 290.406 123.62 289.098 124.69C287.841 125.79 286.504 126.795 285.098 127.697L282.954 128.985C282.254 129.435 281.472 129.751 280.74 130.143C279.987 130.503 279.267 130.911 278.496 131.229L276.178 132.164C274.644 132.807 273.078 133.37 271.486 133.851C270.694 134.105 269.912 134.383 269.114 134.619L266.688 135.227C265.062 135.599 263.488 136.127 261.832 136.386L256.924 137.335C255.284 137.629 253.614 137.787 251.963 138.017C250.306 138.217 248.673 138.55 246.998 138.64L241.998 139.06L239.498 139.269C238.662 139.319 237.824 139.328 236.987 139.359C235.312 139.401 233.641 139.492 231.968 139.559L229.459 139.667C229.159 139.678 228.869 139.681 228.572 139.681C228.33 139.681 228.087 139.681 227.843 139.681C227.599 139.681 227.353 139.681 227.108 139.681H226.944C223.588 139.654 220.239 139.675 216.876 139.61L206.757 139.36L196.651 138.935C193.284 138.786 189.922 138.571 186.551 138.391L181.516 138.006C179.836 137.884 178.149 137.806 176.476 137.628L171.458 137.159C169.779 137.01 168.115 136.769 166.438 136.606L163.926 136.335L161.426 135.993C159.759 135.764 158.086 135.547 156.431 135.258C154.768 134.994 153.097 134.758 151.45 134.416L148.968 133.94L146.501 133.398C145.671 133.232 144.86 133.019 144.042 132.808C143.224 132.597 142.408 132.388 141.604 132.141C139.967 131.71 138.369 131.144 136.826 130.45C139.749 132.226 142.864 133.665 146.111 134.74L148.537 135.579L150.991 136.317C152.096 136.665 153.212 136.968 154.331 137.263C156.213 136.912 157.189 136.694 157.189 136.694C157.189 136.694 194.103 141.177 224.92 142.231C226.443 142.282 227.936 142.308 229.4 142.308C257.577 142.308 274.933 133.226 274.933 133.226C274.933 133.226 276.209 133.417 278.539 133.726L279.501 133.216C280.261 132.805 280.974 132.3 281.71 131.849C282.43 131.366 283.192 130.962 283.871 130.417L285.926 128.831C288.532 126.592 291.064 124.091 292.481 120.95" fill="#989FB3"/>
<path d="M425.596 112.476L425.646 112.482C434.324 113.721 442.996 114.948 451.632 116.337C457.109 117.201 462.585 118.1 467.972 119.23C470.321 119.745 472.721 120.255 474.911 120.948C474.548 121.019 474.175 121.083 473.8 121.142C471.18 121.537 468.436 121.732 465.7 121.889C462.964 122.046 460.205 122.165 457.447 122.244C451.924 122.405 446.387 122.45 440.847 122.453H424.206L420.032 122.443C418.57 122.521 417.087 122.493 415.644 122.669C414.201 122.845 412.738 122.963 411.33 123.246L409.199 123.618L407.11 124.085C401.552 125.385 396.238 127.073 390.923 128.585C385.616 130.126 380.29 131.481 374.943 132.652C369.582 133.789 364.175 134.677 358.722 135.317C355.998 135.629 353.26 135.837 350.522 136.074C347.775 136.214 345.044 136.435 342.279 136.509C337.006 136.674 331.729 136.76 326.448 136.765C320.66 136.765 314.871 136.648 309.08 136.414C303.712 136.202 298.342 135.901 292.98 135.48C302.702 136.546 315.588 137.749 329.713 138.508C332.669 138.666 335.58 138.738 338.427 138.738C354.305 138.727 370.117 136.68 385.475 132.647C385.475 132.647 410.41 125.011 430.604 125.011H431.559C451.668 125.011 477.723 123.922 477.473 120.923C477.221 117.881 445.483 114.311 445.483 114.311L425.597 112.475" fill="#989FB3"/>
<path d="M100.082 130.447C100.082 130.447 104.382 123.947 112.212 123.264C120.042 122.581 142.912 124.676 142.912 124.676C142.912 124.676 102.482 132.233 100.082 130.447Z" fill="white"/>
<path d="M185.743 118.907C185.743 118.907 167.67 113.885 173.361 97.0982C179.052 80.3112 200.652 89.3263 200.652 89.3263C200.652 89.3263 183.185 86.2442 177.505 98.8732C173.202 108.44 185.743 118.907 185.743 118.907Z" fill="white"/>
<path d="M221.373 127.774C221.373 127.774 225.796 103.691 247.526 96.212C269.256 88.733 285.177 111.48 285.177 111.48C285.177 111.48 269.577 97.518 249.321 103.945C243.323 105.881 237.767 108.983 232.97 113.072C228.174 117.161 224.233 122.158 221.373 127.774Z" fill="white"/>
<path d="M309.687 83.6621C309.687 83.6621 322.581 75.2871 333.187 85.8621C340.387 93.0421 339.887 105.139 339.887 105.139C339.887 105.139 335.97 93.8051 326.621 88.3541C317.139 82.8281 309.687 83.6621 309.687 83.6621Z" fill="white"/>
<path d="M361.241 88.6708C361.241 88.6708 386.004 75.1708 398.134 91.7708C404.982 101.146 397.248 113.699 383.225 118.008C369.202 122.317 395.86 113.361 393.332 98.9958C391.732 89.9338 381.096 86.8778 361.241 88.6708Z" fill="white"/>
<path d="M286.523 44.2924C286.523 44.2924 307.937 40.1564 314.488 50.1574C321.039 60.1584 316.342 68.4094 316.342 68.4094C316.342 68.4094 315.163 56.6924 305.056 51.9884C294.949 47.2844 276.416 46.0314 286.523 44.2924Z" fill="white"/>
<path d="M205.833 83.6609C205.833 83.6609 192.758 70.2969 195.556 51.0009C198.354 31.7049 211.897 18.2149 231.438 17.0309C235.464 16.725 239.51 17.2854 243.301 18.6745C247.093 20.0636 250.543 22.2491 253.419 25.0837C256.294 27.9184 258.53 31.3364 259.973 35.1076C261.417 38.8787 262.036 42.9155 261.788 46.946C260.582 61.4799 249.321 72.6099 249.321 72.6099C249.321 72.6099 266.93 37.4809 240.703 29.8759C220.741 24.0879 206.675 34.3349 202.803 51.9869C200.417 62.5984 201.478 73.6943 205.833 83.6609Z" fill="white"/>
<path d="M136.821 130.447C138.364 131.141 139.962 131.707 141.599 132.138C142.399 132.385 143.218 132.605 144.037 132.805C144.856 133.005 145.666 133.23 146.496 133.395L148.963 133.937L151.445 134.413C153.092 134.75 154.764 134.991 156.426 135.255C158.081 135.544 159.754 135.761 161.421 135.99L163.921 136.332L166.433 136.603C168.11 136.766 169.774 137.003 171.453 137.156L176.483 137.623C178.156 137.798 179.842 137.879 181.523 138.001L186.558 138.386C189.927 138.565 193.289 138.781 196.658 138.93L206.764 139.355L216.883 139.605C220.245 139.67 223.594 139.649 226.951 139.676C227.251 139.676 227.551 139.676 227.851 139.676C228.392 139.682 228.931 139.687 229.467 139.667L231.976 139.559C233.649 139.49 235.32 139.399 236.995 139.359C237.832 139.327 238.671 139.318 239.506 139.269L242.006 139.06L247.006 138.64C248.68 138.55 250.314 138.215 251.971 138.017C253.623 137.787 255.293 137.629 256.932 137.335L261.84 136.386C263.495 136.123 265.07 135.599 266.696 135.227L269.122 134.619C269.922 134.383 270.702 134.106 271.494 133.851C273.086 133.37 274.652 132.807 276.186 132.164L278.504 131.229C279.275 130.911 279.995 130.503 280.748 130.143C281.48 129.751 282.264 129.435 282.962 128.985L285.106 127.697C286.512 126.795 287.849 125.79 289.106 124.69C290.414 123.62 291.553 122.359 292.485 120.95C291.068 124.091 288.537 126.592 285.93 128.831L283.875 130.417C283.196 130.962 282.434 131.366 281.714 131.849C280.978 132.301 280.265 132.805 279.505 133.216L277.213 134.428C271.001 137.46 264.448 139.739 257.695 141.216C256.019 141.616 254.322 141.88 252.632 142.216L250.092 142.672C249.244 142.839 248.392 142.957 247.541 143.047L242.427 143.66L239.867 143.96C239.013 144.04 238.158 144.081 237.304 144.144C235.593 144.269 233.881 144.344 232.169 144.444L229.601 144.584C228.746 144.623 227.89 144.605 227.035 144.62C223.615 144.632 220.186 144.698 216.774 144.662C203.147 144.416 189.547 143.369 176.043 141.528C169.277 140.595 162.564 139.308 155.933 137.672C154.281 137.234 152.626 136.818 150.993 136.305L148.539 135.567L146.113 134.728C142.866 133.653 139.751 132.214 136.828 130.438" fill="#C4D8E8"/>
<path d="M280.509 97.6598C277.838 94.8231 274.777 92.3794 271.42 90.4018C268.207 88.4581 264.674 87.1019 260.986 86.3968C257.385 85.7131 253.688 85.711 250.086 86.3908C246.462 87.1097 242.953 88.3209 239.657 89.9908C238 90.8192 236.387 91.7341 234.826 92.7318C233.326 93.7544 231.908 94.8911 230.583 96.1318C227.938 98.7005 225.726 101.68 224.034 104.956C222.283 108.333 220.95 111.911 220.065 115.61C219.115 119.414 218.516 123.297 218.276 127.21C217.43 123.266 217.181 119.218 217.536 115.2C217.719 113.165 218.031 111.144 218.468 109.148C218.933 107.131 219.561 105.156 220.346 103.241C221.136 101.298 222.101 99.4314 223.228 97.6628C225.518 94.0744 228.506 90.982 232.013 88.5688C233.748 87.4097 235.56 86.3699 237.437 85.4568C241.187 83.5844 245.212 82.3228 249.36 81.7198C251.455 81.4334 253.575 81.3664 255.684 81.5198C257.791 81.6509 259.876 82.0199 261.9 82.6198C265.885 83.8087 269.589 85.7896 272.79 88.4438C275.931 90.9915 278.552 94.1205 280.509 97.6598Z" fill="#C4D8E8"/>
<path d="M275.91 133.691C286.934 135.162 298.01 135.974 309.079 136.412C320.148 136.874 331.226 136.853 342.279 136.507C345.044 136.433 347.779 136.207 350.522 136.072C353.258 135.834 355.996 135.626 358.722 135.315C364.171 134.681 369.578 133.792 374.943 132.65C380.298 131.47 385.624 130.115 390.923 128.583C396.238 127.07 401.553 125.383 407.11 124.083L409.199 123.616L411.33 123.244C412.738 122.961 414.199 122.834 415.644 122.667C417.089 122.5 418.57 122.519 420.032 122.441L424.206 122.452H440.847C446.39 122.452 451.927 122.404 457.447 122.243C460.206 122.163 462.957 122.044 465.7 121.888C468.436 121.731 471.18 121.536 473.8 121.141C474.451 121.041 475.091 120.923 475.691 120.78C476.199 120.675 476.694 120.514 477.167 120.301L477.213 120.29C477.065 120.462 476.971 120.673 476.942 120.898C476.914 121.077 476.927 121.259 476.978 121.433L477.073 121.689L477.148 121.802L477.171 121.841C477.286 121.969 477.249 121.927 477.229 121.904C476.775 121.63 476.293 121.407 475.79 121.24C473.226 120.416 470.615 119.744 467.972 119.228C462.585 118.099 457.109 117.2 451.632 116.335C440.676 114.573 429.664 113.07 418.653 111.477C429.77 111.95 440.864 112.79 451.953 113.865C457.495 114.443 463.028 115.085 468.574 115.96C471.411 116.369 474.216 116.976 476.969 117.776C477.794 118.022 478.585 118.37 479.323 118.814C479.637 119.023 479.918 119.279 480.154 119.573L480.26 119.712L480.391 119.942C480.47 120.101 480.537 120.266 480.591 120.436C480.684 120.778 480.704 121.136 480.651 121.487C480.622 121.662 480.578 121.835 480.52 122.003C480.462 122.141 480.396 122.274 480.32 122.403C480.196 122.615 480.045 122.811 479.87 122.984C479.632 123.218 479.367 123.421 479.079 123.589C478.315 124.011 477.498 124.331 476.651 124.541C475.907 124.741 475.184 124.901 474.468 125.041C468.891 125.939 463.263 126.488 457.618 126.684C452.035 126.967 446.462 127.131 440.893 127.255C435.324 127.379 429.758 127.378 424.198 127.406L420.039 127.426C418.729 127.515 417.423 127.485 416.109 127.659C414.795 127.833 413.484 127.938 412.168 128.215L410.195 128.573L408.22 129.025C402.942 130.216 397.638 131.853 392.257 133.347C386.876 134.841 381.418 136.256 375.89 137.347C364.836 139.478 353.599 140.519 342.342 140.454C331.172 140.464 320.027 139.942 308.908 138.888C297.806 137.882 286.782 136.148 275.908 133.697" fill="#C4D8E8"/>
<path d="M170.792 121.645C168.124 119.88 165.738 117.723 163.716 115.245C161.574 112.72 159.917 109.822 158.828 106.696C157.683 103.399 157.422 99.8598 158.069 96.4305C158.784 93.0049 160.293 89.7949 162.475 87.0585C163.516 85.7255 164.664 84.48 165.908 83.3345L166.837 82.4945C167.186 82.2065 167.537 81.9255 167.9 81.6485C168.633 81.1201 169.401 80.643 170.2 80.2205C173.337 78.6509 176.82 77.9012 180.325 78.0415C183.623 78.155 186.883 78.7891 189.983 79.9205C193.017 80.9795 195.882 82.4701 198.491 84.3465C195.465 83.6426 192.405 83.0929 189.324 82.6995C186.382 82.3046 183.407 82.2151 180.446 82.4325C177.691 82.6204 175.005 83.3774 172.557 84.6555C171.98 84.9719 171.426 85.327 170.898 85.7185C170.647 85.9295 170.39 86.1315 170.128 86.3295L169.312 87.0505C168.253 88.0185 167.26 89.0568 166.341 90.1585C164.541 92.2793 163.212 94.7579 162.441 97.4305C161.737 100.147 161.684 102.99 162.286 105.731C163.506 111.403 166.773 116.831 170.786 121.637" fill="#C4D8E8"/>
<path d="M200.746 85.8609C193.698 80.6145 188.112 73.6492 184.522 65.6299C182.744 61.5189 181.626 57.1532 181.209 52.6939C180.851 48.1853 181.236 43.6486 182.349 39.2649C184.562 30.505 188.94 22.4409 195.079 15.8119C201.328 9.19338 209.26 4.40071 218.026 1.94788C226.826 -0.485209 236.144 -0.302089 244.842 2.47488C253.449 5.32384 261.089 10.5188 266.904 17.4749C269.793 20.9213 272.143 24.7846 273.877 28.9339C275.571 33.0756 276.592 37.4617 276.902 41.9259C277.367 50.7344 275.275 59.4895 270.877 67.1359C274.077 59.1429 275.7 50.4909 274.456 42.1769C273.285 33.9059 269.619 26.189 263.947 20.0569C258.385 13.963 251.295 9.46704 243.412 7.03489C235.578 4.66858 227.23 4.59915 219.358 6.83488C211.44 8.99925 204.251 13.2556 198.546 19.1569C195.67 22.1013 193.173 25.3934 191.113 28.9569C189.075 32.5612 187.43 36.3741 186.207 40.3299C183.807 48.3171 184.04 56.8646 186.873 64.7089C188.277 68.7006 190.183 72.4977 192.544 76.0089C193.719 77.7924 194.992 79.509 196.358 81.1509C197.712 82.8189 199.178 84.3926 200.746 85.8609Z" fill="#C4D8E8"/>
<path d="M274.927 35.8601C281.022 32.5131 287.77 30.5246 294.706 30.0311C296.472 29.906 298.245 29.8983 300.012 30.0081C301.804 30.1034 303.585 30.3405 305.34 30.7171C307.119 31.0892 308.865 31.608 310.559 32.2681C312.266 32.9491 313.906 33.786 315.459 34.7681C317.018 35.7462 318.482 36.8696 319.83 38.1231C321.143 39.3437 322.374 40.6492 323.516 42.0311C324.667 43.4199 325.706 44.8971 326.625 46.4491C327.558 47.9995 328.348 49.6316 328.986 51.3251C331.576 58.0532 331.609 65.8151 328.512 72.0071C329.628 63.8648 327.592 55.6036 322.821 48.9121C322.377 48.2581 321.877 47.6401 321.403 47.0121C320.882 46.4121 320.397 45.7861 319.844 45.2121C318.776 44.0285 317.645 42.9036 316.455 41.8421C315.863 41.3241 315.279 40.8421 314.669 40.3621C314.032 39.9281 313.436 39.4391 312.769 39.0471C307.582 35.6811 301.231 34.2391 294.759 33.9541C291.469 33.8101 288.172 33.9198 284.899 34.2821C281.548 34.6209 278.219 35.1477 274.927 35.8601Z" fill="#C4D8E8"/>
<path d="M306.884 79.1256C308.397 76.8432 310.298 74.8426 312.499 73.2136C314.752 71.4996 317.3 70.2117 320.016 69.4136C322.842 68.5906 325.814 68.3944 328.724 68.8386C331.634 69.3143 334.423 70.3505 336.938 71.8896C338.243 72.7035 339.442 73.6778 340.505 74.7896C341.526 75.907 342.414 77.1389 343.151 78.4606C344.52 81.017 345.417 83.7996 345.798 86.6746C346.183 89.4206 346.228 92.2036 345.932 94.9606C345.667 97.667 345.07 100.331 344.155 102.892C343.968 97.6978 343.205 92.5409 341.88 87.5156C340.5 82.7406 338.1 78.4856 334.316 76.2066C332.322 74.9719 330.143 74.066 327.861 73.5236C325.56 73.0126 323.185 72.9228 320.852 73.2586C315.812 74.1306 311.035 76.1368 306.884 79.1256Z" fill="#C4D8E8"/>
<path d="M17.2709 137.609C14.7159 137.367 12.1559 137.133 9.60895 136.793C8.33395 136.627 7.05791 136.454 5.77991 136.257C4.46995 136.069 3.17257 135.802 1.8949 135.457L2.46594 133.638C8.66594 134.826 14.996 135.731 21.299 136.472C27.5989 137.279 33.9369 137.812 40.2629 138.36C46.5959 138.846 52.9369 139.169 59.2799 139.471C65.6286 139.694 71.9756 139.819 78.321 139.847C84.674 139.895 91.035 139.723 97.4 139.653C100.582 139.56 103.767 139.507 106.95 139.377C110.135 139.302 113.321 139.213 116.507 139.088L154.807 137.602C142.212 139.986 129.497 141.602 116.745 142.823C113.556 143.123 110.363 143.395 107.168 143.651C103.968 143.889 100.768 144.051 97.5679 144.251C91.1679 144.6 84.7499 144.808 78.3249 144.831C71.9009 144.939 65.4639 144.703 59.0479 144.4C52.6269 144.079 46.2199 143.516 39.8319 142.8C27.0284 141.432 14.3635 138.983 1.9729 135.479L2.54193 133.66C3.61693 134.094 4.88193 134.426 6.09393 134.776C7.30593 135.126 8.55795 135.439 9.79395 135.753L17.2709 137.609Z" fill="#C4D8E8"/>
<path d="M190.728 123.407C174.745 123.738 158.78 123.467 142.819 122.794L136.831 122.533L130.842 122.175C128.842 122.032 126.85 121.918 124.847 121.752L121.847 121.516C120.895 121.457 119.947 121.382 118.998 121.374C115.301 121.173 111.597 121.641 108.066 122.755C104.571 124.063 101.315 125.939 98.429 128.305C96.6896 129.686 94.7694 130.823 92.7219 131.684C92.1449 131.901 91.553 132.078 90.9509 132.211C90.3711 132.34 89.782 132.423 89.189 132.458C88.126 132.529 87.037 132.613 86.051 132.624C81.994 132.724 78.016 132.693 74.012 132.68C66.021 132.656 58.041 132.463 50.062 132.251C34.108 131.777 18.162 131.129 2.224 129.998C18.184 129.257 34.134 128.905 50.079 128.583L73.979 128.14C77.95 128.05 81.948 127.974 85.861 127.774C86.868 127.754 87.769 127.674 88.692 127.604C89.0946 127.585 89.4943 127.527 89.886 127.432C90.2569 127.345 90.6211 127.232 90.976 127.093C92.5927 126.362 94.1058 125.42 95.476 124.293C97.1118 123.013 98.811 121.817 100.567 120.708C102.44 119.586 104.433 118.68 106.51 118.008C110.615 116.751 114.915 116.254 119.198 116.54C120.248 116.591 121.282 116.71 122.317 116.814L125.27 117.138C127.237 117.361 129.22 117.538 131.194 117.738L143.081 118.838C158.945 120.239 174.845 121.617 190.728 123.407Z" fill="#C4D8E8"/>
<path d="M347.352 94.2903C348.994 90.6033 351.199 87.1937 353.887 84.1833C356.585 81.0699 359.756 78.3991 363.282 76.2683C366.898 74.084 370.9 72.6138 375.071 71.9373C377.173 71.6252 379.3 71.5074 381.424 71.5853C383.505 71.7195 385.576 71.9867 387.624 72.3853C391.738 73.1632 395.705 74.5835 399.378 76.5943C403.075 78.656 406.3 81.4678 408.846 84.8493C411.326 88.1845 413.109 91.985 414.089 96.0243C415.093 99.9413 415.345 104.014 414.829 108.024C414.413 104.139 413.443 100.334 411.948 96.7243C411.217 94.9717 410.354 93.2771 409.366 91.6553C408.373 90.0767 407.241 88.5895 405.985 87.2113C404.753 85.8452 403.384 84.6091 401.9 83.5223C400.435 82.4242 398.869 81.4666 397.224 80.6623C393.89 79.0592 390.347 77.9315 386.7 77.3123C384.879 76.9802 383.04 76.7545 381.193 76.6363C379.382 76.5643 377.568 76.6312 375.767 76.8363C372.126 77.3137 368.587 78.3814 365.289 79.9973C358.552 83.2253 352.577 88.3313 347.352 94.2903Z" fill="#C4D8E8"/>
</g>
</svg>
