<svg width="331" height="139" viewBox="0 0 331 139" fill="none" xmlns="http://www.w3.org/2000/svg">
<g opacity="0.5">
<path d="M321.648 123.769C313.699 124.947 304.848 124.779 297.486 124.614C291.493 124.477 286.486 124.341 283.771 124.932C277.718 126.254 258.571 132.571 241.694 133.587C228.711 134.476 215.673 134.074 202.77 132.387C193.07 131.1 188.526 130.321 188.526 130.321C188.526 130.321 177.318 136.715 147.848 136.296C118.378 135.877 108.486 132.602 108.486 132.602C108.486 132.602 84.1606 138.002 47.2956 136.478C10.4306 134.954 13.1956 133.347 13.1956 133.347C13.1956 133.347 -0.3194 131.364 0.0275998 129.854C0.3746 128.344 1.7546 128.003 8.5776 128.08C14.8466 128.157 48.9996 128.024 54.4296 128.003C54.9006 127.997 55.1566 127.997 55.1566 127.997L85.5016 117.464C85.5016 117.464 99.3156 115.273 99.7666 115.293C100.218 115.313 110.8 116.97 110.8 116.97C110.8 116.97 102.167 107.488 109.35 97.8018C111.21 95.1194 113.945 93.1678 117.087 92.2818C120.229 91.3957 123.581 91.6305 126.569 92.9458C125.092 92.1888 109.769 83.9308 109.35 65.6198C108.895 46.3658 124.255 33.1608 139.575 30.4248C154.684 27.7328 168.518 36.6858 168.893 36.9298C168.024 34.9638 167.918 32.7447 168.596 30.705C169.274 28.6653 170.688 26.9512 172.561 25.8968C179.399 21.5478 185.404 27.5808 185.404 27.5808C185.404 27.5808 179.566 7.0908 203.864 2.2078C228.162 -2.6752 227.192 25.0688 227.192 25.0688C228.532 23.8425 230.246 23.1019 232.058 22.9657C233.87 22.8295 235.675 23.3057 237.185 24.3178C242.961 27.8098 236.248 34.9898 236.248 34.9898C241.583 34.7219 246.902 35.7924 251.718 38.1039C256.535 40.4154 260.697 43.8945 263.827 48.2248C275.097 63.2938 264 81.5008 254.75 88.9248C249.599 93.0578 250.174 92.0158 254.319 90.9738C259.426 89.6888 264.777 89.726 269.867 91.0818C279.804 93.6898 283.3 103.282 284.528 109.573C284.907 111.457 285.129 113.37 285.192 115.291C285.192 115.291 309.153 117.205 317.328 118.729C325.503 120.253 336.065 121.637 321.648 123.772" fill="#F5F5FF"/>
<path opacity="0.5" d="M284.529 109.571C282.261 109.627 280 109.85 277.766 110.238C266.031 112.531 260.827 128.306 237.522 128.306C237.417 128.306 237.307 128.306 237.2 128.306C213.622 128.154 214.662 119.757 205.843 119.406C205.697 119.4 205.543 119.397 205.393 119.397C196.074 119.397 167.916 129.519 150.864 131.121C148.772 131.321 146.538 131.403 144.178 131.403C136.744 131.403 128.066 130.56 118.663 129.718C109.26 128.876 99.1306 128.033 88.7906 128.033C85.5746 128.033 82.3336 128.114 79.0906 128.303C76.6516 128.446 73.9456 128.511 71.0376 128.511C65.9876 128.511 60.3316 128.317 54.4256 127.998C50.1956 128.015 28.5456 128.098 16.2136 128.098C12.7136 128.098 9.9596 128.09 8.5726 128.074C7.9916 128.068 7.4506 128.063 6.9466 128.063C1.5226 128.063 0.3406 128.463 0.0226004 129.847C0.018397 129.865 0.0163833 129.883 0.0166018 129.901C-0.00939823 131.401 13.1906 133.34 13.1906 133.34C13.1771 133.348 13.1659 133.36 13.1577 133.373C13.1495 133.387 13.1447 133.402 13.1436 133.418C13.1436 133.758 15.2486 135.145 47.2936 136.47C51.8536 136.658 56.2166 136.741 60.3706 136.741C89.8016 136.741 108.485 132.594 108.485 132.594C108.485 132.594 118.375 135.878 147.847 136.288C148.779 136.302 149.69 136.308 150.588 136.308C178.012 136.308 188.526 130.313 188.526 130.313C188.526 130.313 193.074 131.092 202.77 132.379C211.062 133.489 219.421 134.035 227.788 134.016C232.055 134.016 236.675 133.885 241.694 133.584C258.573 132.568 277.718 126.251 283.771 124.929C285.952 124.572 288.162 124.426 290.371 124.492C292.488 124.492 294.896 124.552 297.49 124.611C300.084 124.67 302.861 124.728 305.719 124.728C311.046 124.791 316.371 124.47 321.652 123.766C326.834 123 328.788 122.329 328.788 121.715C328.788 120.62 322.57 119.703 317.332 118.723C309.157 117.199 285.196 115.285 285.196 115.285C285.133 113.364 284.911 111.451 284.532 109.567" fill="#D3D3F0"/>
<path opacity="0.5" d="M203.726 90.2261C201.246 88.5027 198.621 86.997 195.882 85.7261C198.714 86.8093 201.361 88.3275 203.726 90.2261ZM206.872 40.5261C202.468 40.5186 198.109 41.404 194.057 43.1288C190.005 44.8536 186.345 47.3819 183.298 50.5611C173.351 61.3081 175.07 81.4471 175.07 81.4471H178.428C179.952 81.6131 181.399 81.8161 182.772 82.0471C181.736 81.9477 180.684 81.8974 179.617 81.8961C175.94 81.8896 172.291 82.5356 168.84 83.8041C154.625 89.0221 149.823 112.919 149.823 112.919C149.823 112.919 154.851 95.8401 171.323 89.6291C174.69 88.3664 178.259 87.7276 181.855 87.7441C196.413 87.7441 208.597 97.5811 208.597 97.5811C204.956 77.6671 181.205 77.3171 181.205 77.3171C181.205 77.3171 180.859 68.2731 189.526 54.8801C194.399 47.3521 205.021 45.7051 213.39 45.7051C217.303 45.7027 221.21 46.0373 225.066 46.7051C219.876 42.6456 213.462 40.4675 206.874 40.5271" fill="#D3D3F0"/>
<path d="M189.748 9.1958C185.773 12.4198 184.648 16.8078 184.824 21.0868C184.983 16.6603 186.731 12.4392 189.748 9.1958Z" fill="#E4E4F0"/>
<path opacity="0.5" d="M205.828 2.7124C201.18 2.7124 195.804 4.5514 190.074 8.9364C189.963 9.0224 189.854 9.1084 189.747 9.1954C186.73 12.439 184.982 16.6605 184.823 21.0874C185.135 28.5814 189.443 35.7464 189.443 35.7464C186.067 23.6294 187.958 11.4354 200.908 8.3274C202.223 8.00763 203.572 7.84483 204.926 7.8424C215.509 7.8424 221.943 18.0664 221.943 18.0664C221.03 9.5204 214.775 2.7134 205.828 2.7134" fill="#D3D3F0"/>
<path d="M111.873 95.0449C111.139 95.607 110.492 96.2738 109.952 97.0239C110.535 96.3114 111.178 95.6494 111.873 95.0449ZM109.34 64.3069C108.093 75.0449 114.64 86.4069 123.472 92.0259C124.533 92.2176 125.57 92.5247 126.565 92.9419C125.088 92.1849 109.765 83.9269 109.346 65.6159C109.337 65.1759 109.334 64.7409 109.34 64.3069ZM133.591 32.0299C117.737 36.5889 112.786 45.9759 110.736 55.1889C114.157 43.8609 123.409 35.6889 133.591 32.0339V32.0299ZM148.119 29.8109C147.108 29.8109 146.067 29.8499 144.997 29.9279H145.397C158.067 29.9279 168.569 36.7279 168.897 36.9379C168.882 36.9059 168.834 36.7979 168.769 36.6259C162.86 32.0762 155.579 29.6738 148.123 29.8139" fill="#E4E4F0"/>
<path opacity="0.5" d="M145.402 29.9214H145.002C143.654 30.0207 142.257 30.1874 140.813 30.4214C138.378 30.8137 135.968 31.348 133.596 32.0214C123.414 35.6734 114.162 43.8484 110.741 55.1764C110.121 58.1812 109.657 61.2159 109.35 64.2684V64.2984C109.344 64.7324 109.35 65.1674 109.356 65.6074C109.779 83.9184 125.098 92.1764 126.575 92.9334C125.58 92.5163 124.543 92.2091 123.482 92.0174C124.836 92.8836 126.271 93.6158 127.768 94.2034C125.023 93.2002 122.134 92.649 119.213 92.5714C117.105 92.4903 115.019 93.0176 113.203 94.0904C112.703 94.4124 112.268 94.7284 111.882 95.0364C111.183 95.6444 110.538 96.3104 109.952 97.0274C108.532 99.0794 109.345 100.453 109.345 100.453C109.345 100.453 115.302 97.4274 121.254 97.4274C121.996 97.4251 122.737 97.4765 123.472 97.5814C127.122 98.2124 130.818 98.5448 134.523 98.5754C139.291 98.5063 144.051 98.1745 148.783 97.5814C148.783 97.5814 123.125 93.1454 118.444 74.8814C113.925 57.2484 124.217 35.6624 150.423 35.6624C151.356 35.6624 152.312 35.6901 153.29 35.7454C166.99 36.5344 178.415 48.5374 178.415 48.5374C176.177 43.8632 172.872 39.7804 168.766 36.6184C168.831 36.7904 168.879 36.8984 168.894 36.9304C168.569 36.7194 158.067 29.9204 145.394 29.9204" fill="#D3D3F0"/>
<path d="M239.048 34.9417L241.804 35.7907H241.81C240.905 35.4561 239.983 35.172 239.048 34.9397" fill="#D3D3F0"/>
<path d="M281.604 100.909C282.004 101.684 282.364 102.471 282.682 103.254C283.087 103.76 283.447 104.301 283.757 104.87C283.161 103.487 282.44 102.161 281.604 100.909ZM255.317 88.4554C255.127 88.6147 254.938 88.7697 254.751 88.9204C251.91 91.1994 250.811 91.9094 251.09 91.9094C251.514 91.8125 251.932 91.6882 252.341 91.5374L255.317 88.4594V88.4554ZM267.717 55.9794C268.952 60.5756 268.859 65.4278 267.449 69.9734C269.026 66.0024 269.89 61.9614 268.837 58.8864C268.516 57.9464 268.137 56.9724 267.717 55.9804V55.9794ZM248.325 36.7144C253.541 38.5291 258.2 41.6594 261.852 45.8024C258.375 41.1874 254.147 37.5384 249.867 36.9334L248.325 36.7154" fill="#E4E4F0"/>
<path opacity="0.5" d="M241.809 35.7928C246.309 37.4158 254.998 41.6018 257.655 50.3588C261.296 62.3588 253.93 76.6518 238.889 76.7238H238.72C223.808 76.7238 218.474 67.2028 218.474 67.2028C218.474 67.2028 224.146 82.3238 241.437 82.3238C243.976 82.3082 246.507 82.0145 248.983 81.4478C251.158 80.8869 253.382 80.536 255.625 80.3998C263.764 80.3998 239.136 93.4538 237.194 108.45C237.194 108.45 247.794 94.4588 261.984 94.4588C263.678 94.4596 265.366 94.661 267.013 95.0588C276.262 97.2818 280.624 100.677 282.677 103.254C282.359 102.471 282.002 101.685 281.599 100.909C278.605 96.4288 272.874 91.0528 262.609 91.0528C262.419 91.0528 262.228 91.0528 262.035 91.0588C258.551 91.0315 255.076 91.4176 251.684 92.2088L252.336 91.5338C251.927 91.6847 251.509 91.8089 251.085 91.9058C250.806 91.9058 251.906 91.1998 254.746 88.9208C254.934 88.7701 255.122 88.6151 255.312 88.4558L258.965 84.6758C262.356 80.1214 265.201 75.1854 267.444 69.9688C268.854 65.4232 268.947 60.5711 267.712 55.9748C266.165 52.3648 264.198 48.9496 261.852 45.7998C258.2 41.6568 253.541 38.5266 248.325 36.7118L241.809 35.7898" fill="#D3D3F0"/>
<path d="M283.757 104.868C284.041 105.513 284.285 106.176 284.486 106.853C284.361 106.153 284.114 105.481 283.757 104.868Z" fill="#E4E4F0"/>
<path d="M107.757 111.998C108.018 113.373 108.711 114.63 109.734 115.586C108.953 114.461 108.29 113.259 107.757 111.998Z" fill="#E4E4F0"/>
<path opacity="0.5" d="M107.523 107.931C107.523 107.931 106.714 107.931 107.755 111.989V112.003C108.288 113.264 108.951 114.467 109.732 115.591C111.274 116.948 113.865 117.767 118.57 118.991C124.41 120.685 130.107 122.842 135.605 125.442C131.653 121.308 126.892 118.032 121.62 115.817C116.588 113.831 111.846 111.18 107.52 107.933" fill="#D3D3F0"/>
<path d="M131.432 123.471C126.177 121.747 120.878 120.214 115.52 119.014C112.846 118.406 110.162 117.845 107.462 117.451C106.79 117.335 106.114 117.251 105.44 117.165C104.766 117.079 104.094 116.965 103.418 116.909L101.394 116.709C100.724 116.658 100.082 116.683 99.4266 116.665L98.4506 116.65L97.4596 116.74L95.4826 116.919L93.5026 117.241C92.8416 117.341 92.1816 117.447 91.5236 117.61C90.2076 117.901 88.8896 118.178 87.5846 118.56L85.6236 119.096L83.6746 119.704C78.4746 121.317 73.3436 123.243 68.2186 125.274C65.6456 126.262 63.0686 127.266 60.4256 128.213C59.0545 128.726 57.6516 129.149 56.2256 129.481C55.4767 129.637 54.7154 129.727 53.9506 129.749C53.2206 129.794 52.5396 129.794 51.8316 129.812C49.0396 129.851 46.2756 129.833 43.5076 129.812C40.7396 129.791 37.9786 129.732 35.2146 129.654C24.1666 129.365 13.1276 128.868 2.0976 127.993C13.1476 127.421 24.1896 127.16 35.2226 126.939C40.7326 126.781 46.2666 126.769 51.7276 126.525C53.0157 126.513 54.3009 126.402 55.5716 126.191C56.8314 125.876 58.0704 125.484 59.2816 125.016C61.8296 124.076 64.3876 123.045 66.9646 122.036C72.1326 120.06 77.3546 118.109 82.7376 116.559L84.7596 115.993L86.8086 115.493C88.1666 115.139 89.5616 114.886 90.9476 114.624C91.6356 114.476 92.3416 114.382 93.0476 114.296L95.1646 114.028L97.3196 113.938L98.3946 113.896L99.4876 113.962C100.211 114.015 100.952 114.031 101.655 114.12L103.742 114.42C105.124 114.656 106.508 114.888 107.868 115.212C110.601 115.807 113.29 116.549 115.948 117.365C121.254 119.011 126.43 121.052 131.432 123.471Z" fill="#C4D8E8"/>
<path d="M109.314 115.273C108.109 113.828 107.166 112.185 106.525 110.418C105.837 108.596 105.486 106.665 105.49 104.718C105.498 102.692 105.945 100.692 106.802 98.8567C107.677 97.0296 108.897 95.3892 110.396 94.0257C111.184 93.3217 112.057 92.7197 112.996 92.2337C113.926 91.7768 114.906 91.4294 115.917 91.1987C117.858 90.7902 119.857 90.738 121.817 91.0447C123.693 91.3227 125.528 91.833 127.279 92.5637C129.004 93.2637 130.635 94.1746 132.137 95.2757C128.694 94.391 125.164 93.894 121.611 93.7937C118.211 93.7787 114.954 94.5357 112.725 96.5937C111.526 97.6708 110.509 98.9336 109.712 100.334C108.929 101.754 108.41 103.304 108.178 104.91C107.771 108.405 108.159 111.948 109.314 115.273Z" fill="#C4D8E8"/>
<path d="M150.265 97.4484C146.963 97.8768 143.624 97.9335 140.31 97.6174C136.961 97.3219 133.657 96.6435 130.463 95.5954C127.225 94.5193 124.162 92.975 121.372 91.0114C118.559 88.9977 116.113 86.5164 114.14 83.6754C112.182 80.8294 110.634 77.7228 109.54 74.4464C109.251 73.6314 109.04 72.7914 108.796 71.9604C108.606 71.1144 108.377 70.2754 108.248 69.4154C107.454 65.1119 107.524 60.6937 108.453 56.4175C109.383 52.1413 111.153 48.0925 113.661 44.5064C117.664 38.7843 123.214 34.3203 129.661 31.6364C136.023 29.0067 142.929 27.9614 149.785 28.5904C153.189 28.8882 156.54 29.6351 159.749 30.8114C162.945 32.0007 165.95 33.6537 168.666 35.7174C174.007 39.884 177.95 45.582 179.966 52.0494C177.363 46.0068 173.102 40.8246 167.677 37.1024C162.286 33.5632 156.034 31.5553 149.591 31.2934C146.399 31.1424 143.2 31.3436 140.052 31.8934C136.919 32.451 133.864 33.3806 130.952 34.6624C125.126 37.1685 120.123 41.2649 116.518 46.4824C111.982 53.0097 110.137 61.0345 111.367 68.8874C111.467 69.6704 111.658 70.4394 111.81 71.2154C112.01 71.9804 112.186 72.7524 112.435 73.5074C112.684 74.2624 112.918 75.0194 113.218 75.7554C113.485 76.5054 113.826 77.2264 114.144 77.9554C114.462 78.6844 114.844 79.3894 115.194 80.1104C115.572 80.8044 115.959 81.4944 116.394 82.1584C119.924 87.539 125.053 91.6768 131.059 93.9894C134.08 95.2161 137.225 96.1107 140.44 96.6574C142.053 96.9464 143.685 97.1574 145.325 97.2854C146.967 97.4391 148.616 97.4935 150.265 97.4484Z" fill="#C4D8E8"/>
<path d="M193.245 39.8158C189.888 37.3612 187.155 34.1519 185.267 30.4468C184.803 29.4914 184.403 28.507 184.067 27.4998C183.742 26.4744 183.493 25.4266 183.323 24.3648C183.011 22.2026 183.082 20.0026 183.531 17.8648C184.449 13.5504 186.724 9.64296 190.023 6.71378C191.643 5.25961 193.449 4.02624 195.394 3.04578C197.333 2.08014 199.381 1.35059 201.494 0.872784C205.761 -0.123004 210.221 0.0755875 214.384 1.44678C218.548 2.91866 222.109 5.72553 224.514 9.43078C226.865 13.037 228.114 17.2506 228.108 21.5558C228.08 25.7256 226.982 29.8185 224.92 33.4428C226.282 29.6678 226.796 25.639 226.426 21.6428C226.045 17.7842 224.625 14.1009 222.318 10.9848C220.063 7.96863 216.93 5.72507 213.349 4.56278C209.737 3.5018 205.912 3.39841 202.249 4.26278C198.55 5.06903 195.104 6.76425 192.208 9.20178C189.32 11.6318 187.229 14.8742 186.208 18.5078C185.219 22.2275 185.448 26.1662 186.863 29.7458C188.31 33.488 190.478 36.9095 193.245 39.8158Z" fill="#C4D8E8"/>
<path d="M168.309 36.5357C167.747 35.351 167.436 34.0625 167.398 32.7517C167.336 31.3692 167.572 29.9895 168.092 28.7067C168.649 27.3586 169.527 26.1668 170.65 25.2347C171.754 24.3213 173.029 23.6373 174.401 23.2227C175.749 22.7736 177.17 22.5829 178.59 22.6607C180.071 22.7405 181.504 23.2134 182.743 24.0307C183.922 24.8217 184.877 25.9036 185.517 27.1717C186.131 28.3496 186.458 29.6563 186.47 30.9847C185.258 29.0232 183.498 27.459 181.409 26.4847C179.466 25.8205 177.354 25.8364 175.422 26.5297C173.411 27.0437 171.648 28.2532 170.445 29.9437C169.202 31.9321 168.468 34.1962 168.309 36.5357Z" fill="#C4D8E8"/>
<path d="M227.303 36.5358C231.435 34.9328 235.831 34.1187 240.264 34.1358C244.801 34.1084 249.288 35.0951 253.396 37.0238C255.473 38.0055 257.421 39.2395 259.196 40.6978C260.956 42.1728 262.56 43.8256 263.981 45.6298L265.006 47.0078C265.348 47.4688 265.628 47.9658 265.941 48.4448C266.579 49.3948 267.09 50.4118 267.641 51.4068C267.926 51.8958 268.13 52.4578 268.377 52.9808C268.6 53.5198 268.883 54.0318 269.053 54.5938C269.866 56.8039 270.354 59.1204 270.502 61.4708C270.532 62.0578 270.511 62.6488 270.516 63.2358C270.516 63.5298 270.522 63.8248 270.504 64.1178L270.418 64.9928C270.218 67.3162 269.697 69.6006 268.87 71.7808C268.068 73.925 267.051 75.9819 265.833 77.9198C264.655 79.8421 263.32 81.6631 261.841 83.3638C258.938 86.7314 255.686 89.7818 252.141 92.4638C248.656 95.1462 244.925 97.4924 240.998 99.4708C244.513 96.9074 247.868 94.1315 251.045 91.1588C252.625 89.6848 254.17 88.1758 255.608 86.5778C257.064 85.0105 258.44 83.3711 259.732 81.6658C262.322 78.3529 264.363 74.6449 265.776 70.6838L266.026 69.9518L266.226 69.2098C266.351 68.7098 266.511 68.2238 266.61 67.7238L266.88 66.2238C266.98 65.7238 266.98 65.2148 267.041 64.7118L267.107 63.9548C267.121 63.7038 267.107 63.4548 267.107 63.1988C267.095 62.6988 267.107 62.1888 267.078 61.6858C266.999 60.6807 266.851 59.6823 266.634 58.6978C266.438 57.7055 266.17 56.7286 265.834 55.7748C265.666 55.2947 265.474 54.8234 265.259 54.3628C265.044 53.8978 264.887 53.4198 264.627 52.9628C263.686 51.1012 262.598 49.3175 261.374 47.6288C258.953 44.2505 255.81 41.454 252.174 39.4428C248.461 37.4379 244.377 36.2128 240.174 35.8428C235.873 35.4114 231.532 35.6452 227.303 36.5358Z" fill="#C4D8E8"/>
<path d="M227.303 24.3217C228.69 22.7691 230.568 21.7386 232.623 21.4017C233.768 21.2012 234.945 21.2962 236.043 21.6777C237.207 22.0799 238.233 22.8047 239.002 23.7677C239.394 24.2458 239.726 24.7705 239.991 25.3297C240.226 25.9177 240.378 26.5357 240.443 27.1657C240.558 28.3458 240.348 29.5348 239.835 30.6037C238.959 32.5002 237.449 34.032 235.566 34.9357C236.322 33.2849 236.884 31.5516 237.239 29.7707C237.294 29.3962 237.324 29.0183 237.328 28.6397C237.317 28.3024 237.27 27.9672 237.188 27.6397C237.117 27.3382 237.014 27.0449 236.882 26.7647C236.725 26.4827 236.538 26.2182 236.325 25.9757L236.001 25.5757C235.881 25.4677 235.751 25.3757 235.634 25.2607C235.518 25.1478 235.388 25.0509 235.247 24.9727C235.115 24.8766 234.973 24.7958 234.823 24.7317C234.512 24.5746 234.188 24.4435 233.856 24.3397C233.482 24.2468 233.103 24.175 232.722 24.1247C230.914 23.9842 229.096 24.0503 227.303 24.3217Z" fill="#C4D8E8"/>
<path d="M175.352 80.6854C174.656 77.5926 174.339 74.4268 174.406 71.2574C174.45 68.0442 174.88 64.848 175.687 61.7374C175.878 60.9514 176.13 60.1784 176.369 59.4004C176.646 58.6354 176.914 57.8644 177.25 57.1174C177.884 55.5992 178.65 54.1395 179.54 52.7554C180.431 51.3564 181.447 50.0411 182.576 48.8254C183.159 48.2324 183.732 47.6254 184.371 47.0954C184.984 46.5294 185.648 46.0294 186.31 45.5274C186.972 45.0254 187.694 44.6044 188.387 44.1554L190.543 43.0054L191.626 42.4424C191.987 42.2554 192.379 42.1274 192.752 41.9664L195.024 41.0664C198.116 40.0248 201.342 39.4344 204.603 39.3134C207.829 39.2368 211.05 39.6382 214.159 40.5044C217.228 41.3343 220.13 42.6904 222.736 44.5124C219.87 43.3591 216.871 42.5738 213.808 42.1754C210.818 41.7596 207.79 41.7079 204.788 42.0214C201.835 42.3987 198.935 43.1182 196.149 44.1654L194.109 45.0584C193.772 45.2124 193.419 45.3344 193.094 45.5144L192.12 46.0594L190.159 47.1254C189.551 47.5304 188.924 47.9044 188.346 48.3454C183.612 51.9304 180.093 56.8821 178.264 62.5314C177.265 65.4133 176.539 68.3822 176.094 71.3994C175.614 74.4718 175.366 77.5759 175.352 80.6854Z" fill="#C4D8E8"/>
<path d="M150.866 110.235C150.98 107.235 151.479 104.263 152.351 101.391C153.218 98.4711 154.452 95.6733 156.025 93.0649C157.615 90.3897 159.643 88.0005 162.025 85.9969C164.448 83.9745 167.23 82.4247 170.225 81.4279L171.356 81.0949L171.922 80.9309L172.487 80.8149L174.752 80.3529C175.508 80.203 176.273 80.1028 177.042 80.0529C177.81 79.9909 178.575 79.8799 179.342 79.8619C182.424 79.7805 185.503 80.1213 188.494 80.8749C191.442 81.6611 194.265 82.8606 196.878 84.4379C199.47 85.9683 201.786 87.9255 203.727 90.2269C201.367 88.5038 198.811 87.069 196.111 85.9529C193.484 84.8373 190.74 84.0224 187.931 83.5239C185.152 83.1 182.336 82.9753 179.531 83.1519C178.831 83.2079 178.138 83.3209 177.442 83.3989C176.743 83.4621 176.05 83.5737 175.368 83.7329L173.31 84.1759L172.795 84.2859L172.303 84.4349L171.317 84.7349C170.015 85.1624 168.753 85.7024 167.546 86.3489C166.927 86.6489 166.355 87.0269 165.765 87.3759C165.202 87.7709 164.619 88.1379 164.083 88.5759C161.875 90.2957 159.918 92.3152 158.269 94.5759C154.919 99.3312 152.415 104.628 150.866 110.235Z" fill="#C4D8E8"/>
<path d="M238.895 103.496C240.02 100.966 241.532 98.6265 243.378 96.5619C245.229 94.4264 247.404 92.5942 249.823 91.1319C252.304 89.6339 255.05 88.6251 257.912 88.1599C259.354 87.9465 260.813 87.8658 262.27 87.9189C263.697 88.0122 265.117 88.1959 266.522 88.4689C269.344 89.0033 272.065 89.9775 274.586 91.3559C277.123 92.7707 279.337 94.7003 281.086 97.0209C282.788 99.3084 284.013 101.916 284.686 104.687C285.375 107.375 285.547 110.169 285.193 112.921C284.907 110.257 284.242 107.647 283.217 105.172C282.715 103.97 282.122 102.807 281.445 101.695C280.763 100.612 279.987 99.5912 279.125 98.6459C278.28 97.7086 277.342 96.8605 276.325 96.1149C275.319 95.362 274.246 94.7051 273.118 94.1529C270.83 93.0527 268.4 92.2785 265.898 91.8529C264.648 91.6262 263.387 91.4713 262.12 91.3889C260.877 91.3399 259.633 91.3867 258.398 91.5289C255.9 91.8572 253.472 92.5894 251.209 93.6969C246.486 96.1009 242.298 99.4338 238.895 103.496Z" fill="#C4D8E8"/>
<path d="M94.4466 128.303C95.5054 128.78 96.6018 129.168 97.7246 129.464C98.2776 129.633 98.8356 129.783 99.3976 129.922C99.9596 130.061 100.517 130.213 101.085 130.322L102.778 130.694L104.478 131.021C105.609 131.253 106.755 131.421 107.895 131.599C109.032 131.799 110.179 131.945 111.322 132.099L113.039 132.334L114.763 132.521C115.913 132.632 117.053 132.797 118.205 132.9L121.656 133.219C122.803 133.339 123.961 133.395 125.113 133.478L128.569 133.743C130.879 133.866 133.186 134.014 135.496 134.115L142.43 134.407L149.372 134.58C151.679 134.622 153.972 134.609 156.279 134.628C156.854 134.628 157.431 134.645 158.005 134.628L159.726 134.553C160.873 134.506 162.021 134.446 163.17 134.416C163.744 134.395 164.319 134.387 164.893 134.354L166.605 134.209L170.035 133.921C171.184 133.859 172.304 133.629 173.441 133.493C174.573 133.335 175.721 133.226 176.841 133.025L180.208 132.374C181.343 132.193 182.423 131.833 183.539 131.574L185.203 131.155C185.751 130.994 186.287 130.804 186.829 130.629C187.921 130.299 188.996 129.913 190.048 129.471L191.64 128.83C192.169 128.612 192.662 128.33 193.179 128.085C193.679 127.818 194.22 127.6 194.697 127.291L196.168 126.407C197.133 125.788 198.051 125.099 198.915 124.344C199.811 123.61 200.592 122.745 201.232 121.778C200.143 123.887 198.608 125.732 196.732 127.185L195.334 128.286C194.867 128.659 194.345 128.938 193.851 129.269C193.351 129.579 192.857 129.926 192.336 130.207L190.762 131.038C186.499 133.119 182.004 134.682 177.371 135.696C176.222 135.972 175.057 136.151 173.899 136.383L172.155 136.696C171.574 136.812 170.991 136.896 170.405 136.954L166.896 137.374L165.14 137.583C164.554 137.639 163.967 137.667 163.381 137.709C162.208 137.795 161.033 137.848 159.859 137.915L158.097 138.015C157.51 138.042 156.924 138.03 156.337 138.039C153.991 138.048 151.637 138.095 149.297 138.069C139.948 137.899 130.617 137.181 121.352 135.919C116.709 135.278 112.102 134.395 107.552 133.273C106.418 132.973 105.283 132.687 104.161 132.335L102.478 131.829L100.814 131.254C98.5867 130.514 96.4507 129.524 94.4466 128.303Z" fill="#C4D8E8"/>
<path d="M106.789 133.212C98.1546 134.905 89.4306 136.04 80.6796 136.862C76.3066 137.317 71.9146 137.562 67.5236 137.838C63.1236 138.038 58.7236 138.175 54.3236 138.201C49.9176 138.201 45.5006 138.062 41.0996 137.831C36.6996 137.519 32.2996 137.184 27.9296 136.607C23.5549 136.059 19.2063 135.347 14.8836 134.472C10.5589 133.617 6.29059 132.499 2.1026 131.123C10.7856 132.474 19.4846 133.278 28.1846 133.903C36.8896 134.447 45.5996 134.79 54.3116 134.722C58.6696 134.764 63.0336 134.641 67.3986 134.555C71.7636 134.469 76.1326 134.296 80.5056 134.16C89.2506 133.855 97.9986 133.474 106.789 133.212Z" fill="#C4D8E8"/>
<path d="M189.874 130.529C197.438 131.538 205.035 132.095 212.63 132.395C220.23 132.713 227.83 132.695 235.407 132.461C237.307 132.41 239.179 132.261 241.063 132.161C242.939 131.997 244.819 131.854 246.687 131.64C250.425 131.206 254.135 130.596 257.817 129.812C261.489 129.003 265.143 128.073 268.779 127.022C272.426 125.984 276.072 124.822 279.884 123.934L281.318 123.615L282.78 123.359C283.747 123.165 284.747 123.077 285.739 122.959C286.731 122.841 287.746 122.859 288.751 122.805L291.614 122.811H303.033C306.833 122.811 310.633 122.778 314.423 122.666C316.315 122.612 318.203 122.53 320.086 122.422C321.962 122.315 323.844 122.18 325.642 121.91C326.088 121.839 326.527 121.759 326.942 121.663C327.29 121.591 327.63 121.48 327.954 121.333L327.986 121.327C327.884 121.444 327.819 121.589 327.799 121.744C327.782 121.866 327.79 121.991 327.825 122.11L327.89 122.286L327.943 122.363L327.958 122.39C328.036 122.479 328.012 122.449 327.999 122.432C327.687 122.245 327.355 122.093 327.011 121.977C325.251 121.412 323.46 120.952 321.647 120.598C317.947 119.823 314.193 119.207 310.436 118.613C302.919 117.404 295.364 116.372 287.81 115.281C295.438 115.605 303.049 116.181 310.656 116.919C314.456 117.319 318.256 117.755 322.056 118.356C324.002 118.636 325.927 119.052 327.816 119.601C328.381 119.769 328.924 120.008 329.43 120.313C329.646 120.455 329.839 120.631 330.001 120.834L330.075 120.929L330.164 121.087C330.22 121.196 330.266 121.309 330.304 121.426C330.368 121.661 330.382 121.906 330.346 122.147C330.326 122.267 330.295 122.385 330.256 122.501C330.216 122.595 330.17 122.687 330.119 122.775C330.034 122.921 329.93 123.056 329.81 123.175C329.647 123.336 329.465 123.476 329.268 123.591C328.744 123.88 328.184 124.1 327.604 124.245C327.094 124.384 326.597 124.492 326.104 124.587C322.277 125.203 318.417 125.58 314.544 125.715C310.715 125.908 306.89 126.022 303.07 126.107C299.25 126.192 295.43 126.191 291.615 126.207L288.761 126.219C287.861 126.281 286.966 126.26 286.061 126.379C285.156 126.498 284.261 126.572 283.361 126.761L282.007 127.006L280.652 127.316C277.031 128.134 273.392 129.255 269.699 130.281C266.006 131.307 262.263 132.281 258.47 133.022C250.886 134.485 243.177 135.2 235.454 135.154C227.79 135.161 220.144 134.803 212.516 134.08C204.899 133.393 197.335 132.206 189.874 130.529Z" fill="#C4D8E8"/>
<path d="M73.3696 125.437C73.3696 125.437 86.0246 119.237 98.6806 118.885C111.337 118.533 130.406 126.185 130.406 126.185C130.406 126.185 110.632 122.03 93.3056 123.152C75.9796 124.274 73.3696 125.437 73.3696 125.437Z" fill="white"/>
<path d="M115.151 108.45C111.451 110.88 111.683 102.794 118.617 101.273C125.551 99.7517 147.843 100.449 147.843 100.449C147.843 100.449 120.179 105.145 115.151 108.45Z" fill="white"/>
<path d="M154.851 117.494C154.851 117.494 154.325 96.4487 175.07 91.5787C204.355 84.7047 205.838 106.363 205.838 106.363C205.838 106.363 201.038 91.6437 178.414 95.8397C158.857 99.4687 154.851 117.494 154.851 117.494Z" fill="white"/>
<path d="M184.807 74.1831C184.807 74.1831 186.35 59.9141 195.592 53.1381C204.834 46.3621 218.822 47.3981 226.278 49.6601C221.459 48.7936 216.508 48.9984 211.778 50.26C207.047 51.5216 202.652 53.8091 198.905 56.9601C186.228 67.7421 184.807 74.1831 184.807 74.1831Z" fill="white"/>
<path d="M244.48 40.5767C244.48 40.5767 257.433 45.3907 256.615 56.2767C255.797 67.1627 245.671 77.3567 233.096 74.1917C220.521 71.0267 220.035 61.8427 220.035 61.8427C220.035 61.8427 227.924 69.4847 238.889 69.1927C249.854 68.9007 259.39 50.4507 244.48 40.5767Z" fill="white"/>
<path d="M147.843 93.4929C147.843 93.4929 117.578 89.6669 122.431 62.8809C127.284 36.0949 158.288 34.6209 175.07 49.1399C175.07 49.1399 139.078 34.6399 128.67 56.9669C118.262 79.2939 147.843 93.4929 147.843 93.4929Z" fill="white"/>
<path d="M238.345 111.058C238.345 111.058 252.729 97.8398 262.045 98.5358C271.361 99.2318 283.438 102.352 281.238 106.189C279.038 110.026 271.703 103.352 263.902 103.814C256.101 104.276 238.345 111.058 238.345 111.058Z" fill="white"/>
<path d="M171.667 34.9348C171.667 34.9348 170.8 24.3218 183.11 28.8418C180.888 29.0236 178.726 29.6579 176.758 30.7057C174.791 31.7535 173.058 33.1927 171.667 34.9348Z" fill="white"/>
<path d="M194.373 36.5362C194.373 36.5362 183.294 22.2432 197.673 13.6612C211.373 5.48621 224.373 20.9122 221.073 27.7222C221.073 27.7222 221.44 12.0542 203.723 15.0522C188.311 17.6602 194.373 36.5362 194.373 36.5362Z" fill="white"/>
</g>
</svg>
