<svg width="250" height="76" viewBox="0 0 250 76" fill="none" xmlns="http://www.w3.org/2000/svg">
<g opacity="0.5">
<path opacity="0.5" d="M1.68868 62.9835C1.55568 64.5645 15.4807 65.1235 25.9887 65.1085C36.4967 65.0935 49.5127 69.0775 49.5127 69.0775C58.9656 71.5536 68.7396 72.5806 78.5007 72.1234C94.2127 71.2804 106.981 69.3765 106.981 69.3765C106.981 69.3765 116.965 74.6005 132.981 74.0585C148.997 73.5165 168.191 71.1795 168.191 71.1795C168.191 71.1795 182.572 74.3955 206.154 74.1275C229.736 73.8595 231.894 72.9095 231.894 72.9095C231.894 72.9095 250.154 71.1535 249.894 69.0455C249.634 66.9375 242.342 67.9325 242.342 67.9325L221.304 67.7385L217.646 67.7005L202.681 67.5525C202.681 67.5525 196.629 62.5295 191.967 61.9325C187.305 61.3355 160.152 63.8195 160.152 63.8195C160.152 63.8195 166.579 60.1555 166.579 51.0575C166.579 44.7575 158.991 39.9085 152.738 41.9235C150.498 42.5457 148.302 43.3167 146.165 44.2314C146.576 43.8984 155.88 36.2315 154.726 23.9525C153.542 11.3895 141.784 2.44447 132.131 1.64347C122.478 0.842466 109.342 9.26548 107.273 18.3645V18.9645C107.273 18.9645 95.5497 13.9725 88.4197 18.3155C81.2897 22.6585 78.0737 30.3775 78.6307 36.3655L76.8237 37.8775L72.8877 40.3134C72.8877 40.3134 70.9167 47.1035 70.7227 50.5285C70.7227 50.5285 64.5547 42.4905 59.1327 40.0495C53.7107 37.6085 42.9697 38.3144 38.2877 44.6194C35.4725 48.5259 34.0502 53.2644 34.2487 58.0755L30.2027 58.4495L18.3187 59.5495C18.3187 59.5495 1.81868 61.4065 1.68868 62.9875" fill="#F5F5FF"/>
<path opacity="0.5" d="M117.082 42.4165C130.464 42.4165 134.997 55.6675 134.997 55.6675C134.997 55.6675 137.647 63.2675 136.071 67.1355C136.071 67.1355 133.882 50.4435 118.906 47.9835C117.624 47.7683 116.328 47.6576 115.029 47.6525C103.296 47.6525 100.341 57.5605 100.341 57.5605C100.341 57.5605 101.656 43.2405 115.929 42.4485C116.321 42.4275 116.706 42.4165 117.082 42.4165Z" fill="#D3D3F0"/>
<path opacity="0.5" d="M72.7907 40.651C71.8897 41.8344 71.3722 43.2651 71.3077 44.751C70.9823 46.6391 70.7683 48.5448 70.6667 50.458L70.7207 50.527C71.1401 47.1826 71.8327 43.8783 72.7917 40.647L72.7907 40.651ZM76.8487 37.854C75.5248 38.314 74.3193 39.0616 73.3187 40.043L76.8187 37.875L76.8447 37.854" fill="#E4E4F0"/>
<path opacity="0.5" d="M83.5027 37.0181C90.2077 38.2651 94.6907 46.5571 94.6907 46.5571C90.3907 41.9571 86.4177 40.481 83.2907 40.481C81.5988 40.4619 79.937 40.9298 78.5037 41.8291C71.0827 46.6191 72.2317 56.2771 72.2317 56.2771C71.1421 54.5381 70.5978 52.5129 70.6687 50.4621L70.7227 50.5311C71.1421 47.1867 71.8347 43.8823 72.7937 40.6511C72.958 40.4413 73.1339 40.241 73.3207 40.0511L76.8207 37.8831L76.8467 37.8621C77.4795 37.6276 78.1269 37.4345 78.7847 37.2841C78.8357 37.6601 78.8767 37.8711 78.8767 37.8711H83.8767C83.7311 37.5979 83.6064 37.3141 83.5037 37.0221" fill="#D3D3F0"/>
<path opacity="0.5" d="M161.694 62.645C161.569 62.805 161.441 62.964 161.313 63.121L160.229 63.773C160.749 63.4403 161.239 63.0629 161.694 62.645Z" fill="#E4E4F0"/>
<path opacity="0.5" d="M154.579 42.9117C155.091 42.9117 155.597 42.9317 156.097 42.9767C157.528 43.0739 158.925 43.4672 160.197 44.1317C160.497 44.2958 160.785 44.4809 161.06 44.6857C161.191 44.7937 161.324 44.8997 161.46 45.0017L161.885 45.3777C162.435 45.8804 162.95 46.4196 163.428 46.9917C164.363 48.0945 165.054 49.3832 165.455 50.7727C165.821 52.1853 165.849 53.6644 165.536 55.0897C164.837 57.8643 163.524 60.4464 161.693 62.6447C161.238 63.0625 160.748 63.44 160.228 63.7727L160.15 63.8197L152.372 64.1987C152.372 64.1987 163.128 60.8987 162.078 53.1667C161.132 46.2097 155.153 43.3077 150.328 43.3077C150.245 43.3077 150.162 43.3077 150.08 43.3077C150.548 43.2337 151.015 43.1677 151.48 43.1077C152.508 42.9803 153.543 42.9136 154.58 42.9077" fill="#D3D3F0"/>
<path opacity="0.5" d="M153.176 34.4298C151.978 37.3485 150.267 40.0291 148.124 42.3448C150.368 40.214 152.073 37.5802 153.099 34.6608C153.125 34.5838 153.152 34.5068 153.176 34.4308V34.4298ZM148.162 9.92377C151.851 13.7389 154.161 18.6772 154.724 23.9548C154.736 24.0908 154.748 24.2248 154.757 24.3548C154.664 18.7638 152.83 13.3998 148.413 10.1078L148.162 9.91977V9.92377ZM129.97 1.36377C128.068 1.37565 126.179 1.6592 124.358 2.20578C114.091 5.19478 110.676 11.0838 110.676 11.0838C110.676 11.0838 110.638 11.2838 110.571 11.6368C110.225 12.0898 109.887 12.5808 109.562 13.1018C108.435 14.8609 107.596 16.7879 107.076 18.8108C107.147 18.8563 107.214 18.9078 107.276 18.9648V18.3648C109.255 9.66478 121.34 1.59177 130.838 1.59177C131.276 1.59177 131.708 1.60878 132.138 1.64478C133.158 1.73146 134.17 1.89865 135.165 2.14478C133.484 1.63024 131.736 1.36773 129.979 1.36578" fill="#E4E4F0"/>
<path opacity="0.5" d="M130.833 1.59244C131.271 1.59244 131.703 1.60942 132.133 1.64542C133.153 1.73207 134.165 1.89926 135.16 2.14542C139.893 3.57442 143.939 6.76542 148.166 9.92242C151.855 13.7376 154.165 18.6759 154.728 23.9534C154.74 24.0894 154.752 24.2234 154.761 24.3534C154.796 27.7752 154.262 31.179 153.18 34.4254C151.982 37.3441 150.271 40.0248 148.128 42.3404C146.368 44.0629 144.339 45.486 142.121 46.5534C146.935 42.7534 150.141 37.9444 150.23 27.1434C150.313 17.2084 141.094 7.50944 129.603 7.51044C128.573 7.51105 127.546 7.58791 126.528 7.74042C120.919 8.58242 116.695 11.0864 114.405 14.1074C114.215 14.3604 114.032 14.6134 113.858 14.8664L113.816 14.9294L113.801 14.9504C113.438 15.4169 113.125 15.9196 112.866 16.4504L112.843 16.4864C111.688 18.7754 110.206 23.4654 112.492 30.2094V30.2244C114.206 34.3834 116.964 38.3634 120.831 39.9824C120.831 39.9824 109.581 39.1754 107.715 31.6264C107.039 29.0813 106.645 26.4696 106.539 23.8384C106.621 22.1921 106.866 20.5579 107.269 18.9594V18.3594C109.248 9.65944 121.333 1.58643 130.831 1.58643" fill="#D3D3F0"/>
<path opacity="0.5" d="M113.812 14.9334L113.838 14.8964L113.854 14.8694L113.812 14.9334Z" fill="#4B4B9B"/>
<path opacity="0.5" d="M103.31 17.6485C104.581 17.9881 105.833 18.3988 107.059 18.8785L107.076 18.8125C105.894 18.2166 104.621 17.8231 103.31 17.6485ZM91.9607 16.9275C89.5687 17.3666 87.304 18.3311 85.3299 19.7513C83.3558 21.1716 81.7214 23.0122 80.5447 25.1405C79.0463 28.0885 78.3647 31.384 78.5707 34.6845C78.7417 31.3574 79.7297 28.1237 81.4473 25.2691C83.1649 22.4145 85.5592 20.027 88.4187 18.3175C89.5151 17.663 90.7117 17.1933 91.9607 16.9275Z" fill="#E4E4F0"/>
<path opacity="0.5" d="M94.5257 16.7124C94.8567 16.7124 95.1887 16.7234 95.5257 16.7444C98.137 16.8883 100.737 17.1888 103.313 17.6444C104.584 17.9841 105.836 18.3948 107.062 18.8745C106.672 20.4999 106.498 22.1695 106.544 23.8404C106.336 26.4922 106.738 29.1562 107.72 31.6284C106.19 29.722 104.963 27.5914 104.083 25.3114C103.589 24.024 103.188 22.703 102.883 21.3584C100.835 20.9216 98.748 20.7001 96.6547 20.6974C92.6717 20.6974 87.8107 21.5814 85.3667 25.3974C81.8897 30.8304 82.8547 35.2314 83.5057 37.0104C82.9527 36.9069 82.3913 36.8543 81.8287 36.8534C81.4 36.8538 80.972 36.8846 80.5477 36.9454C79.9187 37.0354 79.3337 37.1454 78.7887 37.2724C78.6727 36.41 78.601 35.5422 78.5737 34.6724C78.7447 31.3453 79.7327 28.1116 81.4503 25.257C83.1679 22.4024 85.5622 20.0149 88.4217 18.3055C89.5181 17.6509 90.7147 17.1813 91.9637 16.9154C92.8115 16.7722 93.6698 16.7003 94.5297 16.7004" fill="#D3D3F0"/>
<path opacity="0.5" d="M81.8247 36.8618C82.3873 36.8628 82.9487 36.9153 83.5017 37.0188C83.6043 37.3108 83.729 37.5947 83.8747 37.8678H78.8747C78.8747 37.8678 78.8337 37.6568 78.7827 37.2808C79.3277 37.1538 79.9117 37.0448 80.5417 36.9538C80.966 36.8929 81.394 36.8622 81.8227 36.8618" fill="#BFBFE3"/>
<path opacity="0.5" d="M107.076 18.812C107.147 18.8575 107.214 18.9091 107.276 18.966C107.276 18.966 107.202 18.934 107.064 18.879L107.081 18.813" fill="#CECEE4"/>
<path opacity="0.5" d="M107.059 18.8784C107.198 18.9344 107.271 18.9654 107.271 18.9654C106.868 20.5638 106.623 22.1981 106.541 23.8444C106.495 22.1735 106.669 20.5039 107.059 18.8784Z" fill="#BFBFE3"/>
<path opacity="0.5" d="M34.2497 58.0785L30.2037 58.4525L29.5637 58.5115L28.6567 58.5945H28.6297L30.2037 58.4485L34.2497 58.0745V58.0785ZM39.4717 43.2615C37.7404 44.6726 36.3659 46.4718 35.4597 48.5132C34.5535 50.5547 34.141 52.7809 34.2557 55.0115H34.2447V56.1695C34.4443 52.0103 35.8475 47.9985 38.2837 44.6215C38.6435 44.1381 39.0404 43.6834 39.4707 43.2615H39.4717ZM49.6987 38.8855C48.0691 39.0019 46.4663 39.3622 44.9437 39.9545C46.4818 39.4147 48.0775 39.056 49.6987 38.8855Z" fill="#E4E4F0"/>
<path opacity="0.5" d="M50.8667 38.8435C53.4978 38.8286 56.0938 39.4481 58.4347 40.6495C57.7617 40.5965 57.0537 40.5695 56.3217 40.5695C49.6217 40.5695 40.9297 42.8926 39.6507 50.2696C38.2627 58.2606 45.7187 61.4985 46.0657 61.6395L46.0767 61.6455C54.1992 63.6352 62.4263 65.1709 70.7197 66.2455C75.493 66.9089 80.3014 67.2898 85.1197 67.3865C92.9097 67.3865 93.6197 65.5195 91.6667 62.9975C89.6787 60.4335 91.6557 59.5236 94.7247 59.5236C96.1084 59.5411 97.4882 59.6772 98.8487 59.9305C103.425 60.7525 131.201 69.3825 142.71 69.3825C143.445 69.3893 144.181 69.3435 144.91 69.2455C151.778 68.2455 161.667 66.7065 171.41 66.7065C175.263 66.675 179.113 66.9707 182.917 67.5905C192.31 69.0592 201.787 69.926 211.291 70.1855C212.461 70.1855 213.47 70.1505 214.265 70.0745C216.741 69.7758 219.133 68.9814 221.296 67.7385L242.334 67.9325C243.502 67.7843 244.677 67.7058 245.855 67.6975C247.755 67.6975 249.755 67.9616 249.886 69.0456V69.0875C249.898 71.1775 231.886 72.9095 231.886 72.9095C231.886 72.9095 229.722 73.8586 206.146 74.1276C205.199 74.1386 204.27 74.1425 203.353 74.1425C192.068 74.2525 180.796 73.36 169.669 71.4755C170.25 71.3215 170.83 71.1635 171.405 70.9835L172.68 70.5995L173.94 70.1645C175.628 69.606 177.248 68.8579 178.768 67.9345C177.966 68.2957 177.135 68.5897 176.285 68.8135C175.866 68.9415 175.443 69.0555 175.017 69.1595C174.591 69.2635 174.169 69.3805 173.739 69.4665L172.456 69.7486L171.167 69.9955C170.31 70.1715 169.441 70.2956 168.577 70.4336C167.713 70.5716 166.847 70.6955 165.977 70.8145L164.677 70.9935L163.371 71.1335C162.499 71.2175 161.635 71.3445 160.761 71.4215L158.145 71.6635C157.276 71.7555 156.4 71.7955 155.526 71.8635L152.907 72.0635C151.156 72.1565 149.407 72.2635 147.658 72.3455L142.404 72.5665L137.144 72.6955C135.396 72.7285 133.655 72.7185 131.91 72.7335H131.826C131.698 72.7335 131.57 72.7335 131.444 72.7335C131.318 72.7335 131.191 72.7335 131.064 72.7335C130.91 72.7335 130.757 72.7335 130.603 72.7255L129.303 72.6685C128.434 72.6335 127.565 72.5875 126.693 72.5685C126.259 72.5515 125.823 72.5475 125.393 72.5215L124.093 72.4115L121.493 72.1945C120.623 72.1465 119.773 71.9735 118.912 71.8695C118.054 71.7495 117.185 71.6696 116.333 71.5156L113.782 71.0215C112.922 70.8845 112.103 70.6135 111.258 70.4215L109.996 70.1056C109.582 69.9836 109.175 69.8385 108.763 69.7055C107.935 69.4552 107.122 69.1622 106.325 68.8275L105.119 68.3426C104.719 68.1765 104.345 67.9645 103.954 67.7775C103.573 67.5775 103.165 67.4105 102.804 67.1775L101.688 66.5085C100.957 66.0388 100.261 65.5164 99.6067 64.9455C98.9275 64.3889 98.3356 63.7337 97.8507 63.0015C98.6746 64.6 99.8377 65.9993 101.259 67.1016L102.327 67.9265C102.681 68.2095 103.077 68.4186 103.45 68.6706C103.833 68.9056 104.204 69.1706 104.599 69.3816L105.099 69.6465C103.482 69.8635 100.886 70.1965 97.5907 70.5575C94.8037 70.7755 92.0117 70.9325 89.2217 71.0425C86.2117 71.1679 83.202 71.2285 80.1927 71.2245C77.4473 71.2245 74.7043 71.1802 71.9637 71.0915C70.5257 71.0525 69.1057 70.9375 67.6777 70.8655C66.2547 70.7415 64.8317 70.6325 63.4167 70.4705C60.5827 70.1405 57.7717 69.6789 54.9837 69.0855C52.1997 68.4725 49.4367 67.7725 46.6757 66.9715C43.9127 66.1855 41.1507 65.3076 38.2607 64.6316L37.1747 64.3895L36.0667 64.1955C35.3347 64.0495 34.5757 63.9835 33.8247 63.8955C33.0737 63.8075 32.3037 63.8205 31.5437 63.7795H29.3737H20.7227C17.8417 63.7795 14.9627 63.7535 12.0927 63.6715C10.6573 63.6295 9.22667 63.5679 7.80067 63.4865C6.37967 63.4055 4.95268 63.3025 3.59068 63.0985C3.39068 63.0685 3.20268 63.0356 3.01268 62.9986C4.15068 62.6386 5.39967 62.3736 6.62067 62.1056C9.42067 61.5186 12.2677 61.0515 15.1137 60.6056C19.6037 59.8846 24.1137 59.2456 28.6227 58.6056L30.1967 58.4596L34.2427 58.0855V56.1855C34.4423 52.0263 35.8455 48.0145 38.2817 44.6375C38.6415 44.1541 39.0384 43.6994 39.4687 43.2775L39.4747 43.2715C41.1006 41.8744 42.9488 40.759 44.9427 39.9715C46.4808 39.4318 48.0765 39.073 49.6977 38.9025C50.0977 38.8739 50.4867 38.8599 50.8647 38.8606" fill="#D3D3F0"/>
<path opacity="0.5" d="M97.8527 62.9978C98.3376 63.73 98.9295 64.3852 99.6087 64.9418C100.264 65.5127 100.959 66.0351 101.69 66.5048L102.806 67.1738C103.167 67.4088 103.575 67.5738 103.956 67.7738C104.348 67.9608 104.721 68.1738 105.122 68.3388L106.328 68.8238C107.125 69.1585 107.938 69.4516 108.766 69.7018C109.179 69.8338 109.585 69.9788 109.999 70.1018L111.261 70.4178C112.106 70.6118 112.925 70.8828 113.785 71.0178L116.336 71.5118C117.188 71.6638 118.057 71.7448 118.915 71.8658C119.776 71.9658 120.626 72.1428 121.496 72.1908L124.096 72.4078L125.396 72.5178C125.83 72.5438 126.266 72.5478 126.696 72.5648C127.568 72.5878 128.437 72.6338 129.306 72.6648L130.606 72.7218C130.76 72.7278 130.913 72.7298 131.067 72.7298C131.194 72.7298 131.32 72.7298 131.447 72.7298C131.574 72.7298 131.701 72.7298 131.829 72.7298H131.913C133.658 72.7148 135.399 72.7298 137.147 72.6918L142.407 72.5628L147.661 72.3418C149.412 72.2648 151.161 72.1538 152.91 72.0598L155.529 71.8598C156.402 71.7968 157.279 71.7598 158.148 71.6598L160.764 71.4178C161.637 71.3408 162.502 71.2178 163.374 71.1298L164.68 70.9898L165.98 70.8108C166.846 70.6918 167.716 70.5808 168.58 70.4298C169.444 70.2788 170.313 70.1678 171.17 69.9918L172.459 69.7448L173.742 69.4628C174.173 69.3768 174.596 69.2628 175.02 69.1558C175.444 69.0488 175.869 68.9378 176.288 68.8098C177.138 68.586 177.969 68.292 178.771 67.9308C177.251 68.8542 175.631 69.6023 173.943 70.1608L172.683 70.5958L171.408 70.9798C170.833 71.1608 170.253 71.3188 169.672 71.4718C168.693 71.2898 168.186 71.1718 168.186 71.1718C168.186 71.1718 148.997 73.5028 132.976 74.0508C132.184 74.0778 131.41 74.0898 130.648 74.0898C115.999 74.0898 106.978 69.3688 106.978 69.3688C106.978 69.3688 106.314 69.4688 105.102 69.6308L104.602 69.3658C104.207 69.1518 103.836 68.8898 103.453 68.6548C103.08 68.4038 102.684 68.1938 102.33 67.9108L101.262 67.0858C99.8408 65.9836 98.6777 64.5843 97.8537 62.9858" fill="#989FB3"/>
<path opacity="0.5" d="M28.6567 58.5904H28.6297C24.1197 59.2334 19.6117 59.8714 15.1207 60.5904C12.2747 61.0404 9.42768 61.5074 6.62768 62.0904C5.40668 62.3584 4.15768 62.6234 3.01968 62.9834C3.20968 63.0214 3.40168 63.0544 3.59768 63.0834C4.96068 63.2834 6.38668 63.3904 7.80768 63.4724C9.22868 63.5544 10.6647 63.6153 12.0997 63.6573C14.9697 63.7403 17.8487 63.7644 20.7297 63.7654H29.3807H31.5507C32.3107 63.8064 33.0817 63.7894 33.8317 63.8814C34.5817 63.9734 35.3417 64.0354 36.0737 64.1814L37.1817 64.3754L38.2677 64.6174C41.1577 65.2934 43.9187 66.1714 46.6827 66.9574C49.4427 67.7574 52.2057 68.4573 54.9907 69.0714C57.778 69.6614 60.589 70.123 63.4237 70.4564C64.8387 70.6174 66.2617 70.7273 67.6847 70.8513C69.1127 70.9233 70.5327 71.0384 71.9707 71.0774C74.7113 71.1634 77.4544 71.2077 80.1997 71.2104C83.2084 71.2104 86.218 71.1497 89.2287 71.0284C92.0187 70.9184 94.8107 70.7614 97.5977 70.5434C92.5437 71.0974 85.8447 71.7224 78.4977 72.1174C76.9604 72.2 75.45 72.24 73.9667 72.2374C65.7125 72.2318 57.4931 71.1674 49.5097 69.0704C49.5097 69.0704 36.5487 65.1074 26.0487 65.1074H25.5487C15.0937 65.1074 1.54868 64.5424 1.67968 62.9824C1.81068 61.4014 18.3097 59.5444 18.3097 59.5444L28.6467 58.5894" fill="#989FB3"/>
<path opacity="0.5" d="M197.87 67.9344C197.135 66.9105 196.195 66.05 195.111 65.4073C194.027 64.7646 192.821 64.3537 191.57 64.2004C187.498 63.8424 175.61 64.9355 175.61 64.9355C175.61 64.9355 196.627 68.8634 197.87 67.9344Z" fill="white"/>
<path opacity="0.5" d="M153.344 61.9339C153.344 61.9339 162.739 59.3229 159.78 50.5969C156.821 41.8709 145.594 46.5569 145.594 46.5569C145.594 46.5569 154.674 44.9569 157.627 51.5199C159.863 56.4939 153.344 61.9339 153.344 61.9339Z" fill="white"/>
<path opacity="0.5" d="M134.821 66.5447C134.821 66.5447 132.521 54.0257 121.226 50.1377C109.931 46.2497 101.653 58.0737 101.653 58.0737C101.653 58.0737 109.76 50.8157 120.292 54.1567C123.41 55.1633 126.299 56.7757 128.792 58.9016C131.285 61.0275 133.334 63.6249 134.821 66.5447Z" fill="white"/>
<path opacity="0.5" d="M88.9116 43.6167C88.9116 43.6167 82.2116 39.2637 76.6946 44.7597C72.9516 48.4927 73.2136 54.7807 73.2136 54.7807C73.2136 54.7807 75.2496 48.8887 80.1136 46.0557C85.0376 43.1787 88.9116 43.6167 88.9116 43.6167Z" fill="white"/>
<path opacity="0.5" d="M62.1147 46.2155C62.1147 46.2155 49.2417 39.1985 42.9347 47.8295C39.3747 52.7035 43.3957 59.2295 50.6847 61.4695C57.9737 63.7095 44.1177 59.0545 45.4307 51.5855C46.2617 46.8715 51.7887 45.2815 62.1147 46.2155Z" fill="white"/>
<path opacity="0.5" d="M100.952 23.1435C100.952 23.1435 89.8207 20.9935 86.4147 26.1925C83.0087 31.3915 85.4527 35.6805 85.4527 35.6805C85.4527 35.6805 86.0637 29.5895 91.3197 27.1445C96.5757 24.6995 106.208 24.0505 100.952 23.1435Z" fill="white"/>
<path opacity="0.5" d="M142.898 43.6111C142.898 43.6111 149.698 36.6651 148.241 26.6331C146.784 16.6011 139.747 9.58915 129.588 8.97415C127.495 8.81556 125.393 9.10704 123.423 9.82901C121.452 10.551 119.659 11.6867 118.165 13.1596C116.67 14.6326 115.508 16.4087 114.758 18.3683C114.007 20.3279 113.685 22.4256 113.813 24.5201C114.439 32.0761 120.294 37.8622 120.294 37.8622C120.294 37.8622 111.14 19.6012 124.774 15.6472C135.151 12.6382 142.464 17.9642 144.474 27.1472C145.713 32.6631 145.161 38.4306 142.898 43.6111Z" fill="white"/>
<g opacity="0.5">
<path opacity="0.5" d="M178.776 67.9336C177.974 68.2947 177.143 68.5887 176.293 68.8126C175.874 68.9406 175.451 69.0546 175.025 69.1586C174.599 69.2626 174.177 69.3795 173.747 69.4655L172.464 69.7476L171.175 69.9946C170.318 70.1706 169.449 70.2946 168.585 70.4326C167.721 70.5706 166.855 70.6946 165.985 70.8136L164.685 70.9926L163.379 71.1326C162.507 71.2166 161.643 71.3436 160.769 71.4206L158.153 71.6626C157.284 71.7546 156.408 71.7945 155.534 71.8625L152.915 72.0626C151.164 72.1556 149.415 72.2625 147.666 72.3445L142.412 72.5656L137.152 72.6945C135.404 72.7275 133.663 72.7175 131.918 72.7325C131.763 72.7325 131.606 72.7325 131.451 72.7325C131.171 72.7325 130.891 72.7385 130.611 72.7325L129.311 72.6756C128.442 72.6406 127.573 72.5946 126.701 72.5756C126.267 72.5586 125.831 72.5546 125.401 72.5286L124.101 72.4185L121.501 72.2016C120.631 72.1536 119.781 71.9806 118.92 71.8766C118.062 71.7566 117.193 71.6766 116.341 71.5226L113.79 71.0286C112.93 70.8916 112.111 70.6206 111.266 70.4286L110.004 70.1125C109.59 69.9905 109.183 69.8456 108.771 69.7126C107.943 69.4623 107.13 69.1692 106.333 68.8346L105.127 68.3495C104.727 68.1835 104.353 67.9715 103.961 67.7845C103.58 67.5845 103.172 67.4176 102.811 67.1846L101.695 66.5156C100.964 66.0458 100.268 65.5234 99.6137 64.9525C98.9345 64.396 98.3426 63.7407 97.8577 63.0085C98.6816 64.607 99.8447 66.0063 101.266 67.1086L102.334 67.9336C102.688 68.2166 103.084 68.4256 103.457 68.6776C103.839 68.9126 104.211 69.1775 104.606 69.3885L105.799 70.0196C109.028 71.5953 112.434 72.7796 115.945 73.5475C116.815 73.7565 117.698 73.8925 118.577 74.0685L119.898 74.3065C120.338 74.3925 120.779 74.4545 121.223 74.5005L123.882 74.8195L125.212 74.9776C125.656 75.0186 126.1 75.0406 126.545 75.0726C127.433 75.1376 128.325 75.1776 129.213 75.2296L130.549 75.3015C130.993 75.3225 131.437 75.3136 131.883 75.3216C133.66 75.3276 135.443 75.3625 137.217 75.3445C144.301 75.2154 151.371 74.6715 158.392 73.7155C161.909 73.2304 165.398 72.5608 168.845 71.7096C169.703 71.4826 170.565 71.2666 171.414 70.9986L172.689 70.6146L173.949 70.1796C175.637 69.6211 177.257 68.8729 178.777 67.9496" fill="#C4D8E8"/>
<path opacity="0.5" d="M104.08 50.8898C105.468 49.4147 107.059 48.144 108.805 47.1158C110.475 46.1058 112.311 45.4005 114.229 45.0328C116.1 44.6789 118.022 44.6789 119.894 45.0328C121.777 45.4063 123.601 46.0354 125.315 46.9028C126.177 47.3329 127.015 47.8086 127.827 48.3278C128.606 48.8601 129.344 49.4515 130.033 50.0968C131.405 51.4329 132.553 52.9818 133.433 54.6838C134.342 56.4395 135.035 58.2991 135.496 60.2218C135.989 62.1989 136.301 64.2169 136.427 66.2508C136.865 64.1999 136.995 62.095 136.811 60.0058C136.715 58.948 136.553 57.8973 136.326 56.8598C136.084 55.8116 135.758 54.7849 135.35 53.7898C134.938 52.7798 134.436 51.8092 133.85 50.8898C133.248 49.9671 132.565 49.1006 131.808 48.3008C131.033 47.5126 130.188 46.7969 129.283 46.1628C128.381 45.5601 127.438 45.0199 126.463 44.5458C124.513 43.5707 122.42 42.9144 120.263 42.6018C119.174 42.4525 118.072 42.4166 116.976 42.4948C115.88 42.5631 114.796 42.7557 113.745 43.0688C111.673 43.6863 109.748 44.7163 108.085 46.0968C106.453 47.4218 105.094 49.0493 104.08 50.8898Z" fill="#C4D8E8"/>
<path opacity="0.5" d="M106.472 69.6234C100.741 70.3864 94.9837 70.8104 89.2287 71.0374C83.4737 71.2644 77.7157 71.2663 71.9707 71.0873C70.5327 71.0483 69.1127 70.9334 67.6847 70.8614C66.2617 70.7384 64.8387 70.6283 63.4237 70.4663C60.5897 70.1363 57.7787 69.6747 54.9907 69.0814C52.2067 68.4684 49.4437 67.7683 46.6827 66.9673C43.9197 66.1813 41.1577 65.3033 38.2677 64.6273L37.1817 64.3853L36.0737 64.1913C35.3417 64.0453 34.5827 63.9794 33.8317 63.8914C33.0807 63.8034 32.3107 63.8164 31.5507 63.7754H29.3807H20.7297C17.8487 63.7754 14.9697 63.7494 12.0997 63.6674C10.6643 63.6254 9.23367 63.5637 7.80767 63.4824C6.38667 63.4014 4.95968 63.2984 3.59768 63.0944C3.25868 63.0414 2.92568 62.9813 2.61468 62.9073C2.351 62.8521 2.09415 62.7683 1.84868 62.6573H1.82268C1.90046 62.7462 1.94991 62.8562 1.96468 62.9734C1.97846 63.066 1.97163 63.1606 1.94468 63.2504L1.89668 63.3843L1.85567 63.4434L1.84468 63.4633C1.78468 63.5293 1.80368 63.5073 1.81268 63.4963C2.04886 63.3534 2.30046 63.2377 2.56268 63.1514C3.89553 62.7226 5.25256 62.3729 6.62667 62.1043C9.42667 61.5173 12.2737 61.0503 15.1197 60.6043C20.8197 59.6883 26.5417 58.9043 32.2647 58.0793C26.4837 58.3263 20.7177 58.7634 14.9537 59.3214C12.0727 59.6214 9.19667 59.9553 6.31367 60.4103C4.83877 60.6228 3.38054 60.9383 1.94968 61.3543C1.52063 61.4818 1.10938 61.6629 0.725678 61.8933C0.562602 62.0021 0.417235 62.1354 0.294678 62.2884L0.238678 62.3604L0.170677 62.4793C0.128505 62.5622 0.0927318 62.6481 0.0636751 62.7364C0.0146287 62.9144 0.00372661 63.1008 0.0316774 63.2834C0.0470339 63.3745 0.0701175 63.4641 0.100678 63.5514C0.129469 63.6228 0.162871 63.6922 0.200676 63.7593C0.265614 63.8691 0.344616 63.97 0.435677 64.0594C0.558726 64.1814 0.69684 64.2873 0.846676 64.3744C1.24301 64.5954 1.66663 64.7635 2.10668 64.8744C2.49368 64.9794 2.86968 65.0614 3.24168 65.1334C6.1414 65.6 9.06742 65.8852 12.0027 65.9874C14.9027 66.1354 17.8027 66.2204 20.6977 66.2874C23.5927 66.3544 26.4857 66.3524 29.3757 66.3654L31.5377 66.3763C32.2187 66.4233 32.8977 66.4064 33.5807 66.4984C34.2637 66.5904 34.9447 66.6434 35.6287 66.7874L36.6537 66.9724L37.6807 67.2074C40.4247 67.8264 43.1807 68.6773 45.9807 69.4543C48.7807 70.2313 51.6157 70.9673 54.4887 71.5323C60.2352 72.6397 66.0765 73.1803 71.9287 73.1464C77.7353 73.1524 83.5294 72.8813 89.3107 72.3333C95.0822 71.8094 100.813 70.9075 106.467 69.6334" fill="#C4D8E8"/>
<path opacity="0.5" d="M161.116 63.3595C162.503 62.443 163.743 61.322 164.795 60.0345C165.908 58.7224 166.769 57.2157 167.335 55.5905C167.93 53.8765 168.066 52.0365 167.73 50.2535C167.359 48.4721 166.574 46.8029 165.44 45.3805C164.899 44.6874 164.303 44.0402 163.656 43.4455L163.173 43.0085C162.992 42.8575 162.807 42.7085 162.62 42.5675C162.238 42.2925 161.837 42.0449 161.42 41.8265C159.789 41.0106 157.978 40.6205 156.156 40.6925C154.441 40.7514 152.747 41.0812 151.136 41.6695C149.558 42.2196 148.069 42.9943 146.713 43.9695C148.286 43.6029 149.876 43.3168 151.479 43.1125C153.008 42.9076 154.555 42.8613 156.094 42.9745C157.526 43.0717 158.922 43.465 160.194 44.1295C160.494 44.2936 160.782 44.4787 161.057 44.6835C161.188 44.7915 161.321 44.8975 161.457 44.9995L161.882 45.3755C162.432 45.8782 162.947 46.4174 163.425 46.9895C164.36 48.0923 165.051 49.381 165.452 50.7705C165.818 52.1831 165.846 53.6622 165.533 55.0875C164.739 58.1566 163.223 60.9915 161.112 63.3555" fill="#C4D8E8"/>
<path opacity="0.5" d="M145.545 44.7544C149.208 42.0264 152.111 38.4057 153.979 34.2374C154.903 32.1004 155.485 29.8308 155.702 27.5125C155.888 25.1687 155.687 22.8103 155.109 20.5314C153.958 15.9774 151.683 11.7849 148.492 8.33845C145.242 4.89795 141.118 2.40659 136.561 1.13145C131.986 -0.132738 127.143 -0.0375423 122.622 1.40543C118.149 2.88637 114.179 5.58595 111.157 9.20045C109.655 10.9915 108.432 12.9991 107.531 15.1554C106.65 17.3089 106.119 19.5894 105.959 21.9104C105.717 26.4894 106.804 31.0407 109.091 35.0154C107.338 30.9302 106.696 26.4545 107.23 22.0415C107.838 17.7415 109.744 13.7295 112.693 10.5414C115.584 7.37415 119.27 5.03692 123.368 3.77146C127.441 2.54236 131.781 2.50765 135.874 3.67145C139.989 4.79702 143.726 7.00978 146.692 10.0775C148.187 11.6068 149.485 13.317 150.556 15.1684C151.615 17.0425 152.47 19.0249 153.107 21.0815C154.354 25.2335 154.233 29.6767 152.761 33.7544C152.032 35.8303 151.041 37.8049 149.813 39.6304C149.202 40.5576 148.541 41.45 147.831 42.3034C147.125 43.1716 146.362 43.9905 145.545 44.7544Z" fill="#C4D8E8"/>
<path opacity="0.5" d="M106.982 18.7631C103.813 17.0225 100.305 15.9884 96.6986 15.7321C95.7809 15.6671 94.8599 15.6631 93.9417 15.7201C93.0098 15.7707 92.0833 15.894 91.1706 16.0891C90.2461 16.2834 89.3391 16.5534 88.4586 16.8961C87.5712 17.2502 86.7182 17.6853 85.9106 18.1961C85.1003 18.7049 84.3396 19.2888 83.6386 19.9401C82.9565 20.5744 82.3168 21.2529 81.7236 21.9711C81.1244 22.6936 80.5837 23.4627 80.1066 24.2711C79.6216 25.0767 79.2109 25.9249 78.8796 26.8051C78.1856 28.5194 77.8495 30.3576 77.892 32.2066C77.9344 34.0556 78.3546 35.8764 79.1266 37.5571C78.5433 33.3243 79.6013 29.0288 82.0836 25.5511C82.3156 25.2121 82.5746 24.8901 82.8216 24.5621C83.0926 24.2501 83.3446 23.9251 83.6316 23.6251C84.187 23.0101 84.7752 22.4256 85.3936 21.8741C85.7006 21.6041 86.0046 21.3511 86.3226 21.1041C86.6526 20.8781 86.9626 20.6241 87.3086 20.4201C90.1397 18.7239 93.3706 17.8104 96.6706 17.7731C98.3811 17.6986 100.095 17.7554 101.797 17.9431C103.539 18.1194 105.27 18.3932 106.982 18.7631Z" fill="#C4D8E8"/>
<path opacity="0.5" d="M90.3677 41.2553C88.7447 38.8331 86.3325 37.0482 83.5417 36.2043C82.072 35.7767 80.5269 35.6743 79.0137 35.9043C77.5016 36.1522 76.0519 36.6908 74.7447 37.4903C74.0661 37.9147 73.443 38.422 72.8897 39.0003C72.359 39.5815 71.8972 40.2221 71.5137 40.9093C70.8017 42.2378 70.3359 43.6841 70.1387 45.1783C69.9384 46.606 69.9152 48.053 70.0697 49.4863C70.2065 50.8934 70.5165 52.2782 70.9927 53.6093C71.0894 50.9094 71.4858 48.2287 72.1747 45.6163C72.7064 43.2347 74.1092 41.1378 76.1077 39.7373C77.1437 39.0951 78.2766 38.6244 79.4627 38.3433C80.6589 38.0767 81.8936 38.0295 83.1067 38.2043C85.727 38.6577 88.21 39.701 90.3677 41.2553Z" fill="#C4D8E8"/>
<path opacity="0.5" d="M240.924 71.6553C242.252 71.5303 243.583 71.4083 244.907 71.2323C245.57 71.1453 246.234 71.0563 246.898 70.9533C247.578 70.8549 248.253 70.7157 248.917 70.5363L248.617 69.5903C245.392 70.2073 242.104 70.6793 238.826 71.0643C235.549 71.4833 232.256 71.7643 228.967 72.0443C225.675 72.2973 222.379 72.4643 219.081 72.6223C215.781 72.7383 212.481 72.805 209.181 72.8223C205.881 72.8463 202.572 72.7574 199.262 72.7224C197.607 72.6724 195.952 72.6453 194.297 72.5793C192.642 72.5403 190.986 72.4933 189.329 72.4283L169.418 71.6563C175.965 72.8953 182.576 73.7373 189.204 74.3703C190.862 74.5283 192.521 74.6703 194.182 74.8013C195.843 74.9323 197.508 75.0093 199.171 75.1163C202.5 75.2973 205.834 75.4054 209.171 75.4164C212.509 75.4724 215.855 75.3484 219.192 75.1924C222.529 75.0364 225.86 74.7333 229.182 74.3593C235.838 73.6484 242.421 72.3755 248.863 70.5544L248.563 69.6083C248.004 69.8323 247.346 70.0084 246.717 70.1884C246.088 70.3684 245.436 70.5333 244.791 70.6973L240.924 71.6553Z" fill="#C4D8E8"/>
<path opacity="0.5" d="M150.753 64.2734C159.062 64.4454 167.361 64.3054 175.659 63.9554L178.772 63.8184L181.885 63.6334C182.924 63.5594 183.96 63.4994 185.002 63.4134L186.562 63.2894C187.062 63.2594 187.551 63.2204 188.042 63.2154C189.964 63.1106 191.889 63.3538 193.725 63.9334C195.542 64.6132 197.235 65.5879 198.735 66.8184C199.64 67.5363 200.638 68.1274 201.703 68.5754C202.002 68.6883 202.31 68.7795 202.623 68.8484C202.924 68.9158 203.23 68.9589 203.539 68.9774C204.093 69.0154 204.658 69.0574 205.171 69.0634C207.279 69.1164 209.348 69.0994 211.429 69.0924C215.584 69.0804 219.729 68.9814 223.879 68.8694C232.173 68.6224 240.463 68.2864 248.748 67.6974C240.448 67.3134 232.16 67.1294 223.87 66.9624L211.447 66.7324C209.383 66.6854 207.304 66.6464 205.27 66.5424C204.746 66.5314 204.278 66.4884 203.797 66.4534C203.588 66.4431 203.38 66.4133 203.177 66.3644C202.984 66.319 202.795 66.2602 202.611 66.1884C201.77 65.8073 200.983 65.3171 200.271 64.7304C199.42 64.0647 198.537 63.4425 197.624 62.8664C196.651 62.2843 195.615 61.8146 194.536 61.4664C192.4 60.8133 190.164 60.5547 187.936 60.7034C187.391 60.7304 186.853 60.7924 186.316 60.8464L184.78 61.0154C183.758 61.1294 182.728 61.2214 181.701 61.3254L175.521 61.8964C167.273 62.6254 159.009 63.3424 150.753 64.2734Z" fill="#C4D8E8"/>
<path opacity="0.5" d="M69.3316 49.1387C67.5671 45.2596 64.6829 41.9968 61.0496 39.7697C59.1694 38.6341 57.0888 37.87 54.9206 37.5187C53.8286 37.356 52.7239 37.2944 51.6206 37.3347C50.5392 37.4052 49.4634 37.5442 48.3996 37.7507C46.2606 38.1558 44.1985 38.8941 42.2886 39.9387C40.3672 41.0118 38.6905 42.4735 37.3656 44.2307C36.0761 45.9644 35.149 47.94 34.6396 50.0397C34.1168 52.0762 33.9865 54.1935 34.2556 56.2787C34.4727 54.2601 34.9778 52.2831 35.7556 50.4077C36.135 49.4962 36.584 48.6153 37.0986 47.7727C37.6147 46.9523 38.2027 46.1792 38.8556 45.4627C39.4955 44.7525 40.2069 44.1101 40.9786 43.5457C41.7402 42.9747 42.5538 42.4765 43.4086 42.0577C45.1422 41.2251 46.9837 40.6388 48.8796 40.3157C49.8267 40.1439 50.783 40.0267 51.7436 39.9647C52.6845 39.9273 53.627 39.9624 54.5626 40.0697C56.4556 40.3184 58.2957 40.8733 60.0106 41.7127C63.585 43.5366 66.7551 46.0622 69.3316 49.1387Z" fill="#C4D8E8"/>
</g>
</g>
</svg>
