<svg width="36" height="50" viewBox="0 0 36 50" fill="none" xmlns="http://www.w3.org/2000/svg">
<path d="M18.9426 49.923C8.07359 49.1312 -0.914979 42.2302 0.0747532 35.3202C0.803556 30.2096 7.2908 30.7135 18.1689 31.5053C29.0379 32.297 35.4622 36.3549 35.4622 41.5554C35.4622 46.7559 27.6883 50.5618 18.9426 49.932V49.923Z" fill="#267DD5"/>
<path d="M19.9954 18.3968C11.2677 16.2824 0.0747532 20.0523 0.0747532 35.321C-0.914979 42.231 8.07359 49.141 18.9426 49.9238C27.6883 50.5626 35.4622 46.9096 35.4622 41.5472C35.4622 33.6294 34.0765 21.8068 19.9954 18.3878V18.3968Z" fill="url(#paint0_linear_2556_17062)"/>
<path d="M23.2179 22.5254C23.2179 22.5254 18.0983 29.2734 13.6535 41.195C8.60583 28.7156 8.92974 19.1423 8.92974 19.1423L17.1625 19.5202L23.2089 22.5344L23.2179 22.5254Z" fill="#FCFCFC"/>
<path d="M26.4568 18.3506C24.1894 21.8956 20.7973 26.3313 16.9734 27.258C11.008 28.7066 6.61716 18.7105 6.61716 12.5652C6.61716 6.42 10.3511 1.1925 16.3975 0.139801C24.2614 -1.23681 33.25 7.75162 26.4568 18.3506Z" fill="url(#paint1_radial_2556_17062)"/>
<path d="M28.7489 9.42552C27.9121 3.27128 21.8838 -0.822553 16.3952 0.140172C12.2654 0.859966 9.22418 3.5232 7.70359 7.09518C7.36168 7.90495 7.10075 8.7687 6.9118 9.65945C7.35268 9.42552 7.72158 9.00263 8.22545 8.93065C8.72931 8.85868 9.37714 9.31754 10.1059 9.76742C10.8437 10.1093 10.965 10.8291 11.9997 11.171C12.9997 12.2237 13.8159 12.7211 14.4997 13C16.7041 13.8992 17.4997 14 17.9997 13C18.4997 12 17.9997 11.6989 18.7436 11.315C19.4875 10.931 19.5624 11.162 19.9493 11.171C22.0547 11.4859 23.3684 14.617 25.6357 15.4088C26.2566 15.6247 27.2373 15.4358 28.1281 14.9409C28.8119 12.9795 28.9828 11.117 28.7489 9.41652V9.42552Z" fill="#1F1C18"/>
<defs>
<linearGradient id="paint0_linear_2556_17062" x1="-0.00622491" y1="33.9264" x2="35.4622" y2="33.9264" gradientUnits="userSpaceOnUse">
<stop stop-color="#348EE2"/>
<stop offset="1" stop-color="#075493"/>
</linearGradient>
<radialGradient id="paint1_radial_2556_17062" cx="0" cy="0" r="1" gradientUnits="userSpaceOnUse" gradientTransform="translate(4.70967 4.94443) scale(27.6855 27.6851)">
<stop stop-color="#FFF7B0"/>
<stop offset="0.26" stop-color="#FFF0AA"/>
<stop offset="0.61" stop-color="#FFDF9C"/>
<stop offset="1" stop-color="#FFC485"/>
</radialGradient>
</defs>
</svg>
