<svg width="129" height="210" viewBox="0 0 129 210" fill="none" xmlns="http://www.w3.org/2000/svg">
<g filter="url(#filter0_d_4333_7880)">
<path d="M38.4525 103.855C39.1617 101.155 39.6036 99.6075 39.6036 99.6075L42.7534 100.192L13.1399 94.6922C8.34658 77.3913 17.0392 60.0263 17.0392 60.0263L19.7668 54.3377C19.9725 53.9084 20.3095 53.5556 20.7289 53.3303C21.1484 53.1051 21.6285 53.019 22.1001 53.0845C22.0983 53.0779 22.0985 53.071 22.1007 53.0646C22.2937 52.4013 31.0358 22.3946 50.2241 10.7C50.3586 10.619 50.5145 10.5808 50.6712 10.5906C50.8279 10.6004 50.9779 10.6576 51.1012 10.7548C51.2246 10.8519 51.3154 10.9844 51.3616 11.1344C51.4078 11.2845 51.4072 11.445 51.3598 11.5947L49.3453 18.025C49.33 18.0732 49.3212 18.1231 49.3189 18.1735C49.3179 18.2752 49.3472 18.3749 49.403 18.46C49.4588 18.5451 49.5386 18.6116 49.6323 18.6512C49.726 18.6908 49.8294 18.7017 49.9293 18.6824C50.0291 18.6631 50.1211 18.6146 50.1933 18.543C52.3656 16.391 56.7061 12.6197 62.1507 10.6295L62.1532 10.6296C62.7161 10.4211 63.2878 10.2343 63.8722 10.0718L63.8721 10.0743C63.7015 10.2572 57.9113 16.6016 58.7914 20.926C58.7933 20.9337 58.7971 20.9408 58.8023 20.9467C58.8075 20.9526 58.8141 20.9572 58.8214 20.9601C58.8288 20.963 58.8367 20.9641 58.8446 20.9634C58.8524 20.9626 58.86 20.9599 58.8666 20.9556L65.7674 16.1946C65.7756 16.1896 65.7851 16.1871 65.7947 16.1874C65.8043 16.1878 65.8136 16.1908 65.8215 16.1964C65.8294 16.2019 65.8355 16.2095 65.8392 16.2184C65.8428 16.2274 65.8437 16.2371 65.8419 16.2466L64.6241 21.3557C64.6241 21.3557 64.6963 21.3036 64.833 21.2068C66.2265 20.2258 73.4178 14.2179 78.8808 14.1535C78.8808 14.1535 78.8638 14.1883 78.8281 14.2514C78.3716 15.1067 75.1592 21.3046 74.9096 24.2008C74.8995 24.3228 74.9214 24.4454 74.973 24.5565C75.0247 24.6675 75.1044 24.7632 75.2043 24.8341C75.3042 24.905 75.4208 24.9486 75.5427 24.9607C75.6646 24.9728 75.7875 24.9529 75.8994 24.903C77.7324 24.0944 82.0931 22.2673 85.0117 21.8698C85.0877 21.8588 85.1651 21.8611 85.2403 21.8767C85.3429 21.9017 85.4379 21.9515 85.5168 22.0218C85.5957 22.092 85.6562 22.1805 85.693 22.2795C85.7298 22.3786 85.7418 22.4851 85.7278 22.5899C85.7139 22.6946 85.6745 22.7943 85.6131 22.8803C84.8972 23.8771 84.1306 25.6215 84.5615 28.2526C84.562 28.259 84.5639 28.2653 84.5671 28.271C84.5703 28.2767 84.5747 28.2816 84.58 28.2853C84.5853 28.2891 84.5914 28.2917 84.5978 28.2928C84.6042 28.294 84.6108 28.2937 84.617 28.292C85.7638 28.013 86.8517 27.532 87.8299 26.8717C87.9027 26.8161 87.9877 26.7789 88.0779 26.7631C88.1681 26.7472 88.2607 26.7533 88.348 26.7808C88.4744 26.8189 88.5847 26.8977 88.6618 27.0049C88.7389 27.112 88.7785 27.2416 88.7745 27.3736L88.6693 30.878C88.669 30.8865 88.6711 30.8949 88.6752 30.9024C88.6794 30.9098 88.6855 30.916 88.6929 30.9202C88.7003 30.9244 88.7087 30.9265 88.7172 30.9263C88.7258 30.9261 88.734 30.9235 88.7412 30.9189C89.5081 30.4266 95.9178 26.4159 100.797 26.5658C101.009 26.5709 101.216 26.6261 101.402 26.7266C101.589 26.8272 101.748 26.9704 101.869 27.1445C101.989 27.3186 102.067 27.5186 102.095 27.7284C102.123 27.9381 102.101 28.1516 102.032 28.3513C101.189 30.7138 99.7644 35.1939 100.451 36.7174C100.454 36.7237 100.459 36.7294 100.464 36.7338C100.469 36.7383 100.476 36.7414 100.482 36.743C100.489 36.7446 100.496 36.7446 100.503 36.743C100.51 36.7415 100.516 36.7383 100.522 36.7339C100.906 36.432 103.679 34.3005 106.554 33.6705C106.645 33.6497 106.74 33.6566 106.827 33.6902C106.913 33.7238 106.988 33.7827 107.041 33.8592C107.094 33.9357 107.123 34.0264 107.124 34.1195C107.126 34.2126 107.099 34.3039 107.048 34.3817C106.225 35.64 104.916 37.979 105.462 39.4116C105.464 39.4182 105.468 39.4243 105.473 39.4293C105.478 39.4343 105.484 39.4382 105.49 39.4407C105.497 39.4432 105.504 39.4442 105.511 39.4438C105.518 39.4433 105.525 39.4414 105.531 39.4381L106.714 38.7324C106.792 38.6855 106.882 38.6605 106.974 38.6602C107.065 38.6599 107.155 38.6843 107.235 38.7307C107.314 38.7771 107.379 38.8438 107.423 38.924C107.467 39.0041 107.49 39.0948 107.487 39.1864L107.396 42.2231C107.396 42.2316 107.399 42.2399 107.403 42.2472C107.408 42.2544 107.414 42.2604 107.422 42.2645C107.429 42.2686 107.438 42.2706 107.446 42.2705C107.455 42.2703 107.463 42.268 107.471 42.2636C108.092 41.7947 112.287 38.6981 115.469 38.3249C115.563 38.3144 115.659 38.334 115.742 38.3809C115.825 38.4278 115.891 38.4996 115.931 38.5861C115.971 38.6727 115.982 38.7696 115.964 38.8632C115.946 38.9567 115.899 39.0421 115.829 39.1073C115.089 39.8094 114.217 40.9249 114.463 42.1505C114.465 42.1577 114.468 42.1644 114.472 42.1702C114.476 42.1759 114.482 42.1806 114.489 42.1837C114.495 42.1869 114.502 42.1885 114.51 42.1883C114.517 42.1882 114.524 42.1863 114.531 42.1829C114.879 42.0078 116.861 41.0321 117.877 41.2123C117.886 41.2143 117.894 41.2186 117.9 41.2246C117.906 41.2306 117.911 41.2382 117.913 41.2466C117.916 41.255 117.916 41.2639 117.914 41.2724C117.912 41.281 117.908 41.2888 117.902 41.2951C116.785 42.5172 99.689 61.3865 93.6252 74.7289L94.3153 75.3361C94.5946 75.5815 94.7815 75.9151 94.8448 76.2815C94.9081 76.6478 94.8441 77.0249 94.6633 77.3498L92.8193 80.6662L92.3729 80.3742C90.0313 86.7107 89.2976 93.5401 89.0681 97.3103C89.0147 98.2056 88.7228 99.0703 88.2227 99.8147C87.7227 100.559 87.0326 101.156 86.224 101.544L76.1133 106.384L56.3532 102.715C51.0061 122.977 56.1498 158.559 56.1498 158.559C62.8044 197.074 45.4303 195.101 45.4303 195.101C44.5472 195.222 43.6557 195.271 42.7646 195.248C16.3675 194.458 33.615 122.285 38.4525 103.855Z" fill="white" stroke="white" stroke-width="10"/>
</g>
<path d="M86.1907 101.831L76.0642 106.616L13.2026 94.6149C8.50084 77.3046 17.2728 59.9981 17.2728 59.9981L57.6979 64.0734L83.8068 72.0676L92.9393 79.4467C90.1743 86.1016 89.3182 93.597 89.0531 97.6154C88.9952 98.5095 88.6993 99.3718 88.196 100.113C87.6927 100.854 87.0003 101.447 86.1907 101.831Z" fill="#FFBE44"/>
<path d="M86.1905 101.83L76.0635 106.617C76.0635 106.617 78.1467 79.9491 83.8066 72.0682L92.9391 79.4472C90.1741 86.1022 89.3179 93.5986 89.0528 97.6174C88.9945 98.5109 88.6984 99.3726 88.1951 100.113C87.6918 100.854 86.9997 101.446 86.1905 101.83Z" fill="#FD8A2E"/>
<path d="M44.9609 195.101C14.7912 198.965 33.3642 122.876 38.447 103.897C39.1698 101.203 39.6191 99.6592 39.6191 99.6592L56.3397 102.849C50.8954 123.065 55.855 158.643 55.855 158.643C62.3103 197.16 44.9609 195.101 44.9609 195.101Z" fill="#FFBE44"/>
<path d="M44.9611 195.101C51.6254 191.342 52.9437 170.017 52.995 163.443C53.0201 159.89 51.6941 122.024 51.9989 113.324C52.3037 104.624 38.4472 103.897 38.4472 103.897C39.1699 101.203 39.6192 99.6592 39.6192 99.6592L56.3399 102.849C50.8955 123.065 55.8551 158.643 55.8551 158.643C62.3094 197.16 44.9611 195.101 44.9611 195.101Z" fill="#FD8A2E"/>
<path d="M118.144 41.7923C116.979 43.0554 98.4821 63.2654 93.0554 76.6064C93.0534 76.6125 93.05 76.6181 93.0455 76.6229C93.041 76.6276 93.0355 76.6313 93.0295 76.6336C93.0234 76.636 93.017 76.6371 93.0105 76.6367C93.004 76.6363 92.9976 76.6345 92.9919 76.6315L83.8111 72.0346L80.1891 70.22C80.186 70.2179 80.1824 70.2169 80.1787 70.2171L23.8144 58.8131C23.8053 58.8114 23.797 58.807 23.7905 58.8004C23.7839 58.7939 23.7796 58.7856 23.7779 58.7765L22.3634 53.0911C22.3607 53.0832 22.361 53.0745 22.3643 53.0668C22.5609 52.4061 31.4463 22.4687 50.6772 10.8806C50.8119 10.8003 50.9679 10.7629 51.1245 10.7734C51.281 10.784 51.4305 10.842 51.5533 10.9397C51.676 11.0374 51.7661 11.1701 51.8115 11.3203C51.8569 11.4704 51.8555 11.6309 51.8074 11.7802L49.7627 18.1949C49.7472 18.2429 49.7381 18.2927 49.7357 18.3431C49.7339 18.4449 49.7625 18.5448 49.8178 18.6302C49.8731 18.7157 49.9525 18.7827 50.0461 18.8228C50.1396 18.8629 50.2429 18.8742 50.3429 18.8553C50.4429 18.8364 50.535 18.7881 50.6075 18.7167C52.7887 16.5774 57.145 12.8312 62.595 10.8696L62.5975 10.8697C63.1599 10.6647 63.7321 10.4804 64.3173 10.3215L64.3172 10.3239C64.1478 10.5059 58.3302 16.8158 59.1883 21.141C59.1901 21.1487 59.1938 21.1559 59.1989 21.1619C59.2041 21.1679 59.2106 21.1726 59.2179 21.1756C59.2253 21.1785 59.2332 21.1797 59.2411 21.179C59.249 21.1783 59.2566 21.1757 59.2633 21.1715L66.1821 16.4491C66.1903 16.4442 66.1998 16.4418 66.2094 16.4421C66.219 16.4425 66.2283 16.4456 66.2362 16.4512C66.244 16.4567 66.2501 16.4644 66.2537 16.4733C66.2573 16.4823 66.2582 16.492 66.2563 16.5015L65.0109 21.598C65.0109 21.598 65.0833 21.5464 65.2204 21.4503C66.618 20.4786 73.834 14.512 79.2941 14.4751C79.2941 14.4751 79.277 14.5098 79.241 14.5727C78.7806 15.425 75.5403 21.5991 75.2759 24.494C75.2652 24.6159 75.2864 24.7384 75.3375 24.8496C75.3886 24.9608 75.4677 25.0568 75.5671 25.1282C75.6665 25.1995 75.7828 25.2438 75.9045 25.2566C76.0262 25.2693 76.1492 25.2502 76.2612 25.2011C78.0967 24.4029 82.463 22.5987 85.3805 22.2162C85.4566 22.2057 85.5338 22.2084 85.6089 22.2242C85.7113 22.2498 85.8058 22.3 85.8842 22.3706C85.9627 22.4411 86.0227 22.5298 86.0589 22.6289C86.0952 22.7279 86.1066 22.8344 86.0922 22.9389C86.0778 23.0434 86.0381 23.1428 85.9764 23.2284C85.2561 24.2207 84.4818 25.9599 84.8987 28.5908C84.8992 28.5973 84.901 28.6036 84.9042 28.6093C84.9074 28.6149 84.9117 28.6198 84.917 28.6236C84.9223 28.6274 84.9283 28.63 84.9347 28.6312C84.9411 28.6324 84.9477 28.6322 84.954 28.6305C86.1013 28.3572 87.1909 27.8819 88.1718 27.227C88.2448 27.172 88.33 27.1353 88.4201 27.12C88.5103 27.1047 88.6028 27.1114 88.6899 27.1393C88.8159 27.1781 88.9255 27.2574 89.0019 27.3649C89.0783 27.4723 89.1172 27.602 89.1125 27.7337L88.9898 31.2351C88.9896 31.2436 88.9916 31.252 88.9958 31.2593C88.9999 31.2667 89.006 31.2728 89.0134 31.277C89.0207 31.2812 89.0291 31.2833 89.0376 31.2831C89.046 31.2829 89.0543 31.2804 89.0614 31.2759C89.8302 30.7878 96.2545 26.8133 101.129 26.987C101.34 26.9932 101.547 27.0492 101.733 27.1506C101.918 27.252 102.077 27.3959 102.197 27.5704C102.316 27.745 102.393 27.9453 102.42 28.155C102.447 28.3648 102.424 28.578 102.353 28.7773C101.5 31.1336 100.054 35.6027 100.733 37.1283C100.735 37.1345 100.74 37.1401 100.745 37.1444C100.751 37.1488 100.757 37.1519 100.764 37.1535C100.77 37.155 100.777 37.1551 100.784 37.1535C100.791 37.152 100.797 37.149 100.803 37.1446C101.189 36.845 103.969 34.7292 106.845 34.1141C106.936 34.0938 107.031 34.1012 107.118 34.1352C107.204 34.1693 107.279 34.2285 107.331 34.3052C107.384 34.3819 107.412 34.4726 107.413 34.5656C107.414 34.6587 107.386 34.7498 107.335 34.8272C106.507 36.0808 105.187 38.4108 105.725 39.8449C105.727 39.8515 105.731 39.8576 105.736 39.8626C105.741 39.8676 105.747 39.8715 105.754 39.8741C105.76 39.8766 105.767 39.8777 105.774 39.8773C105.781 39.8769 105.788 39.875 105.795 39.8717L106.979 39.173C107.058 39.1264 107.148 39.1018 107.24 39.1019C107.331 39.102 107.421 39.1267 107.5 39.1735C107.579 39.2203 107.644 39.2874 107.688 39.3678C107.731 39.4482 107.753 39.5389 107.75 39.6305L107.643 42.6642C107.644 42.6728 107.646 42.6812 107.651 42.6886C107.655 42.6959 107.662 42.7019 107.669 42.7061C107.677 42.7102 107.685 42.7123 107.694 42.7121C107.703 42.7119 107.711 42.7095 107.719 42.7051C108.341 42.2397 112.548 39.1668 115.729 38.81C115.824 38.7997 115.92 38.8196 116.002 38.8668C116.085 38.914 116.151 38.9861 116.19 39.0728C116.23 39.1595 116.241 39.2564 116.222 39.3498C116.203 39.4432 116.156 39.5283 116.086 39.593C115.343 40.2908 114.466 41.4009 114.706 42.6268C114.707 42.6339 114.71 42.6406 114.714 42.6464C114.719 42.6522 114.724 42.6569 114.731 42.6601C114.738 42.6632 114.745 42.6648 114.752 42.6647C114.759 42.6646 114.766 42.6628 114.773 42.6594C115.122 42.4862 117.107 41.5213 118.121 41.707C118.13 41.709 118.138 41.7134 118.145 41.7197C118.151 41.726 118.156 41.734 118.158 41.7428C118.161 41.7516 118.161 41.7609 118.158 41.7696C118.155 41.7783 118.151 41.7861 118.144 41.7923Z" fill="#D17B11"/>
<path d="M117.352 42.6613C113.532 46.8916 97.9196 64.5993 93.0381 76.6544L83.8114 72.0331C89.413 56.9763 100.757 37.1842 100.757 37.1842C100.757 37.1842 104.493 34.1793 107.947 33.9628C107.947 33.9628 104.908 37.874 105.744 39.9007L107.781 38.7005L107.639 42.7659C107.639 42.7659 111.91 39.4834 115.297 38.8738C115.418 38.8506 115.543 38.8663 115.654 38.9185C115.766 38.9708 115.857 39.0569 115.917 39.1646C115.976 39.2723 116 39.396 115.984 39.518C115.969 39.64 115.915 39.7539 115.831 39.8435C115.145 40.5542 114.465 41.5769 114.717 42.6878C115.401 42.3414 116.115 42.0581 116.85 41.8413C116.954 41.8121 117.066 41.8177 117.167 41.8575C117.268 41.8972 117.354 41.9689 117.411 42.0616C117.467 42.1544 117.492 42.2631 117.482 42.3713C117.471 42.4795 117.426 42.5813 117.352 42.6613Z" fill="#C0690C"/>
<path d="M62.596 10.8681C56.5469 14.2081 44.7225 31.871 41.2539 37.1835C41.2078 37.2558 41.1371 37.3089 41.0548 37.3329C40.9725 37.3569 40.8842 37.3502 40.8065 37.3141C40.7288 37.2779 40.6668 37.2148 40.6321 37.1363C40.5975 37.0579 40.5924 36.9696 40.618 36.8878C42.3202 31.2241 49.7622 18.1949 49.7622 18.1949C49.7467 18.2429 49.7376 18.2927 49.7352 18.3431C49.7336 18.4447 49.7624 18.5445 49.8177 18.6298C49.873 18.715 49.9524 18.7819 50.0459 18.822C50.1393 18.862 50.2425 18.8734 50.3424 18.8546C50.4423 18.8358 50.5344 18.7878 50.6069 18.7166C52.7882 16.5759 57.1441 12.8276 62.596 10.8681Z" fill="#C0690C"/>
<path d="M79.2922 14.4771C77.0654 15.3625 61.9576 35.4527 58.5017 40.0766C58.4417 40.1569 58.3581 40.2165 58.2625 40.247C58.167 40.2774 58.0644 40.2773 57.9689 40.2466C57.8735 40.2158 57.7901 40.156 57.7303 40.0756C57.6705 39.9951 57.6374 39.8979 57.6355 39.7977C57.5922 34.0679 65.2205 21.4508 65.2205 21.4508C66.6182 20.4787 73.8341 14.5121 79.2922 14.4771Z" fill="#C0690C"/>
<path d="M88.6882 27.1422C84.0332 32.3629 73.1627 47.857 73.1627 47.857C73.8629 38.2862 85.3789 22.2192 85.3789 22.2192L85.6072 22.2272C85.7096 22.2527 85.8041 22.303 85.8826 22.3735C85.961 22.444 86.021 22.5327 86.0572 22.6318C86.0935 22.7309 86.1049 22.8373 86.0905 22.9418C86.0762 23.0463 86.0364 23.1457 85.9747 23.2313C85.2544 24.2237 84.4801 25.9628 84.897 28.5937C84.8975 28.6002 84.8993 28.6065 84.9025 28.6122C84.9057 28.6179 84.9101 28.6228 84.9153 28.6266C84.9206 28.6304 84.9267 28.6329 84.933 28.6341C84.9394 28.6353 84.946 28.6351 84.9523 28.6334C86.0996 28.3601 87.1892 27.8849 88.1701 27.23C88.2431 27.1749 88.3283 27.1381 88.4184 27.1229C88.5086 27.1076 88.6011 27.1142 88.6882 27.1422Z" fill="#C0690C"/>
<path d="M94.7442 77.7L92.8845 81.0044L82.5705 74.1864L17.2726 59.9982L20.0264 54.3281C20.2482 53.8711 20.6185 53.5028 21.0769 53.2837C21.5352 53.0646 22.0543 53.0076 22.5493 53.122L85.3896 67.676L94.4051 75.6858C94.6832 75.9323 94.8685 76.2666 94.9302 76.633C94.9919 76.9995 94.9263 77.3761 94.7442 77.7Z" fill="#B4BDCF"/>
<path d="M94.7442 77.6975L92.8845 81.0018L82.5705 74.1859L85.3896 67.676L94.4051 75.6857C94.6826 75.9321 94.8676 76.2659 94.9292 76.6319C94.9909 76.9978 94.9256 77.3738 94.7442 77.6975Z" fill="#999999"/>
<path d="M66.5494 81.0262C66.4341 81.3245 66.307 81.6183 66.1708 81.9008C64.8987 84.5403 62.6545 86.585 59.9083 87.6065C57.1621 88.628 54.1272 88.5469 51.4394 87.3804C48.7516 86.2139 46.6197 84.0523 45.4903 81.3488C44.3608 78.6452 44.3216 75.6094 45.3808 72.8775C45.5225 72.5073 45.6845 72.1452 45.8662 71.7929C47.1874 69.2054 49.4512 67.2236 52.1907 66.2563C54.9303 65.289 57.9366 65.41 60.5895 66.5943C63.2425 67.7786 65.3397 69.9359 66.4487 72.6213C67.5576 75.3066 67.5937 78.3151 66.5494 81.0262Z" fill="white"/>
<path d="M52.1398 82.9423C55.2214 83.0503 57.8071 80.6396 57.915 77.558C58.023 74.4764 55.6124 71.8907 52.5307 71.7828C49.4491 71.6748 46.8635 74.0854 46.7555 77.167C46.6475 80.2487 49.0582 82.8343 52.1398 82.9423Z" fill="black"/>
<path d="M51.7483 79.5601C53.0182 79.6046 54.0837 78.6112 54.1282 77.3413C54.1727 76.0714 53.1793 75.0059 51.9094 74.9614C50.6395 74.9169 49.574 75.9103 49.5295 77.1802C49.485 78.4501 50.4784 79.5156 51.7483 79.5601Z" fill="white"/>
<path d="M54.9092 77.5933C55.7877 77.6241 56.5249 76.9368 56.5557 76.0582C56.5865 75.1797 55.8992 74.4425 55.0206 74.4117C54.142 74.3809 53.4049 75.0682 53.3741 75.9468C53.3433 76.8254 54.0306 77.5625 54.9092 77.5933Z" fill="white"/>
<path d="M66.1694 81.9007C64.9293 84.4588 62.7737 86.4577 60.1296 87.5018C57.4855 88.5458 54.5457 88.5587 51.8925 87.538C49.6737 86.6879 47.7791 85.1605 46.4778 83.1725L46.478 83.166C46.478 83.166 57.7931 89.0641 66.1694 81.9007Z" fill="#D2EAF4"/>
<path d="M62.8826 67.9637L62.8825 67.9667C57.3955 66.3299 46.8843 71.2992 45.8663 71.7934C46.6245 70.3117 47.6993 69.0149 49.0147 67.995C50.33 66.9751 51.8535 66.2571 53.4774 65.8918C55.1012 65.5264 56.7855 65.5228 58.4109 65.8812C60.0362 66.2395 61.5629 66.951 62.8826 67.9652L62.8826 67.9637Z" fill="#D2EAF4"/>
<path d="M43.9174 76.6795C43.8337 76.8977 43.7401 77.1127 43.6405 77.319C42.7079 79.2431 41.0679 80.7325 39.063 81.4757C37.0582 82.219 34.8436 82.1587 32.8822 81.3075C30.9207 80.4562 29.3641 78.8799 28.5377 76.9078C27.7112 74.9358 27.6789 72.7207 28.4474 70.7253C28.5506 70.4545 28.6691 70.1898 28.8023 69.9324C29.7684 68.0427 31.4227 66.5956 33.4242 65.8894C35.4257 65.1832 37.6218 65.2718 39.5599 66.1369C41.498 67.0021 43.0303 68.5778 43.8411 70.5392C44.6518 72.5007 44.6791 74.6984 43.9174 76.6795Z" fill="white"/>
<path d="M43.6406 77.3185C42.7342 79.1881 41.1588 80.6492 39.2262 81.4123C37.2937 82.1754 35.1451 82.1849 33.2059 81.4389C31.5844 80.8173 30.1999 79.7008 29.2487 78.248L29.2489 78.2435C29.2489 78.2435 37.5181 82.5529 43.6406 77.3185Z" fill="#D2EAF4"/>
<path d="M41.2375 67.1332L41.2374 67.1357C37.2273 65.9413 29.5464 69.5711 28.802 69.9323C29.356 68.8494 30.1414 67.9016 31.1026 67.1561C32.0637 66.4106 33.1771 65.8857 34.3638 65.6186C35.5505 65.3515 36.7815 65.3487 37.9693 65.6105C39.1572 65.8722 40.273 66.3921 41.2375 67.1332Z" fill="#D2EAF4"/>
<path d="M38.6409 78.3801C40.674 78.4513 42.3798 76.861 42.451 74.828C42.5222 72.7949 40.9319 71.0891 38.8989 71.0179C36.8658 70.9467 35.16 72.537 35.0888 74.57C35.0176 76.6031 36.6079 78.3089 38.6409 78.3801Z" fill="black"/>
<path d="M38.3862 76.3007C39.2239 76.33 39.9268 75.6747 39.9562 74.837C39.9855 73.9993 39.3302 73.2964 38.4925 73.267C37.6547 73.2377 36.9518 73.893 36.9225 74.7307C36.8931 75.5684 37.5485 76.2713 38.3862 76.3007Z" fill="white"/>
<path d="M39.907 74.1885C40.4867 74.2088 40.973 73.7553 40.9934 73.1757C41.0137 72.596 40.5602 72.1096 39.9805 72.0893C39.4008 72.069 38.9144 72.5224 38.8941 73.1021C38.8738 73.6818 39.3273 74.1682 39.907 74.1885Z" fill="white"/>
<path d="M48.6448 91.8902L46.4052 99.0582C46.4052 99.0582 39.4724 98.958 37.3676 96.0904C37.3676 96.0904 37.7464 93.6077 40.3485 90.3249C40.3485 90.3249 43.0798 93.9104 48.6448 91.8902Z" fill="#F2FDF2"/>
<path d="M54.2098 89.8706C54.2098 89.8706 43.353 96.5603 36.9488 86.7649" stroke="#D17B11" stroke-width="2.99884" stroke-miterlimit="10"/>
<path d="M41.5547 96.5952C41.5547 96.5952 38.7986 94.3844 39.5781 93.335C39.5781 93.335 38.5399 95.1703 38.8025 95.694C39.065 96.2177 40.2461 96.6011 41.5547 96.5952Z" fill="#D2EAF4"/>
<path d="M38.5665 179.426C40.0297 179.477 41.2319 179.062 41.2516 178.5C41.2713 177.937 40.1011 177.439 38.6379 177.388C37.1747 177.337 35.9726 177.751 35.9528 178.314C35.9331 178.877 37.1033 179.374 38.5665 179.426Z" fill="#9C5118"/>
<path d="M36.6057 182.187C36.9681 181.442 36.6272 180.53 35.8445 180.149C35.0617 179.768 34.1334 180.062 33.771 180.807C33.4087 181.551 33.7495 182.463 34.5323 182.844C35.3151 183.225 36.2434 182.931 36.6057 182.187Z" fill="#9C5118"/>
<path d="M39.6219 183.843C39.8548 183.364 39.636 182.778 39.1332 182.533C38.6304 182.289 38.034 182.478 37.8012 182.956C37.5683 183.435 37.7871 184.021 38.2899 184.266C38.7927 184.51 39.389 184.321 39.6219 183.843Z" fill="#9C5118"/>
<path d="M35.6508 185.755C35.7785 185.493 35.6583 185.171 35.3824 185.037C35.1065 184.903 34.7793 185.007 34.6516 185.269C34.5239 185.531 34.644 185.853 34.9199 185.987C35.1958 186.121 35.523 186.018 35.6508 185.755Z" fill="#9C5118"/>
<path d="M44.9606 188.434C45.4895 188.241 45.5112 186.969 45.0092 185.594C44.5071 184.218 43.6713 183.26 43.1425 183.453C42.6136 183.646 42.5918 184.918 43.0939 186.293C43.5959 187.668 44.4317 188.627 44.9606 188.434Z" fill="#9C5118"/>
<path d="M44.9091 181.401C45.8705 181.05 46.4792 180.298 46.2688 179.721C46.0583 179.144 45.1083 178.962 44.1469 179.313C43.1855 179.663 42.5768 180.415 42.7873 180.992C42.9977 181.569 43.9477 181.751 44.9091 181.401Z" fill="#9C5118"/>
<path d="M39.2196 188.737C39.3473 188.474 39.2272 188.153 38.9513 188.019C38.6753 187.884 38.3481 187.988 38.2204 188.25C38.0927 188.513 38.2129 188.834 38.4888 188.969C38.7647 189.103 39.0919 188.999 39.2196 188.737Z" fill="#9C5118"/>
<defs>
<filter id="filter0_d_4333_7880" x="0.697861" y="0.435303" width="128.218" height="208.818" filterUnits="userSpaceOnUse" color-interpolation-filters="sRGB">
<feFlood flood-opacity="0" result="BackgroundImageFix"/>
<feColorMatrix in="SourceAlpha" type="matrix" values="0 0 0 0 0 0 0 0 0 0 0 0 0 0 0 0 0 0 127 0" result="hardAlpha"/>
<feOffset dy="3"/>
<feGaussianBlur stdDeviation="3"/>
<feColorMatrix type="matrix" values="0 0 0 0 0 0 0 0 0 0 0 0 0 0 0 0 0 0 0.161 0"/>
<feBlend mode="normal" in2="BackgroundImageFix" result="effect1_dropShadow_4333_7880"/>
<feBlend mode="normal" in="SourceGraphic" in2="effect1_dropShadow_4333_7880" result="shape"/>
</filter>
</defs>
</svg>
