<svg width="53" height="48" viewBox="0 0 53 48" fill="none" xmlns="http://www.w3.org/2000/svg">
<g clip-path="url(#clip0_2556_17424)">
<path d="M17.2185 4.96357C12.2364 2.08545 7.83275 1.54319 5.19578 3.06568L2.60049 4.5621C5.24268 3.03961 9.6411 3.58186 14.6284 6.4652C22.7061 11.1317 29.2516 20.1571 29.2516 26.6225C29.2516 29.0991 28.2927 30.8458 26.6511 31.7896L29.2464 30.2931C30.8828 29.3494 31.8469 27.6027 31.8469 25.1261C31.8469 18.6555 25.3014 9.63531 17.2237 4.96879L17.2185 4.96357Z" fill="url(#paint0_linear_2556_17424)"/>
<path d="M14.6232 6.46529C9.6411 3.58717 5.23746 3.0397 2.59528 4.56219C0.958899 5.51113 0 7.25261 0 9.72925C0 13.0662 1.75103 17.0758 4.54435 20.8246L2.04808 25.2982L8.68741 25.4494C10.501 27.144 12.5074 28.6717 14.6232 29.8918C19.6053 32.7699 24.0037 33.3173 26.6459 31.7896C28.2875 30.8459 29.2464 29.0992 29.2464 26.6226C29.2464 20.152 22.7009 11.1318 14.6232 6.46529Z" fill="#FFC600"/>
<path d="M50.3839 46.0865L47.0694 48.0001L43.8853 38.6045L47.1997 36.6909L50.3839 46.0865Z" fill="url(#paint1_linear_2556_17424)"/>
<path d="M34.3275 3.48309C27.9644 -0.192772 22.3465 -0.886233 18.9747 1.05859L15.6603 2.97212C19.0321 1.0273 24.65 1.72598 31.0131 5.39663C41.3265 11.351 49.6855 22.8791 49.6855 31.1381C49.6855 34.2926 48.4609 36.5085 46.3711 37.7129L49.6855 35.7994C51.7701 34.595 53 32.379 53 29.2246C53 20.9604 44.6409 9.43747 34.3275 3.48309Z" fill="url(#paint2_linear_2556_17424)"/>
<path d="M43.8852 38.6046C44.8077 38.4325 45.6415 38.1353 46.3711 37.713C48.4557 36.5085 49.6855 34.2926 49.6855 31.1381C49.6855 22.874 41.3264 11.351 31.0131 5.39667C24.6499 1.7208 19.0321 1.02734 15.6603 2.97216C13.5653 4.18181 12.3406 6.40818 12.3406 9.57307C12.3406 17.832 20.6997 29.355 31.0079 35.3093C33.7074 36.8683 36.2662 37.8798 38.5852 38.3908L47.0642 48.0002L43.88 38.6046H43.8852Z" fill="#B1D400"/>
<path d="M31.086 16.4344C30.148 15.8922 29.3037 15.84 28.6888 16.1946L26.3072 17.5711C26.9221 17.2165 27.7664 17.2687 28.7044 17.8109C30.5753 18.8902 32.097 21.5233 32.097 23.6871C32.097 24.7716 31.7166 25.5276 31.1017 25.8822L33.4833 24.5057C34.0982 24.1511 34.4787 23.3899 34.4787 22.3106C34.4787 20.1468 32.9621 17.5189 31.086 16.4344Z" fill="white"/>
<path d="M25.3118 19.7661C25.3118 21.9299 26.8283 24.5578 28.7044 25.6423C29.6425 26.1846 30.4867 26.2367 31.1017 25.8821C31.7166 25.5276 32.097 24.7663 32.097 23.6871C32.097 21.5232 30.5805 18.8954 28.7044 17.8109C27.7664 17.2686 26.9169 17.2165 26.3072 17.571C25.6922 17.9256 25.3118 18.6868 25.3118 19.7661Z" fill="#F0F0F0"/>
<path d="M22.2319 12.4144C21.5439 12.0181 20.9238 11.9816 20.4704 12.2371L18.7246 13.2486C19.1728 12.9879 19.7981 13.0244 20.486 13.4259C21.8618 14.2184 22.9771 16.1528 22.9771 17.7378C22.9771 18.5304 22.7009 19.0883 22.2475 19.349L23.9985 18.3375C24.4467 18.0768 24.7281 17.5189 24.7281 16.7263C24.7281 15.1361 23.6129 13.2069 22.2371 12.4144H22.2319Z" fill="white"/>
<path d="M17.995 14.8599C17.995 16.4502 19.1102 18.3794 20.486 19.1719C21.1739 19.5682 21.7941 19.6047 22.2475 19.3492C22.6957 19.0885 22.9771 18.5306 22.9771 17.7381C22.9771 16.1478 21.8618 14.2186 20.486 13.4261C19.7981 13.0298 19.178 12.9933 18.7246 13.2488C18.2764 13.5095 17.995 14.0674 17.995 14.8599Z" fill="#F0F0F0"/>
<path d="M39.8829 22.4983C39.195 22.1021 38.5748 22.0656 38.1214 22.3211L36.3756 23.3326C36.8238 23.0719 37.4492 23.1084 38.1371 23.5099C39.5129 24.3024 40.6281 26.2368 40.6281 27.8218C40.6281 28.6144 40.3519 29.1723 39.8985 29.433L41.6496 28.4214C42.0977 28.1607 42.3791 27.6028 42.3791 26.8103C42.3791 25.22 41.2639 23.2909 39.8881 22.4983H39.8829Z" fill="white"/>
<path d="M35.646 24.9488C35.646 26.5391 36.7613 28.4682 38.1371 29.2608C38.825 29.657 39.4451 29.6935 39.8985 29.438C40.3467 29.1773 40.6281 28.6194 40.6281 27.8269C40.6281 26.2367 39.5129 24.3075 38.1371 23.5149C37.4492 23.1187 36.829 23.0822 36.3756 23.3377C35.9274 23.5984 35.646 24.1563 35.646 24.9488Z" fill="#F0F0F0"/>
</g>
<defs>
<linearGradient id="paint0_linear_2556_17424" x1="9.90689" y1="0.338762" x2="27.7171" y2="31.1719" gradientUnits="userSpaceOnUse">
<stop stop-color="#FFA500"/>
<stop offset="0.06" stop-color="#FFA700"/>
<stop offset="0.3" stop-color="#FFAA00"/>
<stop offset="0.55" stop-color="#FF9900"/>
<stop offset="0.74" stop-color="#FF9400"/>
<stop offset="1" stop-color="#FF6D00"/>
</linearGradient>
<linearGradient id="paint1_linear_2556_17424" x1="44.7034" y1="38.13" x2="49.5693" y2="46.5537" gradientUnits="userSpaceOnUse">
<stop stop-color="#99C900"/>
<stop offset="0.03" stop-color="#99C900"/>
<stop offset="0.3" stop-color="#99C900"/>
<stop offset="0.41" stop-color="#8AC500"/>
<stop offset="0.55" stop-color="#80C200"/>
<stop offset="0.74" stop-color="#7EC200"/>
<stop offset="1" stop-color="#7EC200"/>
</linearGradient>
<linearGradient id="paint2_linear_2556_17424" x1="24.9939" y1="-2.41915" x2="47.7273" y2="36.9315" gradientUnits="userSpaceOnUse">
<stop stop-color="#99C900"/>
<stop offset="0.03" stop-color="#99C900"/>
<stop offset="0.3" stop-color="#99C900"/>
<stop offset="0.41" stop-color="#8AC500"/>
<stop offset="0.55" stop-color="#80C200"/>
<stop offset="0.74" stop-color="#7EC200"/>
<stop offset="1" stop-color="#7EC200"/>
</linearGradient>
<clipPath id="clip0_2556_17424">
<rect width="53" height="48" fill="white"/>
</clipPath>
</defs>
</svg>
