<svg width="218" height="320" viewBox="0 0 218 320" fill="none" xmlns="http://www.w3.org/2000/svg">
<path d="M212.974 186.24H5.02633C2.25036 186.24 0 187.948 0 190.056V193.423C0 195.531 2.25036 197.24 5.02633 197.24H212.974C215.75 197.24 218 195.531 218 193.423V190.056C218 187.948 215.75 186.24 212.974 186.24Z" fill="#D2D2D2"/>
<path d="M211 197.24H7V319.24H211V197.24Z" fill="#D2D2D2"/>
<path opacity="0.25" d="M211 197.24H7V200.24H211V197.24Z" fill="black"/>
<path opacity="0.35" fill-rule="evenodd" clip-rule="evenodd" d="M82 200.181H210.399V318.861L82 200.181ZM82 186.24H212.967C215.746 186.24 218 188.063 218 190.279V193.841C218 196.071 215.728 197.881 212.967 197.881H82V186.24Z" fill="white"/>
<path d="M156.412 145.181H62.5999C59.9061 145.181 57.7223 147.363 57.7223 150.055V181.165C57.7223 183.857 59.9061 186.039 62.5999 186.039H156.412C159.106 186.039 161.289 183.857 161.289 181.165V150.055C161.289 147.363 159.106 145.181 156.412 145.181Z" fill="#644123"/>
<path d="M136.487 145.181H123.144V186.039H136.487V145.181Z" fill="#78502D"/>
<path d="M145.733 154.147H73.2788V177.084H145.733V154.147Z" fill="#FFC80F"/>
<path d="M128.294 154.147H118.432V177.084H128.294V154.147Z" fill="#FFE173"/>
<path fill-rule="evenodd" clip-rule="evenodd" d="M157.359 23.105C155.015 23.1287 153.097 21.236 153.073 18.8939C153.05 16.5517 154.944 14.6354 157.288 14.6118C159.218 14.5999 161.574 14.4343 163.918 14.2806C169.79 13.8902 175.627 13.5117 180.031 15.1796C186.305 17.5572 189.206 22.6792 185.074 33.5264C181.274 43.5338 171.388 56.321 160.567 66.2574C150.303 75.6734 138.902 82.6998 130.402 82.83C128.058 82.8536 126.128 80.9846 126.104 78.6306C126.081 76.2885 127.951 74.3604 130.307 74.3367C136.534 74.2421 145.911 68.1501 154.802 59.988C164.77 50.8442 173.768 39.3109 177.106 30.5219C178.953 25.6601 178.539 23.6965 177.024 23.1287C174.348 22.1114 169.411 22.4426 164.451 22.762C162.142 22.9158 159.822 23.0696 157.347 23.0932L157.359 23.105Z" fill="#FFC80F"/>
<path fill-rule="evenodd" clip-rule="evenodd" d="M61.7239 14.6117C64.068 14.6353 65.9623 16.5398 65.9386 18.8938C65.9149 21.2359 64.0088 23.1286 61.6529 23.1049C59.1786 23.0813 56.8581 22.9275 54.5495 22.7737C49.5772 22.4425 44.6522 22.1231 41.9766 23.1404C40.4612 23.7082 40.0468 25.6718 41.8937 30.5336C45.2323 39.3226 54.2299 50.8559 64.1983 59.9998C73.0893 68.1618 82.4658 74.2538 88.6931 74.3484C91.0372 74.3721 92.9196 76.3002 92.8959 78.6424C92.8722 80.9845 90.9424 82.8653 88.5983 82.8417C80.098 82.7116 68.6971 75.6851 58.4327 66.2692C47.6119 56.3328 37.7382 43.5455 33.9261 33.5382C29.7943 22.6909 32.6948 17.5808 38.9695 15.1913C43.3617 13.5234 49.1983 13.9019 55.0823 14.2923C57.4264 14.4461 59.7823 14.5998 61.7121 14.6235L61.7239 14.6117Z" fill="#FFC80F"/>
<path fill-rule="evenodd" clip-rule="evenodd" d="M103.989 81.0438C103.16 100.171 101.645 121.381 87.7341 131.613C81.2464 136.262 72.1186 134.937 72.1186 145.181H146.893C146.893 134.949 137.766 136.262 131.278 131.613C117.367 121.381 115.863 100.16 115.035 81.0438C111.353 81.0438 107.671 81.0438 103.989 81.0438Z" fill="#EBA50F"/>
<path fill-rule="evenodd" clip-rule="evenodd" d="M145.449 139.503C142.619 135.233 136.191 135.126 131.29 131.613C120.125 123.392 116.941 108.085 115.698 92.4707C113.508 92.8137 107.174 91.0985 107.162 93.6063C107.138 100.325 106.866 106.914 106.227 112.982C105.256 122.256 103.196 128.537 96.5778 135.209C94.1627 137.646 94.6481 139.361 105.871 139.503C120.931 139.68 138.239 139.669 142.3 139.669C151.428 139.669 144.419 139.609 145.461 139.515L145.449 139.503Z" fill="#FFC80F"/>
<path fill-rule="evenodd" clip-rule="evenodd" d="M114.407 97.7701C114.218 97.7346 112.963 96.0075 112.703 97.3205C112.158 100.053 112.608 107.624 112.726 112.627C112.916 120.032 112.726 130.974 118.077 133.565C123.429 136.167 134.948 136.463 130.662 133.186C125.358 129.129 121.132 124.267 117.77 116.815C114.407 109.351 115.058 97.912 114.407 97.7701Z" fill="#FFE173"/>
<path fill-rule="evenodd" clip-rule="evenodd" d="M62.5409 3.50431C60.4454 3.80004 58.7288 5.25501 58.788 7.36058C60.2797 59.0772 91.3451 100.372 109.506 100.372C127.667 100.372 158.732 59.0654 160.224 7.36058C160.283 5.25501 158.578 3.76455 156.483 3.50431C124.092 -0.671346 92.7539 -0.777808 62.5527 3.50431H62.5409Z" fill="#EBA50F"/>
<path fill-rule="evenodd" clip-rule="evenodd" d="M117.817 98.0185C135.812 88.5671 158.945 51.8142 160.224 7.37241C160.283 5.26684 158.578 3.77638 156.483 3.51614C128.271 -0.127211 100.852 -0.671348 74.2969 2.07299C78.2866 41.4992 94.6718 99.2487 117.817 98.0185Z" fill="#FFC80F"/>
<path fill-rule="evenodd" clip-rule="evenodd" d="M155.926 3.43345C150.492 2.73554 145.082 2.15591 139.719 1.69458C139.743 5.98853 139.577 11.8439 139.056 21.4018C137.41 51.6369 126.945 73.4142 132.118 74.81C137.292 76.194 146.42 53.3048 152.493 23.6848C153.949 16.5874 155.098 9.75017 155.926 3.43345Z" fill="#FFE173"/>
<path fill-rule="evenodd" clip-rule="evenodd" d="M114.526 41.1797L123.89 41.7712C125.05 41.8422 125.536 43.2853 124.672 44.0424L117.284 50.4655L119.616 59.5503C119.9 60.674 118.681 61.573 117.675 60.9816L109.281 55.9542L101.349 60.9697C100.378 61.5849 99.135 60.7095 99.3836 59.5739L101.586 50.0515L94.3639 44.0778C93.4641 43.3326 93.914 41.8776 95.0742 41.7712L104.818 40.9195L108.286 32.2133C108.713 31.1369 110.24 31.1132 110.702 32.1896L114.526 41.1916V41.1797Z" fill="#FFFFCD"/>
<path d="M99.7189 292.105L93.309 278.973L79 281.93L95.0962 249.148L115.815 259.322L99.7189 292.105Z" fill="#717171"/>
<path d="M82.9444 281.116L81.2713 281.461L96.7411 249.956L97.9527 250.55L82.9444 281.116Z" fill="white"/>
<path d="M97.9532 288.484L98.7017 290.019L114.172 258.514L112.96 257.919L97.9532 288.484Z" fill="white"/>
<path d="M118.935 292.105L125.345 278.972L139.654 281.93L123.558 249.148L102.839 259.322L118.935 292.105Z" fill="#717171"/>
<path d="M135.71 281.116L137.383 281.461L121.913 249.955L120.702 250.55L135.71 281.116Z" fill="white"/>
<path d="M120.7 288.484L119.952 290.019L104.482 258.514L105.694 257.919L120.7 288.484Z" fill="white"/>
<path d="M135.915 236.389C134.458 232.943 132.371 229.847 129.713 227.19C127.055 224.532 123.96 222.445 120.514 220.987C116.947 219.479 113.157 218.713 109.249 218.713C105.342 218.713 101.553 219.478 97.9852 220.987C94.5392 222.445 91.4437 224.532 88.7858 227.19C86.1279 229.847 84.041 232.943 82.5836 236.389C81.0755 239.956 80.3095 243.746 80.3095 247.653C80.3095 251.561 81.0739 255.349 82.5836 258.917C84.041 262.363 86.1279 265.459 88.7858 268.117C91.4437 270.775 94.5392 272.862 97.9852 274.319C101.552 275.827 105.342 276.593 109.249 276.593C113.157 276.593 116.945 275.829 120.514 274.319C123.96 272.862 127.054 270.775 129.713 268.117C132.371 265.459 134.458 262.363 135.915 258.917C137.423 255.351 138.189 251.561 138.189 247.653C138.189 243.746 137.425 239.957 135.915 236.389ZM109.251 273.069C95.237 273.069 83.8348 261.667 83.8348 247.653C83.8348 233.639 95.237 222.237 109.251 222.237C123.265 222.237 134.667 233.639 134.667 247.653C134.667 261.667 123.265 273.069 109.251 273.069Z" fill="#FAC706"/>
<path d="M109.25 272.292C122.858 272.292 133.889 261.261 133.889 247.653C133.889 234.045 122.858 223.014 109.25 223.014C95.6423 223.014 84.611 234.045 84.611 247.653C84.611 261.261 95.6423 272.292 109.25 272.292Z" fill="#FAC706"/>
<path d="M109.252 222.235C95.2385 222.235 83.8363 233.638 83.8363 247.652C83.8363 261.666 95.2385 273.068 109.252 273.068C123.267 273.068 134.669 261.666 134.669 247.652C134.669 233.638 123.267 222.235 109.252 222.235ZM109.252 272.292C95.6444 272.292 84.6134 261.261 84.6134 247.653C84.6134 234.045 95.6444 223.014 109.252 223.014C122.861 223.014 133.892 234.045 133.892 247.653C133.892 261.261 122.861 272.292 109.252 272.292Z" fill="#D08700"/>
<path d="M109.254 218.01C92.8832 218.01 79.6113 231.282 79.6113 247.653C79.6113 264.024 92.8832 277.295 109.254 277.295C125.624 277.295 138.896 264.024 138.896 247.653C138.896 231.282 125.624 218.01 109.254 218.01ZM129.716 268.115C127.058 270.773 123.962 272.86 120.516 274.317C116.95 275.825 113.16 276.591 109.252 276.591C105.345 276.591 101.556 275.827 97.988 274.317C94.542 272.86 91.4464 270.773 88.7886 268.115C86.1307 265.457 84.0437 262.362 82.5864 258.916C81.0782 255.349 80.3123 251.559 80.3123 247.651C80.3123 243.744 81.0766 239.955 82.5864 236.387C84.0437 232.941 86.1307 229.846 88.7886 227.188C91.4464 224.53 94.542 222.443 97.988 220.986C101.555 219.477 105.345 218.711 109.252 218.711C113.16 218.711 116.948 219.476 120.516 220.986C123.962 222.443 127.056 224.53 129.716 227.188C132.374 229.846 134.461 232.941 135.918 236.387C137.426 239.954 138.192 243.744 138.192 247.651C138.192 251.559 137.428 255.347 135.918 258.916C134.461 262.362 132.374 265.457 129.716 268.115Z" fill="#D08700"/>
<g style="mix-blend-mode:multiply" opacity="0.25">
<path d="M109.255 218.255C109.18 218.255 109.107 218.257 109.034 218.259L79.9739 245.058C79.9152 245.722 79.8787 246.394 79.866 247.072L111.051 218.312C110.457 218.276 109.859 218.257 109.255 218.257V218.255Z" fill="#D08700"/>
<path d="M81.3156 238.49L102.379 219.066C92.4402 221.448 84.4666 228.876 81.3156 238.49Z" fill="#D08700"/>
<path d="M115.476 218.917L80.1135 251.528C80.5322 254.706 81.4583 257.724 82.8078 260.497L124.195 222.331C121.531 220.755 118.595 219.589 115.476 218.917Z" fill="#D08700"/>
<path d="M128.029 225.03L85.1905 264.535C89.0694 270.054 94.7991 274.177 101.477 276.006L138.145 242.192C136.857 235.335 133.189 229.317 128.03 225.03H128.029Z" fill="#D08700"/>
<path d="M138.652 247.651C138.652 247.634 138.652 247.617 138.652 247.599L106.826 276.948C107.626 277.013 108.437 277.048 109.255 277.048C109.422 277.048 109.588 277.045 109.755 277.042L138.511 250.523C138.603 249.578 138.65 248.62 138.65 247.651H138.652Z" fill="#D08700"/>
<path d="M137.461 255.95L115.245 276.437C125.892 274.233 134.43 266.27 137.461 255.95Z" fill="#D08700"/>
</g>
<path d="M95.2487 230.538C93.6296 230.242 92.3625 228.975 92.0643 227.354L91.8058 225.941L91.5473 227.354C91.2508 228.973 89.9837 230.24 88.363 230.538L86.95 230.797L88.363 231.055C89.9821 231.352 91.2492 232.619 91.5473 234.24L91.8058 235.653L92.0643 234.24C92.3609 232.62 93.628 231.353 95.2487 231.055L96.6617 230.797L95.2487 230.538Z" fill="white"/>
<path d="M131.342 255.83C129.723 255.534 128.456 254.267 128.157 252.646L127.899 251.233L127.64 252.646C127.344 254.265 126.077 255.532 124.456 255.83L123.043 256.089L124.456 256.347C126.075 256.644 127.342 257.911 127.64 259.532L127.899 260.945L128.157 259.532C128.454 257.912 129.721 256.645 131.342 256.347L132.755 256.089L131.342 255.83Z" fill="white"/>
<path d="M99.4921 225.841C98.8609 225.725 98.3677 225.232 98.2519 224.601L98.1504 224.051L98.049 224.601C97.9332 225.232 97.44 225.725 96.8088 225.841L96.2585 225.942L96.8088 226.044C97.44 226.16 97.9332 226.653 98.049 227.284L98.1504 227.834L98.2519 227.284C98.3677 226.653 98.8609 226.16 99.4921 226.044L100.042 225.942L99.4921 225.841Z" fill="white"/>
<path d="M91.3735 239.573C90.7424 239.457 90.2492 238.964 90.1334 238.333L90.0319 237.782L89.9304 238.333C89.8147 238.964 89.3215 239.457 88.6903 239.573L88.14 239.674L88.6903 239.776C89.3215 239.891 89.8147 240.385 89.9304 241.016L90.0319 241.566L90.1334 241.016C90.2492 240.385 90.7424 239.891 91.3735 239.776L91.9238 239.674L91.3735 239.573Z" fill="white"/>
<path d="M133.26 259.182C132.629 259.066 132.136 258.573 132.02 257.941L131.919 257.391L131.817 257.941C131.702 258.573 131.208 259.066 130.577 259.182L130.027 259.283L130.577 259.385C131.208 259.5 131.702 259.993 131.817 260.625L131.919 261.175L132.02 260.625C132.136 259.993 132.629 259.5 133.26 259.385L133.811 259.283L133.26 259.182Z" fill="white"/>
<path d="M101.176 235.216H113.48V262.341H106.399V241.021H101.176V235.216Z" fill="#B76D00"/>
</svg>
