<svg width="99" height="119" viewBox="0 0 99 119" fill="none" xmlns="http://www.w3.org/2000/svg">
<path d="M79.3073 92.3357H19.5058C17.7886 92.3357 16.3965 93.7266 16.3965 95.4424V115.274C16.3965 116.99 17.7886 118.381 19.5058 118.381H79.3073C81.0246 118.381 82.4167 116.99 82.4167 115.274V95.4424C82.4167 93.7266 81.0246 92.3357 79.3073 92.3357Z" fill="#644123"/>
<path d="M66.6069 92.3357H58.1016V118.381H66.6069V92.3357Z" fill="#78502D"/>
<path d="M72.5014 98.0513H26.3145V112.672H72.5014V98.0513Z" fill="#FFC80F"/>
<path d="M61.3842 98.0513H55.0977V112.672H61.3842V98.0513Z" fill="#FFE173"/>
<path fill-rule="evenodd" clip-rule="evenodd" d="M79.9122 14.5167C78.4179 14.5318 77.1953 13.3253 77.1802 11.8323C77.1651 10.3392 78.3726 9.11766 79.8669 9.10258C81.0971 9.09504 82.5989 8.98947 84.0932 8.89144C87.8364 8.6426 91.557 8.40131 94.3645 9.46453C98.3643 10.9802 100.213 14.2453 97.5795 21.16C95.1569 27.5393 88.8553 35.6907 81.9574 42.0248C75.4143 48.0271 68.1466 52.5062 62.7279 52.5891C61.2337 52.6042 60.0035 51.4128 59.9884 49.9122C59.9733 48.4192 61.1657 47.1901 62.6676 47.175C66.6372 47.1147 72.6144 43.2313 78.2821 38.0283C84.6366 32.1994 90.3722 24.8473 92.5004 19.2447C93.6777 16.1455 93.4136 14.8937 92.4476 14.5318C90.742 13.8833 87.5949 14.0944 84.4328 14.298C82.9611 14.3961 81.482 14.4941 79.9047 14.5092L79.9122 14.5167Z" fill="#FFC80F"/>
<path fill-rule="evenodd" clip-rule="evenodd" d="M18.9479 9.10236C20.4422 9.11744 21.6497 10.3315 21.6346 11.8321C21.6195 13.3251 20.4044 14.5316 18.9026 14.5165C17.3253 14.5014 15.8461 14.4034 14.3745 14.3054C11.2048 14.0942 8.06528 13.8906 6.35969 14.5391C5.39368 14.9011 5.12954 16.1528 6.30685 19.252C8.43507 24.8546 14.1707 32.2067 20.5252 38.0356C26.1929 43.2386 32.17 47.122 36.1397 47.1823C37.634 47.1974 38.8339 48.4265 38.8188 49.9195C38.8038 51.4126 37.5736 52.6115 36.0793 52.5964C30.6607 52.5135 23.393 48.0344 16.8499 42.0321C9.952 35.698 3.65789 27.5466 1.22779 21.1673C-1.40607 14.2526 0.442919 10.9951 4.44277 9.47185C7.24267 8.40863 10.9633 8.64993 14.7141 8.89877C16.2084 8.9968 17.7102 9.09482 18.9403 9.1099L18.9479 9.10236Z" fill="#FFC80F"/>
<path fill-rule="evenodd" clip-rule="evenodd" d="M45.8904 51.4504C45.3622 63.6436 44.3962 77.1638 35.5286 83.6864C31.3929 86.6499 25.5742 85.8053 25.5742 92.3355H73.2404C73.2404 85.8129 67.4217 86.6499 63.286 83.6864C54.4184 77.1638 53.46 63.636 52.9317 51.4504C50.5846 51.4504 48.2375 51.4504 45.8904 51.4504Z" fill="#EBA50F"/>
<path fill-rule="evenodd" clip-rule="evenodd" d="M72.3192 88.716C70.5155 85.9939 66.4175 85.926 63.2931 83.6864C56.1764 78.4457 54.1463 68.6882 53.3539 58.7347C51.9577 58.9533 47.9201 57.8599 47.9126 59.4586C47.8975 63.7416 47.7239 67.9417 47.3163 71.81C46.6975 77.7218 45.3843 81.7259 41.1656 85.9788C39.6261 87.5321 39.9355 88.6255 47.0899 88.716C56.6896 88.8291 67.7231 88.8216 70.3117 88.8216C76.1304 88.8216 71.6626 88.7839 72.3267 88.7236L72.3192 88.716Z" fill="#FFC80F"/>
<path fill-rule="evenodd" clip-rule="evenodd" d="M52.532 62.1128C52.4112 62.0902 51.6113 60.9893 51.4452 61.8263C51.0981 63.5682 51.3849 68.3941 51.4603 71.5838C51.5811 76.3042 51.4603 83.2792 54.8715 84.9306C58.2827 86.5896 65.6258 86.7781 62.8939 84.6893C59.5129 82.1029 56.8186 79.0037 54.6753 74.2532C52.532 69.4951 52.9471 62.2033 52.532 62.1128Z" fill="#FFE173"/>
<path fill-rule="evenodd" clip-rule="evenodd" d="M19.4695 2.0219C18.1337 2.21041 17.0394 3.13791 17.0771 4.48013C18.028 37.4476 37.8311 63.7717 49.408 63.7717C60.9849 63.7717 80.7879 37.44 81.7389 4.48013C81.7766 3.13791 80.6898 2.18779 79.354 2.0219C58.7057 -0.639927 38.7291 -0.707792 19.477 2.0219H19.4695Z" fill="#EBA50F"/>
<path fill-rule="evenodd" clip-rule="evenodd" d="M54.7053 62.2712C66.1765 56.2462 80.9231 32.8176 81.7382 4.48768C81.7759 3.14546 80.6892 2.19534 79.3534 2.02945C61.3691 -0.293048 43.8906 -0.639915 26.9629 1.1095C29.5062 26.2423 39.9511 63.0554 54.7053 62.2712Z" fill="#FFC80F"/>
<path fill-rule="evenodd" clip-rule="evenodd" d="M78.9985 1.97663C75.5345 1.53174 72.0856 1.16225 68.6668 0.868164C68.6819 3.6054 68.5763 7.33798 68.2442 13.4308C67.1952 32.7045 60.5237 46.5867 63.8217 47.4765C67.1197 48.3588 72.9384 33.7677 76.8099 14.8861C77.7382 10.3618 78.4702 6.0033 78.9985 1.97663Z" fill="#FFE173"/>
<path fill-rule="evenodd" clip-rule="evenodd" d="M52.6075 26.0385L58.5771 26.4156C59.3167 26.4608 59.6261 27.3808 59.0752 27.8634L54.3659 31.9579L55.8527 37.7491C56.0338 38.4654 55.2565 39.0385 54.615 38.6615L49.2643 35.4567L44.2078 38.6539C43.589 39.0461 42.7966 38.4881 42.9551 37.7642L44.3588 31.694L39.7552 27.886C39.1816 27.4109 39.4684 26.4834 40.208 26.4156L46.4191 25.8727L48.6303 20.3228C48.902 19.6366 49.8756 19.6215 50.1699 20.3077L52.6075 26.0461V26.0385Z" fill="#FFFFCD"/>
</svg>
