<svg width="179" height="229" viewBox="0 0 179 229" fill="none" xmlns="http://www.w3.org/2000/svg">
<path d="M171 154.361H1V228.361H171V154.361Z" fill="#D2D2D2"/>
<path d="M173.953 148.24H1V159.24H173.953C176.74 159.24 179 157.531 179 155.423V152.057C179 149.949 176.74 148.24 173.953 148.24Z" fill="#D2D2D2"/>
<path opacity="0.25" fill-rule="evenodd" clip-rule="evenodd" d="M0.5 159.861V162.182H171V159.861H0.5Z" fill="black"/>
<path opacity="0.35" fill-rule="evenodd" clip-rule="evenodd" d="M108 162.145H171.294V227.361L108 162.145ZM108 148.24H173.91C176.72 148.24 179 150.058 179 152.269V155.822C179 158.046 176.702 159.851 173.91 159.851H108V148.24Z" fill="white"/>
<path d="M123.886 115.491H49.3059C47.1682 115.491 45.4354 117.223 45.4354 119.359V144.104C45.4354 146.24 47.1682 147.972 49.3059 147.972H123.886C126.024 147.972 127.756 146.24 127.756 144.104V119.359C127.756 117.223 126.024 115.491 123.886 115.491Z" fill="#644123"/>
<path d="M108.042 115.491H97.4358V147.972H108.042V115.491Z" fill="#78502D"/>
<path d="M115.385 122.618H57.7952V140.845H115.385V122.618Z" fill="#DC6E00"/>
<path d="M101.517 122.618H93.6822V140.845H101.517V122.618Z" fill="#F5B98C"/>
<path fill-rule="evenodd" clip-rule="evenodd" d="M124.623 18.4709C122.763 18.4826 121.232 16.9871 121.22 15.1294C121.208 13.2717 122.705 11.7412 124.564 11.7295C126.096 11.7178 127.967 11.5893 129.838 11.4725C134.515 11.1687 139.146 10.8649 142.642 12.1852C147.635 14.0779 149.927 18.1438 146.653 26.7663C143.624 34.7111 135.778 44.8875 127.183 52.7739C119.033 60.2514 109.971 65.8478 103.212 65.953C101.353 65.9763 99.821 64.4808 99.7976 62.6231C99.7742 60.7655 101.271 59.2349 103.13 59.2115C108.077 59.1414 115.525 54.2928 122.6 47.8084C130.516 40.5412 137.672 31.3696 140.327 24.3945C141.8 20.5272 141.461 18.9733 140.268 18.5177C138.14 17.7115 134.223 17.9685 130.27 18.2256C128.435 18.3424 126.587 18.4709 124.623 18.4826V18.4709Z" fill="#DC6E00"/>
<path fill-rule="evenodd" clip-rule="evenodd" d="M48.6159 11.7177C50.4751 11.7294 51.9836 13.2599 51.9602 15.1176C51.9485 16.9753 50.4167 18.4825 48.5574 18.4591C46.5929 18.4358 44.7454 18.3189 42.9095 18.2021C38.9572 17.9451 35.0399 17.688 32.9117 18.4942C31.7073 18.9498 31.3799 20.5038 32.8533 24.371C35.5077 31.3578 42.664 40.5177 50.5804 47.7849C57.6548 54.2693 65.1035 59.1063 70.0498 59.1881C71.909 59.2114 73.4058 60.742 73.3824 62.5997C73.359 64.4573 71.8272 65.9529 69.9679 65.9295C63.2092 65.8243 54.1468 60.2396 45.9966 52.7504C37.3903 44.8523 29.544 34.6876 26.5272 26.7428C23.253 18.1203 25.5449 14.0544 30.538 12.1617C34.0343 10.8298 38.6649 11.1452 43.3422 11.449C45.2131 11.5775 47.0841 11.6943 48.6159 11.706V11.7177Z" fill="#DC6E00"/>
<path fill-rule="evenodd" clip-rule="evenodd" d="M82.2109 64.516C81.5561 79.7163 80.3517 96.5757 69.3015 104.707C64.1447 108.399 56.8948 107.348 56.8948 115.491H116.32C116.32 107.36 109.059 108.411 103.914 104.707C92.8635 96.5757 91.6591 79.7163 91.0043 64.516H82.2226H82.2109Z" fill="#A53C00"/>
<path fill-rule="evenodd" clip-rule="evenodd" d="M115.151 110.981C112.894 107.581 107.796 107.511 103.902 104.707C95.0268 98.1762 92.5011 86.0135 91.5071 73.5939C89.7648 73.8743 84.725 72.5073 84.725 74.4936C84.7016 79.8329 84.4911 85.0789 83.9766 89.8925C83.2049 97.2531 81.5678 102.254 76.3058 107.558C74.3881 109.498 74.774 110.865 83.6843 110.97C95.6583 111.11 109.41 111.098 112.637 111.098C119.887 111.098 114.321 111.051 115.151 110.97V110.981Z" fill="#DC6E00"/>
<path fill-rule="evenodd" clip-rule="evenodd" d="M90.478 77.8119C90.326 77.7769 89.332 76.4099 89.1216 77.4614C88.6889 79.6345 89.0397 85.6516 89.1449 89.624C89.297 95.5125 89.145 104.205 93.4013 106.273C97.646 108.341 106.802 108.575 103.399 105.969C99.1778 102.745 95.8219 98.8891 93.1441 92.9538C90.4663 87.0186 90.9808 77.9287 90.4663 77.8119H90.478Z" fill="#F5B98C"/>
<path fill-rule="evenodd" clip-rule="evenodd" d="M49.2591 2.89668C47.5987 3.13035 46.2306 4.28703 46.2773 5.96947C47.4584 47.0723 72.1547 79.8914 86.5843 79.8914C101.014 79.8914 125.71 47.0606 126.891 5.96947C126.938 4.28703 125.582 3.11867 123.909 2.89668C98.1607 -0.421451 73.2539 -0.503237 49.2474 2.89668H49.2591Z" fill="#A53C00"/>
<path fill-rule="evenodd" clip-rule="evenodd" d="M93.1909 78.0104C107.492 70.4979 125.874 41.2889 126.891 5.95782C126.938 4.27538 125.581 3.10703 123.909 2.88504C101.481 -0.0124858 79.6967 -0.444782 58.5903 1.74005C61.7592 33.0754 74.7855 78.9801 93.1791 77.9987L93.1909 78.0104Z" fill="#DC6E00"/>
<path fill-rule="evenodd" clip-rule="evenodd" d="M123.477 2.83826C119.162 2.28913 114.859 1.82179 110.591 1.45959C110.602 4.8712 110.485 9.52125 110.064 17.1273C108.755 41.1604 100.441 58.4754 104.557 59.5737C108.673 60.6719 115.923 42.4806 120.74 18.9382C121.898 13.2951 122.81 7.86219 123.465 2.83826H123.477Z" fill="#F5B98C"/>
<path fill-rule="evenodd" clip-rule="evenodd" d="M71.3828 31.0075L76.3057 31.3229C76.9138 31.358 77.1711 32.1174 76.715 32.5146L72.8328 35.8912L74.0606 40.6581C74.2126 41.2423 73.5695 41.7213 73.0433 41.4175L68.6349 38.777L64.4721 41.4058C63.9576 41.733 63.3144 41.2656 63.4431 40.6698L64.6007 35.6692L60.8121 32.5263C60.3443 32.1291 60.5782 31.3697 61.1863 31.3112L66.3079 30.8673L68.1321 26.2873C68.3542 25.7148 69.1611 25.7031 69.395 26.2756L71.4062 31.0075H71.3828ZM107.071 31.0075L111.994 31.3229C112.602 31.358 112.859 32.1174 112.403 32.5146L108.521 35.8912L109.749 40.6581C109.901 41.2423 109.258 41.7213 108.731 41.4175L104.323 38.777L100.16 41.4058C99.6456 41.733 99.0025 41.2656 99.1311 40.6698L100.289 35.6692L96.5001 32.5263C96.0324 32.1291 96.2663 31.3697 96.8743 31.3112L101.996 30.8673L103.82 26.2873C104.042 25.7148 104.849 25.7031 105.083 26.2756L107.094 31.0075H107.071ZM89.2269 31.0075L94.1497 31.3229C94.7578 31.358 95.0151 32.1174 94.559 32.5146L90.6768 35.8912L91.9046 40.6581C92.0567 41.2423 91.4135 41.7213 90.8873 41.4175L86.4789 38.777L82.3161 41.4058C81.8016 41.733 81.1585 41.2656 81.2871 40.6698L82.4447 35.6692L78.6561 32.5263C78.1883 32.1291 78.4222 31.3697 79.0303 31.3112L84.152 30.8673L85.9761 26.2873C86.1983 25.7148 87.0052 25.7031 87.239 26.2756L89.2503 31.0075H89.2269Z" fill="#FAD7BE"/>
<path d="M79.4888 220.838L74.6969 211.021L64 213.232L76.033 188.725L91.523 196.33L79.4888 220.838Z" fill="#717171"/>
<path d="M66.9502 212.623L65.6995 212.882L77.2631 189.329L78.1688 189.773L66.9502 212.623Z" fill="white"/>
<path d="M78.1678 218.132L78.7274 219.279L90.2921 195.727L89.3875 195.282L78.1678 218.132Z" fill="white"/>
<path d="M93.8532 220.838L98.6451 211.021L109.343 213.232L97.309 188.725L81.8202 196.33L93.8532 220.838Z" fill="#717171"/>
<path d="M106.395 212.623L107.645 212.882L96.0806 189.329L95.1749 189.773L106.395 212.623Z" fill="white"/>
<path d="M95.1732 218.132L94.6136 219.279L83.0489 195.727L83.9546 195.282L95.1732 218.132Z" fill="white"/>
<path d="M86.6335 168.603C76.1571 168.603 67.6332 177.127 67.6332 187.604C67.6332 198.081 76.1571 206.605 86.6335 206.605C97.1099 206.605 105.634 198.081 105.634 187.604C105.634 177.127 97.1099 168.603 86.6335 168.603ZM86.6335 206.024C76.4606 206.024 68.2141 197.777 68.2141 187.604C68.2141 177.431 76.4606 169.184 86.6335 169.184C96.8064 169.184 105.053 177.431 105.053 187.604C105.053 197.777 96.8064 206.024 86.6335 206.024Z" fill="#DC6E00"/>
<path d="M86.6335 168.603C76.1571 168.603 67.6332 177.127 67.6332 187.604C67.6332 198.081 76.1571 206.605 86.6335 206.605C97.1099 206.605 105.634 198.081 105.634 187.604C105.634 177.127 97.1099 168.603 86.6335 168.603Z" fill="#DC6E00"/>
<path d="M106.569 179.182C105.479 176.606 103.919 174.292 101.932 172.305C99.9454 170.318 97.6313 168.758 95.0552 167.668C92.3889 166.541 89.5555 165.968 86.6344 165.968C83.7133 165.968 80.8811 166.539 78.2137 167.668C75.6375 168.758 73.3234 170.318 71.3365 172.305C69.3495 174.292 67.7894 176.606 66.6999 179.182C65.5725 181.848 64.9999 184.682 64.9999 187.603C64.9999 190.524 65.5713 193.357 66.6999 196.024C67.7894 198.6 69.3495 200.914 71.3365 202.901C73.3234 204.888 75.6375 206.449 78.2137 207.538C80.8799 208.666 83.7133 209.238 86.6344 209.238C89.5555 209.238 92.3877 208.667 95.0552 207.538C97.6313 206.449 99.9454 204.888 101.932 202.901C103.919 200.914 105.479 198.6 106.569 196.024C107.696 193.358 108.269 190.524 108.269 187.603C108.269 184.682 107.698 181.85 106.569 179.182ZM86.6344 206.605C76.158 206.605 67.6341 198.081 67.6341 187.604C67.6341 177.128 76.158 168.603 86.6344 168.603C97.1108 168.603 105.635 177.128 105.635 187.604C105.635 198.081 97.1108 206.605 86.6344 206.605Z" fill="#F5B98C"/>
<path d="M86.6343 165.443C74.3962 165.443 64.4745 175.364 64.4745 187.603C64.4745 199.841 74.3962 209.763 86.6343 209.763C98.8724 209.763 108.794 199.841 108.794 187.603C108.794 175.364 98.8724 165.443 86.6343 165.443ZM101.932 202.901C99.9453 204.888 97.6311 206.448 95.055 207.538C92.3888 208.665 89.5554 209.238 86.6343 209.238C83.7132 209.238 80.8809 208.667 78.2135 207.538C75.6374 206.448 73.3233 204.888 71.3363 202.901C69.3494 200.914 67.7893 198.6 66.6998 196.024C65.5723 193.358 64.9997 190.524 64.9997 187.603C64.9997 184.682 65.5712 181.849 66.6998 179.182C67.7893 176.606 69.3494 174.292 71.3363 172.305C73.3233 170.318 75.6374 168.757 78.2135 167.668C80.8798 166.54 83.7132 165.968 86.6343 165.968C89.5554 165.968 92.3876 166.539 95.055 167.668C97.6311 168.757 99.9453 170.318 101.932 172.305C103.919 174.292 105.479 176.606 106.569 179.182C107.696 181.848 108.269 184.682 108.269 187.603C108.269 190.524 107.697 193.356 106.569 196.024C105.479 198.6 103.919 200.914 101.932 202.901Z" fill="#DC6E00"/>
<path d="M86.6335 205.972C96.8063 205.972 105.053 197.725 105.053 187.552C105.053 177.379 96.8063 169.133 86.6335 169.133C76.4608 169.133 68.2141 177.379 68.2141 187.552C68.2141 197.725 76.4608 205.972 86.6335 205.972Z" fill="#F5B98C"/>
<g style="mix-blend-mode:multiply" opacity="0.25">
<path d="M86.6326 165.443C86.5994 165.443 86.5662 165.443 86.533 165.444L64.6045 185.667C64.5618 186.166 64.5369 186.669 64.5286 187.177L88.0458 165.49C87.5787 165.46 87.1068 165.444 86.6326 165.444V165.443Z" fill="#DC6E00"/>
<path d="M65.5914 180.747L81.5508 166.029C74.005 167.804 67.9506 173.445 65.5914 180.747Z" fill="#DC6E00"/>
<path d="M91.3647 165.953L64.7225 190.522C65.0426 192.909 65.7433 195.174 66.7628 197.256L97.9088 168.534C95.9088 167.346 93.7061 166.464 91.3647 165.953Z" fill="#DC6E00"/>
<path d="M100.787 170.569L68.5598 200.288C71.4868 204.434 75.8045 207.527 80.8334 208.892L108.369 183.499C107.413 178.336 104.661 173.802 100.787 170.569Z" fill="#DC6E00"/>
<path d="M108.74 187.573L84.865 209.591C85.4483 209.637 86.0375 209.661 86.6326 209.661C86.7808 209.661 86.9278 209.658 87.076 209.655L108.63 189.778C108.702 189.052 108.74 188.317 108.74 187.573Z" fill="#DC6E00"/>
<path d="M107.822 193.877L91.2255 209.183C99.1637 207.505 105.529 201.57 107.822 193.877Z" fill="#DC6E00"/>
</g>
<path d="M76.1457 174.776C74.9353 174.554 73.9881 173.607 73.7652 172.395L73.572 171.339L73.3787 172.395C73.157 173.606 72.2098 174.553 70.9982 174.776L69.9419 174.969L70.9982 175.163C72.2086 175.384 73.1558 176.331 73.3787 177.543L73.572 178.599L73.7652 177.543C73.9869 176.333 74.9341 175.385 76.1457 175.163L77.202 174.969L76.1457 174.776Z" fill="white"/>
<path d="M103.13 193.685C101.92 193.463 100.973 192.516 100.75 191.304L100.557 190.248L100.363 191.304C100.142 192.515 99.1945 193.462 97.9829 193.685L96.9266 193.878L97.9829 194.071C99.1933 194.293 100.141 195.24 100.363 196.452L100.557 197.508L100.75 196.452C100.972 195.242 101.919 194.294 103.13 194.071L104.187 193.878L103.13 193.685Z" fill="white"/>
<path d="M79.3202 171.263C78.8483 171.177 78.4796 170.808 78.3931 170.336L78.3172 169.925L78.2413 170.336C78.1548 170.808 77.7861 171.177 77.3142 171.263L76.9028 171.339L77.3142 171.415C77.7861 171.502 78.1548 171.87 78.2413 172.342L78.3172 172.754L78.3931 172.342C78.4796 171.87 78.8483 171.502 79.3202 171.415L79.7316 171.339L79.3202 171.263Z" fill="white"/>
<path d="M73.2491 181.53C72.7772 181.443 72.4085 181.074 72.322 180.602L72.2461 180.191L72.1702 180.602C72.0837 181.074 71.715 181.443 71.2431 181.53L70.8317 181.605L71.2431 181.681C71.715 181.768 72.0837 182.137 72.1702 182.608L72.2461 183.02L72.322 182.608C72.4085 182.137 72.7772 181.768 73.2491 181.681L73.6604 181.605L73.2491 181.53Z" fill="white"/>
<path d="M104.562 196.191C104.09 196.104 103.721 195.736 103.634 195.264L103.559 194.852L103.483 195.264C103.396 195.736 103.027 196.104 102.556 196.191L102.144 196.267L102.556 196.343C103.027 196.429 103.396 196.798 103.483 197.27L103.559 197.681L103.634 197.27C103.721 196.798 104.09 196.429 104.562 196.343L104.973 196.267L104.562 196.191Z" fill="white"/>
<path d="M88.9943 186.022C92.2054 186.514 94.4618 188.481 94.4618 191.576C94.4618 195.482 91.2507 198.201 86.2172 198.201C83.2665 198.201 80.2002 197.217 78.233 195.713L80.3737 191.634C81.9648 193.283 83.874 194.151 85.8122 194.151C88.0397 194.151 89.2836 193.225 89.2836 191.634C89.2836 190.014 88.0397 189.175 85.7833 189.175H82.3698V186.34L87.114 181.799H79.3034L79.2744 177.72H93.4493V180.786L87.9819 185.877L88.9943 186.022Z" fill="#A53C00"/>
</svg>
