<svg width="99" height="119" viewBox="0 0 99 119" fill="none" xmlns="http://www.w3.org/2000/svg">
<path d="M79.303 92.3318H19.4917C17.7774 92.3318 16.3877 93.7203 16.3877 95.4332V115.279C16.3877 116.992 17.7774 118.38 19.4917 118.38H79.303C81.0173 118.38 82.4071 116.992 82.4071 115.279V95.4332C82.4071 93.7203 81.0173 92.3318 79.303 92.3318Z" fill="#644123"/>
<path d="M66.5964 92.3318H58.0908V118.38H66.5964V92.3318Z" fill="#78502D"/>
<path d="M72.4945 98.0474H26.3091V112.664H72.4945V98.0474Z" fill="#BEC3C8"/>
<path d="M61.3637 98.0474H55.0806V112.664H61.3637V98.0474Z" fill="#EBF0F5"/>
<path fill-rule="evenodd" clip-rule="evenodd" d="M79.895 14.5237C78.404 14.5331 77.1755 13.3338 77.1661 11.8439C77.1567 10.3541 78.3571 9.12667 79.8481 9.1173C81.0766 9.10793 82.5771 9.00486 84.0775 8.91117C87.8286 8.66755 91.5422 8.42393 94.3461 9.48273C98.3504 11.0007 100.188 14.2614 97.5627 21.1764C95.1339 27.5479 88.8414 35.7091 81.9487 42.0338C75.4125 48.0306 68.1447 52.5188 62.7244 52.6031C61.2333 52.6218 60.0048 51.4225 59.9861 49.9327C59.9673 48.4428 61.1677 47.2154 62.6587 47.1966C66.6255 47.1404 72.5991 43.2519 78.2727 38.0516C84.6214 32.2235 90.3606 24.8681 92.4893 19.2743C93.6709 16.1728 93.399 14.9267 92.4425 14.5612C90.7357 13.9147 87.5942 14.1208 84.4245 14.327C82.9522 14.4207 81.4705 14.5237 79.895 14.5331V14.5237Z" fill="#BEC3C8"/>
<path fill-rule="evenodd" clip-rule="evenodd" d="M18.9393 9.10794C20.4304 9.11731 21.6401 10.3448 21.6214 11.8346C21.612 13.3244 20.3835 14.5331 18.8924 14.5144C17.317 14.4956 15.8353 14.4019 14.363 14.3082C11.1933 14.1021 8.05175 13.896 6.345 14.5425C5.37909 14.9079 5.11652 16.1541 6.29811 19.2556C8.42686 24.8588 14.166 32.2048 20.5148 38.0329C26.1883 43.2332 32.1619 47.1123 36.1287 47.1779C37.6198 47.1966 38.8201 48.4241 38.8014 49.9139C38.7826 51.4037 37.5542 52.6031 36.0631 52.5844C30.6427 52.5 23.375 48.0212 16.8387 42.0151C9.93668 35.681 3.64421 27.5292 1.22475 21.1577C-1.40102 14.2427 0.437014 10.9819 4.44131 9.464C7.24526 8.39583 10.9589 8.64881 14.71 8.89243C16.2104 8.9955 17.7108 9.0892 18.9393 9.09857V9.10794Z" fill="#BEC3C8"/>
<path fill-rule="evenodd" clip-rule="evenodd" d="M45.8814 51.4507C45.3563 63.6409 44.3904 77.1617 35.5284 83.6832C31.3928 86.6441 25.5786 85.8008 25.5786 92.3316H73.2363C73.2363 85.8102 67.4128 86.6535 63.2865 83.6832C54.4246 77.1617 53.4587 63.6409 52.9335 51.4507H45.8908H45.8814Z" fill="#91969B"/>
<path fill-rule="evenodd" clip-rule="evenodd" d="M72.2982 88.7147C70.4883 85.988 66.3996 85.9318 63.2768 83.683C56.1591 78.4453 54.1335 68.6912 53.3363 58.7309C51.9391 58.9558 47.8973 57.8595 47.8973 59.4524C47.8785 63.7345 47.7097 67.9416 47.2971 71.802C46.6781 77.705 45.3653 81.7154 41.1453 85.9693C39.6073 87.5247 39.9168 88.621 47.0626 88.7053C56.6655 88.8178 67.6937 88.8084 70.2819 88.8084C76.0961 88.8084 71.6323 88.7709 72.2982 88.7053V88.7147Z" fill="#BEC3C8"/>
<path fill-rule="evenodd" clip-rule="evenodd" d="M52.5209 62.1137C52.399 62.0856 51.6019 60.9893 51.4331 61.8326C51.0861 63.5754 51.3675 68.401 51.4519 71.5867C51.5738 76.3092 51.4519 83.2804 54.8654 84.9389C58.2695 86.5973 65.6123 86.7847 62.8833 84.6952C59.498 82.1092 56.8066 79.0171 54.6591 74.2572C52.5116 69.4972 52.9242 62.2074 52.5116 62.1137H52.5209Z" fill="#EBF0F5"/>
<path fill-rule="evenodd" clip-rule="evenodd" d="M19.4645 2.03365C18.1329 2.22105 17.0357 3.14867 17.0732 4.49794C18.0204 37.4613 37.8262 63.7814 49.3983 63.7814C60.9705 63.7814 80.7763 37.4519 81.7234 4.49794C81.7609 3.14867 80.6731 2.21168 79.3321 2.03365C58.6823 -0.62741 38.7077 -0.692999 19.4551 2.03365H19.4645Z" fill="#91969B"/>
<path fill-rule="evenodd" clip-rule="evenodd" d="M54.6872 62.2729C66.1562 56.248 80.8981 32.8233 81.7139 4.48863C81.7514 3.13936 80.6636 2.20237 79.3226 2.02434C61.3361 -0.299397 43.8653 -0.646087 26.9385 1.10609C29.4798 26.2362 39.9267 63.0506 54.6779 62.2635L54.6872 62.2729Z" fill="#BEC3C8"/>
<path fill-rule="evenodd" clip-rule="evenodd" d="M78.9762 1.987C75.5158 1.54661 72.0648 1.17182 68.6419 0.881348C68.6513 3.61736 68.5575 7.34659 68.2199 13.4464C67.1696 32.7203 60.5021 46.6065 63.803 47.4873C67.104 48.3681 72.9182 33.7791 76.7818 14.8987C77.7102 10.3731 78.4417 6.01606 78.9669 1.987H78.9762Z" fill="#EBF0F5"/>
<path fill-rule="evenodd" clip-rule="evenodd" d="M44.3524 24.4089L48.3004 24.6619C48.7881 24.69 48.9944 25.2991 48.6286 25.6176L45.5152 28.3256L46.4999 32.1485C46.6218 32.617 46.106 33.0011 45.684 32.7575L42.1486 30.6399L38.8101 32.7481C38.3975 33.0105 37.8817 32.6357 37.9849 32.1578L38.9133 28.1475L35.8749 25.627C35.4998 25.3084 35.6873 24.6994 36.175 24.6525L40.2824 24.2965L41.7454 20.6235C41.9235 20.1644 42.5706 20.155 42.7582 20.6141L44.3711 24.4089H44.3524ZM58.6722 24.4089L62.6202 24.6619C63.1079 24.69 63.3142 25.2991 62.9485 25.6176L59.835 28.3256L60.8197 32.1485C60.9416 32.617 60.4258 33.0011 60.0038 32.7575L56.4684 30.6399L53.13 32.7481C52.7173 33.0105 52.2016 32.6357 52.3047 32.1578L53.2331 28.1475L50.1947 25.627C49.8196 25.3084 50.0072 24.6994 50.4948 24.6525L54.6023 24.2965L56.0652 20.6235C56.2434 20.1644 56.8904 20.155 57.078 20.6141L58.691 24.4089H58.6722Z" fill="white"/>
</svg>
