<svg width="179" height="235" viewBox="0 0 179 235" fill="none" xmlns="http://www.w3.org/2000/svg">
<path d="M178 160.361H8V234.361H178V160.361Z" fill="#D2D2D2"/>
<path d="M178 154.24H5.04741C2.2598 154.24 0 155.949 0 158.057V161.423C0 163.531 2.2598 165.24 5.04741 165.24H178V154.24Z" fill="#D2D2D2"/>
<path opacity="0.25" fill-rule="evenodd" clip-rule="evenodd" d="M8 165.24V167.561H115.13L178.33 233.861V167.561V165.24H8Z" fill="black"/>
<path d="M132.755 120.22H55.2569C53.0357 120.22 51.235 122.02 51.235 124.239V149.953C51.235 152.173 53.0357 153.972 55.2569 153.972H132.755C134.977 153.972 136.777 152.173 136.777 149.953V124.239C136.777 122.02 134.977 120.22 132.755 120.22Z" fill="#644123"/>
<path d="M116.291 120.22H105.27V153.972H116.291V120.22Z" fill="#78502D"/>
<path d="M123.934 127.626H64.0908V146.566H123.934V127.626Z" fill="#BEC3C8"/>
<path d="M109.511 127.626H101.37V146.566H109.511V127.626Z" fill="#EBF0F5"/>
<path fill-rule="evenodd" clip-rule="evenodd" d="M133.521 19.4037C131.589 19.4159 129.997 17.8619 129.985 15.9315C129.973 14.0011 131.528 12.4107 133.46 12.3985C135.052 12.3864 136.996 12.2528 138.94 12.1314C143.8 11.8158 148.612 11.5001 152.245 12.872C157.434 14.8388 159.815 19.0638 156.413 28.0237C153.266 36.2794 145.113 46.854 136.182 55.049C127.713 62.819 118.296 68.6345 111.272 68.7437C109.34 68.768 107.749 67.214 107.724 65.2836C107.7 63.3532 109.255 61.7628 111.187 61.7385C116.327 61.6657 124.067 56.6273 131.419 49.8892C139.645 42.3376 147.081 32.8071 149.839 25.5591C151.37 21.5405 151.018 19.9258 149.779 19.4523C147.567 18.6146 143.497 18.8817 139.39 19.1488C137.482 19.2702 135.562 19.4037 133.521 19.4159V19.4037Z" fill="#BEC3C8"/>
<path fill-rule="evenodd" clip-rule="evenodd" d="M54.54 12.3862C56.472 12.3984 58.0394 13.9888 58.0151 15.9192C58.003 17.8496 56.4112 19.4157 54.4792 19.3914C52.4379 19.3672 50.518 19.2458 48.6103 19.1243C44.5033 18.8573 40.4328 18.5902 38.2213 19.4279C36.9698 19.9014 36.6295 21.5161 38.1606 25.5347C40.9188 32.7948 48.3552 42.3132 56.5813 49.8647C63.9326 56.6028 71.6727 61.6291 76.8126 61.7141C78.7445 61.7384 80.2999 63.3288 80.2756 65.2592C80.2513 67.1896 78.6595 68.7436 76.7275 68.7193C69.7043 68.61 60.2873 62.8068 51.8182 55.0245C42.8751 46.8174 34.7219 36.2549 31.5869 27.9992C28.1847 19.0394 30.5662 14.8144 35.7547 12.8476C39.3878 11.4635 44.1996 11.7913 49.0599 12.107C51.0041 12.2405 52.9482 12.362 54.54 12.3741V12.3862Z" fill="#BEC3C8"/>
<path fill-rule="evenodd" clip-rule="evenodd" d="M89.4496 67.2505C88.7691 83.0456 87.5176 100.565 76.035 109.015C70.6764 112.851 63.1429 111.758 63.1429 120.221H124.894C124.894 111.771 117.348 112.863 112.002 109.015C100.519 100.565 99.2675 83.0456 98.587 67.2505H89.4617H89.4496Z" fill="#91969B"/>
<path fill-rule="evenodd" clip-rule="evenodd" d="M123.679 115.534C121.334 112.001 116.036 111.928 111.99 109.014C102.767 102.228 100.142 89.5893 99.1095 76.6837C97.2991 76.975 92.062 75.5546 92.062 77.6185C92.0377 83.1668 91.819 88.618 91.2844 93.62C90.4824 101.269 88.7813 106.465 83.3134 111.977C81.3206 113.992 81.7216 115.413 90.9806 115.522C103.423 115.668 117.713 115.655 121.066 115.655C128.6 115.655 122.816 115.607 123.679 115.522V115.534Z" fill="#BEC3C8"/>
<path fill-rule="evenodd" clip-rule="evenodd" d="M98.0524 81.0666C97.8944 81.0302 96.8616 79.6097 96.6429 80.7024C96.1933 82.9606 96.5578 89.2131 96.6672 93.3409C96.8251 99.4598 96.6672 108.493 101.09 110.641C105.501 112.79 115.015 113.033 111.479 110.326C107.093 106.975 103.605 102.969 100.823 96.801C98.0402 90.6335 98.5749 81.188 98.0402 81.0666H98.0524Z" fill="#EBF0F5"/>
<path fill-rule="evenodd" clip-rule="evenodd" d="M55.2204 3.22C53.495 3.46281 52.0733 4.66475 52.1219 6.41302C53.3492 49.1242 79.0119 83.2275 94.0061 83.2275C109 83.2275 134.663 49.112 135.89 6.41302C135.939 4.66475 134.529 3.45067 132.792 3.22C106.035 -0.227976 80.1541 -0.312961 55.2083 3.22H55.2204Z" fill="#91969B"/>
<path fill-rule="evenodd" clip-rule="evenodd" d="M100.859 81.2729C115.72 73.4664 134.821 43.1146 135.878 6.40094C135.927 4.65268 134.517 3.43861 132.78 3.20793C109.474 0.197027 86.837 -0.252185 64.9047 2.01813C68.1976 34.5796 81.7337 82.2806 100.847 81.2608L100.859 81.2729Z" fill="#BEC3C8"/>
<path fill-rule="evenodd" clip-rule="evenodd" d="M132.33 3.15942C127.846 2.5888 123.375 2.10317 118.94 1.72681C118.952 5.2719 118.83 10.1039 118.393 18.0075C117.032 42.9811 108.393 60.9736 112.67 62.1149C116.947 63.2561 124.481 44.353 129.487 19.8894C130.69 14.0254 131.637 8.37994 132.318 3.15942H132.33Z" fill="#EBF0F5"/>
<path fill-rule="evenodd" clip-rule="evenodd" d="M87.469 32.2123L92.5845 32.5401C93.2164 32.5765 93.4837 33.3656 93.0098 33.7784L88.9757 37.2871L90.2515 42.2405C90.4095 42.8475 89.7412 43.3453 89.1944 43.0297L84.6135 40.2858L80.2878 43.0175C79.7532 43.3575 79.0849 42.8718 79.2185 42.2526L80.4215 37.0564L76.4846 33.7905C75.9985 33.3778 76.2416 32.5886 76.8734 32.5279L82.1955 32.0666L84.091 27.3074C84.3219 26.7125 85.1603 26.7004 85.4033 27.2952L87.4933 32.2123H87.469ZM106.023 32.2123L111.139 32.5401C111.771 32.5765 112.038 33.3656 111.564 33.7784L107.53 37.2871L108.806 42.2405C108.964 42.8475 108.296 43.3453 107.749 43.0297L103.168 40.2858L98.8422 43.0175C98.3076 43.3575 97.6393 42.8718 97.7729 42.2526L98.9759 37.0564L95.039 33.7905C94.5529 33.3778 94.796 32.5886 95.4278 32.5279L100.75 32.0666L102.645 27.3074C102.876 26.7125 103.715 26.7004 103.958 27.2952L106.048 32.2123H106.023Z" fill="white"/>
<path d="M86.4893 227.914L81.6973 218.098L71 220.309L83.0334 195.801L98.5227 203.407L86.4893 227.914Z" fill="#717171"/>
<path d="M73.9486 219.7L72.6979 219.958L84.263 196.405L85.1688 196.849L73.9486 219.7Z" fill="white"/>
<path d="M85.1696 225.208L85.7292 226.355L97.2943 202.803L96.3885 202.358L85.1696 225.208Z" fill="white"/>
<path d="M100.855 227.914L105.647 218.098L116.345 220.309L104.311 195.801L88.8218 203.407L100.855 227.914Z" fill="#717171"/>
<path d="M113.397 219.7L114.646 219.958L103.082 196.405L102.177 196.849L113.397 219.7Z" fill="white"/>
<path d="M102.175 225.208L101.615 226.356L90.0504 202.803L90.9549 202.359L102.175 225.208Z" fill="white"/>
<path d="M113.546 186.259C112.456 183.683 110.896 181.369 108.909 179.382C106.922 177.395 104.608 175.835 102.032 174.745C99.3655 173.618 96.532 173.045 93.6108 173.045C90.6895 173.045 87.8572 173.617 85.1897 174.745C82.6135 175.835 80.2993 177.395 78.3123 179.382C76.3253 181.369 74.7651 183.683 73.6756 186.259C72.5482 188.926 71.9755 191.759 71.9755 194.68C71.9755 197.602 72.547 200.434 73.6756 203.101C74.7651 205.678 76.3253 207.992 78.3123 209.979C80.2993 211.966 82.6135 213.526 85.1897 214.616C87.8561 215.743 90.6895 216.316 93.6108 216.316C96.532 216.316 99.3643 215.744 102.032 214.616C104.608 213.526 106.921 211.966 108.909 209.979C110.896 207.992 112.456 205.678 113.546 203.101C114.673 200.435 115.246 197.602 115.246 194.68C115.246 191.759 114.675 188.927 113.546 186.259ZM93.6119 213.683C83.1352 213.683 74.611 205.158 74.611 194.682C74.611 184.205 83.1352 175.681 93.6119 175.681C104.089 175.681 112.613 184.205 112.613 194.682C112.613 205.158 104.089 213.683 93.6119 213.683Z" fill="#D0D9DB"/>
<path d="M93.6149 175.681C83.1381 175.681 74.614 184.205 74.614 194.681C74.614 205.158 83.1381 213.682 93.6149 213.682C104.092 213.682 112.616 205.158 112.616 194.681C112.616 184.205 104.092 175.681 93.6149 175.681ZM93.6149 213.101C83.4416 213.101 75.1949 204.855 75.1949 194.681C75.1949 184.508 83.4416 176.261 93.6149 176.261C103.788 176.261 112.035 184.508 112.035 194.681C112.035 204.855 103.788 213.101 93.6149 213.101Z" fill="#677376"/>
<path d="M93.6141 172.52C81.3756 172.52 71.4536 182.442 71.4536 194.68C71.4536 206.919 81.3756 216.841 93.6141 216.841C105.853 216.841 115.775 206.919 115.775 194.68C115.775 182.442 105.853 172.52 93.6141 172.52ZM108.911 209.979C106.924 211.966 104.61 213.526 102.034 214.616C99.3676 215.743 96.5341 216.316 93.6129 216.316C90.6917 216.316 87.8594 215.744 85.1919 214.616C82.6157 213.526 80.3015 211.966 78.3145 209.979C76.3275 207.992 74.7673 205.678 73.6778 203.101C72.5503 200.435 71.9777 197.602 71.9777 194.68C71.9777 191.759 72.5491 188.927 73.6778 186.259C74.7673 183.683 76.3275 181.369 78.3145 179.382C80.3015 177.395 82.6157 175.835 85.1919 174.745C87.8582 173.618 90.6917 173.045 93.6129 173.045C96.5341 173.045 99.3664 173.617 102.034 174.745C104.61 175.835 106.923 177.395 108.911 179.382C110.898 181.369 112.459 183.683 113.548 186.259C114.676 188.926 115.248 191.759 115.248 194.68C115.248 197.602 114.677 200.434 113.548 203.101C112.459 205.678 110.898 207.992 108.911 209.979Z" fill="#677376"/>
<path d="M112.032 194.681C112.032 184.507 103.785 176.261 93.6116 176.261C83.4385 176.261 75.1916 184.508 75.1916 194.681C75.1916 204.854 83.4385 213.101 93.6116 213.101C103.785 213.101 112.032 204.854 112.032 194.681Z" fill="#D0D9DB"/>
<g style="mix-blend-mode:multiply" opacity="0.25">
<path d="M93.6115 172.52C93.5558 172.52 93.5 172.521 93.4455 172.522L71.5388 192.724C71.4949 193.226 71.4676 193.732 71.457 194.243L94.9666 172.564C94.5184 172.537 94.0667 172.521 93.6115 172.521V172.52Z" fill="#677376"/>
<path d="M72.551 187.774L88.4292 173.131C80.9376 174.926 74.9269 180.525 72.551 187.774Z" fill="#677376"/>
<path d="M98.3021 173.019L71.6437 197.603C71.959 199.999 72.6573 202.274 73.6745 204.364L104.874 175.593C102.865 174.405 100.653 173.525 98.3009 173.019H98.3021Z" fill="#677376"/>
<path d="M107.764 177.629L75.4704 207.409C78.3952 211.569 82.713 214.677 87.748 216.055L115.389 190.565C114.418 185.396 111.654 180.859 107.764 177.629Z" fill="#677376"/>
<path d="M115.77 194.681C115.77 194.668 115.77 194.655 115.77 194.641L91.7794 216.764C92.384 216.814 92.9945 216.84 93.611 216.84C93.7367 216.84 93.8624 216.838 93.9881 216.835L115.666 196.845C115.735 196.132 115.771 195.41 115.771 194.68L115.77 194.681Z" fill="#677376"/>
<path d="M114.875 200.935L98.1277 216.378C106.154 214.716 112.59 208.713 114.875 200.935Z" fill="#677376"/>
</g>
<path d="M83.1248 181.853C81.9143 181.631 80.9671 180.684 80.7442 179.472L80.551 178.416L80.3577 179.472C80.136 180.683 79.1887 181.63 77.9771 181.853L76.9208 182.046L77.9771 182.24C79.1876 182.461 80.1348 183.409 80.3577 184.62L80.551 185.676L80.7442 184.62C80.9659 183.41 81.9132 182.462 83.1248 182.24L84.1811 182.046L83.1248 181.853Z" fill="white"/>
<path d="M110.108 200.762C108.898 200.54 107.95 199.593 107.727 198.382L107.534 197.325L107.341 198.382C107.119 199.592 106.172 200.539 104.96 200.762L103.904 200.955L104.96 201.149C106.171 201.37 107.118 202.318 107.341 203.529L107.534 204.586L107.727 203.529C107.949 202.319 108.896 201.372 110.108 201.149L111.164 200.955L110.108 200.762Z" fill="white"/>
<path d="M86.2973 178.34C85.8254 178.254 85.4567 177.885 85.3702 177.413L85.2943 177.002L85.2184 177.413C85.1319 177.885 84.7632 178.254 84.2913 178.34L83.8799 178.416L84.2913 178.492C84.7632 178.579 85.1319 178.947 85.2184 179.419L85.2943 179.831L85.3702 179.419C85.4567 178.947 85.8254 178.579 86.2973 178.492L86.7087 178.416L86.2973 178.34Z" fill="white"/>
<path d="M80.2279 188.606C79.756 188.52 79.3873 188.151 79.3008 187.679L79.2249 187.268L79.149 187.679C79.0625 188.151 78.6938 188.52 78.2219 188.606L77.8105 188.682L78.2219 188.758C78.6938 188.844 79.0625 189.213 79.149 189.685L79.2249 190.096L79.3008 189.685C79.3873 189.213 79.756 188.844 80.2279 188.758L80.6393 188.682L80.2279 188.606Z" fill="white"/>
<path d="M111.542 203.268C111.071 203.181 110.702 202.813 110.615 202.341L110.539 201.929L110.463 202.341C110.377 202.813 110.008 203.181 109.536 203.268L109.125 203.344L109.536 203.42C110.008 203.506 110.377 203.875 110.463 204.347L110.539 204.758L110.615 204.347C110.702 203.875 111.071 203.506 111.542 203.42L111.954 203.344L111.542 203.268Z" fill="white"/>
<path d="M93.1548 193.99C94.283 192.832 95.1219 191.531 95.1219 190.663C95.1219 189.564 94.283 188.927 92.8076 188.927C91.1587 188.927 89.0759 189.911 87.1955 191.502L85.1995 187.596C87.803 185.687 90.638 184.53 93.5887 184.53C97.6965 184.53 100.676 186.671 100.676 189.882C100.676 192.08 98.9983 194.366 96.7419 196.651L92.5762 200.817H101.255V205.069H85.807L85.7781 201.569L93.1548 193.99Z" fill="#536265"/>
</svg>
