<svg width="99" height="119" viewBox="0 0 99 119" fill="none" xmlns="http://www.w3.org/2000/svg">
<path d="M79.3039 92.3315H19.4927C17.7784 92.3315 16.3887 93.7201 16.3887 95.433V115.278C16.3887 116.991 17.7784 118.38 19.4927 118.38H79.3039C81.0182 118.38 82.408 116.991 82.408 115.278V95.433C82.408 93.7201 81.0182 92.3315 79.3039 92.3315Z" fill="#644123"/>
<path d="M66.5969 92.3315H58.0913V118.38H66.5969V92.3315Z" fill="#78502D"/>
<path d="M72.4862 98.0474H26.3008V112.664H72.4862V98.0474Z" fill="#DC6E00"/>
<path d="M61.3642 98.0474H55.0811V112.664H61.3642V98.0474Z" fill="#F5B98C"/>
<path fill-rule="evenodd" clip-rule="evenodd" d="M79.894 14.5237C78.403 14.5331 77.1745 13.3338 77.1651 11.8439C77.1557 10.3541 78.3561 9.12667 79.8471 9.1173C81.0756 9.10793 82.5761 9.00486 84.0765 8.91117C87.8276 8.66755 91.5412 8.42393 94.3451 9.48273C98.3494 11.0007 100.187 14.2614 97.5617 21.1764C95.1329 27.5479 88.8404 35.7091 81.9477 42.0338C75.4115 48.0305 68.1437 52.5187 62.7234 52.603C61.2323 52.6218 60.0038 51.4224 59.9851 49.9326C59.9663 48.4428 61.1667 47.2153 62.6577 47.1966C66.6245 47.1404 72.5981 43.2519 78.2717 38.0516C84.6204 32.2235 90.3596 24.8681 92.4883 19.2743C93.6699 16.1728 93.398 14.9266 92.4414 14.5612C90.7347 13.9147 87.5932 14.1208 84.4235 14.327C82.9512 14.4207 81.4695 14.5237 79.894 14.5331V14.5237Z" fill="#DC6E00"/>
<path fill-rule="evenodd" clip-rule="evenodd" d="M18.9393 9.10794C20.4304 9.11731 21.6401 10.3448 21.6213 11.8346C21.612 13.3244 20.3835 14.5331 18.8924 14.5144C17.3169 14.4956 15.8353 14.4019 14.363 14.3082C11.1933 14.1021 8.05175 13.896 6.345 14.5425C5.37909 14.9079 5.11651 16.1541 6.29811 19.2556C8.42686 24.8588 14.166 32.2048 20.5148 38.0329C26.1883 43.2332 32.1619 47.1123 36.1287 47.1779C37.6198 47.1966 38.8201 48.4241 38.8014 49.9139C38.7826 51.4037 37.5541 52.6031 36.0631 52.5843C30.6427 52.5 23.375 48.0212 16.8387 42.0151C9.93666 35.681 3.6442 27.5292 1.22475 21.1576C-1.40102 14.2427 0.43701 10.9819 4.44131 9.464C7.24525 8.39583 10.9588 8.64881 14.7099 8.89243C16.2104 8.9955 17.7108 9.0892 18.9393 9.09857V9.10794Z" fill="#DC6E00"/>
<path fill-rule="evenodd" clip-rule="evenodd" d="M45.8814 51.4507C45.3563 63.6409 44.3904 77.1617 35.5284 83.6832C31.3928 86.6441 25.5786 85.8008 25.5786 92.3316H73.2363C73.2363 85.8101 67.4127 86.6534 63.2865 83.6832C54.4245 77.1617 53.4587 63.6409 52.9335 51.4507H45.8908H45.8814Z" fill="#A53C00"/>
<path fill-rule="evenodd" clip-rule="evenodd" d="M72.2981 88.7147C70.4882 85.988 66.3995 85.9318 63.2767 83.683C56.159 78.4452 54.1334 68.6912 53.3363 58.7309C51.939 58.9558 47.8972 57.8595 47.8972 59.4524C47.8785 63.7345 47.7097 67.9416 47.2971 71.802C46.6781 77.705 45.3653 81.7153 41.1453 85.9693C39.6073 87.5247 39.9168 88.621 47.0626 88.7053C56.6654 88.8177 67.6937 88.8084 70.2819 88.8084C76.0961 88.8084 71.6323 88.7709 72.2981 88.7053V88.7147Z" fill="#DC6E00"/>
<path fill-rule="evenodd" clip-rule="evenodd" d="M52.5112 62.1135C52.3893 62.0854 51.5922 60.9891 51.4234 61.8324C51.0764 63.5752 51.3577 68.4007 51.4421 71.5865C51.564 76.3089 51.4421 83.2801 54.8556 84.9386C58.2597 86.5971 65.6025 86.7845 62.8736 84.695C59.4882 82.1089 56.7968 79.0168 54.6493 74.2569C52.5018 69.497 52.9144 62.2072 52.5018 62.1135H52.5112Z" fill="#F5B98C"/>
<path fill-rule="evenodd" clip-rule="evenodd" d="M19.4547 2.03364C18.1231 2.22104 17.0259 3.14867 17.0634 4.49794C18.0106 37.4613 37.8163 63.7813 49.3885 63.7813C60.9606 63.7813 80.7664 37.4519 81.7136 4.49794C81.7511 3.14867 80.6633 2.21167 79.3223 2.03364C58.6725 -0.627409 38.6979 -0.692999 19.4454 2.03364H19.4547Z" fill="#A53C00"/>
<path fill-rule="evenodd" clip-rule="evenodd" d="M54.6867 62.2728C66.1557 56.248 80.8975 32.8232 81.7134 4.48862C81.7509 3.13936 80.6631 2.20237 79.322 2.02434C61.3355 -0.299397 43.8648 -0.646087 26.938 1.10609C29.4794 26.2362 39.9261 63.0506 54.6773 62.2635L54.6867 62.2728Z" fill="#DC6E00"/>
<path fill-rule="evenodd" clip-rule="evenodd" d="M78.9747 1.987C75.5144 1.54661 72.0634 1.17181 68.6405 0.881348C68.6499 3.61736 68.5561 7.34658 68.2185 13.4464C67.1682 32.7203 60.5006 46.6065 63.8016 47.4873C67.1025 48.368 72.9167 33.7791 76.7804 14.8987C77.7088 10.3731 78.4402 6.01606 78.9654 1.987H78.9747Z" fill="#F5B98C"/>
<path fill-rule="evenodd" clip-rule="evenodd" d="M37.1981 24.5779L41.1461 24.8309C41.6338 24.859 41.8401 25.468 41.4743 25.7866L38.3609 28.4945L39.3456 32.3174C39.4675 32.7859 38.9517 33.1701 38.5297 32.9265L34.9943 30.8089L31.6558 32.9171C31.2432 33.1794 30.7274 32.8046 30.8306 32.3268L31.759 28.3165L28.7206 25.796C28.3455 25.4774 28.5331 24.8683 29.0207 24.8215L33.1281 24.4654L34.591 20.7924C34.7692 20.3333 35.4163 20.3239 35.6039 20.7831L37.2168 24.5779H37.1981ZM65.8189 24.5779L69.767 24.8309C70.2546 24.859 70.4609 25.468 70.0952 25.7866L66.9818 28.4945L67.9665 32.3174C68.0884 32.7859 67.5726 33.1701 67.1506 32.9265L63.6152 30.8089L60.2767 32.9171C59.8641 33.1794 59.3483 32.8046 59.4515 32.3268L60.3798 28.3165L57.3415 25.796C56.9664 25.4774 57.1539 24.8683 57.6416 24.8215L61.749 24.4654L63.2119 20.7924C63.3901 20.3333 64.0372 20.3239 64.2247 20.7831L65.8377 24.5779H65.8189ZM51.5085 24.5779L55.4565 24.8309C55.9442 24.859 56.1505 25.468 55.7848 25.7866L52.6713 28.4945L53.656 32.3174C53.7779 32.7859 53.2622 33.1701 52.8402 32.9265L49.3047 30.8089L45.9663 32.9171C45.5536 33.1794 45.0379 32.8046 45.141 32.3268L46.0694 28.3165L43.031 25.796C42.6559 25.4774 42.8435 24.8683 43.3311 24.8215L47.4386 24.4654L48.9015 20.7924C49.0797 20.3333 49.7268 20.3239 49.9143 20.7831L51.5273 24.5779H51.5085Z" fill="#FAD7BE"/>
</svg>
