<svg width="23" height="25" viewBox="0 0 23 25" fill="none" xmlns="http://www.w3.org/2000/svg">
<path d="M0.84848 11.5706C0.84848 17.5949 5.72635 22.4727 11.7379 22.4727C17.7495 22.4727 22.6274 17.5949 22.6274 11.5706V14.0228C22.6274 20.0471 17.7495 24.925 11.7379 24.925C5.72635 24.925 0.84848 20.0471 0.84848 14.0228V11.5706Z" fill="#FFB961"/>
<path d="M0.84848 11.5706C0.84848 17.5949 5.72635 22.4727 11.7379 22.4727C17.7495 22.4727 22.6274 17.5949 22.6274 11.5706V14.0228C22.6274 20.0471 17.7495 24.925 11.7379 24.925C5.72635 24.925 0.84848 20.0471 0.84848 14.0228V11.5706Z" fill="#36712D"/>
<path d="M5.71805 20.6529V23.1052C7.44323 24.2532 9.51146 24.925 11.7374 24.925C17.749 24.925 22.6268 20.0471 22.6268 14.0228V11.5706C22.6268 20.3104 12.8827 25.4213 5.71805 20.6529Z" fill="#4B9534"/>
<path d="M13.6489 22.2946V24.7468C18.7481 23.841 22.6267 19.3925 22.6267 14.0228V11.5706C22.6267 16.9403 18.7481 21.3888 13.6489 22.2946Z" fill="#36712D"/>
<path d="M19.7417 18.9399V21.3921C21.5277 19.4534 22.6266 16.8711 22.6266 14.0228V11.5706C22.6266 14.4189 21.5277 17.0017 19.7417 18.9405V18.9399Z" fill="#4B9534"/>
<path d="M22.6272 11.571C22.6272 17.5942 17.7482 22.4732 11.7405 22.4732C6.32376 22.4732 1.83098 18.5182 0.989965 13.3366C-0.118843 6.85526 4.92004 0.684326 11.7405 0.684326C17.7759 0.684326 22.6272 5.58654 22.6272 11.571Z" fill="#6EB954"/>
<g opacity="0.4">
<path d="M3.50247 17.0985C7.87795 22.5374 15.6197 22.5064 19.9764 17.0985C18.4869 19.8052 15.3973 21.8259 11.7394 21.8403C8.08544 21.8242 4.99638 19.8086 3.50247 17.0985Z" fill="white"/>
</g>
<g opacity="0.2">
<path d="M20.961 7.56951C20.0586 5.84267 18.7229 4.3803 17.1078 3.38492C15.4933 2.39286 13.6209 1.84786 11.7375 1.85616C9.85408 1.84897 7.98228 2.39341 6.36776 3.38603C4.75268 4.38141 3.41757 5.84377 2.51404 7.57006C2.83163 6.6455 3.32739 5.78236 3.92107 4.99114C4.53247 4.21265 5.26337 3.52324 6.07949 2.94837C7.71338 1.79308 9.72683 1.18003 11.7375 1.17505C13.7482 1.18058 15.7611 1.79308 17.395 2.94892C19.035 4.08816 20.3147 5.72316 20.961 7.56951Z" fill="white"/>
</g>
<g opacity="0.4">
<path d="M3.50247 17.0985C7.87795 22.5374 15.6197 22.5064 19.9764 17.0985C18.4869 19.8052 15.3973 21.8259 11.7394 21.8403C8.08544 21.8242 4.99638 19.8086 3.50247 17.0985Z" fill="white"/>
</g>
<path d="M19.9969 11.572C19.9969 16.1417 16.297 19.8416 11.7372 19.8416C7.1775 19.8416 3.4776 16.1417 3.4776 11.572C3.4776 7.00232 7.1775 3.31238 11.7372 3.31238C16.297 3.31238 19.9969 7.01228 19.9969 11.572Z" fill="#4B9534"/>
<path d="M19.963 12.2688C19.6073 8.04164 16.0617 4.70858 11.7366 4.70858C7.41148 4.70858 3.86595 8.04164 3.50962 12.2688C3.0443 7.62058 6.80175 3.31482 11.7366 3.31482C16.6715 3.31482 20.4273 7.6322 19.963 12.2688Z" fill="#36712D"/>
<g opacity="0.2">
<path d="M20.961 7.5689C20.0586 5.84206 18.7229 4.37969 17.1078 3.38431C15.4933 2.39225 13.6209 1.84725 11.7375 1.85555C9.85408 1.84836 7.98228 2.3928 6.36776 3.38542C4.75268 4.3808 3.41757 5.84316 2.51404 7.56945C2.83163 6.64489 3.32739 5.78175 3.92107 4.99053C4.53247 4.21204 5.26337 3.52263 6.07949 2.94776C7.71338 1.79247 9.72683 1.17942 11.7375 1.17444C13.7482 1.17997 15.7611 1.79247 17.395 2.94831C19.035 4.08755 20.3147 5.72255 20.961 7.5689Z" fill="white"/>
</g>
<path d="M13.846 6.64978C13.8982 6.64978 13.947 6.66738 13.9857 6.6947L13.9906 6.69861C14.0672 6.75651 14.1076 6.85826 14.0814 6.9613L13.5121 9.09705C13.4694 9.25304 13.5855 9.40752 13.7464 9.40759H15.2376C15.3052 9.40769 15.363 9.43496 15.4046 9.47595C15.49 9.55839 15.5115 9.70004 15.4271 9.80701V9.80896C13.8074 12.2436 11.8542 14.6993 9.63901 17.1722C9.63329 17.1799 9.62811 17.186 9.62045 17.1918L9.61752 17.1957C9.60402 17.2093 9.589 17.2201 9.57358 17.2289C9.56309 17.2347 9.55182 17.2416 9.54135 17.2465C9.49189 17.2612 9.49155 17.2611 9.49155 17.2611L9.23666 17.308C9.16295 17.3217 9.09276 17.3004 9.04135 17.2592L9.03647 17.2543C8.98319 17.2091 8.9476 17.1423 8.9476 17.0668C8.9476 17.0472 8.9506 17.0287 8.95541 17.0092L9.61069 14.2357L9.79721 13.4457C9.83403 13.2917 9.7178 13.1432 9.56186 13.1429H8.16537C8.00559 13.1427 7.88846 12.9892 7.931 12.8324L9.41147 7.27673L9.52963 6.8324C9.55775 6.72548 9.6535 6.64985 9.76401 6.64978H13.846Z" fill="#36712D"/>
<path d="M15.7421 10.3345C14.1224 12.7692 12.169 15.2245 9.95376 17.6975C9.94794 17.7054 9.94309 17.7113 9.93534 17.7172C9.93534 17.7182 9.93437 17.7201 9.93243 17.7211C9.91885 17.7348 9.9043 17.7456 9.88878 17.7545C9.87811 17.7603 9.86647 17.7672 9.8558 17.7721C9.84029 17.78 9.82283 17.7849 9.80634 17.7868L9.55126 17.8339C9.47754 17.8477 9.40771 17.8261 9.35631 17.7849L9.35146 17.78C9.29811 17.7348 9.26223 17.6681 9.26223 17.5925C9.26223 17.5729 9.26514 17.5543 9.26999 17.5346L9.92564 14.7614L10.1119 13.9714C10.1487 13.8173 10.0323 13.6691 9.87617 13.6691H8.48049C8.32046 13.6691 8.2031 13.515 8.24577 13.358L9.72584 7.80262L9.84417 7.35807C9.87229 7.2511 9.96831 7.17554 10.0789 7.17554H14.1612C14.2136 7.17554 14.262 7.1932 14.3008 7.22068C14.3018 7.22166 14.3047 7.22362 14.3057 7.2246C14.3823 7.2825 14.4221 7.38358 14.3959 7.48662L13.8266 9.62302C13.7839 9.77905 13.9003 9.93312 14.0613 9.93312H15.552C15.6199 9.93312 15.6781 9.9606 15.7198 10.0018C15.8052 10.0842 15.8265 10.2256 15.7421 10.3325V10.3345Z" fill="#FFB961"/>
<path d="M15.7423 10.3348C14.1226 12.7695 12.1692 15.2248 9.95399 17.6978C9.94817 17.7057 9.94332 17.7115 9.93556 17.7174C9.93556 17.7184 9.93459 17.7204 9.93265 17.7214C9.91907 17.7351 9.90452 17.7459 9.88901 17.7547C9.87834 17.7606 9.8667 17.7675 9.85603 17.7724C9.84051 17.7802 9.82305 17.7851 9.80656 17.7871L9.55148 17.8342C9.47777 17.8479 9.40794 17.8264 9.35653 17.7851L9.35168 17.7802C9.29834 17.7351 9.26245 17.6684 9.26245 17.5928C9.26245 17.5732 9.28767 17.4574 9.29252 17.4368L9.40212 17.4829C9.49523 17.5221 9.60095 17.5329 9.69697 17.5015C9.81044 17.4633 9.91228 17.3906 9.98696 17.2915C11.9665 14.9854 13.2516 13.0266 14.5465 10.8951C14.6182 10.7773 14.5319 10.6233 14.3942 10.6233L13.2914 10.4427C13.1682 10.4427 13.0819 10.3171 13.1275 10.2003L14.3011 7.2229C14.3011 7.2229 14.3049 7.22584 14.3059 7.22683C14.3825 7.28473 14.4223 7.3858 14.3961 7.48885L13.8268 9.62524C13.7841 9.78127 13.9005 9.93534 14.0615 9.93534H15.5522C15.6201 9.93534 15.6783 9.96282 15.72 10.004C15.8054 10.0865 15.8267 10.2278 15.7423 10.3348Z" fill="#FFD475"/>
<path d="M11.9091 10.8233H12.3387C12.5531 10.8233 12.6772 11.0687 12.5511 11.2443C11.912 12.4268 11.0653 13.5907 10.0478 14.7389L9.92467 14.7615L10.1109 13.9715C10.1477 13.8174 10.0314 13.6692 9.8752 13.6692H8.48049C8.32046 13.6692 8.2031 13.5152 8.24577 13.3581L9.72584 7.80274L10.0789 7.17664L12.8741 7.2257C12.4968 8.40038 12.1011 9.4985 11.6705 10.4484C11.5929 10.6241 11.719 10.8223 11.91 10.8223L11.9091 10.8233Z" fill="#FFC76B"/>
<path d="M9.35641 10.6186L10.5969 8.73145C10.7424 8.50967 10.9519 8.33891 11.1973 8.24176L12.7423 7.62842L10.6299 7.77268L9.35544 10.6176L9.35641 10.6186Z" fill="#FFDCB0"/>
<path d="M9.35641 10.6186L10.0256 8.24961C10.1294 7.88161 10.4621 7.62842 10.8394 7.62842H12.7423L11.1992 7.88259C10.7967 7.94932 10.4534 8.2133 10.2817 8.58818L9.35544 10.6186H9.35641Z" fill="#FFD475"/>
<path d="M7.60094 5.93693C7.41063 5.94414 7.23743 6.01016 7.09566 6.11778C7.13428 6.19545 7.74767 6.8262 7.6732 6.90775C7.59763 6.97765 6.96714 6.36132 6.89157 6.32304C6.78455 6.46561 6.71836 6.63981 6.71174 6.8312C6.67699 7.63503 6.60086 8.19145 6.51095 8.19145C6.42104 8.19145 6.34823 7.63503 6.31403 6.8312C6.30354 6.63981 6.2379 6.46561 6.1342 6.32304C6.05697 6.36187 5.42924 6.97876 5.3487 6.90387C5.2792 6.82787 5.89204 6.19378 5.9301 6.11778C5.78834 6.01016 5.61182 5.94359 5.42482 5.93693C3.64366 5.85927 3.59898 5.61629 5.42482 5.53696C5.61182 5.52642 5.78834 5.4604 5.9301 5.35611C5.89204 5.27955 5.2792 4.64602 5.3487 4.57002C5.42868 4.49568 6.05752 5.11257 6.1342 5.15085C6.2379 5.00828 6.30354 4.83075 6.31403 4.64269C6.39235 2.81533 6.63451 2.84252 6.71174 4.64269C6.71891 4.83075 6.78455 5.00828 6.89157 5.15085C6.96769 5.11257 7.59708 4.49624 7.6732 4.56614C7.71457 4.61163 7.49007 4.91064 7.12655 5.31395C7.11276 5.32781 7.10228 5.34168 7.09566 5.35555C7.23743 5.45985 7.41063 5.52586 7.60094 5.5364C8.40354 5.57135 8.9535 5.64791 8.9535 5.73445C8.9535 5.82099 8.40354 5.90143 7.60094 5.93638V5.93693Z" fill="white"/>
</svg>
